<?xml version="1.0" encoding="UTF-8"?>
<svg id="Objects"  xmlns="http://www.w3.org/2000/svg" viewBox="0 0 1240.52 754.94">
  <path  stroke="none" fill="white" d="m939.42,524.14c-52.24,4.75-105.18,2.82-157.63-5.8-58.49-9.62-114.9-27.29-167.67-52.53-69.3-33.15-98.7-70.4-110.12-101.25,56.12,4.36,112.62,3.15,168.42-3.91,23-2.91,49.49-7.11,72.91-20.15,25.97-14.46,42.83-37.97,45.11-62.89,2.44-26.71-12.55-55-38.18-72.06-19.84-13.21-45.23-20.34-77.62-21.81-50.99-2.31-98.11,10.22-132.67,35.27-40.83,29.59-63.89,77.84-58.74,122.91.21,1.89.48,3.81.81,5.78-140.09-14.46-276.8-64.22-392.1-144.83-3.4-2.38-8.07-1.55-10.44,1.85-2.37,3.4-1.55,8.07,1.85,10.44,118.8,83.06,259.9,133.94,404.33,147.97,10.81,35.2,41.6,78.72,119.96,116.2,54.05,25.85,111.82,43.96,171.71,53.8,34.65,5.7,69.51,8.55,104.26,8.55,19.33,0,38.63-.89,57.84-2.66l-11.23,38.83,99.25-56.76-109.91-31.48,19.85,34.51Zm-441.28-183.92c-4.55-39.78,16.11-82.59,52.64-109.06,31.82-23.06,75.57-34.58,123.19-32.43,29.58,1.34,52.48,7.65,69.99,19.31,21.11,14.05,33.5,36.9,31.55,58.21-1.8,19.68-16.15,39.28-37.47,51.15-18.96,10.56-40.7,14.98-67.5,18.38-56.64,7.17-114.02,8.2-170.96,3.39-.64-3.08-1.1-6.07-1.43-8.94Z"/>
  
</svg>