<?xml version="1.0" encoding="UTF-8"?>
<svg id="Calque_25" data-name="Calque 25" xmlns="http://www.w3.org/2000/svg" viewBox="0 0 800 513.43">
  <defs>
    <style>
      .cls-1 {
        fill: #a883a0;
      }

      .cls-1, .cls-2, .cls-3, .cls-4, .cls-5 {
        stroke: #1d1d1b;
        stroke-miterlimit: 10;
      }

      .cls-6 {
        fill: #25598a;
      }

      .cls-6, .cls-7, .cls-8, .cls-9, .cls-10 {
        stroke-width: 0px;
      }

      .cls-2 {
        fill: #22315b;
      }

      .cls-7 {
        fill: #030304;
      }

      .cls-3 {
        fill: none;
      }

      .cls-8 {
        fill: #fff;
      }

      .cls-4 {
        fill: #5b8ac2;
      }

      .cls-9 {
        fill: #7ccdf1;
      }

      .cls-5 {
        fill: #223059;
      }

      .cls-10 {
        fill: #1d1d1b;
      }
    </style>
  </defs>
  <g>
    <path class="cls-4" d="m329.8,337.19c-21.45,12.98-24.91,29.99-25.86,33.16-.95,3.17-9.41-1.11-19.57,4.61-10.16,5.71-14.67,15.4-14.67,15.4,0,0-9.15-1.23-15.5.36-2.11.53-2.89,2.18-3.05,4.22,0,0-4.91-.67-9.03,3.62,0,0-2.43-4.36-8.83-.72-2.06,1.17-8.1,6.1-9.01,10.36-1.29,6.07,1.05,6.91,2.49,7.87-.67,2.86-.69,2.9-1.08,3.36-1.19,1.43-6.49,2.73-6.73,5.59s1.44,17.6,9.13,16.52c.78,6.61,10.35,20.71,21.78,25.23,11.43,4.52,27.26,1.13,34.15-4.33,11.62-9.19,19.28-12.62,19.28-12.62l10.51-2.09,15.98-110.55Z"/>
    <path class="cls-6" d="m280.14,441.18c0,10.2-8.9,18.47-19.87,18.47s-22.03-12.69-22.03-22.89,6.06-17.84,17.03-17.84,24.87,12.06,24.87,22.26Z"/>
    <path class="cls-10" d="m254.46,434.06c.47,7.25,4.15,13.34,9.1,18.47-5.9-3.98-10.12-11.21-9.1-18.47h0Z"/>
    <path class="cls-10" d="m227.64,432.35c-.65,5.37,1.87,10.21,2.84,15.36-1.58-1.81-2.42-4.97-2.85-7.42-.41-2.51-.8-5.66.02-7.94h0Z"/>
    <path class="cls-10" d="m226.44,423.88c-1.77-3.13-.85-10.13,3.97-8.99-4.26.5-4.06,5.7-3.97,8.99h0Z"/>
    <path class="cls-10" d="m240.81,404.57c1.62-3.28,1.49-5.37-.89-8.13,0,0,.06-.08.06-.08,2.87.72,3.26,3.9,2.13,6.23-.34.73-.77,1.4-1.21,2.04,0,0-.09-.05-.09-.05h0Z"/>
    <path class="cls-10" d="m254.86,399.91c-3.19.04-5.96-4.42-3.05-6.66,0,0,.08.06.08.06-.34,1.38-.4,2.62-.05,3.95.43,1.26,1.64,2.17,3.03,2.55l-.02.1h0Z"/>
    <path class="cls-10" d="m274.2,408.47c-3.12-13.15,10.62-10.24,16.63-3.9,3.8,3.7,5.96,9.22,4.96,14.52-.78,3.11-4.37,5.48-7.44,4.07,3.02,1.09,6.22-1.25,6.86-4.21.66-5.01-1.42-10.22-5.08-13.67-3.18-3.21-8.92-6.5-13.48-4.91-2.85,1.47-2.82,5.28-2.45,8.11h0Z"/>
    <path class="cls-10" d="m269.22,401.57c1.54-.73,3.2-2.03,3.1-3.85-.54-2.15-.71-4.83-2.17-6.53-.39-.38-.9-.69-1.46-.97,0,0,.02-.1.02-.1.63,0,1.29.14,1.87.5,1.79,1.06,1.94,3.45,2.16,5.21.23,1.17.47,2.71-.39,3.75-.79,1.05-1.93,1.68-3.09,2.08l-.03-.09h0Z"/>
    <path class="cls-10" d="m295.32,436.85c.22-4.79-.35-9.72-2.65-13.99,0,0,.28-.24.28-.24,1.94,1.71,2.56,4.4,2.77,6.86.14,2.17.23,5.51-.41,7.37h0Z"/>
    <path class="cls-3" d="m272.21,398.37c1.34.3,2.53,1.08,3.6,2.25"/>
    <ellipse class="cls-2" cx="285.64" cy="411.65" rx="5.26" ry="8.27" transform="translate(-175.13 214.83) rotate(-32.11)"/>
    <path class="cls-2" d="m261.97,388.07c4.57,0,8.27,1.75,8.27,3.91s-3.7,3.91-8.27,3.91c-4.57,0-8.27-1.75-8.27-3.91s3.7-3.91,8.27-3.91Z"/>
    <ellipse class="cls-2" cx="230.11" cy="402.6" rx="7.45" ry="5.2" transform="translate(-216.14 276.5) rotate(-44.47)"/>
    <path class="cls-2" d="m218.45,424.75c-1.98.75-4.39,3.2-4.4,4.49-.02,2.63,2.36,5.42,3.44,6.02s3.27.33,3.27.33c-1.55-3.29-2.14-6.94-2.31-10.84Z"/>
    <path class="cls-10" d="m312.63,371.03c-2.63.37-5.27.65-7.91.86-2.58.21-5.57.55-7.96-.22,2.62-.57,5.26-.64,7.92-.58,2.64-.04,5.29-.08,7.94-.16,0,0,0,.1,0,.1h0Z"/>
  </g>
  <g>
    <path class="cls-4" d="m456.75,340.07c21.45,12.98,24.91,29.99,25.86,33.16.95,3.17,9.41-1.11,19.57,4.61,10.16,5.71,14.67,15.4,14.67,15.4,0,0,9.15-1.23,15.5.36,2.11.53,2.89,2.18,3.05,4.22,0,0,4.91-.67,9.03,3.62,0,0,2.43-4.36,8.83-.72,2.06,1.17,8.1,6.1,9.01,10.36,1.29,6.07-1.05,6.91-2.49,7.87.67,2.86.69,2.9,1.08,3.36,1.19,1.43,6.49,2.73,6.73,5.59.24,2.86-1.44,17.6-9.13,16.52-.78,6.61-10.35,20.71-21.78,25.23-11.43,4.52-27.26,1.13-34.15-4.33-11.62-9.19-19.28-12.62-19.28-12.62l-10.51-2.09-15.98-110.55Z"/>
    <path class="cls-6" d="m506.4,444.06c0,10.2,8.9,18.47,19.87,18.47s22.03-12.69,22.03-22.89-6.06-17.84-17.03-17.84-24.87,12.06-24.87,22.26Z"/>
    <path class="cls-10" d="m532.08,436.94c1.01,7.26-3.2,14.5-9.1,18.47,4.95-5.13,8.63-11.23,9.1-18.47h0Z"/>
    <path class="cls-10" d="m558.7,434.84c.53,5.09.91,11.59-2.42,15.69.52-2.29,1.38-5.46,1.83-7.73.66-3.25.34-6.58.59-7.96h0Z"/>
    <path class="cls-10" d="m560.11,426.76c.1-3.28.3-8.49-3.96-8.99,4.82-1.14,5.73,5.86,3.96,8.99h0Z"/>
    <path class="cls-10" d="m545.65,407.5c-2.01-2.46-3.06-7.17.92-8.27,0,0,.05.08.05.08-.92,1.24-1.77,2.27-1.98,3.78-.11,1.44.44,2.95,1.09,4.35,0,0-.09.05-.09.05h0Z"/>
    <path class="cls-10" d="m531.67,402.69c3.19-.81,3.74-3.69,2.99-6.5,0,0,.08-.06.08-.06,2.16,1.5,1.14,4.91-.91,6.03-.67.38-1.42.56-2.14.63l-.02-.1h0Z"/>
    <path class="cls-10" d="m512.35,411.35c.38-2.83.4-6.64-2.45-8.11-4.55-1.59-10.3,1.7-13.48,4.91-3.66,3.46-5.74,8.67-5.08,13.67.64,2.97,3.84,5.3,6.86,4.21-3.07,1.4-6.66-.96-7.44-4.07-1-5.3,1.16-10.81,4.96-14.52,6-6.33,19.75-9.26,16.63,3.9h0Z"/>
    <path class="cls-10" d="m517.29,404.55c-2.82-.96-4.32-2.79-3.48-5.83.22-1.76.37-4.14,2.16-5.21.58-.36,1.24-.5,1.87-.51l.02.1c-.56.27-1.07.58-1.46.97-1.46,1.71-1.64,4.38-2.17,6.53-.1,1.82,1.56,3.12,3.1,3.85,0,0-.03.09-.03.09h0Z"/>
    <path class="cls-10" d="m491.12,439.74c-.57-4.68-1.19-10.61,2.46-14.24,0,0,.28.24.28.24-2.41,4.23-2.68,9.42-2.74,14h0Z"/>
    <path class="cls-3" d="m514.33,401.26c-1.34.3-2.53,1.08-3.6,2.25"/>
    <ellipse class="cls-2" cx="500.91" cy="414.53" rx="8.27" ry="5.26" transform="translate(-116.48 618.43) rotate(-57.89)"/>
    <ellipse class="cls-2" cx="524.58" cy="394.86" rx="8.27" ry="3.91"/>
    <ellipse class="cls-2" cx="556.43" cy="405.49" rx="5.2" ry="7.45" transform="translate(-122.73 518.51) rotate(-45.53)"/>
    <path class="cls-2" d="m568.1,427.63c1.98.75,4.39,3.2,4.4,4.49.02,2.63-2.36,5.42-3.44,6.02s-3.32.36-3.32.36c1.55-3.29,2.19-6.97,2.36-10.87Z"/>
    <path class="cls-10" d="m473.92,373.81c5.29.33,10.63-.29,15.86.74-2.38.77-5.38.43-7.96.22-2.25-.27-6-.38-7.9-.96h0Z"/>
  </g>
  <path class="cls-4" d="m307.45,403.69c-1.9,19.68,6.67,29.92,5.95,38.93-9.01,1.62-10.4,8.32-10.63,11.89-.24,3.57,11.35,15.32,11.35,15.32,3.46,1.75,7.13,1.51,10.99-.45,0,0,2.61,5.28,5.95,7.66,3.33,2.38,8.02,1.98,12.53-5.59,2.67-4.49,15.48-8.26,19.73-4.6,3.24,2.79,2.77,7.09,6.58,6.85,3.81-.24,10.45-5.06,11.8-8.65,1.26-3.33,1.08-9.46,1.08-9.46,8.23,2.18,11.35,2.46,23.85,1.44,0,0-1.5,5.62-1.02,9.43.48,3.81,7.08,10.31,10.87,10.69,7.69.78,2.87-3.09,7.39-6.43,4.52-3.33,14.66-.42,18.47,3.15,3.81,3.57,5.45,10.81,12.48,6.89,3.58-2,8.61-8.06,8.61-8.06,2.85,2.8,6.32,2.64,10.24.3,0,0,9.92-11.06,11.17-14.42,3.36-9.01-10.21-11.29-10.21-11.29,0,0,8.81-17.8,6.91-37.49-1.9-19.68-17.12-51.36-19.64-62.36l-2.07-15.32c3.81-6.67,3.77-23.92.18-30.82-1.17-2.25-5.05-6.49-5.05-6.49,0,0,4.23-.5,13.52-2.25,12.89-2.43,17.45-4.48,24.6-13.7,3.33-4.29,42.53,14.27,81.22.39.74-.27-7.94-12.02-7.75-29.02.2-18.28,9.6-42.42,20.25-59.23,0,0-56.23,36.04-82.09,63.6,2.97-8.63,5.74-32.36,1.41-45.46-1.79-5.42-.32-11.96-4.09-17.3-1.44-2.04-1.3-8.74-3.24-12.86-5-10.62-11.7-19.27-20.75-26.62-15.24-12.38-38.73-23.81-38.73-23.81,5.48-3.07,8.86,1.92,11.93.28.71-.38.97-1.25.62-1.97-2.58-5.23-11.66-8.46-22.07-9.42,6.29-.68,9.03-5.04,9.48-11.78.06-.95-1.07-1.44-1.72-.74-3.85,4.13-11.06,7.14-18.87,9.98,4.89-3.7,5.83-6.8,5.31-14.09-.06-.81-1.11-1.11-1.58-.44-6.56,9.31-10.96,15.66-27.9,20.88,0,0-8.11-3.54-24.87-.72-7.69,1.3-8.56,3.15-11.17,5.77,0,0-4.73-1.82-11.71-.54-8.06,1.48-26.13,18.83-32.44,26.13-16.19,18.73-22.95,44.61-22.95,44.61,0,0-6.97-16.16-16.52-41.78-10.57-28.36-15.14-70.41-15.14-70.41l-64.34,68.48c11.17,32.44,44.46,53.44,54.41,59.9,17.68,11.47,40.57,10.93,40.57,10.93,0,0-.54,13.18,2.52,17.66,7.39,10.81,23.11,19.51,35.49,25.7,12.38,6.19,24.53,15.21,24.53,15.21,0,0-8.11-3.06-16.76,1.8-10.59,5.96-12.44,29.74-6.85,41.81,3.2,6.92-.74,16.77-5.41,25.59,0,0-14.5,32.58-16.4,52.26Z"/>
  <path class="cls-9" d="m311.19,230.34s-6,16.56,10.31,27.55c16.31,10.99,32.03,16.89,39.65,24.51,7.62,7.62,3.97,14.88,1.75,24.72-1.26,9.97,2.82,19.73,2.76,29.64,7.21,18.98,14.29,36.56,13.34,53.71-.95,17.14-1.61,22.9-2.88,28.77-1.27,5.87-4.44,25.84-3.49,32.51,0,0,3.76-1.15,7.57.12,1.27.42,1.88,2.98,3.24,3.66,3.35,1.69,7.73,1.8,12.01,1.98,4.39.19,7.87.54,10.75-.54,1.24-.47,2.22-2.65,3.36-2.82,2.99-.46,5.89,1.74,5.89,1.74.96-5.65.14-21.22-1.92-27.09-2.06-5.87-5.03-24.25-4.39-34.24.54-8.41,3.78-24.81,7.75-33.7,2.13-4.77,7.33-16.96,7.33-16.96,0,0-2.02-3.1-1.53-7.12.83-6.81,2.41-14.65,1.17-19.96-2.4-2.7-6.97-3.96-5.11-14.66.3-1.25,3.74-5.91,10.02-8.95,3.65-1.77,8.16-3.44,13.85-2.39,3.98.73,12.84,3.54,12.84,3.54,8.58-.94,16.54-2.29,23.31-4.39l-6.37-15.2s-19.46,2.28-28.48-.78c-7.02-2.39-22.98-7.92-32.74-12.92-9.76-5-22.26-13.35-37.26-12.4-15,.95-30.12-2.86-37.27-4.76-7.14-1.9-25.48-13.57-25.48-13.57Z"/>
  <g>
    <g>
      <path class="cls-9" d="m350.43,217.16c11.62-3.42,11.04-17.43,13.19-24.81,2.14-7.38,1.44-34.16-2.37-44.4-1.88-5.06-4.83-11.72-9.28-14.6-4.56-2.95-11.88-2.77-15.86-1.56-7.86,2.38-22.05,17.76-28.48,28.24-6.43,10.48-8.82,28.3-7.39,35.68,1.43,7.38,12.28,16.67,21.81,20,9.52,3.33,20.9,3.65,28.39,1.44Z"/>
      <path class="cls-10" d="m343.74,208.91c5.08-2.86,9.21-23.49,6.67-33.34-2.54-9.84-6.67-23.18-17.14-23.18s-23.18,16.19-23.81,24.45c-.63,8.25,1.59,22.22,10.79,28.57,9.21,6.35,23.49,3.49,23.49,3.49Z"/>
      <ellipse class="cls-8" cx="342.39" cy="176.23" rx="4.39" ry="7.46"/>
    </g>
    <g>
      <path class="cls-9" d="m432.7,229.41c.18,16.4,18.43,25.21,29.56,28.66,20.5,6.35,27.91-2.36,32.35-5.86,4.44-3.49,11.49-17.87,11.17-26.76-.32-8.89.24-18.64-7.45-24.9-2.79-2.27-14.04-8.38-22.38-15.02-5.18-4.12-8.65-9.24-8.65-9.24-2.86,0-34.71,43.45-34.6,53.12Z"/>
      <path class="cls-10" d="m444.06,230.81c2.93-8.16,23.18-29.21,32.7-30.16,9.52-.95,20.64,8.25,19.05,17.78-1.59,9.52-6.98,26.03-14.92,27.94-7.94,1.9-41.27-3.17-36.83-15.56Z"/>
      <ellipse class="cls-8" cx="470.23" cy="213.47" rx="7.46" ry="4.39" transform="translate(5.2 438.05) rotate(-50.19)"/>
    </g>
  </g>
  <path class="cls-3" d="m307.45,403.69c-1.9,19.68,6.67,29.92,5.95,38.93-9.01,1.62-10.4,8.32-10.63,11.89-.24,3.57,11.35,15.32,11.35,15.32,3.46,1.75,7.13,1.51,10.99-.45,0,0,2.61,5.28,5.95,7.66,3.33,2.38,8.02,1.98,12.53-5.59,2.67-4.49,15.48-8.26,19.73-4.6,3.24,2.79,2.77,7.09,6.58,6.85,3.81-.24,10.45-5.06,11.8-8.65,1.26-3.33,1.08-9.46,1.08-9.46,8.23,2.18,11.35,2.46,23.85,1.44,0,0-1.5,5.62-1.02,9.43.48,3.81,7.08,10.31,10.87,10.69,7.69.78,2.87-3.09,7.39-6.43,4.52-3.33,14.66-.42,18.47,3.15,3.81,3.57,5.45,10.81,12.48,6.89,3.58-2,8.61-8.06,8.61-8.06,2.85,2.8,6.32,2.64,10.24.3,0,0,9.92-11.06,11.17-14.42,3.36-9.01-10.21-11.29-10.21-11.29,0,0,8.81-17.8,6.91-37.49-1.9-19.68-17.12-51.36-19.64-62.36l-2.07-15.32c3.81-6.67,3.77-23.92.18-30.82-1.17-2.25-5.05-6.49-5.05-6.49,0,0,4.23-.5,13.52-2.25,12.89-2.43,17.45-4.48,24.6-13.7,3.33-4.29,42.53,14.27,81.22.39.74-.27-7.94-12.02-7.75-29.02.2-18.28,9.6-42.42,20.25-59.23,0,0-56.23,36.04-82.09,63.6,2.97-8.63,5.74-32.36,1.41-45.46-1.79-5.42-.32-11.96-4.09-17.3-1.44-2.04-1.3-8.74-3.24-12.86-5-10.62-11.7-19.27-20.75-26.62-15.24-12.38-38.73-23.81-38.73-23.81,5.48-3.07,8.86,1.92,11.93.28.71-.38.97-1.25.62-1.97-2.58-5.23-11.66-8.46-22.07-9.42,6.29-.68,9.03-5.04,9.48-11.78.06-.95-1.07-1.44-1.72-.74-3.85,4.13-11.06,7.14-18.87,9.98,4.89-3.7,5.83-6.8,5.31-14.09-.06-.81-1.11-1.11-1.58-.44-6.56,9.31-10.96,15.66-27.9,20.88,0,0-8.11-3.54-24.87-.72-7.69,1.3-8.56,3.15-11.17,5.77,0,0-4.73-1.82-11.71-.54-8.06,1.48-24.69,15.14-31,22.44-16.19,18.73-24.39,48.3-24.39,48.3,0,0-6.97-16.16-16.52-41.78-10.57-28.36-15.14-70.41-15.14-70.41l-64.34,68.48c11.17,32.44,44.46,53.44,54.41,59.9,17.68,11.47,40.57,10.93,40.57,10.93,0,0-.54,13.18,2.52,17.66,7.39,10.81,23.11,19.51,35.49,25.7,12.38,6.19,24.53,15.21,24.53,15.21,0,0-8.11-3.06-16.76,1.8-10.59,5.96-12.44,29.74-6.85,41.81,3.2,6.92-.74,16.77-5.41,25.59,0,0-14.5,32.58-16.4,52.26Z"/>
  <path class="cls-1" d="m515.43,272.13s43.97-27.75,64.34-71.73c17.43-37.63,42.6-72.09,59.11-72.09s18.23,38.15,14.42,60.37c-3.81,22.22-12.71,44.15-25.41,58.75-12.7,14.6-29.02,20.46-29.02,20.46-10.75-3-15.93-8.98-24.51-9.6-1.52-.11-2.88.96-3.14,2.46-.9,5.18,5.21,8.85,4.04,18.23-17.42,3.34-37.31,2.7-59.83-6.85Z"/>
  <path class="cls-1" d="m261.85,197.63s-11.82-28.67-7.21-66.44c4.81-39.41,14.12-93.39,7.45-101.65-6.67-8.25-20.51-4.91-29.8.72-8.74,5.3-20.91,24.27-20.91,24.27,1.33,6.81,6.82,12.28,9.97,17.48,2.26,3.74-1.88,8.04-6.25,7.93-6.57-.17-11.13-1.35-17.24-4.33,0,0-13.02,19.03-10.15,51.24,2.76,31,32.56,64.52,74.13,70.77Z"/>
  <path class="cls-10" d="m364.77,167.96c-1.5-15.02-6.74-41.98-27.36-36.48-2.42.65-4.74,1.69-6.99,2.86l-.05-.09c2.11-1.42,4.39-2.63,6.83-3.44,21.1-6.69,26.96,22.08,27.56,37.15h0Z"/>
  <path class="cls-10" d="m465.73,173.52c8.92,17.07,32.79,19.36,40.29,37.59,0,0-.09.04-.09.04-4.6-8.24-12.31-13.7-20.1-18.68-7.67-4.88-16.36-10.48-20.1-18.95h0Z"/>
  <path class="cls-10" d="m424.19,312.04c.55,5.44.19,10.93-.35,16.36-.42,5.32-1.36,11.06.53,16.02-3.22-4.65-2.01-10.9-1.32-16.11.81-5.34,1.12-11.05,1.14-16.27h0Z"/>
  <g>
    <path class="cls-10" d="m360.01,325.35c5.53,9.34,9.19,19.64,12.51,29.94,3.09,10.36,6.42,20.89,6.88,31.77.4,10.85-.22,21.82-2.88,32.37-1.29,5.24-2.19,10.57-2.81,15.93-.62,5.36-.97,10.77-.94,16.17h-.34c-.12-5.42.14-10.84.67-16.24.51-5.4,1.4-10.77,2.64-16.06,2.46-10.49,3.1-21.39,2.67-32.14-.41-10.82-3.66-21.25-6.59-31.6-3.17-10.32-6.58-20.67-11.81-30.15h0Z"/>
    <path class="cls-10" d="m363.28,305.39c-1.08,5.45-.3,11.28,1.02,16.6.5,1.27.84,2.77,1.06,4.14.68,4.19.89,8.43.8,12.67,0,0-.1,0-.1,0-.65-4.02-1.16-8.48-1.68-12.53-.18-1.42-.4-2.68-.85-4.07-.7-2.79-.97-5.61-1.09-8.44.01-2.72-.19-6.01.84-8.39h0Z"/>
    <path class="cls-10" d="m337.41,453.87c-.85,2.99-3.45,2.49-5.69,3.44-2,.94-4.03,2.32-5.43,4.01-2.32,3.86-1.23,9.11,1.63,12.5,0,0-.07.07-.07.07-4.73-3.93-5.57-12.34.51-15.44,1.93-1.38,4.31-2.13,6.61-2.38,1.17-.22,1.92-1.19,2.36-2.24,0,0,.09.04.09.04h0Z"/>
    <path class="cls-2" d="m333.7,466.11c-2.1,0-7.99,2.16-9.37,5.71-1.38,3.54-2.16,10.63-.72,12.62,1.44,1.98,6.01-3.18,7.45-5.53s2.82-4.63,4.33-5.77c1.5-1.14,2.52-7.03-1.68-7.03Z"/>
    <path class="cls-2" d="m309.12,454.54c-2.4.06-7.43-.38-11.52,2.08-4.09,2.46-6.25,4.99-4.39,6.85s7.09-.66,8.65-.54,4.93.12,4.93.12l2.24-2.76c-.65-.18-.23-4.06.09-5.74Z"/>
    <path class="cls-10" d="m326.21,451.26c-2.14.98-4.59.33-6.66-.53-1.99-.91-4.1-1.83-6.19-.72-1.99.91-3.25,2.74-3.6,4.89-.49,2.1-1.18,4.42.07,6.38,0,0-.08.06-.08.06-.44-.38-.75-.9-.97-1.45-.7-2.28-.2-4.68.44-6.91,1.12-2.76,4.4-4.73,7.35-4.03,2.24.62,4.04,2.03,6.32,2.45,1.08.24,2.22.15,3.28-.23l.04.09h0Z"/>
    <path class="cls-2" d="m318.68,458.48c-3.68-.4-9.97.36-12.98,4.75-3,4.39-4.15,9.73-3.24,11.89s5.11.12,9.19-3.72c4.09-3.84,8.23-5.89,9.07-6.73s.18-5.95-2.04-6.19Z"/>
    <path class="cls-10" d="m383.44,357.67c2.57,7.33,7.47,13.97,14.79,17.01,1.02.47,2.07.85,3.12,1.26-1.11-.19-2.21-.47-3.29-.8-7.78-2.38-13.26-9.6-14.61-17.46h0Z"/>
    <path class="cls-10" d="m318.85,439.88c-.47,1.65-2.19,2.58-3.76,2.95-1.58.5-3.07.75-4.74.74,0,0-.03-.09-.03-.09,1.96-1.62,4.66-1.02,6.81-2.05.68-.32,1.26-.88,1.63-1.59l.09.04h0Z"/>
    <path class="cls-10" d="m367.33,447.37c4.73,8.68,8.65.21,14.44,4.81,1.41,1.54,1.34,3.63,1.19,5.52,0,0-.1,0-.1,0-.16-.91-.31-1.81-.56-2.67-.5-1.93-1.58-2.7-3.48-3.18-1.67-.54-3.49.04-5.23.27-1.93.36-3.92-.71-4.97-2.3-.55-.75-.98-1.58-1.38-2.41l.09-.05h0Z"/>
    <path class="cls-2" d="m373.95,463.46c2.74-1.4,9.31,1.5,10.81,4.15,1.5,2.64,3.96,7.21,2.52,10.93-.86,2.22-2.04,2.94-3.54,1.5-1.5-1.44-6.61-7.09-7.87-8.77-1.26-1.68-4.51-6.49-1.92-7.81Z"/>
    <path class="cls-10" d="m376.08,461.48c-2.67,1.78-3.3,4.98-3.87,7.99-.98-2.94.42-7.56,3.87-7.99h0Z"/>
  </g>
  <g>
    <path class="cls-10" d="m429.91,333.31c-5.17,9.2-9.25,18.96-12.92,28.84-3.56,9.89-7.11,19.96-7.03,30.54-.28,10.49.42,21.09,2.92,31.31,1.2,5.16,2.01,10.4,2.5,15.67.49,5.27.75,10.55.63,15.84,0,0-.34,0-.34,0,.03-5.26-.31-10.54-.9-15.77-.6-5.23-1.44-10.44-2.67-15.55-2.67-10.26-3.4-20.95-3.13-31.53,0-10.69,3.57-20.9,7.31-30.77,3.83-9.84,8.15-19.54,13.62-28.57h0Z"/>
    <path class="cls-10" d="m451.12,457.8c.44,1.05,1.19,2.02,2.36,2.24,1.1.26,2.32.25,3.45.73,1.12.43,2.16,1.01,3.16,1.65,6.08,3.1,5.24,11.52.51,15.44,0,0-.07-.07-.07-.07,3.59-4.16,4.38-11.66-.86-14.76-1.88-1.48-3.94-2.21-6.28-2.66-1.21-.31-1.99-1.4-2.36-2.53,0,0,.09-.04.09-.04h0Z"/>
    <path class="cls-2" d="m454.74,470.07c2.1,0,7.99,2.16,9.37,5.71s2.16,10.63.72,12.62c-1.44,1.98-6.01-3.18-7.45-5.53-1.44-2.34-2.82-4.63-4.33-5.77-1.5-1.14-2.52-7.03,1.68-7.03Z"/>
    <path class="cls-2" d="m479.32,458.5c2.4.06,7.43-.38,11.52,2.08,4.09,2.46,6.25,4.99,4.39,6.85-1.86,1.86-7.09-.66-8.65-.54s-4.93.12-4.93.12l-2.24-2.76c.65-.18.23-4.06-.09-5.74Z"/>
    <path class="cls-10" d="m462.26,455.13c3.46,1.33,6.42-1.28,9.6-2.22,2.95-.7,6.23,1.26,7.35,4.03.64,2.23,1.14,4.64.44,6.92-.22.55-.54,1.07-.97,1.45l-.08-.06c.63-.94.77-2.05.68-3.13-.3-2.06-.57-4.4-1.78-6.16-1.22-1.63-3.43-2.86-5.5-2.41-2.14.51-4.16,1.85-6.41,2.11-1.14.19-2.33.01-3.37-.43l.04-.09h0Z"/>
    <path class="cls-2" d="m469.76,462.44c3.68-.4,9.97.36,12.98,4.75s4.15,9.73,3.24,11.89c-.9,2.16-5.11.12-9.19-3.72-4.09-3.84-8.23-5.89-9.07-6.73s-.18-5.95,2.04-6.19Z"/>
    <path class="cls-10" d="m469.41,444.46c1.7,3.18,5.95,1.56,8.44,3.64,0,0-.03.09-.03.09-1.67.02-3.17-.22-4.75-.72-1.57-.38-3.28-1.32-3.75-2.97,0,0,.09-.04.09-.04h0Z"/>
    <path class="cls-10" d="m421.2,451.38c-1,2.17-2.6,4.68-5.28,4.73-1.49-.13-2.8-1.04-4.16-1.4-1.73-.59-3.48.28-4.5,1.66-1.02,1.46-1.37,3.4-1.67,5.29h-.1c-.32-2.89.29-6.67,3.4-7.81,2.5-1.14,4.77,1.21,7.08,1.63,2.4.03,4.03-2.16,5.15-4.15,0,0,.09.05.09.05h0Z"/>
    <path class="cls-2" d="m414.49,467.43c-2.74-1.4-9.31,1.5-10.81,4.15-1.5,2.64-3.96,7.21-2.52,10.93.86,2.22,2.04,2.94,3.54,1.5,1.5-1.44,6.61-7.09,7.87-8.77,1.26-1.68,4.51-6.49,1.92-7.81Z"/>
    <path class="cls-10" d="m412.35,465.45c3.45.43,4.86,5.05,3.87,7.99-.58-3.01-1.2-6.21-3.87-7.99h0Z"/>
  </g>
  <path class="cls-10" d="m482.65,171.7c10.03,6.9,20.42,16.2,22.37,28.87,0,0-.1.02-.1.02-1.93-5.9-4.94-11.3-8.77-16.16-3.78-4.85-8.89-8.93-13.5-12.73h0Z"/>
  <path class="cls-10" d="m364.07,130.63c-3.97-2.7-8.32-4.77-13.18-4.92,0,0-.02-.1-.02-.1,2.34-1.03,5.08-.36,7.22.82,2.21,1.1,4.18,2.56,6.03,4.12l-.06.08h0Z"/>
  <path class="cls-10" d="m405.77,126.19c-3.61-1.27-7.08-2.91-10.68-4.06-3.65-1.1-7.31-1.72-11.1-2.19,3.56-.91,7.88.08,11.36,1.43,3.52,1.41,7.27,3.12,10.42,4.81h0Z"/>
  <g>
    <path class="cls-10" d="m403.68,166.02c5.68-1.19,13.63-1.77,17.08,3.98,0,0-.08.06-.08.06-2.33-1.97-4.97-3.22-7.93-3.87-3.1-.68-6.15-.22-9.07-.18h0Z"/>
    <path class="cls-10" d="m394.04,172.05c11.47-1.65,25.85-.05,32.31,10.92,0,0-.08.06-.08.06-8.73-10.06-19.79-11.72-32.23-10.98h0Z"/>
  </g>
  <path class="cls-10" d="m430.09,244.73c2.54,5.52,5.77,10.39,10.09,14.69-5.2-3.16-8.91-8.75-10.09-14.69h0Z"/>
  <path class="cls-10" d="m336.28,228.87c5.82-.22,11.34-1.22,16.49-4.06-4.3,4.03-10.84,5.27-16.49,4.06h0Z"/>
  <path class="cls-10" d="m394.8,307.21c-2.21,4.15-4.8,8.34-8.64,11.2-2.46,1.65-4.91,4.15-5.26,7.16-.05.77.23,1.13,1,1.12,3.76-.55,7.03-3.18,10.17-5.25,0,0,3.41-2.43,3.41-2.43-3.96,4.4-8.55,8.98-10.55,14.64-.54,2.16-.61,4.6-.29,6.82.11.58.32,1.43.79,1.72.53.22.96-.55,1.31-.92,2.34-3.13,4.18-6.63,6.07-10.06,0,0,1.7-3.17,1.7-3.17-.94,3.56-2.01,7.42-2.67,11.02-.64,1.72-.66,11.33,2.7,8.53,2.9-2.59,4.14-6.55,6.69-9.46-1.62,2.04-2.62,4.47-4,6.67-.9,1.31-2.47,4.34-4.42,3.67-.72-.38-1-1.08-1.24-1.69-1.75-5.13.1-10.44,1.2-15.49,0,0,.79.31.79.31-1.89,3.49-3.72,7.03-6.09,10.24-.56.72-1.39,1.74-2.48,1.18-.53-.3-.75-.75-.93-1.15-.73-1.95-.62-4.06-.49-6.09.53-5.64,4.92-10.19,8.44-14.3,0,0,.59.67.59.67-3.32,2.15-6.65,4.86-10.71,5.29-3.44-.27-.84-4.94.37-6.32,2.01-2.52,5.08-3.72,7.1-6.23,2.09-2.34,3.87-4.96,5.44-7.69h0Z"/>
  <path class="cls-10" d="m415.18,305.44c2.56-3.86,5.74-7.33,9.5-10.06,9.25-6.58,24.21-7.88,32.34,1.15,1.55,1.79,2.64,3.9,3.37,6.1l-.09.04c-1.87-4.19-5.09-7.67-9.31-9.49-8.33-3.69-18.51-2.5-26.01,2.62-3.85,2.49-7.05,6.25-9.78,9.65h0Z"/>
  <g>
    <path class="cls-5" d="m374.07,184.06c-11.66,6.51-16.55,15.28-12.98,30.28s17.47,24.78,22.95,27.87c5.48,3.1,17.87,3.61,26.21.75,8.33-2.86,17.05-6.51,27.62-22.13,5.1-7.53,1.74-25.33-12.38-32.87-17.42-9.3-43.32-8.42-51.42-3.89Z"/>
    <path class="cls-7" d="m406.84,243.29c2.25-9.19,11.08-16.76,15.86-17.84,4.78-1.08,6.4.81,6.76,2.25s-.13,5.32-1.44,6.22c-13.07,8.92-21.18,9.37-21.18,9.37Z"/>
    <path class="cls-7" d="m378.19,237.34c1.98-9.1,1.08-16.31-2.97-21.36-4.06-5.05-8.83-5.68-10.09-3.87-1.26,1.8-2.47,3.93-1.98,6.22,1.98,9.28,15.05,19.01,15.05,19.01Z"/>
  </g>
  <g>
    <path class="cls-10" d="m306.67,225.15c8.14,8.49,18.59,14.69,29.92,17.7,11.45,2.67,23.26,3.31,34.97,4.63,5.89.64,11.82,1.38,17.6,2.78,5.78,1.5,11.26,4.04,16.62,6.56,10.28,4.88,21.61,10.51,32.34,14.14,7.33,2.61,14.97,4.57,22.81,4.3,7.77-.18,15.61-1.9,22.6-5.53-6.76,4.1-14.68,6.22-22.56,6.66-7.95.49-15.92-1.18-23.4-3.81-10.85-3.59-22.22-9.16-32.6-14.01-5.33-2.46-10.64-4.86-16.28-6.4-5.69-1.42-11.49-2.19-17.33-2.86-11.71-1.38-23.63-2.12-35.11-5.17-11.39-3.31-21.87-9.96-29.57-18.98h0Z"/>
    <path class="cls-10" d="m300.33,230.14c.11-2.94,2-6.17,5.2-6.55,2.08-.09,4.21-.41,6.11-1.31.63-.29,1.21-.69,1.6-1.3-.19.72-.77,1.27-1.35,1.72-5.23,3.5-8.71-.55-11.57,7.44h0Z"/>
    <path class="cls-10" d="m483.77,278.38c2.63-4.09,2.19-7.25-.8-10.91-.73-1.15-1.74-2.33-1.84-3.75.22.66.66,1.19,1.11,1.71l1.35,1.56c3.48,3.43,4,7.96.18,11.39h0Z"/>
    <line class="cls-3" x1="388.97" y1="251.22" x2="390.67" y2="244.28"/>
  </g>
</svg>