<?xml version="1.0" encoding="UTF-8"?>
<svg id="Calque_8" data-name="Calque 8" xmlns="http://www.w3.org/2000/svg" xmlns:xlink="http://www.w3.org/1999/xlink" viewBox="0 0 425.07 441.95">
  <defs>
    <style>
      .cls-1 {
        fill: #e2e1ec;
      }

      .cls-2 {
        fill: #fff;
      }

      .cls-3 {
        fill: #e2c498;
      }

      .cls-4 {
        fill: #364063;
      }

      .cls-5 {
        fill: #7a88b9;
      }

      .cls-6, .cls-7, .cls-8, .cls-9, .cls-10, .cls-11, .cls-12, .cls-13, .cls-14, .cls-15, .cls-16, .cls-17, .cls-18, .cls-19, .cls-20, .cls-21, .cls-22, .cls-23, .cls-24, .cls-25 {
        stroke-miterlimit: 10;
      }

      .cls-6, .cls-7, .cls-11, .cls-18, .cls-19 {
        fill: none;
      }

      .cls-6, .cls-9, .cls-14, .cls-15, .cls-16, .cls-17, .cls-20, .cls-21, .cls-22, .cls-24 {
        stroke: #000;
      }

      .cls-7 {
        stroke: #fff;
      }

      .cls-26 {
        fill: #f0d3a3;
      }

      .cls-27 {
        fill: #241414;
      }

      .cls-28 {
        fill: #e9d2bd;
      }

      .cls-29 {
        fill: #914e55;
      }

      .cls-30 {
        fill: #f9eb4c;
      }

      .cls-8 {
        fill: #563969;
        stroke: #402a4f;
      }

      .cls-31 {
        fill: #3a4775;
      }

      .cls-32 {
        filter: url(#outer-glow-1);
      }

      .cls-33, .cls-22 {
        fill: #a9bbdf;
      }

      .cls-34 {
        fill: #333c2b;
      }

      .cls-35 {
        fill: #a47db6;
      }

      .cls-9 {
        fill: #414550;
      }

      .cls-36 {
        fill: #c5dcab;
      }

      .cls-37 {
        fill: #a88cbc;
      }

      .cls-38 {
        fill: #63687e;
      }

      .cls-10 {
        fill: #fbe9d7;
      }

      .cls-10, .cls-19, .cls-25 {
        stroke: #904d54;
      }

      .cls-39 {
        fill: #343d48;
      }

      .cls-40 {
        fill: #4d3557;
      }

      .cls-11 {
        stroke: #563969;
      }

      .cls-41 {
        fill: #43464f;
      }

      .cls-12 {
        fill: #ac8dbe;
        stroke: #9376a8;
      }

      .cls-13 {
        fill: #59396a;
        stroke: #40294f;
      }

      .cls-14 {
        fill: #283041;
      }

      .cls-15 {
        fill: #cfd1dd;
      }

      .cls-42 {
        fill: #4f535e;
      }

      .cls-43 {
        fill: #7f8a9c;
      }

      .cls-44 {
        fill: #111715;
      }

      .cls-16 {
        fill: #2a2e35;
      }

      .cls-17 {
        fill: #f7fbfc;
      }

      .cls-45 {
        fill: #f9c5bd;
      }

      .cls-18 {
        stroke: #040607;
      }

      .cls-46 {
        fill: #65795e;
      }

      .cls-47 {
        fill: #2c3441;
      }

      .cls-20 {
        fill: #182438;
      }

      .cls-21 {
        fill: #5d616a;
      }

      .cls-48 {
        fill: #171b25;
      }

      .cls-23 {
        fill: #20233c;
        stroke: #121525;
      }

      .cls-49 {
        fill: #dbc3e0;
      }

      .cls-24 {
        fill: #c7c9d5;
      }

      .cls-50 {
        fill: #904d54;
      }

      .cls-25 {
        fill: #f9f5c3;
      }
    </style>
    <filter id="outer-glow-1" filterUnits="userSpaceOnUse">
      <feOffset dx="0" dy="0"/>
      <feGaussianBlur result="blur" stdDeviation="2.83"/>
      <feFlood flood-color="#f6e826" flood-opacity="1"/>
      <feComposite in2="blur" operator="in"/>
      <feComposite in="SourceGraphic"/>
    </filter>
  </defs>
  <path class="cls-9" d="m254.84,357.62c2.96-4.7,3.98-13.6,2.37-28.16,4.26,7.77,9.15,15.12,15,21.84,26.62,1.83,51.86,8.22,69.21,40.79l-20.26-55.53-47.89-34.47-31.05-27.11,2.37,41.32,10.26,41.32Z"/>
  <path class="cls-47" d="m281.68,313.41l1.53,38.55c23.59,3.01,41.37,12.43,56.43,34.74-6.41-28.22-25.13-52.79-57.96-73.29Z"/>
  <path class="cls-38" d="m273.26,349.33c21.61-7.37,48.06,4.91,60.79,22.89-18.05-12.69-38.3-22.8-60.79-22.89h0Z"/>
  <path class="cls-23" d="m188.13,319.79c10.12,23.02,17.42,51.39,23.68,81.71l-3.55,2.96,1.78,4.34c10.24,3.9,19.49,5.69,31.02,4.82l1.35,7.22s7.96,3.68,12.37,3.22,14.87-10.92,14.87-10.92l-2.96-4.93c-.64-20.53-3.91-40.27-7.89-60.46-1.38-6.99.11-20.78-4.34-30.53l-52.3-9.87-14.01,12.43Z"/>
  <path class="cls-31" d="m198.2,332.55c6.98,3.01,12.63,6.6,16.58,10.92l-10.86,7.89-5.72-18.82Z"/>
  <path class="cls-31" d="m209.84,367.46s3.82-4.31,8.09-5.43c8.99-2.34,15.99,27.73,14.9,36.32-8.26-6.97-14.88-10.61-20.92-13.32l-2.07-17.57Z"/>
  <path class="cls-31" d="m221.68,342.69s3.55-3.65,7.7-3.55,12.34,25.26,15,28.03,13.22,13.42,14.9,21.41c1.68,7.99,1.97,15.89,1.97,15.89l-10.66-3.65-8.88-6.91-20.03-51.22Z"/>
  <path class="cls-5" d="m191.63,328.16l7.15,4.6s17.37,45.13,16.58,48.82c-.79,3.68-6.32,7.2-6.32,7.2-5.39-23.48-10.98-45.35-17.42-60.62Z"/>
  <ellipse class="cls-5" cx="218.67" cy="377.77" rx="3.37" ry="3.57" transform="translate(-205.84 479.35) rotate(-73.39)"/>
  <path class="cls-5" d="m219.05,339.86l3.68,2.37s17.24,41.97,20.39,46.71,5.39,8.55,6.71,8.55,3.36-2.57,5.86-1.12,3.03,6.51-.2,6.84-5.07-2.43-6.32-2.96-4.93-1.58-5.26.66,2.96,11.38,4.21,13.22.46,8.57.46,8.57c-2.09-.7-4.2-1.34-5.94-2.06l-1.48-7.5-.96.1c-1.18-11.25-8.96-52.5-21.16-73.39Z"/>
  <path class="cls-4" d="m209.88,326.47c19.65,23.56,26.81,56.75,30.34,86.57,0,0-.1.01-.1.01-4.92-30.23-12.48-61.31-30.24-86.58h0Z"/>
  <path class="cls-4" d="m199.43,333.39c8.33,23.1,20.78,55.25,28.03,78.36,0,0-.09.03-.09.03-8.89-22.3-20.14-55.53-27.93-78.39h0Z"/>
  <path class="cls-4" d="m232.59,333.4c5.06,17.26,14.19,48.06,19.07,65.02.83,2.79,1.68,6.73,3.3,9.19-.93,1.97-2.61,3.51-4.47,4.5,0,0,.14-.53.14-.53,1.1,1.88,2.71,3.47,4.37,4.94.62,1.16.53,2.63.16,3.83-.37,1.2-.99,2.28-1.67,3.3l-.08-.05c.61-1.05,1.16-2.16,1.45-3.33.38-1.03.05-2.83-.19-3.36-1.84-1.5-3.65-3.16-4.92-5.26,1.81-.96,3.42-2.38,4.28-4.21,0,0,.01.43.01.43-1.64-2.36-2.56-6.41-3.36-9.17-4.68-16.83-13.67-48.3-18.11-65.29h0Z"/>
  <path class="cls-43" d="m259.69,366.14c-1.96-6.9-3.94-13.79-6.33-20.54-2.62-6.73-5.11-13.23-6.94-20.27,0,0,.27-.14.27-.14,4.79,5.63,7.3,12.64,8.97,19.71,1.85,6.98,3.28,14.05,4.34,21.19,0,0-.29.06-.29.06h0Z"/>
  <path class="cls-10" d="m204.38,239.79l5.07,7.76,10.66-8.55,2.63-15.99-12.11,1.12s2.89,7.5,1.64,9.54-7.89,6.12-7.89,6.12Z"/>
  <path class="cls-28" d="m212.99,233.38c-.18.3-.49.65-.87,1.02,2.91,1.17,6.08,1.55,9.21,1.24l2.13-12.91-12.11,1.12s2.89,7.5,1.64,9.54Z"/>
  <g>
    <path class="cls-39" d="m167.57,292.67c-5.55,7.56-6.17,18.99-7.27,27.99-.88,7.16-1.55,14.35-2.39,21.51l12.45,14.14,15.79,17.24,7.5.26,16.32-8.03-18.12-85.45c-9.43,1.91-18.82,4.89-24.28,12.33Z"/>
    <path class="cls-21" d="m171.68,320.52c1.38-9.7-16.93-26.39-10.59-34.26,7.13-8.85,17.97-12.29,28.92-14.61l-4.65-21.92-14.74-11.45s-7.63.53-8.95,1.18c-1.32.66-11.45,12.76-13.55,36.32-2.11,23.55-1.05,54.08-1.05,54.08,15.22,19.99,30.37,36.81,45.39,46.84.66-6.21-21.67-50-20.79-56.18Z"/>
    <path class="cls-44" d="m162.24,247.82c-13.44,14.34-8.57,51.03-5.56,85.2l8.42,9.47c-5.17-31.94-5.97-59.07-1.38-81.91.59-2.93-1.48-10.1-1.48-12.76Z"/>
    <g>
      <path class="cls-17" d="m153.2,324.04l-11.64,5.53,2.47,3.75-4.54,3.26,8.68,9.28-1.09,4.34s5.82.89,7.11,1.87,4.54,5.62,4.54,5.62l5.53-4.44,4.34,3.95,3.36-5.33s-7.4-17.37-10.16-18.65-7.89-2.86-7.89-2.86l-.69-6.32Z"/>
      <path class="cls-33" d="m171.95,351.86s-7.4-17.37-10.16-18.65c-.71-.33-1.58-.68-2.48-1.02l-.45,4.18-1.91.59s3.42,4.08,1.12,4.93c-2.3.86-7.3-1.78-7.3-1.78l4.74,10.99-.79,1.44c1.48,1.53,4.01,5.13,4.01,5.13l5.53-4.44,4.34,3.95,3.36-5.33Z"/>
      <path class="cls-6" d="m153.2,324.04l-11.64,5.53,2.47,3.75-4.54,3.26,8.68,9.28-1.09,4.34s5.82.89,7.11,1.87,4.54,5.62,4.54,5.62l5.53-4.44,4.34,3.95,3.36-5.33s-7.4-17.37-10.16-18.65-7.89-2.86-7.89-2.86l-.69-6.32Z"/>
    </g>
    <g>
      <path class="cls-17" d="m185.43,243.41l-13.68-4.67,2.63,4.74-9.14,2.37c.88,2,2.67,4.28,5.13,6.78-3.45,4.92-8.62,7.61-14.74,9.08l4.54,5.59c-1.59,3.29-3.61,6.42-6.05,9.41l3.95,2.57c-1.56,4.07-3.52,7.93-5.92,11.58l5.79,4.28-.59,13.75,4.8.99c1.49,4.74,2.4,9.25,2.43,13.42l3.62.13c.58,3.81.55,7.29-1.64,9.61l6.12,1.78c-.3,4.38-1.15,8.2-3.88,10.13l4.74,1.12.07,8.68h2.24c2.2,5.57,5.2,10.48,9.8,14.08l1.84-.39c2,3.88,4.06,7.46,6.25,10.26l1.51-3.82c1.36,2.55,3.82,4.99,6.91,7.37l1.38-2.96,4.61,4.01-4.61-19.47-3.98.79c-3.75-1.4-6.88-3.56-9.47-6.38l2.14-1.81c-3.74-3.16-5.63-7.17-6.48-11.64l3.26-1.45c-2.62-2.01-4.77-5.84-6.91-9.74l2.11-.23-4.21-6.58,2.4-.26-6.28-13.87,2.07.35-3.65-7.55,5.53-1.73c-3.45-6.22-6.29-12.55-8.49-18.98.43-15.19,9.31-23.81,20.13-30.92l-6.25-10.39Z"/>
      <path class="cls-33" d="m203.52,363.8l-3.98.79c-3.75-1.4-6.88-3.56-9.47-6.38l2.14-1.81c-3.74-3.16-5.63-7.17-6.48-11.64l2.05-.91c-1.47-.08-4.01-1.75-5.03-3.19-.55-.78-7.09-9.16-8.87-11.44-.85.2.61,9.81,2.21,13.61,1.6,3.81,6.91,10.78,9.67,13.82.49.54-6.87,2.51-7.71,2.88,1.93,3.58,4.35,6.75,7.57,9.27l1.84-.39c2,3.88,4.06,7.46,6.25,10.26l1.51-3.82c1.36,2.55,3.82,4.99,6.91,7.37l1.38-2.96,4.61,4.01-4.61-19.47Z"/>
      <path class="cls-33" d="m162.08,278.94s-3.65,7.8-1.78,18.45c1.87,10.66,5.21,18.37,7.3,21.22,3.26,4.44,14.9,12.14,14.9,12.14l-3.42-4.7h2.4l-5.89-12.96s-7.37-6.77-9.87-11.94c-2.96-6.12-3.65-22.2-3.65-22.2Z"/>
      <path class="cls-33" d="m170.37,252.62c-.37.53-.77,1.04-1.19,1.52,2.92,1.09,6.02,1.67,9.11,2.25,3.47.65,6.94,1.33,10.41,2l2.99-4.59-6.25-10.39-13.68-4.67,2.63,4.74-9.14,2.37c.88,2,2.67,4.28,5.13,6.78Z"/>
      <path class="cls-6" d="m185.43,243.41l-13.68-4.67,2.63,4.74-9.14,2.37c.88,2,2.67,4.28,5.13,6.78-3.45,4.92-8.62,7.61-14.74,9.08l4.54,5.59c-1.59,3.29-3.61,6.42-6.05,9.41l3.95,2.57c-1.56,4.07-3.52,7.93-5.92,11.58l5.79,4.28-.59,13.75,4.8.99c1.49,4.74,2.4,9.25,2.43,13.42l3.62.13c.58,3.81.55,7.29-1.64,9.61l6.12,1.78c-.3,4.38-1.15,8.2-3.88,10.13l4.74,1.12.07,8.68h2.24c2.2,5.57,5.2,10.48,9.8,14.08l1.84-.39c2,3.88,4.06,7.46,6.25,10.26l1.51-3.82c1.36,2.55,3.82,4.99,6.91,7.37l1.38-2.96,4.61,4.01-4.61-19.47-3.98.79c-3.75-1.4-6.88-3.56-9.47-6.38l2.14-1.81c-3.74-3.16-5.63-7.17-6.48-11.64l3.26-1.45c-2.62-2.01-4.77-5.84-6.91-9.74l2.11-.23-4.21-6.58,2.4-.26-6.28-13.87,2.07.35-3.65-7.55,5.53-1.73c-3.45-6.22-6.29-12.55-8.49-18.98.43-15.19,9.31-23.81,20.13-30.92l-6.25-10.39Z"/>
    </g>
    <path d="m161.53,242.61c.54,2.59,1.05,5.19,1.53,7.79.47,2.54,1.17,5.45.74,7.91-.93-2.52-1.31-5.14-1.53-7.79-.31-2.63-.59-5.26-.84-7.9h.1Z"/>
  </g>
  <path class="cls-10" d="m182.08,257.23l-12.5,20.79s1.71,13.16,8.55,21.84,8.55,11.84,8.55,11.84l8.55-47.5-13.16-6.97Z"/>
  <path class="cls-22" d="m187.21,252.69l-3.42-8.75,2.11-3.82c.48-4.13.18-8.02-1.18-11.58l4.74,2.5c.4-3.35,1.45-6.41,3.22-9.14l7.06,3.85-8.17,20.95,3.29-3.62-1.64,12.37-5.99-2.76Z"/>
  <g>
    <g>
      <path class="cls-13" d="m222.34,219.79l-2.43,18.49-10.33,8.36-5.46-8.68-11.84,8.36-2.89,8.95-4.41,8.03c4.21,10.79,4.21,18.16,3.16,27.24,0,0-3.75,24.61-3.55,26.45s6.71,10.33,7.04,10.39,0-2.11,1.45-4.21,11.71-12.24,11.71-12.24c0,0,18.42,23.95,19.41,23.88s30.99-13.68,31.64-14.41-8.36-18.22-8.42-20.26.39-16.25.39-16.25l-12.17-22.57,2.89-7.96-2.83-5.33,3.62-10.86-14.08-18.42-2.89,1.05Z"/>
      <g>
        <polygon class="cls-35" points="190.5 305.45 198.59 315.52 204.77 311.24 214.05 319.4 241.68 309.99 204.64 308.8 190.7 301.7 190.5 305.45"/>
        <path class="cls-49" d="m205.55,311.4l9.18,6.41s3.01-4,5.92-1.78.1,5.87.1,5.87c3.78,2.25,7.11,4.45,9.13,6.46,3.24-1.08,8.66-1.95,14.75-2.76l-20.38,8.83-18.7-23.04Z"/>
        <path class="cls-49" d="m187.92,294.15l3.24,3.6-2.11,1.38s4.01,2.17,4.28,3.68-6.38,10.66-6.32,11.32,3.5,7.26,4.34,7.11c.62-.11,10.7-8.44,10.99-8.22,0,0-9.47,9.8-10.13,11.18s-.72,2.57-.72,2.57c-2.62-3.5-4.91-6.79-6.51-9.67.54-6.26,1.64-14.29,2.94-22.94Z"/>
        <circle class="cls-49" cx="225.31" cy="314.54" r="1.26"/>
        <path class="cls-35" d="m187.93,292.62s8.82,9.14,13.82,9.93,25.33-4.54,25.33-4.54c0,0-31.58-7.83-35.07-9.54s-4.08,4.14-4.08,4.14Z"/>
        <path class="cls-37" d="m194.74,247.23s10.66,5.66,13.42,5.76,13.82-7.7,13.82-7.7c0,0-10.95,4.05-13.82,3.85s-13.16-3.75-13.16-3.75l-.26,1.84Z"/>
        <path class="cls-49" d="m193.7,256.39s7.65,3.7,10.31,3.31c6.71-.99,25.31-17.91,25.31-17.91l6.71,2.22s-6.12,8.78-8.49,11.6-11.84,8.78-11.84,8.78l-11.05,5.38-10.95-13.37Z"/>
        <circle class="cls-49" cx="193.84" cy="295.08" r="2.21"/>
      </g>
    </g>
    <g>
      <g>
        <polygon class="cls-40" points="191.68 246.7 205.76 238.15 198.13 228.08 191.68 246.7"/>
        <path class="cls-12" d="m205.5,239.92l-6.84-10.59-7.04,17.76c1.21-6.89,1.6-12.81,5.84-23.12,0,0,4.06,2.85,13.87,1.48,1.25,1.58,2.6,5.79,1.48,8.16s-7.3,6.32-7.3,6.32Z"/>
      </g>
      <path class="cls-12" d="m222.35,219.82s1.77-.89,3.08,1.02,3.55,28.88,3.55,28.88l12.43-11.91,3.36-14.41-1.45-6.25c-14.63-1.06-18.9.17-20.98,2.66Z"/>
    </g>
    <path class="cls-11" d="m209.84,247.75s-.79,6.41-1.68,7.2-3.26,34.44-3.26,34.44l-.13,21.51"/>
    <g>
      <g>
        <path class="cls-10" d="m180.69,252.64s.59-2.43,1.58-2.72,7,2,7.19,3.71-.05,2.38-.05,2.38l-4.46-.69-4.25-2.67Z"/>
        <path class="cls-10" d="m238.46,291.37c-1.88-3.95-13.82-15.79-15.49-15.59-1.57.18-19.2-7.19-23.79-8.26-.01,0-.03-.02-.04-.03-.83-.69-7.09-3.76-7.09-3.76.25-.88.21-1.34.16-1.98.82.44,1.62.7,2.4.75,1.07-1.38,1.11-5.79.59-6.86s-4.41-2.36-6.25-1.44c-1.17-.73-2.31-.54-3.45-.16-.43-.44-1.08-.64-1.84-.72,0,0-1.85-1.65-3.16-1.76-.83-.07-2.15,1.79-2.45,3.2-.27,1.25-1.93,5.16-1.92,6.49,0,2.14,13.53,14.5,16.54,16.69,4.32,4,12.02,11.09,15.01,13.44,4.24,3.36,14.7,8.19,19.05,8.98,4.34.79,9.77.59,9.77.59,0,0,3.85-5.63,1.97-9.57Z"/>
        <path class="cls-50" d="m191.88,258.22c.26.86.64,1.72.73,2.6-.02.19-.15.9-.45.94-.57-.5-.65-1.06-.53-1.73.03-.6.08-1.2.16-1.8h.1Z"/>
        <path class="cls-50" d="m179.46,259.56c-.4-1.57.2-3.05.87-4.44.29-.63.56-1.31,1.11-1.78.48-.44,1.26-.28,1.72-.17.38.11.74.26,1.09.45l-.02.1-1.13.07c-.35.02-.75.07-.92.17l-1.1,1.57c-.82,1.25-1.58,2.44-1.51,4.03,0,0-.1,0-.1,0h0Z"/>
        <path class="cls-50" d="m183.12,259.74c.52-1.58.6-3.29,1.31-4.81.31-.49.84-1.14,1.51-1.01,0,0,.02.1.02.1-.38.39-.43.86-.62,1.34-.15.49-.45.94-.67,1.44-.44.99-.86,2.03-1.45,2.98l-.09-.04h0Z"/>
        <path class="cls-50" d="m187.56,258.86c-.2-1.57-.47-4.4,1.64-4.74,0,0,.06.08.06.08-.23.69-.62,1.57-.97,2.21-.3.76-.49,1.59-.63,2.44h-.1Z"/>
      </g>
      <g>
        <path class="cls-8" d="m234.41,300.94s4.05,3.85,5.23,3.85,9.82-8.19,9.87-9.28-2.63-6.6-3.01-7.3c-1.23-2.27-17.62-14.75-19.1-14.75s-5.07,2.06-5.07,2.06c5.03,1.22,15.17,17.05,14.74,19.9-.54,3.6-2.66,5.53-2.66,5.53Z"/>
        <path class="cls-12" d="m246.5,288.21c-.78-1.44-7.66-6.98-12.96-10.85,3.42,6.52,5.5,13.09,2.97,20.36-.35,1.01-2.11,3.22-2.11,3.22,0,0,4.05,3.85,5.23,3.85s9.82-8.19,9.87-9.28c.05-1.09-2.63-6.6-3.01-7.3Z"/>
      </g>
    </g>
  </g>
  <path class="cls-14" d="m328.85,334.79s-4.44-17.07-11.55-23.49c-7.11-6.41-11.45-10.07-11.45-10.07l44.11.99,6.45-6.05-12.76-43.82-20.53,1.97-3.42,3.95-6.32,2.24s-14.75-18.06-16.84-19.61-13.16-3.68-13.16-3.68l-20,10.53-11.18,15.13-.53,12.89,18.55,15.92,26.45,25.92,32.17,17.17Z"/>
  <polygon class="cls-42" points="255.3 269 271.12 254.86 271.22 277.36 257.7 275.58 255.3 269"/>
  <path class="cls-17" d="m243.33,225.32l-9.28-1.05,2.76,9.28-2.7,2.24,3.82,3.22-5.72,11.45,3.82,4.87-3.22,5.66,4.34,5.39-2.43,1.18,6.12,5.53-.07,7.7s5.72,1.58,5.79,3.09,2.04,9.93,2.83,10.59,4.14.46,4.14.46l9.21,12.17,1.58-4.08,6.71,7.63,9.47,14.21,3.16-3.29,6.17,10.81,3.4-3.4,2.71,7.2,6.56-1.43,4.93,9.67,3.4-3.06,6.3,5.21,3.55,11.45,4.01.46,4.87,14.74,3.68-.33.99,9.14,3.82,2.24,2.11,10,5.39-2.63,3.88.92,1.25-2.3-2.89-2.24,1.84-1.97-1.58-5,1.18-2.89-4.61-9.93,3.09-.26-9.87-15.13,3.16-.53-8.88-12.17,5.07-.99-12.43-10.2-11.84-4.8,3.22-3.22-18.09-7.98,2.12-3.26-11-6.91,3.9-2.91-10.61-3.06-11.74-9.67,1.78-1.43-14.61-8.98-3.06-9.62s2.96-.99,3.11-1.09-.49-7.45.89-9.82,6.07-6.32,6.07-6.32l3.26,5.62,6.51-8.04,2.02,4.1s3.67-9,6.37-10.31,11.58-1.12,11.58-1.12l-4.74-4.61,7.11-2.17-3.68-3.82,5.13-3.49-8.95-7.96v-5.66l-5.26,2.24-40.92,10.66Z"/>
  <path d="m276.98,273.77c8.52,8.09,20.63,19.31,28.81,27.49-2.76-1.45-5.28-4.18-7.77-6.26-2.46-2.24-4.77-4.62-7.12-6.97-4.59-4.71-9.68-9.47-13.92-14.26h0Z"/>
  <path d="m334.04,286.17c-10.35-12.53-22.1-25.02-31.3-38.16,5.64,6,10.86,12.36,15.96,18.82,5.04,6.42,10.61,12.91,15.34,19.33h0Z"/>
  <polygon class="cls-41" points="318.69 264.18 336.2 253.23 346.71 262.85 347.36 272.03 318.69 264.18"/>
  <polygon class="cls-48" points="332.41 286.34 353.03 286.24 347.8 268.87 341.48 270.35 313.06 261.47 332.41 286.34"/>
  <path class="cls-20" d="m162.67,209.27s-4.4,4.41-4.54,10.36c-.2,8.19,6.91,21.02,15.79,25.16s17.07-1.28,17.07-1.28l8.88-22.11-37.2-12.14Z"/>
  <path class="cls-48" d="m303.79,255.35c-.49,19.54,9.44,32.5,13.98,45.72l38.03,1.55-1.68-11.15s-16.58,1.09-23.29-1.38-27.04-34.74-27.04-34.74Z"/>
  <g>
    <polygon class="cls-17" points="321.02 259.33 321.55 244.73 325.63 248.67 334.71 239.46 336.55 243.41 345.89 236.17 350.5 239.07 359.97 238.28 367.47 256.96 370.76 258.28 369.18 265.52 371.81 268.54 370.1 273.67 374.58 284.33 371.16 284.59 375.1 292.23 369.84 296.04 370.37 298.41 365.23 298.67 365.37 302.36 358 306.57 353.92 305.78 349.31 306.57 345.1 302.88 349.84 299.46 347.21 298.54 352.73 293.02 346.16 290.78 349.97 283.41 345.76 284.99 346.81 275.52 340.76 276.04 343.26 266.3 339.05 268.02 340.63 259.73 333.92 255.52 331.16 254.46 321.02 259.33"/>
    <path class="cls-33" d="m371.16,284.59l3.42-.26-4.47-10.66,1.71-5.13-2.63-3.03,1.58-7.24-3.29-1.32-2.68-6.67c-2.34,1.96-4.3,4.92-6.14,8.22-1.23-3.94-2.29-8.31-3.26-12.93-1.48,5.08-2.47,9.96-2.66,14.51-2.13-3.39-4.27-7.94-6.41-12.93,1.08,9.39,4.48,17.97,9.37,26.05l-4.93,2.47.2,5.53-2.68,2.84,1.7-.64-3.82,7.37,6.58,2.24-5.53,5.53,2.63.92-4.74,3.42,4.21,3.68,4.61-.79,4.08.79,7.37-4.21-.13-3.68,5.13-.26-.53-2.37,5.26-3.82-3.95-7.63Z"/>
    <polygon class="cls-6" points="321.02 259.33 321.55 244.73 325.63 248.67 334.71 239.46 336.55 243.41 345.89 236.17 350.5 239.07 359.97 238.28 367.47 256.96 370.76 258.28 369.18 265.52 371.81 268.54 370.1 273.67 374.58 284.33 371.16 284.59 375.1 292.23 369.84 296.04 370.37 298.41 365.23 298.67 365.37 302.36 358 306.57 353.92 305.78 349.31 306.57 345.1 302.88 349.84 299.46 347.21 298.54 352.73 293.02 346.16 290.78 349.97 283.41 345.76 284.99 346.81 275.52 340.76 276.04 343.26 266.3 339.05 268.02 340.63 259.73 333.92 255.52 331.16 254.46 321.02 259.33"/>
  </g>
  <path class="cls-16" d="m242.27,418.87s-4.61,6.05-5,8.42.59,8.62,1.32,9.01,11.38,4.08,15,3.49c3.62-.59,13.68-5.26,14.87-7.7,1.18-2.43.39-19.28.39-19.28,0,0-10.2,10.2-14.08,11.25-.99.27-12.24-4.28-12.5-5.2Z"/>
  <path class="cls-18" d="m237.08,427.82s7.7,7.08,13.03,7.3c4.67.2,17.63-5.99,18.88-7.76"/>
  <path class="cls-16" d="m211.48,408.8s-8.68,9.41-11.97,10.66-1.97,6.18.33,7.24,23.88.13,23.88.13l1.97-2.11.99,2.24s7.83-1.25,9.28-3.03,1.05-11.32,1.05-11.32c0,0-6.18.59-12.17-.2-5.99-.79-13.36-3.62-13.36-3.62Z"/>
  <g>
    <path class="cls-50" d="m146.5,165.6c2.06.42,5.73,1.88,5.36,4.48,0,0-.1,0-.1,0-.74-.94-1.54-1.61-2.33-2.5-.86-.77-1.86-1.42-2.96-1.9l.03-.1h0Z"/>
    <path class="cls-10" d="m142.64,147.59c-2.96,1.38-4.14,8.19-3.06,14.51,1.09,6.32,5.92,17.96,11.35,21.51,5.43,3.55,2.76-22.6,2.76-22.6l-11.05-13.42Z"/>
    <path class="cls-10" d="m162.96,209.07c-8.61-9.11-12.43-19.54-12.43-26.45s.39-14.7-.3-19.93c-.69-5.23-4.44-12.93-5.03-15.69s-.3-33.45-.3-33.45l6.91-9.67,16.58,1.78,11.05,24.47,29.01-23.29,16.58-5.53,28.03,9.67,16.78,21.12-.39,32.57,7.7-13.62,17.17,6.12,3.75,16.58-13.03,22.7-4.93,3.75s-49.74,22.89-59.21,24.67-23.68,1.38-32.17-1.78-20.72-8.68-25.76-14.01Z"/>
    <path class="cls-28" d="m285.86,182.6c.95-2.21,1.57-4.7.05-6.83-.36-.51-.76-.93-1.25-1.32-.02-.02-1.25-.95-1.27-.91.04-.06.37.41.4.48.03.25.04.28.03.09,0-.12,0-.23,0-.35,0-.51,0-1.02.01-1.54s0-1.01.04-1.52c.03-.56.01-.49.19-1.09.06-.22.24-.55.04-.18.1-.19.2-.37.32-.55-.23.35.03,0,.16-.13-.23.24-.1.12.08-.04.16-.09.12-.07-.13.04l.2-.06c-.23.01-.25.02-.05.01.18,0,.18,0,.02-.03.5.04,1.01.29,1.47.47.11.04.55.23.24.09.23.1.46.2.69.32s.45.23.67.36c.07.04.63.44.32.19l1.1-4.18c-1.05.25-2.09.49-3.14.74s-2.15.6-2.93,1.4c-1,1.02-1.31,2.45-.95,3.83.18.69.57,1.26,1.01,1.81.15.18.29.35.45.51l.16.16c.39.43.28.12-.36-.92l.34-1.26c-.27.6-.68,1.07-.93,1.71s-.35,1.25-.37,1.9c-.04,1.49.56,2.79,1.47,3.93.62.77,1.9.87,2.73.52.9-.38,1.54-1.28,1.54-2.28,0-.78,0-1.56-.01-2.34,0-.29,0-.58,0-.88,0-.19,0-.38,0-.57.02-.32.02-.38.01-.18.09-.28.08-.29-.03-.03.06-.13.13-.26.21-.39.22-.42-.22.16.15-.2.22-.21.43-.43.66-.63.07-.06.79-.64.38-.32l-3.76-2.16c-.03.67.11-.2,0,.15-.06.18-.1.38-.15.56-.19.66.21-.35-.11.27-.07.14-.14.28-.22.42-.4.75-.88,1.45-1.28,2.2-.47.88-.84,1.82-1.13,2.77-.11.37-.27.76-.33,1.14-.04.25.22-.29-.03.07s.09-.11.22-.19c-1.11.69-1.64,2.27-.9,3.42s2.23,1.63,3.42.9c1.13-.69,1.74-1.73,2.14-2.96.15-.47.27-.96.42-1.43.08-.25.17-.51.27-.76-.12.28.19-.36.23-.43,1.08-2,2.35-3.75,2.45-6.12.07-1.74-2.25-3.33-3.76-2.16s-2.89,2.31-3.54,4.13-.32,3.9-.31,5.72l4.27-1.77c.17.23.18.22.03-.02.1.28.1.28,0,.01-.05-.25-.07-.27-.04-.08.02.19.01.16,0-.09,0-.14,0-.28.01-.43-.04.28-.04.33,0,.14.02-.1.06-.2.09-.3-.11.27-.1.28.03.03,1.22-1.38.99-3.27-.22-4.54-.18-.19-.39-.36-.54-.56.14.18.16.19.07.04-.09-.15-.07-.13.04.07.05.66-.04.82-.43,1.25l-.23.08c.13-.05.26-.09.39-.13,1.25-.37,2.55-.61,3.82-.91,1.71-.4,2.58-2.99,1.1-4.18-1.1-.88-2.22-1.46-3.52-2s-2.48-.96-3.84-.82c-2.68.26-4.65,2.52-5.16,5.08-.25,1.26-.27,2.54-.28,3.82-.01,1.35-.08,2.71.66,3.9.39.62.95,1.02,1.55,1.42.13.09.27.17.4.27-.15-.13-.17-.14-.03-.03.09.08.18.16.26.24.19.22.22.23.06.03l.12.2c-.08-.23-.07-.2.01.09,0-.49-.02.32-.02.33.03-.44-.08.25-.1.35-.05.17-.1.33-.16.5-.11.28-.13.33-.04.13-.52,1.2-.4,2.74.9,3.42,1.08.57,2.87.39,3.42-.9h0Z"/>
    <path class="cls-25" d="m202.34,164.27l7.3,4.44s22.7-12.34,26.55-13.03,17.27,2.07,17.27,2.07c0,0-12.24-6.32-16.38-5.72s-34.74,12.24-34.74,12.24Z"/>
    <path class="cls-45" d="m157.21,137.36c7.7,19.79,12.72,40.25,14.34,61.58-2.12-.59-3.95-.87-4.87-.13.07,3.08,1.53,7.01,3.42,11.18-4.8-7.04-8.41-13.92-10.13-20.53,3.12,1.4,6.06,2.95,8.68,4.74-6.31-15.19-9.39-35.26-11.45-56.84Z"/>
    <path class="cls-25" d="m178.85,165.29l8.19-1.48s-23.68-13.82-26.45-13.42-8.98,3.75-8.98,3.75c0,0,5.13-.69,10.26.39s16.97,10.76,16.97,10.76Z"/>
    <g>
      <path class="cls-2" d="m210.44,182.3s3.66,11.81,13.74,13.05c6.52.8,12.34-2.08,12.34-2.08,0,0,3.38-2.23,4.4-3.17s5.25-10.42,5.25-10.42c0,0-12.74-8.16-21.33-6.74-8.59,1.42-14.4,9.36-14.4,9.36Z"/>
      <path class="cls-1" d="m210.61,182.62l-1-2.48c2.11-4.03,4.52-7.72,8.16-10,4.96-2.56,10.68-3.06,16.89-2.28,4.32,2.3,8.54,6.67,12.7,12.35l-1.04,2.6s-3.45-6.87-19.54-8.53c-4.87-.5-16.17,8.33-16.17,8.33Z"/>
      <g>
        <g>
          <path class="cls-34" d="m217.75,173.44c-3,3.79-3.16,10.49-.24,15.1.08.12.17.24.25.35l17.1-6.06s.01-.54.01-.57c-.19-3.72-1.96-6.76-3.58-8.61-3.58-4.07-10.53-4.01-13.53-.23Z"/>
          <path class="cls-46" d="m217.51,188.55c2.92,4.61,8.44,5.52,11.34,4.53,4.04-1.39,6.76-5.88,6.03-10.08-1.18-6.85-19.72-3.65-18.53,3.2.15.87.7,1.61,1.16,2.35Z"/>
          <path class="cls-36" d="m220.43,191.57c2.44,1.81,6.32,2.22,8.42,1.5,1.64-.56,2.44-1.18,3.91-2.99-.93-7.73-13.27-6.24-12.33,1.49Z"/>
        </g>
        <path class="cls-7" d="m217.64,188.59c-2.93-4.63-2.77-11.35.24-15.15,3.01-3.8,9.98-3.86,13.58.23,1.63,1.86,3.4,4.91,3.59,8.64.23,4.49-1.76,9.36-6.03,10.83-2.91,1-8.45.09-11.38-4.54Z"/>
      </g>
      <path class="cls-27" d="m209.07,181.67s4.51-13.58,20.03-13.11c12.24.38,16.51,11.83,16.51,11.83l-4.74,9.73c3.39-2.75,6.37-5.9,8.58-9.77,0,0-2.57-12.86-16.17-15.35-13.6-2.49-24.07,9.92-24.07,9.92.83-.64,1.34-1.43,2.16-1.55-1.32,2.23-2.11,5.16-2.89,8.27.86-1.88.95-2.29,2.26-3.98-1.16,2.22-1.35,2.98-1.67,4.02Z"/>
      <path class="cls-2" d="m217.62,181.22c-.89,2.2.4,3.57,2.05,3.21s2.01-2.39,1.45-3.32c-.68-1.14-2.62-2.09-3.51.1Z"/>
      <path class="cls-2" d="m223.71,176.86c-1.41-.88-.58-3.24.79-3.77s3.22,0,2.7,1.89-1.97,2.82-3.49,1.87Z"/>
    </g>
    <g>
      <path class="cls-2" d="m181.86,181.32s-5.47,9.83-14.67,9.04c-5.95-.51-10.6-4.17-10.6-4.17,0,0-3.27-1.93-4-2.95s-2.35-10.83-2.35-10.83c0,0,13.18-5,20.56-2.13s11.06,11.03,11.06,11.03Z"/>
      <path class="cls-1" d="m181.64,181.57l1.36-2.02c-1.12-3.98-2.58-7.72-5.39-10.43-3.93-3.21-8.93-4.73-14.6-5.2-4.28,1.23-8.85,4.33-13.62,8.61l.44,2.51s4.36-5.47,18.99-3.93c4.43.47,12.83,10.45,12.83,10.45Z"/>
      <g>
        <g>
          <path class="cls-34" d="m174.7,171.39c1.96,3.94.85,9.93-2.62,13.49-.09.1-.19.18-.29.27l-14-9.03s0-.05.02-.07c.87-3.27,3.01-5.65,4.8-6.99,3.95-2.96,10.12-1.6,12.09,2.34Z"/>
          <path class="cls-46" d="m172.08,184.88c-3.46,3.56-8.55,3.33-10.94,1.9-3.33-1.99-4.91-6.5-3.48-10.1,2.34-5.87,18.23.45,15.9,6.32-.3.74-.92,1.3-1.47,1.87Z"/>
          <path class="cls-36" d="m168.91,187.02c-2.51,1.15-6.05.79-7.78-.24-1.36-.81-1.95-1.51-2.92-3.39,2.28-6.7,12.98-3.07,10.7,3.64Z"/>
        </g>
        <path class="cls-7" d="m171.92,184.85c3.46-3.56,4.58-9.55,2.62-13.49-1.96-3.94-8.14-5.29-12.09-2.34-1.79,1.34-3.94,3.72-4.8,6.99-1.04,3.94-.19,8.63,3.33,10.74,2.39,1.43,7.48,1.66,10.94-1.9Z"/>
      </g>
      <path class="cls-27" d="m183.26,180.92s-.97-13.6-15.05-15.66c-11.1-1.63-17.54,8.52-17.54,8.52l2.06,9.99c-2.43-3.16-4.39-6.62-5.5-10.65,0,0,5.23-11.76,18.03-11.92,12.8-.16,19.41,13.3,19.41,13.3-.6-.74-.88-1.57-1.59-1.82.68,2.32.73,5.23.72,8.3-.35-1.92-.34-2.32-1.13-4.14.54,2.29.54,3.04.59,4.08Z"/>
      <path class="cls-2" d="m162.95,176.65c-1.29,1.99-3.21,1.81-3.9.33s.78-2.96,1.89-3.08c1.36-.15,3.3.77,2.01,2.76Z"/>
      <path class="cls-2" d="m167.45,173.14c-1.45-1.14-.25-3.66,1.33-4.07s3.57.39,2.77,2.42-2.53,2.88-4.1,1.65Z"/>
    </g>
    <path class="cls-29" d="m190.24,213.36c3.61.42,7.23.45,10.86.54,3.2.15,8.44-.22,10.23,3.04,0,0-.09.05-.09.05-1.22-1.36-3.09-1.5-4.81-1.75-5.28-.77-11.17-.57-16.19-1.88h0Z"/>
    <path class="cls-29" d="m199.38,193.76c1.08,3.64-1.28,6.99-3.45,9.73,0,0-.2-.02-.2-.02-.44-.95-.34-2.03,0-2.95.75-1.69,2.34-2.54,2.93-4.25.33-.75.46-1.6.53-2.48l.2-.02h0Z"/>
    <path class="cls-29" d="m290.33,166.61c-3.15-2.47-8.82-5.08-10.52.28-1.1,3.06-.9,7.25-.15,9.99,1.11.4,2.69,2.23,2.93,3.86.17,2.4-1.58,4.3-2.91,6.06,0,0-.08-.06-.08-.06.9-1.81,2.36-3.8,2.14-5.84-.34-1.24-1.47-2.67-2.6-3.11-.24-.14-.32-.37-.4-.53-.94-3.45-.72-7.24.46-10.6,1.29-3.53,4.38-4.12,7.5-2.54,1.34.64,2.57,1.47,3.69,2.41l-.06.08h0Z"/>
    <path class="cls-29" d="m274.48,191.53c1.9-1.78,3.82-3.53,5.76-5.27,1.78-1.61,4.12-3.88,6.28-4.65-1.64,2.07-3.64,3.73-5.76,5.27-2.05,1.6-4.12,3.18-6.21,4.73l-.06-.08h0Z"/>
    <path class="cls-29" d="m282.82,183.78c2.58-5.17,3.64-9.99-2.6-12.76,0,0,.03-.1.03-.1,7.58.78,5.92,8.62,2.57,12.85h0Z"/>
    <path class="cls-25" d="m284.84,212.62c-.5-2.78-.37-5.58.26-8.42,1.4,1.84,3.68,2.81,6.58,3.16-2.43-4.47-2.49-10.32-1.84-16.58.78,4.51,2.29,8.27,5.26,10.53-1.45-4.49-1.91-9.15-1.58-13.95,12.69-7.26,23.99-16.29,32.63-28.68-5.05,1.48-9.97,2.06-14.74,1.58,6.78-5.71,12.9-14.61,17.89-28.95-4.78,2.11-9.98,3.01-15.53,2.89,8.93-10.13,14.39-22.13,15.79-36.32-4.24.71-8.63.6-13.16-.26,3.01-6.75,4.16-15.23,4.47-24.47-4.14.88-8.54,1.09-13.16.79,2.57-7.9,3.6-15.45,1.84-22.37-3.22,2.16-7.82,4.05-13.16,5.79,1-10.97.34-22.95-1.32-35.53-8.21,4.72-22.71,5.41-38.95,5,4.25-4.83,6.98-9.81,7.37-15-3.93,2.74-12.87,5.11-23.16,7.37.81-6.13.95-11.91,0-17.11-9.74,14.21-37.37,12.37-51.58,22.11l3.95-12.89c-10.43,9.28-32.93,18.36-38.95,37.63l-2.37-20.79c-7.9,9.45-9.85,23.97-10,40l-9.47-24.21c-.47,19.08.22,40.45,1.58,63.16-4.2-2.93-8.02-10.4-11.84-17.89,3.62,17.07,8.93,32.71,16.32,46.58-2.5-2.26-5.05-3.23-7.63-3.16,4.66,4.04,9.47,15.53,16.58,19.74l-.71-31.12,1.87-1.53-1.09-2.81,3.11-4.88,5.48-1.04-1.13-1.87,9.87-.2c-2.42,12.5,2.27,21.79,8.14,30.54-2.71-7.11-2.76-11.94-2.47-14.46,3.86,7.48,9.03,14.84,13.82,17.52l.35-7.11s2.53-2.45,6.07-5.38,13.08-12.68,13.08-12.68c-.82,4.05-4.87,10.15-8.49,17.06,5.66-6.64,10.21-13.71,12.96-21.05.8,3.99.11,9.94-.86,16.25,4.95-7.98,9.05-16.05,11.64-24.28l13.16.46.46,3.29,14.47,1.91-3.88,2.11,11.18,7.37-2.7,1.18,6.97,3.29-1.91,1.45,8.95,4.47,2.57,40.33c4.04-4.77,7.32-9.91,9.67-15.49,0,0,17.17-1.58,18.06,12.43,1.15,18.12-17.66,29.31-17.66,29.31l6.91,15.2Z"/>
    <path class="cls-2" d="m188.39,71.44c.94-19.32,2.1-37.83,5.26-49.08,3.49-1.68,7.29-3.05,11.45-4.08-3.38,2.21-6.1,4.44-7.37,6.71,0,0,20.66,4.08,23.95,1.05s14.74-19.74,14.74-19.74c-5.27,14.57-12.79,29.4-26.97,45-22.76-8.16-21.05,20.13-21.05,20.13Z"/>
    <path class="cls-2" d="m226.81,55.12c9.47-10.58,18.81-20.51,27.24-26.45l-1.58,5.26c11.46.73,21.74,3.04,28.55,10,4.43-5.6,7.72-12.41,10.13-20.13l3.16-1.58c-5.84,26.79-17.76,48.39-39.08,61.97,4.56-5.7,9.05-11.35,10.79-15.26l-5.39-2.63c5.57-6.53,9.03-13.43,8.95-20.92l-20.79,16.71-21.97-6.97Z"/>
    <path class="cls-26" d="m270.63,120.91c15.63-5.51,31.95-12.74,45.3-22.81l13.26.12c-11.26,18.95-32.91,24.31-58.55,22.7Z"/>
    <path class="cls-26" d="m237.6,103.61c9.87-8.55,17.26-15.98,22.86-23.62l15.49-17.37c-7.64,17.74-15.79,33.16-26.58,45.92l-11.78-4.93Z"/>
    <path class="cls-2" d="m270.14,92.52c8.54-5.45,16.93-14.39,24.87-34.34,5.42-1.76,10.32-3.79,14.31-6.32-4.95,26.29-20.59,35.18-39.18,40.66Z"/>
    <path class="cls-2" d="m293.13,94.13c7.44-6.22,13.45-12.53,14.54-19.14l11.78-.13c-6.51,8.83-15.6,14.92-26.32,19.28Z"/>
    <path class="cls-2" d="m160.4,93.61c-6.61-11.53-5.83-24.31,6.81-39.08-4.59,14.67-5.27,26.86.3,35.13l-7.11,3.95Z"/>
    <path class="cls-2" d="m142.93,60.45c8.38-4.1,16.45-7.4,23.39-7.7,3.73-11.03,11-23.65,19.93-37.01-16.39,10.94-28.83,22.34-32.07,34.84l-4.05-21.32c-6.19,9.14-8,19.73-7.2,31.18Z"/>
    <path class="cls-50" d="m208.49,79.16c7.16,6.3,13.01,16.32,10.13,26.1,0,0-.1-.02-.1-.02.74-10.7-2.94-18.53-10.03-26.08h0Z"/>
    <path class="cls-50" d="m219.02,96.76c7.48-.09,14.99-1.33,21.89-4.19,6.91-2.83,13.09-7.21,18.49-12.34l.69.62c-3.16,4.31-6.51,8.5-10.22,12.36-3.69,3.75-7.81,7.79-12.22,10.35,8.37-6.63,15.19-14.86,21.7-23.26,0,0,.69.62.69.62-11.04,10.43-25.92,16.64-41.01,15.84h0Z"/>
    <path class="cls-50" d="m240.44,106.65c16.91,4.33,32.1,2.03,47.48-5.87-3.88,3.04-8.07,6.28-12.44,8.54-3.02,1.52-6.53,3.2-9.74,3.66,1.64-.55,3.23-1.23,4.79-1.95,4.68-2.19,8.99-5.06,13.06-8.22,0,0,.54.89.54.89-13.5,6.19-29.71,7.41-43.69,2.97h0Z"/>
    <path class="cls-50" d="m264.98,115.07c7.62,1.3,15.67,1.08,22.77-2.19,0,0-1.79,1.57-1.79,1.57-3.77,3.41-8.92,5.06-13.97,4.77-1.67-.07-3.32-.31-4.92-.7l.02-.1c1.65.12,3.28.18,4.91.11,4.83-.18,9.65-1.63,13.44-4.72l.41.7c-6.61,2.32-14.32,2.22-20.86.55h0Z"/>
    <path class="cls-50" d="m289.18,119.94c10.23.39,21.28.24,30.3-5.13,0,0,2.83-1.72,2.83-1.72-6.51,7.05-13.61,13.68-21.72,18.85,2.92-2.75,6.56-5.45,9.59-8.34,3.12-2.85,6.21-5.74,9.21-8.72l.54.69c-9.25,5.16-20.68,5.39-30.75,4.37h0Z"/>
    <path class="cls-50" d="m291.87,135.07c5.83-.7,11.67-2.06,16.89-4.8,0,0-.91,1.27-.91,1.27-3.22,4.48-7.57,8.77-12.32,11.3,0,0,3.08-2.83,3.08-2.83,3.02-2.83,6.04-5.7,8.61-8.95,0,0,.48.59.48.59-4.95,2.11-10.69,3.35-15.83,3.41h0Z"/>
    <path class="cls-50" d="m304.68,152.12c9.4-5.66,17.5-13.02,24.72-21.24,0,0,.08.06.08.06-2.82,4.75-6.74,8.76-11.06,12.16-4.26,3.34-9.03,6.76-13.74,9.02h0Z"/>
    <path class="cls-50" d="m281.62,198.25c2,2.53,4.8,4.11,6.67,6.73,0,0-.06.08-.06.08-1.59-.52-2.82-1.62-3.84-2.88-1.07-1.2-2.03-2.5-2.85-3.87l.08-.06h0Z"/>
    <path class="cls-50" d="m304.74,165.25c3.19-2.81,5.6-6.21,8.67-9.13,0,0,.08.05.08.05-.7,2.07-2.15,3.73-3.76,5.14-1.55,1.46-3.21,2.78-4.93,4.02l-.06-.08h0Z"/>
    <path class="cls-50" d="m202.69,62.61c4.3-14.21,30.45-16.82,43.14-17.86,0,0,3.4-.23,3.4-.23-3.75,1.4-7.69,2.86-11.19,4.78-2.59,1.37-5.1,2.91-7.53,4.58l-.06-.08c4.53-3.82,9.72-6.88,15.25-9.02l.21.98c-11.98,1.07-24.63,1.92-35.32,7.94,0,0-1.29.79-1.29.79l-1.21.91c-.74.49-1.6,1.43-2.25,2.03-1.33,1.52-2.39,3.27-3.04,5.2l-.1-.03h0Z"/>
    <path class="cls-50" d="m236.58,50.53c8.4-1.23,16.93-1.13,25.36-1.99,2.5-.42,5.78-.38,7.65-2.24,0,0,.89-1.3.89-1.3-.19,10.89-7.41,19.92-15.11,26.93,6.07-7.27,13.23-15.4,14.15-25.43,0,0,.78.27.78.27-1.05,1.29-2.59,1.52-4.05,1.88-4.2.78-8.48.85-12.73,1.03-5.6.09-11.54.48-16.94.85h0Z"/>
    <path class="cls-50" d="m281.84,56.61c7.01-10.47,10.56-22.57,13.08-34.78,0,0,.1.01.1.01-.27,6.29-1.79,12.49-4.15,18.32-2.32,5.74-5.29,11.75-9.03,16.45h0Z"/>
    <path class="cls-50" d="m157.09,87.99c-5.65-22.96,14.15-41.04,31.6-52.33-4.42,9.67-5.52,20.48-5.94,31.01-.54-9.81.46-20.48,4.31-29.81,0,0,.76.64.76.64-4.39,2.9-8.67,5.96-12.69,9.37-12.5,10.64-21.4,24.29-18.04,41.13h0Z"/>
    <path class="cls-50" d="m148.53,99.76c-5.79-4.42-8.96-11.53-8.06-18.82,0,0,.58.11.58.11-3.89,14.08-5.2,30.29,4.91,41.9-8.63-7.75-10.01-20.36-7.97-31.2.6-3.67,1.47-7.29,2.49-10.85l.58.11c-.94,7.91,1.89,13.6,7.47,18.76h0Z"/>
    <path class="cls-50" d="m184.84,87.93c-19.67-.54-31.03,8.26-37.47,26.56,0,0-.83-.37-.83-.37.71-1.45,1.62-2.82,2.73-4.02,3.29-3.56,7.78-5.76,12.23-7.45,5.86-2.22,12.19-3.75,18.33-4.96-10.05,3.36-27.16,6.45-32.48,16.83,0,0-.83-.37-.83-.37,1.53-3.91,3.3-7.77,5.61-11.31,7.31-11.65,19.62-15.89,32.71-14.93h0Z"/>
    <path class="cls-50" d="m143.48,124.22c-3.47-7.58-8.92-13.81-13.61-20.61,0,0,.08-.07.08-.07,3.14,2.75,5.72,6.06,7.89,9.6,2.12,3.47,4.48,7.35,5.64,11.07h0Z"/>
    <path class="cls-50" d="m230.72,20.09c4.23-4.99,5.85-11.32,8.67-17.09,0,0,.1.03.1.03-.44,3.24-1.58,6.32-3.14,9.17-1.51,2.77-3.32,5.96-5.63,7.88h0Z"/>
    <path class="cls-50" d="m205.05,96.45c1.19,2.75,2.08,5.64,2.66,8.59.58,2.87,1.06,6.28.2,8.99-.49-2.97-.68-5.89-.99-8.86-.37-3.43-1.31-6.01-1.87-8.72h0Z"/>
    <path class="cls-50" d="m198.53,106.86c-6.15,9.06-12.29,18.65-14.3,29.58,0,0-.1,0-.1,0-.19-5.65,2.22-11.04,4.98-15.83,2.77-4.75,5.97-9.72,9.42-13.74h0Z"/>
    <path class="cls-50" d="m172.98,108.03c-1.68,6.13-1.79,12.43-2.96,18.64-.71-2.92-.13-6.44.44-9.48.65-3.03,1.29-6.5,2.51-9.16h0Z"/>
    <path class="cls-50" d="m169.02,101.61c-2.33,2.24-3.21,5.15-4.65,7.93,0,0-.1-.02-.1-.02-.27-1.66.37-3.28,1.35-4.58.91-1.34,2.07-2.47,3.34-3.41l.07.07h0Z"/>
    <path class="cls-50" d="m283.51,136.05c-.55,3.57-1.36,7.1-2.35,10.58-.97,3.41-2.07,7.25-4.06,10.05.83-3.53,2.06-6.89,3.3-10.29,1.24-3.32,2.06-7.14,3.11-10.34h0Z"/>
    <path class="cls-50" d="m269.95,133.45c-1.46-.61-2.99-1.12-4.36-1.87-.43-.31-.84-.66-1.17-1.15l.05-.09c1.16.02,2.06.53,2.93,1.21.88.58,1.74,1.19,2.6,1.82l-.05.09h0Z"/>
    <path class="cls-19" d="m284.84,212.62c-.5-2.78-.37-5.58.26-8.42,1.4,1.84,3.68,2.81,6.58,3.16-2.43-4.47-2.49-10.32-1.84-16.58.78,4.51,2.29,8.27,5.26,10.53-1.45-4.49-1.91-9.15-1.58-13.95,12.69-7.26,23.99-16.29,32.63-28.68-5.05,1.48-9.97,2.06-14.74,1.58,6.78-5.71,12.9-14.61,17.89-28.95-4.78,2.11-9.98,3.01-15.53,2.89,8.93-10.13,14.39-22.13,15.79-36.32-4.24.71-8.63.6-13.16-.26,3.01-6.75,4.16-15.23,4.47-24.47-4.14.88-8.54,1.09-13.16.79,2.57-7.9,3.6-15.45,1.84-22.37-3.22,2.16-7.82,4.05-13.16,5.79,1-10.97.34-22.95-1.32-35.53-8.21,4.72-22.71,5.41-38.95,5,4.25-4.83,6.98-9.81,7.37-15-3.93,2.74-12.87,5.11-23.16,7.37.81-6.13.95-11.91,0-17.11-9.74,14.21-37.37,12.37-51.58,22.11l3.95-12.89c-10.43,9.28-32.93,18.36-38.95,37.63l-2.37-20.79c-7.9,9.45-9.85,23.97-10,40l-9.47-24.21c-.47,19.08.22,40.45,1.58,63.16-4.2-2.93-8.02-10.4-11.84-17.89,3.62,17.07,8.93,32.71,16.32,46.58-2.5-2.26-5.05-3.23-7.63-3.16,4.66,4.04,9.47,15.53,16.58,19.74l-.71-31.12,1.87-1.53-1.09-2.81,3.11-4.88,5.48-1.04-1.13-1.87,9.87-.2c-2.42,12.5,2.27,21.79,8.14,30.54-2.71-7.11-2.76-11.94-2.47-14.46,3.86,7.48,9.03,14.84,13.82,17.52l.35-7.11s2.53-2.45,6.07-5.38,13.08-12.68,13.08-12.68c-.82,4.05-4.87,10.15-8.49,17.06,5.66-6.64,10.21-13.71,12.96-21.05.8,3.99.11,9.94-.86,16.25,4.95-7.98,9.05-16.05,11.64-24.28l13.16.46.46,3.29,14.47,1.91-3.88,2.11,11.18,7.37-2.7,1.18,6.97,3.29-1.91,1.45,8.95,4.47,2.57,40.33c4.04-4.77,7.32-9.91,9.67-15.49,0,0,17.17-1.58,18.06,12.43,1.15,18.12-17.66,29.31-17.66,29.31l6.91,15.2Z"/>
  </g>
  <g>
    <path class="cls-20" d="m252.49,237.44c-10.08-6.4-10.13-19.43-7.78-27.05,2.35-7.62,12.8-13.96,15.99-14.8,5.46-1.45,14.93,1.32,17.83,4.21,2.2,2.2,10.13,16.21,5.17,25.04-4.95,8.83-18.06,20.94-31.21,12.6Z"/>
    <path class="cls-15" d="m258.85,237.55c-9.93-7.3-7.43-16.54-4.8-22.89,2.96-7.17,13.42-12.45,15.89-12.86,3.39-.56,8.78.66,10.79,2.07s5.49,15,1.74,22.7c-3.75,7.7-13.68,18.29-23.62,10.99Z"/>
    <path class="cls-24" d="m285.23,230.65s-12.17.53-16.05-.59c-2.01-.58-3.86-6.65-1.51-10.59,2.18-3.66,8.42-5.28,10.07-4.08,3.42,2.5,7.5,15.26,7.5,15.26Z"/>
  </g>
  <path class="cls-3" d="m322.07,164.04l-28.83,16.48c-4.84,10.68-15.31,16.91-15.31,16.91l6.91,15.2c-.5-2.78-.37-5.58.26-8.42,1.4,1.84,3.68,2.81,6.58,3.16-2.43-4.47-2.49-10.32-1.84-16.58.78,4.51,2.29,8.27,5.26,10.53-1.45-4.49-1.91-9.15-1.58-13.95,10.78-6.17,20.55-13.62,28.55-23.32Z"/>
  <g class="cls-32">
    <path class="cls-30" d="m101.21,160.37l8.37-3.55v.28s-11.02-5.31-11.02-5.31l-.63-.3.67-.21c4.06-1.28,8.25-1.84,12.4-2.46,8.28-1.23,16.67-2.11,24.75-4.24,3.86-1.11,8.44-2.72,9.94-6.65-2.19,9.5-26.37,10.32-34.59,11.64-4.15.55-8.34,1.04-12.33,2.23l.04-.51,10.9,5.54.3.15-.31.12-8.45,3.36-.04-.09h0Z"/>
    <path class="cls-30" d="m157.99,166.88s-17.2,4.43-17.24,4.44c0-.03-23.16-8.46-23.17-8.49.67-.04-42.86,6.32-42.7,6.3,0,0,.35-.31.35-.31l-3.27,12.45-.3-.58,15.07,5.81c5.03,1.92,10.02,3.94,15.03,5.92l.24.1v.26c.21,5.85.65,14.91.76,20.35,0,0,3.79,6.98,3.79,6.98l-.09.05-4.04-6.84-.02-.04v-.05c-.39-5.87-.83-14.45-1.19-20.42,0,0,.25.35.25.35-8.79-3.24-21.31-8.13-30.17-11.56,0,0-.41-.16-.41-.16l.12-.42,3.39-12.42.08-.28c.41-.06,42.85-5.99,43.28-5.98-.1.02,23.37,8.75,22.96,8.69.01.1,17.4-4.49,17.26-4.16h0Z"/>
    <path class="cls-30" d="m157.21,178.03l-7.8,3.6v-.2c6.45,2.28,25.8,8.51,28.35,14.52.29.87-.02,1.69-.62,2.34-2.17,1.93-4.96,2.94-7.56,4.03-14.98,5.82-30.76,9.2-46.04,13.99-.31.15-.21.07-.23.07.9.9,2.44,1.24,3.69,1.72,1.61.63,3.44.92,4.9,1.9.4.39-.07.82-.34.96-3.65,1.74-7.67,2.55-11.54,3.64,3.46-1.45,7.75-2.27,11.22-4.14.1-.06.24-.19.21-.17.02-.02-.04.09,0,.13-1.24-1-10.26-2.27-8.85-4.53.14-.15.36-.3.54-.37,1.69-.72,3.41-1.17,5.15-1.71,13.7-3.99,27.63-7.19,41.01-12.15,1.94-.89,8.68-3.01,7.86-5.55-1.49-3.13-5.21-4.67-8.1-6.36-6.42-3.29-13.19-5.87-20.01-8.23,0,0,.25-.11.25-.11l7.85-3.5.04.09h0Z"/>
    <path class="cls-30" d="m53.32,183.86c3.63,1.44,7.32,3.22,11.19,3.72,3.59.42,8.43.42,11.87,1.6,1.07.48,1.69,1.33,2.36,2.07,1.9,2.12,3.48,4.83,5.84,6.42,1.45.64,4.04,1.1,5.6,1.53,1.92.47,3.85.93,5.78,1.43l-.02.1c-1.98-.22-3.94-.52-5.9-.84-1.99-.38-4-.61-5.93-1.33-3.57-2.15-4.83-6.36-8.06-8.64-1.73-.68-3.76-.9-5.7-1.17l-5.91-.67c-2.02-.25-3.88-1.03-5.72-1.75-1.84-.74-3.66-1.54-5.46-2.38l.04-.09h0Z"/>
    <path class="cls-30" d="m50,219.98s20.8,13.94,20.61,13.83c7.09,2.7,14.14,5.91,21.53,7.66,6.51.96,16.15,1.36,22.82,1.84,1.35.32,2.69.69,4.04.99,1.99.56,4.08.73,6.05,1.17,1.97.8,3.59,2.14,5.2,3.48,0,0-.24-.09-.24-.09l7.24.33,7.23.39v.1s-7.25,0-7.25,0l-7.24-.06h-.13c-1.56-1.26-3.23-2.58-5.11-3.3-3.21-.41-7.13-1.21-9.85-2.01-7.66-.5-15.28-.95-22.9-2.08-7.47-1.86-14.45-5.14-21.58-7.96.05-.07-20.73-14.16-20.42-14.28h0Z"/>
    <path class="cls-30" d="m125.32,241.98c3.75,1.46,7.63,3.02,11.65,3.33,4.06.17,8.12,0,12.2.31,0,0,0,.1,0,.1-6.03,1.09-12.52,1.1-18.27-1.19-1.92-.73-3.79-1.56-5.63-2.46l.04-.09h0Z"/>
    <path class="cls-30" d="m51.93,263.39c8.74,1.46,4.75,6.8,9.94,11.27,2,1.75,4.6,2.6,6.96,3.86,3.57,1.65,7.06,3.94,10.94,4.67,1.04.07,2.82-.36,3.9-.51,7.88-1.43,15.74-3.07,23.58-4.7,6.84-1.48,13.72-2.84,20.49-4.63.39-.14.39-.07.52-.31.72-1.77.72-3.86,1.43-5.75.32-.79.62-1.57,1.62-1.72,6.06-.61,12.13.06,18.14.39,5.34.37,10.67.82,15.99,1.35l-.3.25c.11-1.87-.21-4.34-2.08-5.23-1.97-.71-3.67-2.19-4.73-4,0,0,.09-.05.09-.05,1.12,1.75,2.79,3.09,4.78,3.72,2.13.91,2.56,3.53,2.5,5.6,0,0-.01.27-.01.27l-.29-.02c-10.64-.65-21.32-1.6-31.97-1.5-.75.05-1.6.05-2.24.28,0-.06-.11.1-.18.2-1.17,2.03-.89,4.5-1.91,6.68-.09.16-.25.42-.5.54-6.95,1.98-14.13,3.12-21.2,4.65-7.87,1.57-15.73,3.13-23.64,4.5-1.13.14-2.86.58-4.04.48-4.01-.78-7.43-3.12-11.06-4.85-2.35-1.28-4.94-2.18-6.98-3.98-2.11-1.78-3.03-4.47-3.66-7.05-.26-1.32-1.22-2.35-2.36-3.02-1.14-.67-2.43-1.09-3.74-1.31v-.1h.01Z"/>
    <path class="cls-30" d="m94.53,324.53c-.11-5.17-.02-10.36.62-15.51.38-2.56.75-5.18,2.1-7.54,1.47-2.2,3.92-3.52,6.02-5.03,4.33-2.86,8.72-5.58,12.98-8.46,4.14-2.87,8.79-6.03,10.85-10.61-1.42,5.14-6.29,8.34-10.28,11.43-5.27,3.8-11.04,6.73-16.31,10.47-3.49,2.04-4.3,6.05-4.87,9.82-.87,5.03-.81,10.53-1.12,15.44h0Z"/>
    <path class="cls-30" d="m93.95,309.95l-7.62-12.22-.18-.29.34-.1c5.98-1.82,11.91-3.85,17.71-6.15,5.78-2.34,11.68-4.48,16.96-7.84-2.02,2.12-5.24,3.63-7.94,5.06-8.46,4.17-17.56,6.82-26.59,9.44,0,0,.16-.39.16-.39-.04.04,7.47,12.54,7.16,12.5h0Z"/>
    <path class="cls-30" d="m158.9,284.67c-.37-1.55-.89-4.66,1.4-4.86,3.14.2,6.27.32,9.42.4,0,0,15.06.38,15.06.38l-.11.63c-4.14-1.33-8.26-2.71-12.33-4.27-5.05-1.93-7.03-2.88-1.28-6.24.96-.55,1.93-1.05,2.94-1.51l-.21.78c-.31-.44-3.39-4.74-3.6-5.04,0,0,.83-.1.83-.1,6.71-.75,13.46-1.47,20.22-1.14,0,0,0,.1,0,.1-1.68.02-3.37.14-5.04.28-5.03.42-10.05,1.03-15.04,1.74,0,0,.34-.78.34-.78.23.31,3.38,4.65,3.52,4.83-2.23,1.13-4.87,2.1-6.44,3.98-.09.18-.07.21-.05.26.24.22.74.52,1.2.75,5.54,2.6,11.46,4.45,17.24,6.46,0,0-2.19-.08-2.19-.08-7.53-.29-15.07-.54-22.59-1.06-1.13-.03-2.73-.61-3.21.8-.41,1.16-.22,2.47.04,3.67l-.1.03h0Z"/>
    <path class="cls-30" d="m192.59,285.4c11.73-3.77,23.56-7.45,35.53-10.37,2.05-.77-.84-2.72-1.7-3.4-5.28-3.59-11.57-6.32-17.57-7.94,4.84.23,19.21,5.58,20.96,10.23.37,1.86-2.03,2.24-3.3,2.46-1.27.24-2.53.54-3.8.83-10.06,2.36-20.3,5.64-30.12,8.19h0Z"/>
    <path class="cls-30" d="m201.8,280.47c-3.11-.4-14.89-1.16-16.01-4.07-.12-1.4-.1-2.83-.05-4.23.12-1.66.43-3.91,2.06-4.96,2.01-1.32,4.05-2.63,6.15-3.8l.06.08c-1.82,1.57-3.73,3.03-5.65,4.46-.28.21-.43.39-.61.64-1.18,1.94-1.07,4.48-1.17,6.7,0,.2-.04.81,0,.95.02.14.22.37.46.54,2.01,1.22,4.41,1.64,6.68,2.18,2.67.58,5.38,1.04,8.1,1.42v.1h-.01Z"/>
  </g>
</svg>