<?xml version="1.0" encoding="UTF-8"?>
<svg id="Calque_3" data-name="Calque 3" xmlns="http://www.w3.org/2000/svg" viewBox="0 0 425.07 441.95">
  <defs>
    <style>
      .cls-1, .cls-2, .cls-3, .cls-4, .cls-5, .cls-6, .cls-7, .cls-8, .cls-9, .cls-10, .cls-11, .cls-12, .cls-13, .cls-14, .cls-15 {
        stroke-miterlimit: 10;
      }

      .cls-1, .cls-2, .cls-9, .cls-15 {
        fill: none;
      }

      .cls-1, .cls-3, .cls-6, .cls-9, .cls-12, .cls-13, .cls-15 {
        stroke-width: .5px;
      }

      .cls-1, .cls-12 {
        stroke: #1d1d1b;
      }

      .cls-16 {
        fill: #ddd;
      }

      .cls-17 {
        fill: #565a96;
      }

      .cls-18 {
        fill: #fff;
      }

      .cls-19 {
        fill: #cebab6;
      }

      .cls-20 {
        fill: #191829;
      }

      .cls-2, .cls-4 {
        stroke: #1d1d1c;
      }

      .cls-21 {
        fill: #1b182a;
      }

      .cls-3 {
        fill: #fde9e0;
      }

      .cls-3, .cls-9 {
        stroke: #161616;
      }

      .cls-22 {
        fill: #3775ba;
      }

      .cls-23 {
        fill: #221c2d;
      }

      .cls-24 {
        stroke-linejoin: round;
      }

      .cls-24, .cls-5, .cls-6, .cls-10, .cls-11, .cls-13, .cls-15 {
        stroke: #000;
      }

      .cls-24, .cls-7, .cls-10 {
        fill: #322840;
      }

      .cls-25 {
        fill: #4a4854;
      }

      .cls-26 {
        fill: #1b192b;
      }

      .cls-27, .cls-4 {
        fill: #f7fcfd;
      }

      .cls-28 {
        fill: #929ebe;
      }

      .cls-5 {
        fill: #1e1935;
      }

      .cls-29 {
        fill: #4c4956;
      }

      .cls-30 {
        fill: #181b35;
      }

      .cls-6, .cls-8 {
        fill: #703a57;
      }

      .cls-31 {
        fill: #1c1b2e;
      }

      .cls-7, .cls-8 {
        stroke: #565a96;
      }

      .cls-32 {
        fill: #161616;
      }

      .cls-33 {
        fill: #cbcbca;
      }

      .cls-34 {
        fill: #35263b;
      }

      .cls-11, .cls-13 {
        fill: #4a3e66;
      }

      .cls-12 {
        fill: #7e5b6c;
      }

      .cls-35 {
        fill: #13448c;
      }

      .cls-36 {
        fill: #1d1d1b;
      }

      .cls-14 {
        fill: #412840;
        stroke: #565a97;
      }

      .cls-37 {
        fill: #ededed;
      }

      .cls-38 {
        fill: #c42f83;
      }
    </style>
  </defs>
  <g>
    <g>
      <path class="cls-10" d="m194.75,144.1s-3.83,3.45-9.13,7.12c-5.66,3.93-12.87,8.26-15.05,12.97-2.96,6.4.96,17.85,4.16,25.37-3.44,1.6-9.07,33.68-14.73,36.18-12.33,5.44-26.74,54.27-28.66,69.32-1.92,15.05-1.76,40.18-1.76,40.18l-4,7.92c-2.69,15.02-3.78,33.72-5.87,53.55l17.72,3.36s3.12-14.81,12.81-27.54c3.86-5.07,6.56-23.45,6.56-23.45l-1.76-9.05c10.84-15.57,35.8-60.05,36.18-63.56,1.36.59,3.66-1.34,3.66-1.34,1.43,17.67,12.92,39.61,27.72,60.57l1.28,10.62c7.34,9.71,14.19,22.95,20.33,37.25l15.81-7.14c-2.42-15.5-5.06-30.38-9.35-40.25l-6.72-10.03c1.12-23.3-7.21-52.88-17.08-83.25-8.13-11.02-14.51-19.73-23.27-27.11,0,0,18.04-27.11,20.22-30.36,2.19-3.26,1.65-9.66,1.65-9.66l-30.74-31.7Z"/>
      <g>
        <g>
          <path class="cls-5" d="m118.36,439.71s11.89-.41,13.07-.61,7.86-5.54,8.48-6.69.52-6.39.52-6.39l-4.87-6.77s-6.56,9.69-6.42,9.93.22,4,.22,4l-11.01,6.53Z"/>
          <path class="cls-5" d="m139.77,428.07s5.75-.23,6.42-.42,5.83-5.77,5.83-5.77c-3.41-1.06-7.57,1.4-12.24,6.19Z"/>
          <path class="cls-24" d="m106.58,432.87c-.84,1.5-.54,4.09,0,6.92,0,0,11.06.46,13.83-.23,2.77-.69,10.73-6.35,10.73-6.35-.33-4.95,1.03-8.87,4.65-11.43.86,2.24,2.17,4.31,3.43,6.46,5.74-5.16,10.3-7.74,12.94-6.12,0,0-1.11-3.04-1.33-5.42-.22-2.39.44-8.19.44-8.19l-1.03-.96s-8.26,2.15-11.14,3.5c-2.88,1.35-4.43,2.04-9.96,12.7-5.53,10.66-22.57,9.12-22.57,9.12Z"/>
          <path class="cls-10" d="m119.72,391.39v10.79c-1.04,6.07-1.57,12.12-1.48,18.16-6.46.03-11.18,4.34-11.54,12.78,0,0,7.55,1.53,13.75-1.7,6.2-3.23,8.27-6,9.3-8.62,1.03-2.62,7.81-10.77,11.79-12.46,3.98-1.69,8.7-2.77,8.7-2.77,0,0,.44-3.23-.59-4.62s-5.75-5.85-7.08-8.77,4.04-13.03,4.04-13.03l-26.9,10.25Z"/>
        </g>
        <g>
          <path class="cls-5" d="m154.4,362.21c-11.72,6.9-21.58,11.27-32.61,11.25l.61-6.19s-5.19,3.9-5.75,5.51,1.4,10.89,1.4,10.89c12.74-1.72,24.35-4.9,33.14-11.75,1.23-2.19,2.76-6.48,3.2-9.71Z"/>
          <path class="cls-5" d="m152.32,369.03c-10.25,8.86-27.38,12.61-34.98,11.05-.8,1.12,1.36,10.93,1.36,10.93l28.58-8.93,5.04-13.05Z"/>
          <path class="cls-5" d="m149.04,377.75c-11.09,7.69-19.23,9.18-31.02,9.61-.35,3.34.22,7.13,1.25,11.15,0,0,22.32-5.78,24.56-8.35,2.24-2.56,5.2-12.41,5.2-12.41Z"/>
        </g>
      </g>
      <g>
        <g>
          <path class="cls-5" d="m251.11,433.8s11.08-4.35,12.13-4.92c1.05-.57,8.52-10.79,8.73-12.09s-1.64-6.19-1.64-6.19l-6.84-4.77s-5.92,14.28-5.7,14.45,1.54,3.7,1.54,3.7l-8.21,9.82Z"/>
          <path class="cls-5" d="m270.38,412.74s5.35-2.13,5.91-2.53,3.58-7.38,3.58-7.38c-3.57.13-6.68,3.84-9.49,9.91Z"/>
          <path class="cls-24" d="m237.73,431.27c-.29,1.69.85,4.04,2.3,6.53,0,0,10.59-3.24,12.97-4.82,2.38-1.57,8.01-9.56,8.01-9.56-1.95-4.56.98-11.66,3.53-15.27,1.56,1.83,3.49,3.35,5.38,4.95,3.69-6.77,7.14-10.73,10.17-10.07,0,0-2.05-2.5-3.06-4.67-1-2.18-2.31-7.87-2.31-7.87l-1.29-.56s-7.07,4.78-9.34,7.01c-2.26,2.23-3.43,3.38-5.42,15.22-1.83,10.88-20.95,19.12-20.95,19.12Z"/>
          <path class="cls-10" d="m241.39,383.54l1.46,11.45c1.04,6.06.82,11.43,2.91,17.1-6.08,2.18-10.32,11.29-7.85,19.36,0,0,7.63-1.07,12.4-6.18,4.77-5.11,8.92-10.75,9.03-13.56s3.62-13.37,6.81-16.29c3.19-2.92,7.29-5.51,7.29-5.51,0,0-1.13-3.68-2.57-4.64-1.43-.96-6.89-3.12-9.12-5.43s-2.49-12.79-2.49-12.79l-17.88,16.49Z"/>
        </g>
        <g>
          <path class="cls-5" d="m254.35,346.72c-2.08,9.29-7.94,15.71-18.36,19.32l-3.2-5.71s-2.01,5.5-1.87,7.2c.27,3.26,4.43,7.79,4.43,7.79,11.47-5.81,16.04-6.91,22.09-16.28.44-2.47-1.49-9.93-3.1-12.33Z"/>
          <path class="cls-5" d="m256.54,353.23c-.32,13.13-14.72,19.73-22.41,20.76.05,3.36,4.8,9.55,4.8,9.55,10.08-4.14,17.79-10.18,19.53-19.36.16-3.75-.76-7.27-1.92-10.95Z"/>
          <path class="cls-5" d="m259,364.39c-7.04,12.17-10.23,12.69-21.23,16.97.77,3.27,1.9,4.99,4.2,8.44,0,0,16.71-10.57,17.98-13.73,1.27-3.16-.96-11.69-.96-11.69Z"/>
        </g>
      </g>
    </g>
    <path class="cls-8" d="m156.76,347.9s-.67-2.02-3.52-2.88c-2.85-.87-21.15-3.81-22.49-3.96-1.8-.2-4.96,1.56-4.96,1.56.78-4.15,1.98-9.81,3.48-11.45-.19-2.39-.15-4.39.2-6.72,0,0,1.46,6.15,3.05,6.56s20.43,3.84,21.84,4.05,6.36-3.08,6.36-3.08c-.47,1.55-3.01,5.5-3.98,6.48.37,3.08.58,6.99.01,9.45Z"/>
    <path class="cls-8" d="m249.44,334.29s-1.56-1.37-4.12-.68c-2.56.69-17.62,7.34-18.69,7.89-1.43.73-2.84,3.8-2.84,3.8-1.62-3.9-3.72-9.29-3.48-11.42-1.4-1.93-2.43-3.64-3.41-5.79,0,0,4.33,4.47,5.72,4.02s17.11-6.96,18.26-7.49,3.07-5.79,3.07-5.79c.47,1.55.68,6.15.49,7.47,1.9,2.42,4.12,5.62,5,7.98Z"/>
  </g>
  <g>
    <path class="cls-27" d="m135.72,41.72c2.1-11.4,6.77-20.6,15.58-26.25-4.41,7.32-6.1,16.26-5.64,26.49l-9.93-.25Z"/>
    <path class="cls-4" d="m135.72,41.72s4.66-25.63,26-35.2c21.34-9.57,52.62,5.89,61.45,15.45,8.83,9.57,16.93,42.31,19.87,50.41,2.94,8.1,9.69,19.62,16.8,20.97,7.11,1.35,15.13,2.4,16.19-2.94,1.08-5.45-1.72-9.93-1.72-9.93,0,0,7.3,7.52,2.94,16.44-3.76,7.69-14.39,6.94-16.19,6.01,7.19,10.86,11.02,20.8,2.45,27.35,0,0,5.94,3.11,9.08,8.22,3.63,5.91-1.25,18.51-7.24,21.83-6.41,3.56.46,9.8,2.09,6.75,1.08,3.38.07,6.16-6.01,7.48l-8.34-2.09-13.61-19.24-36.92-15.35-8.1-32.13-58.75-64.02Z"/>
    <path class="cls-28" d="m142.32,39.63c-.52-8.32,1.71-15.91,7.87-23.39-1.81,3.96-1.76,7.76-2.17,11.89,2.78-4.79,5.62-9.15,8.74-11.77-2.11,3.85-3.31,8.78-4.14,14.17,0,0,6.14-7.27,7.27-8.92,6.38-9.32,12.82-14.9,26.31-16.37-10.52,2.15-21.54,11.45-22.63,20.24,5.74-5.46,11.68-9.59,18.12-10.3-6.13,2.9-10.81,7.67-14.72,13.43,6.07-4.13,12.12-8.03,17.94-8.74l-8.65,6.07c6.01-2.67,12.14-3.26,18.4-1.66-.79-1.52-3.59-2.58-6.62-3.59,16.76-3.1,25.76,16.62,28.68,30.06-1.29-2.78-2.33-4.76-4.3-5.96,1.38,6.18,6.42,16.18,11.68,26.4,0,0-7.82-6.62-9.75-10.85-1.93-4.23-14.53-27.78-18.12-27.96s-22.09,1.13-26.88,2.87c-4.78,1.75-8.54,6.33-8.54,6.33l-18.49-1.93Z"/>
    <path class="cls-36" d="m154.73,37.33c-.07-6.77,3.22-13.59,8.74-17.57-5.05,4.53-8.09,10.83-8.74,17.57h0Z"/>
    <path class="cls-36" d="m169.82,31.81c3.77-5.13,9.08-9.34,15.18-11.31-5.84,2.62-10.86,6.61-15.18,11.31h0Z"/>
    <path class="cls-36" d="m189.6,20.77c12.42,5.85,23.05,16.33,26.95,29.71-4.55-13.11-14.88-23.26-26.95-29.71h0Z"/>
    <path class="cls-28" d="m198.64,15.96s13.74,4.48,18.52,10.73c4.78,6.26,7.11,16.19,7.11,16.19-5.23-11.19-14.12-19.93-25.63-26.92Z"/>
    <path class="cls-28" d="m277.46,85.45c-.19,10.81-7.48,17.76-26.63,12.99,11.41,7.15,15.1,17.09,16.07,28.03,2.1-2.91,3.73-10.07-5.88-23.46,16.29,2.79,19.8-8.16,16.44-17.56Z"/>
    <path class="cls-28" d="m209.81,97.52c1.35,3.63,3.14,6.69,5.46,9.08-1.27-4.17-1.55-8.89-1.17-13.98l-4.29,4.91Z"/>
    <path class="cls-28" d="m215.2,94.09c4.16,4.58,7.08,10.68,8.34,18.83,2.31-7.9.35-16.39-4.35-25.27l-3.99,6.44Z"/>
    <path class="cls-28" d="m254.73,157.07c14.03-10.83,7.25-20.63,4.02-25.32,3.51,14.01-1.57,18.25-4.05,20.24,3.47-12.35,3.53-21.98-2.94-26.37,1.5,6.91.65,14.08-2.33,21.46-3.86-5.51-6.07-12.59-5.03-22.81-3.03,5.22-2.55,17.51-1.25,24.43l-3.68-.86c-3.78-7.44-4.78-21.7-2.92-30.44,3.95-4.62,6.3-12.75,4.66-23.61,5.33,7.78,8.46,13.74,9.93,24.47.91-15.91-3.37-31.25-22.2-44.95l-7.48,12.69c4.64,6.12,7.78,13.63,9.81,22.14,1.62-7.55,1.45-14.93.18-22.2,6.31,9.63,7.56,21.18,3.95,31.29-6.1,8.81-9.05,16.72-7.94,23.47l-1.23-.25c-4.35-5.61-6.06-11.58-4.29-18.03-2.36,2.86-3.72,6.64-4.29,11.16-4.44-6.43-5.81-13.45-3.31-21.22-3.2,3.99-5.2,9.93-4.05,20.97-2.2-5.68-3.66-11.08-3.68-15.94-1.32,3.67-1.81,7.94-1.72,12.63l-1.59-.49c-.65-5.44-.58-11.01,0-16.68l-4.05-.74,1.47,18.03,23.67,13.37,15.17,14.67,13.53,11.45,7.35,5.01c2.2-.18,3.91-.64,5.47-1.29-10.05-2.25-19.98-9.52-11.2-16.29Z"/>
    <path class="cls-36" d="m228.69,78.39c1.53,3.63,5.4,5.97,8.16,8.66,7.46,6.46,14.89,14.79,14.96,25.22,0,2.02-.26,4.02-.68,5.98.35-1.98.51-3.98.44-5.98-.36-10.31-7.69-18.39-14.97-24.94-2.76-2.79-6.48-5.15-7.91-8.95h0Z"/>
    <path class="cls-36" d="m216.18,95.07c4.03,3.44,6.44,8.52,7.6,13.61-1.84-4.92-4.06-9.68-7.6-13.61h0Z"/>
    <path class="cls-36" d="m229.31,140.45c-.33-5.58.31-11.92,4.29-16.19-3.41,4.69-3.92,10.57-4.29,16.19h0Z"/>
    <path class="cls-36" d="m235.81,140.7c-4.02-7.73-3.47-17.33.34-25.05,2.88-5.69,4.19-12.21,3.31-18.54-.26-2.12-.76-4.21-1.57-6.2,3.72,7.88,2.76,17.4-1.07,25.08-3.81,7.59-4.42,16.87-1.01,24.72h0Z"/>
    <path class="cls-36" d="m249.79,147.93c6.71-4.66,7.87-11.04,4.21-18.17-1.02-2.08-2.27-4.07-3.59-5.99,1.47,1.82,2.84,3.74,3.94,5.82,3.93,7.09,2.65,14.15-4.55,18.34h0Z"/>
    <path class="cls-36" d="m254.45,157.38c10.13-8.12,11.03-15.81,3.3-26.17-1.96-2.78-4.09-5.46-6-8.29,2.06,2.72,4.28,5.31,6.31,8.07,8,10.32,7.08,18.69-3.61,26.4h0Z"/>
    <path class="cls-36" d="m213.85,133.58c-3-6.38-3.43-14.49.74-20.48-3.52,6.32-3.07,13.82-.74,20.48h0Z"/>
  </g>
  <path class="cls-2" d="m135.27,41.96s5.12-25.88,26.46-35.45c21.34-9.57,52.62,5.89,61.45,15.45,8.83,9.57,16.93,42.31,19.87,50.41,2.94,8.1,9.69,19.62,16.8,20.97,7.11,1.35,15.13,2.4,16.19-2.94,1.08-5.45-1.72-9.93-1.72-9.93,0,0,7.3,7.52,2.94,16.44-3.76,7.69-14.39,6.94-16.19,6.01,7.19,10.86,11.02,20.8,2.45,27.35,0,0,5.94,3.11,9.08,8.22,3.63,5.91-1.25,18.51-7.24,21.83-6.41,3.56.46,9.8,2.09,6.75,1.08,3.38.07,6.16-6.01,7.48l-8.34-2.09-13.61-19.24-36.92-15.35-8.1-32.13-59.21-63.78Z"/>
  <g>
    <g>
      <polygon class="cls-31" points="218.89 49.88 227.79 50.79 223.58 56.75 220.97 61.39 218.89 49.88"/>
      <path class="cls-25" d="m225.62,50.58c-2.92,2.77-4.09,6.6-4.42,10.45,2.3-3.79,4.63-7.3,6.98-10.36-.97-.08-1.78-.11-2.57-.09Z"/>
    </g>
    <path class="cls-29" d="m133.44,87.45c.37,8.77-.68,17.01-3.03,20.14,5.16.82,10.34.74,14.56.38.95,2.9,1.51,5.56,1.21,8.1,2.79-.92,5.29-2.54,6.82-5.13l-19.56-23.49Z"/>
    <path class="cls-21" d="m238.64,70.28c-6.28-.35-11.51-4.52-14.51-10.87,0,0-7.54-20.87-9.55-24.33-3.59-6.17-14.92-9.23-14.92-9.23,0,0-13.36-3.22-21.52,2.39-8.16,5.61-26.61,25.14-34.39,28.2-6.36,2.5-7.55.23-9.55.1-4.26.08-3.55,9.86-2.44,9.53-.51.72-12.4,2.2-12.4,2.2,1.12,1.98,14.4,11.43,14.32,15.15-1.2,1.11-4.21.77-4.21.77,0,0,1.86,1.91,4,4.16.29,5.94,1.21,12.68.08,16.75,3.98.49,7.81,1.39,11.42,2.87.1,1.77,1,3.38,1.21,5.12l7.59-1.68c2.32,4.47,3.3,10.43,3.76,16.96,3.5-1.02,7.2-3.35,11.03-6.63l-20.79-22-.6-.52c-.96-10.04,6.39-18.99,15.2-27.93,8.93-9.06,32.27-22.7,43.88-20.53,11.61,2.17,14.29,15.31,14.29,15.31l-12.75,31.12-2.04,16.45c4.26-1.25,9.21-1.43,14.54-1.02-1.69-2.36-1.76-10.02-2.04-16.96,4.01-1.18,7.63-2.95,10.33-6.12-.38-.74-.43-1.68-.38-2.68,5.23-3.28,8.1-8.64,10.46-16.58Z"/>
    <path class="cls-20" d="m135.08,58.29s-2.61-6.06-1.08-11.1c1.16-3.81-1.66-6.6-3.89-11.73,10.27,8.55,15.94-.7,27.68-1.15,6.89-.26,20.15,2.93,23.09,3.7s37.37,10.33,39.67,28.06c2.3,17.73-13.03,26.9-13.03,26.9,0,0-7.12-18.61-18.15-23.21-11.03-4.59-26.4-4.15-29.08-3.7s-25.19-7.78-25.19-7.78Z"/>
    <path class="cls-29" d="m201.74,25.38c-3.89-.48-10.75-1.12-15.99-.54-7.75.86-21.81,13.01-32.91,24.68-11.1,11.67-16.9,7.52-18.56,7.15-3.3-.14-3.85,5.1-3.16,9.56l-12.34,1.95,9.66,8.32-5.55-7.27,20.6,7.02s-.7-2.3.64-4.72c2.28-4.12,15.98-12.27,25.29-18.53,7.96-5.35,24.17-10.94,28.7-12.45,3.39,2.33,7.43,3.69,9.44,2.09,4.21-3.35,9.61-24.87,9.61-24.87,0,0-8.44,3.72-15.43,7.62Z"/>
    <path d="m129.08,66.58c3.33-.75,6.67-1.56,10.1-1.55,3.38.51,4.33,5.8,4.76,8.6-.41-1.65-.9-3.27-1.59-4.8-1.89-4.56-4.19-3.26-8.22-2.92,0,0-5.04.68-5.04.68h0Z"/>
    <path d="m138.26,51.92c-2.27-2.62-4.28-5.44-5.99-8.45,2.28,2.62,4.27,5.44,5.99,8.45h0Z"/>
    <path d="m148.47,39.23c-1.71-.03-3.35-.39-4.91-1.08,1.71.03,3.35.39,4.91,1.08h0Z"/>
    <path class="cls-29" d="m138.65,52.17c-5.18-6.68-9.71-13.2-12.44-19.26l21.68,6.44c.94,3.22.53,5.86-1.21,7.91l-16.13-11.22,8.1,16.13Z"/>
    <path class="cls-26" d="m192.68,34.17c1.88-3.15,17.6-9.09,17.6-9.09,0,0-3.86,14.94-6.87,17.26-2.36,2.49-11.54-5.78-10.73-8.17Z"/>
    <path class="cls-25" d="m195.02,64.93s-1.43-1.72.05-4.93c1.48-3.2,16.93-9.28,16.93-9.28-1.29,10.82-3.15,18.32-6.31,18.22,1.12-4.52,1.98-8.93,2.49-13.2-4.1,2.51-8.55,5.69-13.15,9.18Z"/>
    <path d="m195.12,38.57c-1.53-1.4-3.29-3.79-2.87-6,1.46-2.88,4.54-4.5,7.12-6.24,1.54-.93,3.12-1.81,4.74-2.59-1.53.96-3.05,1.91-4.54,2.91-2.44,1.79-5.42,3.36-6.92,6.06-.34,2.14,1.11,4.25,2.46,5.85h0Z"/>
    <path class="cls-25" d="m224.73,60.57c1.77,3.62,2.98,7.55,10.71,10.57-.46,4.3-2.38,9.05-4.89,14,3.83-3.41,7.01-8.68,8.39-15.29-.79.41-2.38.02-4.02-.43-3.64-1.51-6.98-4.76-10.19-8.85Z"/>
    <path class="cls-25" d="m228.29,87.07c-.02.91.19,1.67.91,2.06-1.7,2.26-4.78,4.17-8.34,5.65,3.07-2.31,5.74-4.69,7.44-7.71Z"/>
    <path class="cls-29" d="m147.16,99.22c-.48-7.09,2.14-14.78,16.63-29.13-9.76,6.98-18.65,17.31-18.85,22.58-.19,5.26,2.22,6.55,2.22,6.55Z"/>
    <g>
      <path class="cls-33" d="m172.98,53.39l-2.36-1.47,1.4-2.25,2.1,1.31c.17.11.4.06.51-.12l2.28-3.65c.11-.17.06-.4-.12-.51l-5.03-3.13c-.17-.11-.4-.06-.51.12l-2.28,3.65c-.11.17-.06.4.12.51l1.62,1.01-1.4,2.25-2.23-1.39,1.02-1.64c.11-.17.06-.4-.12-.51l-3.65-2.28c-.17-.11-.4-.06-.51.12l-3.13,5.03c-.11.17-.06.4.12.51l3.65,2.28c.17.11.4.06.51-.12l1.3-2.08,2.23,1.39-1.47,2.36,1.3.81,1.47-2.36,2.36,1.47.81-1.3Zm-1.44-6.5l.41-.66c.1-.15.3-.2.45-.1l1.65,1.03c.15.1.2.3.1.45l-.41.66c-.1.15-.3.2-.45.1l-1.65-1.03c-.15-.1-.2-.3-.1-.45Zm-5.95,1.86l-1.03,1.65c-.1.15-.3.2-.45.1l-.66-.41c-.15-.1-.2-.3-.1-.45l1.03-1.65c.1-.15.3-.2.45-.1l.66.41c.15.1.2.3.1.45Z"/>
      <polygon class="cls-33" points="163.16 53.23 161.38 52.12 160.71 53.19 160.69 53.23 160.67 53.26 159.91 54.48 168.72 59.98 169.52 58.68 162.49 54.3 163.16 53.23"/>
      <polygon class="cls-33" points="177.92 49.2 177.92 49.2 176.86 48.53 175.75 50.31 176.81 50.98 172.43 58.01 173.72 58.81 179.22 50 177.92 49.2"/>
    </g>
    <path d="m147.1,99.17c-3.2-.31-6.2-1.71-9.05-3.12-1.4-.82-2.89-1.56-3.87-2.92-.41-.78-.52-1.56-.64-2.36-.09-.8-.13-1.61-.05-2.4.02.8.11,1.59.26,2.37.21,2.63,2.4,3.76,4.53,4.88,2.82,1.42,5.73,2.85,8.82,3.56h0Z"/>
  </g>
  <path class="cls-3" d="m186.39,143.85c9,1.8,18.31,2.74,27.4,2.06,5.09-.38,8.25-1.1,10.39-5.91.34-.76.64-1.53.93-2.3-.29-.5-.59-.94-.92-1.28-2.72-2.88-16.12-.21-16.12-.21l-4.16-19.74-17.18,15c.16,5.34.26,8.53-.27,12.38,0,0-.03,0-.08.02Z"/>
  <path class="cls-19" d="m187.17,140.61s0,0,0,0c6.3-3.18,13-5.63,19.82-7.73l-3.26-15.48-16.61,14.49c.11,3.61.19,6.21.05,8.72Z"/>
  <g>
    <path class="cls-3" d="m153.44,82.15c-3.04,4.48-7.9,12.22-6.4,16.7,1.32,3.97,4.58,6.04,6.4,10.19,2.24,4.47,5.52,10.33,8.16,12.65s23.61,12.01,27.86,10.57,17.13-16.97,18.25-19.53c.42-.97,2.99-6.94,1.52-12.86,4.03,1.09,9.21-13.5,9.42-25.45-.59.32-6.15,3.45-9.13,9.5-2.27,4.61-1.73,11.5-1.87,10.94-1.53-6.04-.91-7.63-2.56-12.01s-13.07-11.79-13.07-11.79c-5.98-3.26-18.63-6.59-23-4.96-6.16,2.28-11.26,10.14-15.58,16.06Z"/>
    <path class="cls-37" d="m180.54,91.23s-.04-5.92,3.6-8.64,12.91-.52,15.11,1.04c1.43,1.02,2.56,11.51,1.74,13.03-1,1.85-7.16,4.6-9.55,4.44-1.79-.12-8.66-5.66-10.91-9.87Z"/>
    <path class="cls-16" d="m183.17,90.59c3.73-5.2,10.49-7.9,16.7-5.86-.19-.5-.4-.87-.61-1.02-2.2-1.56-11.5-3.74-15.11-1.04-3.64,2.72-3.6,8.65-3.6,8.65.4.75.96,1.54,1.59,2.33.07-1.1.39-2.16,1.03-3.05Z"/>
    <path d="m191.38,101.12c3.48-.84,6.86-1.94,9.61-4.32-2.23,2.89-6.06,4.2-9.61,4.32h0Z"/>
    <path d="m167.45,110.4c-.91,1.73-3.28,2.39-5.04,1.68,1.9-.05,3.56-.45,5.04-1.68h0Z"/>
    <path class="cls-37" d="m162.29,112.08c-2.71-1.24-5.35-3.79-7.52-6.72-4.27-7.22,1.96-12.17,7.72-7.68,3.15,3.6,4.88,8,4.94,12.75-1.38,1.39-2.87,1.88-5.14,1.66Z"/>
    <path class="cls-16" d="m157.33,108.48c.07-.6.15-1.21.29-1.8.41-1.75,1.42-3.58,2.69-4.86,1.05-1.05,2.27-1.75,3.59-2.21-.45-.66-.93-1.3-1.47-1.91-5.76-4.48-11.99.47-7.72,7.68.82,1.1,1.7,2.15,2.62,3.09Z"/>
    <g>
      <path class="cls-30" d="m193.14,92.71c1.06-.4,3.42-1.47,3.76-3.28.4-2.14-.77-4.99-1.31-5.95-.87-1.57-3.77-2.98-5.9-2.29-2.75.88-3.54,4.03-2.99,5.18.31.64.35,3.58,1.57,5.02,1.36,1.61,3.94,1.68,4.86,1.33Z"/>
      <path class="cls-35" d="m194.5,96.98c1.06-.4,2.06-1.82,2.4-3.63.4-2.14.01-4.75-.27-5.68-.52-1.72-3.45-2.9-5.58-2.21-2.75.88-3.54,4.03-2.99,5.18.31.64.89,2.62,2.11,4.06,1.36,1.61,3.41,2.64,4.32,2.29Z"/>
      <path class="cls-22" d="m194.37,96.95c2.32-.88,3.14-3.88,2.61-5.6-.52-1.72-2.25-2.36-4.38-1.68-2.75.88-3.46,3.25-2.91,4.4.65,1.36,2.94,3.54,4.67,2.88Z"/>
      <ellipse class="cls-32" cx="192.27" cy="89.46" rx="2.54" ry="4.59" transform="translate(-18.97 108.12) rotate(-30)"/>
      <ellipse class="cls-18" cx="193.24" cy="85.01" rx="2.74" ry="3.7" transform="translate(-17.78 91.34) rotate(-25.46)"/>
      <path class="cls-9" d="m186.89,83.48c-1.6,4.38,3.58,15.53,7.95,13.5,4.38-2.03,1.66-12.56.57-14.02-1.28-1.72-6.92-3.86-8.52.52Z"/>
    </g>
    <g>
      <path class="cls-30" d="m163.5,105.34c.72-.63,1.8-1.77,1.57-3.58-.28-2.15-2.47-4.02-3.15-4.83-1.11-1.32-3.18-1.57-4.22-.88-.88.58-.64,3.08-.16,4.22.35.83,1.21,3.99,2.56,5.1,1.51,1.24,2.77.52,3.39-.02Z"/>
      <path class="cls-35" d="m165.74,109.14c.72-.63,1.11-2.21.88-4.03-.28-2.15-2-4.29-2.48-5.12-.88-1.54-2.78-2.3-4.26-1.17-1.91,1.46-1.48,4.59-.73,5.57.42.55,1.23,2.39,2.58,3.5,1.51,1.24,3.39,1.78,4.01,1.24Z"/>
      <path class="cls-22" d="m165.62,109.14c1.57-1.36,1.38-4.43.5-5.97s-2.41-1.77-3.88-.64c-1.91,1.46-1.81,3.9-1.06,4.88.88,1.16,3.27,2.75,4.44,1.73Z"/>
      <ellipse class="cls-32" cx="162.66" cy="103.52" rx="1.62" ry="3.74" transform="translate(-29.97 95.2) rotate(-30)"/>
      <ellipse class="cls-18" cx="163.09" cy="100.77" rx="1.62" ry="3.7" transform="translate(-27.48 79.9) rotate(-25.46)"/>
      <path class="cls-15" d="m157.36,96.56c-1.48,2.12,3.6,12.71,6.88,13.01,3.52.32,2.36-4.12,1.68-6.16-.76-2.27-3.92-7.04-5.28-7.28s-2.43-.79-3.28.44Z"/>
    </g>
    <g>
      <path d="m207.84,95.13c-.07-4.11.11-8.53,2.36-12.13,2.35-3.47,5.44-6.33,8.55-9.1,0,0,.44-.38.44-.38,0,0-.04.58-.04.58,0,3.95-4.48,28.43-10.42,25.27,3.85,2.06,6.51-8.41,7.32-10.99,1.28-4.69,2.21-9.49,2.62-14.32l.4.2c-3.1,2.71-6.17,5.57-8.56,8.93-2.25,3.47-2.57,7.88-2.65,11.93h0Z"/>
      <path d="m208.01,97.5c1.36-1.3,2.43-2.66,3.63-4.1-.57,1.77-1.89,3.39-3.63,4.1h0Z"/>
      <path d="m213.67,87.83c.47-1.44.39-2.74.43-4.23.66,1.31.67,3.16-.43,4.23h0Z"/>
      <path d="m214.53,80.57c-3.5,4.4-5.55,9.82-5.14,15.47-1.14-5.58,1.11-11.56,5.14-15.47h0Z"/>
    </g>
    <path class="cls-32" d="m180.55,91.38c-1.3-7.78,5.69-12.78,12.89-10.56,2.15.58,4.09,1.67,5.89,2.88-1.95-.86-3.97-1.71-6.07-2.13-6.92-1.57-12.74,2.55-12.71,9.82h0Z"/>
    <path class="cls-32" d="m162.73,97.46c-4.17-1.79-9.83-2.22-9.36,3.91.18,1.45.75,2.88,1.57,4.21-1.12-1.07-2.01-2.48-2.34-4.08-.67-2.41.73-5.46,3.38-5.97,2.42-.51,4.85.6,6.75,1.94h0Z"/>
    <path class="cls-32" d="m173.19,114.43c.77.57,1.23,1.06,2.03,1.6-.97.18-1.89-.67-2.03-1.6h0Z"/>
    <g>
      <path class="cls-38" d="m176.56,121.55s1.37-1.21,1.78-1.29,2.33.07,2.91,0,2.48-1.47,3.19-1.74,7.77-1.2,7.77-1.2c0,0-3.35,5.95-8.91,6.58s-6.73-2.35-6.73-2.35Z"/>
      <path d="m174.94,121.41c3.51.23,7.03-.55,10.4-1.42,2.91-.83,5.93-1.86,8.06-4.08.3-.32.51-.71.78-1.06-2.46,5.69-13.74,7.76-19.25,6.56h0Z"/>
    </g>
    <path d="m192.5,74.06c-5.35,5.77-10.93,11.33-16.68,16.7,0,0-.03.02-.03.02,0,0-.03,0-.03,0l-2-.08,2-.08-.05.02c5.4-5.72,10.99-11.27,16.78-16.6h0Z"/>
    <path d="m148.8,92.23c3.56.59,7.07,1.42,10.56,2.31,1.76.42,3.34,1.11,5.13.97-2.05.39-3.2-.16-5.23-.55-3.52-.79-7.02-1.65-10.45-2.73h0Z"/>
    <path class="cls-32" d="m153.7,97.67c-1.02.95-2.95.71-3.72-.44,1.24.53,2.4.69,3.72.44h0Z"/>
    <path class="cls-32" d="m153.15,100.37c-.75,1.17-2.68,1.42-3.71.5,1.33.2,2.49.06,3.71-.5h0Z"/>
    <path class="cls-32" d="m192.74,81.33c.79-1.09,1.16-2.2,1.21-3.55.7,1.19.08,3.04-1.21,3.55h0Z"/>
    <path class="cls-32" d="m195.4,82c1.04-.85,1.67-1.84,2.06-3.13.38,1.33-.68,2.96-2.06,3.13h0Z"/>
  </g>
  <path class="cls-7" d="m158.35,172.81c-1.61,2.11-4.31,3.9-7.47,5.55-3.36-1.61-6.83-4.91-10.34-9.11-1.36,1.44-2.77,2.83-4.33,4.09-3.6,2.9-7.7,5.11-11.53,7.67,2.38,6.46,5.29,15.93,5.29,15.93,5.18,4.63,13.58,5.87,23.27,5.76,5.26-3.98,11.61-9.36,13.66-9.18l1.71-4.48-10.25-16.22Z"/>
  <path class="cls-8" d="m142.02,201.84c-2.37-3.04,4.38-3.52,8.11-3.63s8.43-5.98,10.99-5.34,2.13,2.77.53,3.95-6.3,5.02-8.43,5.87-10.46.11-11.21-.85Z"/>
  <path class="cls-11" d="m135.35,278.58c8.51-29.93,21.53-71.42,31-89.97,0,0-20.06-10.89-11.53-26.26,8.54-15.37,37.89-20.28,37.89-20.28,0,0-.8,6.3-1.28,7.31-1.23,2.08-13.5,7.47-17.13,15.16-3.63,7.68,4.16,24.65,4.16,24.65-4.7,10.57-7.2,26.74-13.82,36.34-10.51,3.16-22.13,35.56-29.3,53.04Z"/>
  <path class="cls-23" d="m200.19,151.62c-1.68,1.04-1.04,8.24,1.52,11.45s8.08,10.49,9.29,12.89c1.2,2.4,3.76,9.45,3.84,13.29s-1.92,8.32-.96,8,9.87-12.65,10.43-14.41-.27-5.12-.27-5.12l-12.81-16.81-11.05-9.29Z"/>
  <path class="cls-17" d="m191.17,276.36c1.33.08,2.47-.86,3.51-1.59,3.08-2.44,5.62-5.53,7.76-8.81,5.1-7.9,5.46-13.45,2.55-22.24-.83-2.47-2.02-4.76-3.4-7-.71-1.11-1.27-2.49-1.48-3.78-1.61-9.08-2.18-18.71.87-27.53,1.56-5.14,4.8-9.46,8.37-13.39,7.2-7.98,8.69-19.11,7.5-29.47,1.63,10.52.29,21.66-6.89,29.95-3.42,3.94-6.61,8.11-8.11,13.19-2.93,8.69-2.31,18.16-.84,27.05.23,1.33.66,2.39,1.36,3.52,1.35,2.24,2.62,4.65,3.4,7.19,2.74,8.98,2.34,14.83-3.01,22.7-2.23,3.26-4.83,6.32-8,8.7-1.06.71-2.23,1.61-3.57,1.5h0Z"/>
  <path class="cls-17" d="m195.87,144.74c-2.12,4.22-5.97,7.31-9.9,9.78-3.78,2.42-7.99,4.6-10.23,8.6-4.6,8.49.61,17.82,3.44,26.06,0,0,.09.28.09.28l-.19.27c-2.58,3.9-3.44,8.92-4.73,13.42-1.21,4.7-2.44,9.43-4.26,14.01-1.39,3.42-3.16,6.96-6.15,9.33-3.14,1.84-5.64,4.3-7.7,7.34-6.85,9.97-11.38,21.33-15.7,32.6-3.21,9.12-6.75,18.27-8.44,27.82,2.31-15.18,16.99-59.7,29.54-67.88,10.13-6.18,9.93-28.08,16.44-37.42,0,0-.11.55-.11.55-.67-2.11-1.67-4.25-2.49-6.42-3.68-8.99-5.22-19.67,3.84-26.02,5.74-3.98,11.98-6.88,16.54-12.35h0Z"/>
  <g>
    <path d="m171.05,282.58c11.77-1.2,21.63-5.66,26.41-17.13-.21.67-.43,1.34-.67,2-3.86,10.78-14.91,15.5-25.75,15.13h0Z"/>
    <path d="m221,280.42c-7.65,1.11-16.11-.61-22.09-5.68,6.81,3.88,14.33,5.37,22.09,5.68h0Z"/>
    <g>
      <path d="m191.17,217.96c3.01.4,5.95,1.49,8.45,3.23,0,0-.32.09-.32.09.59-1.24,1.43-2.38,2.55-3.17-.95.97-1.66,2.11-2.15,3.34l-.09.23c-2.6-1.68-5.47-2.82-8.43-3.74h0Z"/>
      <path d="m194,223.67c2.47,1.17,4.79,3,5.92,5.56,0,0-.43.02-.43.02.52-1.48,1.26-2.92,2.3-4.09-.92,1.5-1.54,3.13-2.03,4.8-1.14-2.7-3.4-4.64-5.76-6.3h0Z"/>
      <path d="m168.33,184.92c1.3-3.81,3.46-7.35,6.24-10.25-2.25,3.34-4.31,6.71-6.24,10.25h0Z"/>
      <path d="m194.34,194.93c6.89-2.05,13.6-4.72,19.45-8.97-5.42,4.79-12.42,7.58-19.45,8.97h0Z"/>
      <path d="m195.49,167.37c2.2-2.41,4.29-4.79,6.3-7.36-1.41,2.94-3.65,5.48-6.3,7.36h0Z"/>
      <path d="m199.01,146.02c-1.47,4.84-2.05,9.79-2.24,14.84-.49-5,.13-10.24,2.24-14.84h0Z"/>
    </g>
    <g>
      <path d="m174.99,233.39c3.16.21,6.31.5,9.41,1.18.91.28,2.06.32,2.69,1.14.14,1.97-5.01,1.91-6.38,1.87-2.11-.06-4.21-.3-6.29-.65,3.13.22,6.3.43,9.42.09.92-.15,2.11-.3,2.72-1.02.32-.09-.34-.43-.77-.57-3.5-1.07-7.19-1.44-10.8-2.05h0Z"/>
      <path d="m163.21,232.14c7.56-2.1,15.59-2.78,23.39-1.85-7.86-.24-15.66.42-23.39,1.85h0Z"/>
      <path d="m161.51,229.21c14.16-2.79,27.96-7.66,2.49-4.67,2.7-.48,5.42-.88,8.15-1.15,1.45-.19,9.82-.9,5.35,1.89-5.01,2.34-10.58,3.09-15.99,3.93h0Z"/>
      <path d="m177.81,190.99c-2.2,5.68-7.72,19.94-9.91,25.38-1.23,2.8-2.19,5.69-3.83,8.3,0,0,.03-.22.03-.22.51,1.37.22,2.82.11,4.21,0,0-.01.15-.01.15,0,0-.14.03-.14.03l-2.51.51s.12-.25.12-.25c.42.86,1.49,1.22,1.74,2.24-.4,3.06-1.15,6.09-2.16,9,.93-2.93,1.49-5.96,1.87-9-.02-.22-.44-.72-.78-.99-.4-.35-.83-.77-1.08-1.3,0,0,.23-.05.23-.05,0,0,2.5-.55,2.5-.55l-.15.18c.07-1.38.36-2.83-.17-4.13,1.58-2.53,2.59-5.55,3.78-8.32,3.17-7.81,6.98-17.52,10.37-25.2h0Z"/>
    </g>
  </g>
  <g>
    <g>
      <g>
        <path class="cls-12" d="m305.5,342.33s5.85,6.88,9.41,8.97c13.26,7.81,23.72,19.18,24.75,24.48,8.81-10.47-1.89-24.09-5.16-31.8-2.37-5.57,1.93-16.85,1.93-16.85l-20.78-17.7-2.39,22.07-7.76,10.83Z"/>
        <path class="cls-12" d="m290.52,327.02c3.63,7.08,8.82,14.13,15.15,21.15-.13-4.44,1.2-8.17,4.08-11.15,7.67-2.64,6.82-15.31,7.25-26.47.87-2.79,2.93-4.35,5.82-5.06-7.28-5.82-13.8-11.61-19.1-17.35l-4.01,9.04-3.69,18.1-4.94,4.75-.57,6.99Z"/>
        <path class="cls-12" d="m268.99,300.52c7.31,13.44,14.47,25.81,20.61,31.02,2.24-3.83,3.18-7.37,2.33-10.52,6.61-4.71,9.35-12.68,8.86-23.39,1.83-5.75,4.56-8.89,7.85-10.44-6.3-5.45-11.79-12.37-16.76-20.2l-7.86,6.29-8.09,18.42-6.93,8.81Z"/>
        <path class="cls-12" d="m250.13,271.66l15.29,31.32c3.27.65,5.12-1.96,6.35-5.97,1.31.68,11.88-10.76,12.22-19.79.27-7.14,12.2-10.69,12.2-10.69l-8.68-8.48-20.35-9.78-10.16,11.23-6.89,12.16Z"/>
        <path class="cls-12" d="m236.76,249.59c3.84,10.74,7.89,20.4,12.34,27.85.27-5.1,3.74-9.2,7.7-13.15.95-6.17,6.25-11.05,12.05-15.8l-12.62-24.36-7.15,7.18-12.32,18.27Z"/>
        <path class="cls-12" d="m228.32,218.52c.78,8.48,3.82,20.59,7.24,33.3,0,0,9.64-11.35,9.19-10.68s3.49-9.04,7.23-11.57c3.73-2.53,6.75-4.81,6.75-4.81l-15.58-24.41-14.83,18.17Z"/>
        <path class="cls-12" d="m222.64,179.7s.87,15.08.61,19.43-1.9,20.13-1.4,20.54,6.64,1.17,9.2-1.28,12.38-16.07,13.11-17.13-6.24-19.63-6.24-19.63l-15.28-1.92Z"/>
        <path class="cls-12" d="m220.18,146.46c-2.32,3.9-.4,23.24-2.49,34.37,4.45-.44,16.2.52,21.8,2.53l-13.64-28.92-5.67-7.98Z"/>
      </g>
      <path class="cls-34" d="m338.79,373.14s-1.59-13.34-3.23-17.92c-1.64-4.58-3.38-11.31-9.53-16.81-6.15-5.5-9.92-4.44-12.85-1.51-2.93,2.93-3.35,10.04-3.35,10.04l-3.52-3.77-.5,5.13c-1.91-2.21-3.67-4.3-5.14-6.16,0,0,4.18-1.77,4.12-4.19s-6.32-9.25-8.24-10.23c-1.93-.98-5.05-.49-5.05-.49,0,0-.18-1.98-.46-2.8-.28-.82-13.16-20.53-15.18-21.79-2.02-1.26-5.01.3-5.01.3l-1.24-1.85s.39-.59.32-.98c-.06-.39-10.11-24.16-12.72-25.37-2.61-1.21-5.47-.07-5.47-.07l-1.17-2.62c-.95,1.53-1.36,3.23-1.17,5.12-1.52-1.43-2.79-4.08-3.99-7.08,0,0,5.55-6.18,6.61-8.38,1.06-2.2-2.56-11.3-5.74-13.35s-4.45-1.27-5.48-.56c-1.03.71-3.02,3.22-3.02,3.22l-.37-1.04-1.73,2.05s-.69-2.36-.65-2.74c.04-.38,1.65-7.14,1.72-9.5s-.91-15.46-2.41-17.49c-1.51-2.03-5.61-1.5-5.61-1.5l-.13-1.86-1.57.27s.06-9.58-.29-18.85c-.33-8.7-1.06-17.11-1.35-17.61-.59-1.04-3.09-2.54-3.09-2.54-2.9-10.37-3.96-21.45-2.98-33.32l5.98,7.47c-.69,8.29-.11,20.9,1.4,22.42,1.51,1.52,5.41.41,8.09-.68l5.22,9.12s-3.78-.46-5.08.8c-1.3,1.26-2.33,4.35-1.65,8.73.68,4.38.89,7.01,3.5,8.26,2.62,1.25,6.99-2.62,6.99-2.62l2.54,4.64s-7.23,3.61-8.57,6.56.36,7.69,1.21,9.63c.84,1.94,3.84,7.3,6.35,8.33,2.51,1.02,9.23-4.85,9.23-4.85l.4,6.82s-5.76,4.36-7.17,6.88c-1.41,2.52.93,6.2,1.97,7.69,1.04,1.49,4.97,5.83,8.28,5.98,3.31.15,6.7-4.71,6.7-4.71l6.99,3.68s-12.17,9.37-12.34,13c-.17,3.63,7.07,15.46,9.25,17.07,2.19,1.61,6.23,1.58,8.86-.94,2.63-2.52,6.59-10.27,5.97-12.98s-8-13.55-8-13.55l13.77,7.45,6.53,5.5-3.29,1.23c4.79,7.3,10.25,13.87,16.58,19.5-1.64.55-3.06,1.28-3.89,2.47l17.93,15.73c-2.33.51-4.62,1.76-5.97,4.91l5.92,5.18c-2.5,3.11-5.63,10.76-4.57,12.62,1.06,1.86,9.78,8.14,12.06,6.25,2.28-1.89,4.84-8.35,4.84-8.35l1.19,1.01c-2.14,5.63-3.32,12.81-2.03,16.08,1.3,3.28,6.85,12.99,8.31,19.64,1.85,8.43-3.36,13.16-3.36,13.16l-.7-2.85Zm-35.88-84.71c2.43-3.96-6.14-13.59-7.38-14.41-1.25-.82-4.34-1.91-6.27,1.32-1.93,3.23,4.53,12.89,6.39,14.47,1.86,1.58,4.83,2.57,7.26-1.39Zm-17.32-2.31c-4.85-.15-7.64,9.36-6.91,11.57.73,2.2,6.18,12.85,10.43,14.16,4.25,1.32,7.92-6.49,7.7-10.51-.22-4.02-6.37-15.07-11.22-15.22Zm28.66,31.89c-1.14-4.67-6.07-10.01-10.48-9.69s-7.7,10.82-6.58,13.81c1.12,2.99,7.95,9.8,11.2,7.8,3.25-2,7-7.25,5.86-11.92Z"/>
      <g>
        <path class="cls-36" d="m268.35,249.23c-5.56,3.51-10.52,8.7-11.4,15.45-3.81,3.01-7.28,7.04-7.63,12.09.03-1.23.23-2.46.6-3.64,1.15-3.57,3.81-6.43,6.66-8.76.05-2.5,1.97-6.59,3.99-8.93,2.16-2.57,4.89-4.58,7.77-6.21h0Z"/>
        <path class="cls-36" d="m251.59,229.45c-2.75,3.44-5.2,7.21-6.52,11.44-3.2,3.63-6.41,7.25-9.36,11.08,2.62-4.06,5.78-7.74,8.96-11.37,1.11-3.77,3.96-8.07,6.92-11.15h0Z"/>
        <path class="cls-36" d="m235.34,213.34c2.08,9.51,4.54,18.98,8.6,27.86-4.68-8.59-7.19-18.23-8.6-27.86h0Z"/>
        <path class="cls-36" d="m227.39,180.98c2.02,10.04,4.34,20.03,7.61,29.74-3.92-9.49-6.25-19.58-7.61-29.74h0Z"/>
        <path class="cls-36" d="m226.01,177.7c-1.45-7.91-1.5-16.08-.42-24.03-.4,8.03-.36,16.03.42,24.03h0Z"/>
        <path class="cls-36" d="m271.13,292.75c-5.96-8.5-11.21-17.52-15.57-26.95,4.82,8.87,10.31,18.33,15.57,26.95h0Z"/>
        <path class="cls-36" d="m299.16,295.96c-5.89-5.28-11-11.49-14.99-18.32,4.57,6.47,9.56,12.56,14.99,18.32h0Z"/>
        <path class="cls-36" d="m290.8,318.24c-6.59-6.72-12.54-14.08-17.62-22.01,5.48,7.33,11.69,15.04,17.62,22.01h0Z"/>
        <path class="cls-36" d="m301.27,298.52c4.06,3.95,9.79,9.42,13.74,13.37-5-4-9.64-8.46-13.74-13.37h0Z"/>
        <path class="cls-36" d="m292.74,320.66c4.85,5.11,9.81,10.03,14.92,14.88-5.54-4.33-10.59-9.34-14.92-14.88h0Z"/>
        <path class="cls-36" d="m316.26,327.34c4.63,4.46,9.47,8.61,14.37,12.77-5.3-3.61-10.23-7.86-14.37-12.77h0Z"/>
        <path class="cls-1" d="m305.28,289.6s-3.9,3.49-4.33,8.04-.77,13.38-3.47,16.83-4.92,5.14-5.39,6.14.12,5.14-.54,6.12-1.85,4.77-1.85,4.77"/>
        <path class="cls-1" d="m316.85,311.06c-.4,2.26-1.15,7.39-.62,11.98s-1.62,9.29-2.96,11.04c-1.34,1.75-3.95,2.92-4.84,4.06-.88,1.14-2.76,4.31-2.61,6.71"/>
        <path class="cls-1" d="m292.36,267.42s-4.95,1.11-7.1,6.75c-2.15,5.64-1.5,9.9-4.32,13.96s-8.86,8.52-9.12,8.83c-.82,3.26-4.39,5.97-5.35,6.01"/>
        <path class="cls-36" d="m243.83,201.74c-2.21,3.31-4.58,6.5-6.93,9.71-1.09,1.39-2.5,3.41-3.65,4.73-1.3,1.42-2.88,3.11-4.95,3.12,2.02-.22,3.43-1.9,4.66-3.37,1.22-1.55,2.35-3.19,3.54-4.78,2.4-3.17,4.79-6.35,7.33-9.41h0Z"/>
        <path class="cls-36" d="m238,181.89c-2.84,1.86-6.65-.45-9.67-.8-3.24-.56-6.57-.53-9.87-.47,3.3-.43,6.65-.53,9.95,0,1.65.29,3.23.83,4.82,1.25,1.55.41,3.28.89,4.76.02h0Z"/>
      </g>
    </g>
    <g>
      <g>
        <path class="cls-12" d="m346.05,261.56s4.44,6.83,5.34,10.45c3.34,13.47,10.49,25.44,14.81,27.7-11.33,4.93-20.35-7.83-26.17-12.64-4.21-3.48-15.07-2.66-15.07-2.66l-9.96-22.53,19.7,3.61,11.36-3.92Z"/>
        <path class="cls-12" d="m336.66,244.67c5.19,4.96,9.95,11.27,14.4,18.54-3.8-1.26-7.37-1.06-10.69.67-4.25,5.95-14.99,1.96-24.76-.54-2.64.03-4.52,1.42-5.87,3.73-3.16-7.79-6.49-14.92-10.1-20.98l8.85-1.14,16.61,1.47,5.38-3.05,6.19,1.31Z"/>
        <path class="cls-12" d="m319.27,219.24c9.75,9.78,18.61,19.15,21.53,25.8-3.89.95-7.2.86-9.7-.69-5.77,4.5-13.37,4.82-22.51,1.65-5.44.11-8.87,1.66-11.05,4.11-3.09-6.85-7.67-13.38-13.16-19.69l7.46-5.18,18.01-2.26,9.4-3.73Z"/>
        <path class="cls-12" d="m299.16,195.5l23.15,21.28c-.28,3-3.01,3.93-6.8,3.96.26,1.31-12.36,7.51-20.26,5.48-6.24-1.6-12.39,7.81-12.39,7.81l-5.1-9.69-3.23-20.12,12.33-5.9,12.29-2.83Z"/>
        <path class="cls-12" d="m283.51,178.27c8.3,6.09,15.62,12.07,20.92,17.83-4.48-1.08-8.92.87-13.35,3.28-5.58-.76-11.17,2.56-16.76,6.36l-17.82-17.18,8.05-4.33,18.97-5.95Z"/>
        <path class="cls-12" d="m258.81,162.97c7.13,2.85,16.83,8.6,26.94,14.83,0,0-12.3,5.42-11.6,5.2s-8.72.7-11.87,3.28-5.9,4.6-5.9,4.6l-17.1-19.75,19.53-8.15Z"/>
        <path class="cls-12" d="m226.69,148.08s12.82,4.63,16.65,5.53c3.83.9,17.9,3.54,18.12,4.07s-.69,6.04-3.47,7.63c-2.78,1.59-17.09,6.57-18.19,6.93s-15.38-10.45-15.38-10.45l2.27-13.71Z"/>
        <path class="cls-12" d="m198.58,137.4c3.97-1,20.2,5.63,30.36,6.68-1.52,3.74-3.72,14.15-3.42,19.51l-21.51-19.23-5.44-6.96Z"/>
      </g>
      <path class="cls-34" d="m364.13,298.28s-11.13-4.81-14.67-7.4c-3.54-2.6-8.91-5.83-12.09-12.57-3.18-6.73-1.29-9.72,2-11.5,3.29-1.78,9.55-.32,9.55-.32l-2.36-4.02,4.57.89c-1.42-2.22-2.78-4.28-4.01-6.03,0,0-2.61,3.16-4.68,2.49s-6.37-7.84-6.72-9.76c-.35-1.92.87-4.5.87-4.5,0,0-1.67-.67-2.3-1.12-.63-.45-14.37-16.66-14.95-18.73-.57-2.07,1.55-4.26,1.55-4.26l-1.28-1.55s-.61.18-.93.03c-.32-.16-18.29-14.96-18.67-17.53-.38-2.57,1.34-4.75,1.34-4.75l-1.96-1.68c1.57-.43,3.14-.34,4.73.31-.85-1.69-2.81-3.47-5.1-5.27,0,0-6.77,3.21-8.95,3.56-2.18.36-9.12-5.12-10.07-8.4s.04-4.17.92-4.88c.88-.71,3.56-1.79,3.56-1.79l-.81-.59,2.22-.97s-1.87-1.21-2.21-1.27c-.34-.06-6.6-.41-8.66-.95s-13.13-4.76-14.51-6.58c-1.37-1.83.15-5.23.15-5.23l-1.58-.59.63-1.29s-8.3-2.41-16.23-5.1c-7.44-2.52-14.52-5.31-14.89-5.69-.75-.78-1.4-3.33-1.4-3.33-8.22-5.17-17.53-8.94-28.05-11.14l4.92,7.1c7.35,1.53,18.11,5.28,19.03,6.98.93,1.7-1.03,4.78-2.67,6.82l6.55,6.86s.57-3.39,2-4.19c1.43-.8,4.36-.9,7.97.82s5.84,2.57,6.25,5.15c.41,2.58-4.06,5.37-4.06,5.37l3.36,3.39s4.98-5.33,7.88-5.72c2.9-.4,6.56,2.29,8.01,3.52,1.46,1.23,5.33,5.2,5.57,7.63.24,2.43-6.57,6.74-6.57,6.74l5.8,2.1s5.26-3.86,7.8-4.44c2.54-.57,5.13,2.4,6.15,3.68,1.02,1.28,3.76,5.8,3.04,8.7-.72,2.9-5.8,4.59-5.8,4.59l1.38,6.99s11.24-8.12,14.42-7.33c3.18.79,11.55,10.09,12.38,12.39.83,2.3-.24,5.79-3.09,7.42-2.86,1.62-10.57,3.06-12.76,1.83s-9.66-10.4-9.66-10.4l2.9,13.83,3.08,7.06,1.91-2.53c5.08,6.02,9.36,12.43,12.6,19.35.9-1.28,1.89-2.32,3.13-2.73l8.99,19.55c1.04-1.89,2.71-3.55,5.78-3.91l2.96,6.46c3.33-1.36,10.75-2.1,12.09-.7,1.33,1.4,4.53,10.55,2.3,12.04-2.22,1.48-8.47,2.04-8.47,2.04l.57,1.29c5.42-.4,11.93.42,14.43,2.38,2.5,1.96,9.47,9.27,14.85,12.24,6.81,3.77,12.25.48,12.25.48l-2.29-1.34Zm-64.04-52.81c-4.05,1.08-10.17-8.8-10.56-10.09-.39-1.29-.53-4.24,2.76-5.08,3.29-.84,9.99,7.24,10.87,9.25.89,2.02.98,4.84-3.07,5.92Zm2.45-15.57c1.12-4.23,10.06-4.2,11.78-3.01,1.72,1.2,9.52,8.65,9.57,12.66.05,4.02-7.65,5.18-11.07,3.96-3.42-1.23-11.4-9.38-10.28-13.62Zm20.21,32.98c-3.74-2.19-7.1-7.82-5.69-11.55,1.41-3.73,11.34-3.88,13.64-2.14,2.3,1.74,6.43,9.4,3.87,11.69-2.56,2.29-8.07,4.19-11.82,2Z"/>
      <g>
        <path class="cls-36" d="m275.08,205.49c2.14-2.09,4.58-3.93,7.36-5.15,2.51-1.14,6.66-1.78,8.74-1.16,3.6-2.51,8.21-4.39,12.6-3.07-4.46-.98-8.83.99-12.41,3.52-6.06-.97-11.82,1.98-16.3,5.86h0Z"/>
        <path class="cls-36" d="m262.28,185.91c3.4-1.79,7.92-3.17,11.42-3.14,3.96-1.81,7.95-3.6,12.15-4.8-4.07,1.59-8.02,3.44-11.99,5.27-3.99.05-7.88,1.2-11.57,2.68h0Z"/>
        <path class="cls-36" d="m252.52,167.71c7.98,3.67,15.68,8.33,21.88,14.61-6.66-5.77-14.21-10.33-21.88-14.61h0Z"/>
        <path class="cls-36" d="m226.58,152.52c8.45,3.76,16.58,8.38,23.76,14.23-7.45-5.24-15.72-9.92-23.76-14.23h0Z"/>
        <path class="cls-36" d="m224.1,150.48c-6.74-2.7-13.64-4.79-20.68-6.54,7.16,1.08,14.23,3.23,20.68,6.54h0Z"/>
        <path class="cls-36" d="m312,219.09c-6.13-6.74-12.9-13.92-19.31-20.39,7.06,6.17,13.51,13.03,19.31,20.39h0Z"/>
        <path class="cls-36" d="m307.57,244.15c-3.62-6.16-7.6-12.04-11.99-17.68,4.91,5.19,8.97,11.21,11.99,17.68h0Z"/>
        <path class="cls-36" d="m328.99,242.65c-4.53-6.9-9.6-14.26-14.5-20.9,5.57,6.41,10.42,13.46,14.5,20.9h0Z"/>
        <path class="cls-36" d="m309.24,246.64c3.22,4.8,5.88,9.96,8.03,15.32-2.76-5.08-5.38-10.18-8.03-15.32h0Z"/>
        <path class="cls-36" d="m330.58,244.96c3.71,5.15,6.74,10.81,9.03,16.73-2.91-5.65-5.89-11.21-9.03-16.73h0Z"/>
        <path class="cls-36" d="m330.32,267.02c3.22,4.82,5.62,10.19,7.35,15.71-2.37-5.29-4.72-10.54-7.35-15.71h0Z"/>
        <path class="cls-1" d="m300.49,247.82s4.02-2.48,8.07-1.68,11.77,2.77,15.45,1.33c3.68-1.44,5.71-2.93,6.7-3.08s4.42,1.43,5.43,1.11,4.6-.37,4.6-.37"/>
        <path class="cls-1" d="m316.08,263.34c2.06.23,6.69.9,10.52,2.54,3.83,1.64,8.45.99,10.31.28s3.54-2.67,4.75-3.14,4.44-1.28,6.48-.53"/>
        <path class="cls-1" d="m284.64,230.93s2.23-4,7.67-4.41c5.43-.41,8.95,1.24,13.18-.15,4.23-1.39,9.65-5.48,9.98-5.62,3.03.13,6.3-2.26,6.58-3.09"/>
        <path class="cls-36" d="m240.3,172.07c3.3-1.43,6.66-2.68,10.02-3.94,2.49-.97,5.15-1.59,7.41-3.03.74-.47,1.41-1.1,1.75-1.94-.53,1.79-2.4,2.74-3.96,3.5-1.43.66-3.55,1.36-5.03,1.95-3.38,1.21-6.75,2.43-10.19,3.47h0Z"/>
        <path class="cls-36" d="m224.64,161.93c2.01-2.26.82-5.83,1.34-8.62.4-2.99,1.35-5.87,2.59-8.6-.88,2.83-1.76,5.71-2.1,8.66-.48,2.72.55,6.57-1.82,8.57h0Z"/>
      </g>
    </g>
    <g>
      <g>
        <path class="cls-12" d="m286.86,345.06s.75,8.11-.14,11.73c-3.32,13.48-2.58,27.4.19,31.41-12.32-.92-14.36-16.42-17.26-23.38-2.1-5.04-12.09-9.38-12.09-9.38l1.69-24.58,15.75,12.38,11.88,1.82Z"/>
        <path class="cls-12" d="m286.42,325.73c2.28,6.81,3.55,14.61,4.09,23.12-2.78-2.88-6.03-4.38-9.77-4.4-6.54,3.28-14.18-5.25-21.65-12.02-2.35-1.2-4.66-.85-6.94.56.84-8.36,1.21-16.22.85-23.27l8.36,3.11,14.01,9.04,6.18-.19,4.87,4.05Z"/>
        <path class="cls-12" d="m282.91,295.13c4.06,13.19,7.53,25.62,7.02,32.87-3.88-.97-6.77-2.6-8.26-5.14-7.2,1.29-14.08-1.97-20.68-9.04-4.86-2.44-8.62-2.67-11.69-1.52.46-7.51-.55-15.41-2.46-23.56l9.01-1.11,16.99,6.4,10.06,1.09Z"/>
        <path class="cls-12" d="m276.18,264.75l10.56,29.62c-1.64,2.53-4.49,2.07-7.86.34-.38,1.27-14.44.88-20.48-4.6-4.77-4.33-14.6,1.13-14.6,1.13v-10.95s6.53-19.3,6.53-19.3l13.66.53,12.19,3.23Z"/>
        <path class="cls-12" d="m270.37,242.21c4.51,9.26,8.19,17.96,10.19,25.53-3.46-3.04-8.3-3.39-13.34-3.33-4.58-3.28-11.07-2.94-17.79-2.19l-7.76-23.51,9.14-.08,19.56,3.57Z"/>
        <path class="cls-12" d="m255.64,217.16c4.98,5.85,10.88,15.45,16.92,25.67,0,0-13.4-.94-12.69-.81s-8.04-3.45-12.02-2.63c-3.99.82-7.36,1.32-7.36,1.32l-5.92-25.45,21.08,1.89Z"/>
        <path class="cls-12" d="m234.17,189.02s9.18,10.07,12.15,12.65c2.97,2.58,14.19,11.47,14.14,12.05s-3.43,5.02-6.63,5.13-18.18-2.15-19.32-2.35-8.73-16.41-8.73-16.41l8.4-11.07Z"/>
        <path class="cls-12" d="m214.27,166.47c3.98.96,15.25,14.4,23.75,20.07-3.09,2.6-9.88,10.78-12.12,15.66l-10.06-27.04-1.57-8.69Z"/>
      </g>
      <path class="cls-34" d="m285.74,385.97s-7.61-9.44-9.52-13.39c-1.92-3.95-5.16-9.31-4.84-16.75.33-7.44,3.39-9.2,7.13-9.24,3.74-.04,8.59,4.17,8.59,4.17l-.21-4.65,3.63,2.92c-.22-2.63-.46-5.08-.74-7.2,0,0-3.78,1.58-5.3.02s-1.98-9.91-1.4-11.77c.58-1.86,2.87-3.57,2.87-3.57,0,0-1.16-1.37-1.51-2.06-.35-.69-4.95-21.44-4.49-23.54.46-2.1,3.36-3.04,3.36-3.04l-.41-1.97s-.62-.12-.83-.41c-.21-.29-9.21-21.76-8.35-24.21.86-2.45,3.4-3.57,3.4-3.57l-.95-2.4c1.59.35,2.94,1.16,4.04,2.48.04-1.89-.87-4.38-2.05-7.04,0,0-7.49-.32-9.58-1.02-2.09-.7-5.68-8.78-4.99-12.13s1.98-3.67,3.09-3.89c1.11-.22,3.98.08,3.98.08l-.44-.9,2.41.17s-1.09-1.94-1.36-2.15c-.27-.21-5.65-3.44-7.22-4.88-1.57-1.44-9.4-10.33-9.76-12.59-.36-2.25,2.57-4.56,2.57-4.56l-1.12-1.26,1.16-.84s-6.22-6-11.98-12.08c-5.41-5.7-10.37-11.47-10.52-11.98-.3-1.04.31-3.6.31-3.6-4.86-8.41-11.34-16.08-19.62-22.94l1.05,8.57c5.79,4.78,13.56,13.11,13.59,15.04.03,1.94-3.14,3.75-5.54,4.79l2.6,9.12s2.08-2.73,3.72-2.77c1.63-.04,4.28,1.24,6.67,4.44,2.39,3.2,3.97,4.99,3.12,7.47-.84,2.48-6.09,2.86-6.09,2.86l1.39,4.57s6.89-2.39,9.64-1.39c2.75,1,4.73,5.08,5.45,6.85.72,1.77,2.29,7.08,1.37,9.35-.92,2.26-8.95,2.9-8.95,2.9l4.15,4.56s6.45-.97,8.97-.29c2.51.68,3.42,4.51,3.72,6.12.31,1.61.63,6.88-1.37,9.11-1.99,2.23-7.27,1.35-7.27,1.35l-2.04,6.83s13.72-1.94,16.17.24c2.45,2.18,5.52,14.31,5.18,16.73-.34,2.42-2.91,5.02-6.19,5.12-3.28.1-10.78-2.22-12.14-4.33-1.36-2.11-3.7-13.71-3.7-13.71l-3.88,13.58-.57,7.68,2.87-1.35c1.69,7.69,2.48,15.36,2.12,23,1.39-.71,2.75-1.17,4.05-.96l-1.16,21.49c1.8-1.18,4.05-1.87,6.93-.76l-.39,7.09c3.58.35,10.49,3.15,11.02,5.01.53,1.86-.92,11.45-3.57,11.73-2.66.28-8.44-2.14-8.44-2.14l-.09,1.41c4.98,2.17,10.36,5.93,11.66,8.84,1.3,2.9,4.06,12.61,7.43,17.75,4.27,6.51,10.61,6.14,10.61,6.14l-1.4-2.25Zm-32.04-76.58c-4.09-.93-4.9-12.53-4.64-13.85.26-1.32,1.51-4,4.81-3.21,3.3.79,5.46,11.06,5.31,13.25-.15,2.2-1.39,4.74-5.48,3.8Zm9.43-12.63c2.96-3.22,10.86.97,11.83,2.83.96,1.86,4.39,12.09,2.56,15.66-1.83,3.58-9.19,1.02-11.64-1.66-2.45-2.68-5.71-13.61-2.75-16.84Zm2.5,38.6c-2.29-3.68-2.63-10.23.35-12.87,2.98-2.64,11.84,1.86,13.06,4.46,1.22,2.61,1.31,11.31-2.03,12.15-3.33.84-9.09-.06-11.39-3.74Z"/>
      <g>
        <path class="cls-36" d="m250.21,262.36c5.5-1.84,13.08-1.63,17.18,1.93,4.35-.54,9.31-.05,12.58,3.16-3.49-2.95-8.27-3.24-12.62-2.67-4.91-3.68-11.38-3.76-17.15-2.41h0Z"/>
        <path class="cls-36" d="m248.02,239.07c3.84,0,8.48.89,11.56,2.54,4.35.24,8.72.52,12.98,1.42-4.34-.5-8.7-.7-13.06-.93-3.56-1.82-7.53-2.61-11.49-3.03h0Z"/>
        <path class="cls-36" d="m247.87,218.42c5.35,6.97,9.99,14.67,12.55,23.12-3.2-8.21-7.75-15.76-12.55-23.12h0Z"/>
        <path class="cls-36" d="m232,192.89c5.72,7.26,10.77,15.14,14.39,23.67-4.15-8.11-9.29-16.1-14.39-23.67h0Z"/>
        <path class="cls-36" d="m230.75,189.93c-4.7-5.53-9.83-10.6-15.25-15.43,5.84,4.29,11.09,9.49,15.25,15.43h0Z"/>
        <path class="cls-36" d="m276.54,291.61c-2.28-8.82-4.92-18.33-7.57-27.04,3.37,8.75,5.88,17.83,7.57,27.04h0Z"/>
        <path class="cls-36" d="m260.93,311.72c-.33-7.14-1.11-14.19-2.37-21.23,1.92,6.88,2.72,14.1,2.37,21.23h0Z"/>
        <path class="cls-36" d="m280.58,320.37c-.79-8.22-1.85-17.09-3.09-25.25,1.94,8.27,2.94,16.76,3.09,25.25h0Z"/>
        <path class="cls-36" d="m261.26,314.69c.61,5.74.56,11.56-.04,17.3-.07-5.78-.02-11.52.04-17.3h0Z"/>
        <path class="cls-36" d="m280.92,323.16c.88,6.29.93,12.71.2,19.01.05-6.35.01-12.66-.2-19.01h0Z"/>
        <path class="cls-36" d="m270.4,342.55c.6,5.77.23,11.63-.82,17.33.37-5.79.74-11.53.82-17.33h0Z"/>
        <path class="cls-1" d="m252.96,311.66s4.72-.32,7.92,2.28c3.21,2.6,9.13,7.94,13.05,8.38,3.93.44,6.42.07,7.36.39s3.24,3.32,4.29,3.51,4.24,1.82,4.24,1.82"/>
        <path class="cls-1" d="m259.52,332.65c1.71,1.16,5.5,3.92,8.12,7.15,2.62,3.23,7.02,4.81,8.99,5.05s4.37-.71,5.67-.56,4.52.93,5.98,2.55"/>
        <path class="cls-1" d="m246.81,289.33s3.84-2.5,8.84-.32,7.34,5.27,11.73,6.02c4.39.74,11.09-.35,11.45-.32,2.62,1.53,6.63.93,7.26.34"/>
        <path class="cls-36" d="m235.03,216.59c3.58.27,7.14.73,10.7,1.18,2.66.3,5.3.99,7.97.77.88-.07,1.76-.31,2.45-.9-1.3,1.34-3.4,1.3-5.14,1.25-1.57-.09-3.78-.45-5.36-.62-3.55-.51-7.1-.99-10.63-1.67h0Z"/>
        <path class="cls-36" d="m225.9,200.31c2.84-1.06,3.44-4.78,5.2-7,1.75-2.46,3.93-4.56,6.3-6.41-2.1,2.1-4.22,4.23-5.9,6.68-1.69,2.18-2.58,6.07-5.6,6.73h0Z"/>
      </g>
    </g>
    <g>
      <g>
        <path class="cls-12" d="m243.42,331.91s3.44,7.38,6.04,10.06c9.66,9.97,16.04,22.36,15.67,27.22,10.18-7,4.13-21.41,3.12-28.9-.72-5.41,5.72-14.2,5.72-14.2l-13.84-20.37-7.36,18.63-9.34,7.56Z"/>
        <path class="cls-12" d="m234.06,315.01c1.46,7.03,4.29,14.41,8.12,22.03.95-3.89,3-6.82,6.22-8.72,7.3-.46,9.6-11.68,12.64-21.29,1.42-2.22,3.59-3.08,6.27-3.01-4.94-6.8-9.23-13.4-12.46-19.67l-5.65,6.9-7.54,14.87-5.43,2.95-2.17,5.95Z"/>
        <path class="cls-12" d="m221.67,286.8c3.14,13.44,6.41,25.92,10.5,31.93,2.86-2.8,4.54-5.65,4.54-8.6,6.87-2.52,11.17-8.8,13.31-18.23,2.97-4.56,6.1-6.65,9.33-7.2-4.18-6.25-7.29-13.59-9.75-21.59l-8.34,3.59-11.45,14.09-8.14,6.01Z"/>
        <path class="cls-12" d="m212.17,257.17l5.81,30.91c2.69,1.35,4.92-.47,6.96-3.67.97.91,12.91-6.51,15.37-14.29,1.94-6.14,13.18-6.38,13.18-6.38l-5.52-9.45-15.36-13.38-11.53,7.34-8.9,8.93Z"/>
        <path class="cls-12" d="m205.83,234.77c.77,10.27,1.97,19.64,4.06,27.19,1.45-4.37,5.46-7.11,9.85-9.6,2.3-5.14,8.08-8.12,14.26-10.86l-5.15-24.21-7.94,4.54-15.09,12.94Z"/>
        <path class="cls-12" d="m205.92,205.72c-1.35,7.56-1.6,18.83-1.67,30.7,0,0,11.1-7.57,10.55-7.09s5.2-7.03,9.06-8.33,7.03-2.57,7.03-2.57l-7.71-24.97-17.25,12.26Z"/>
        <path class="cls-12" d="m210.28,170.59s-2.85,13.33-4.12,17.05c-1.26,3.72-6.47,17.06-6.14,17.53s5.49,2.61,8.31,1.09c2.82-1.52,14.62-11.02,15.51-11.76.89-.74-.73-18.58-.73-18.58l-12.83-5.33Z"/>
        <path class="cls-12" d="m216.1,141.08c-2.95,2.84-5.91,20.12-10.4,29.3,3.98.69,13.97,4.33,18.36,7.42l-4.94-28.43-3.02-8.3Z"/>
      </g>
      <path class="cls-34" d="m265.01,366.69s1.81-11.99,1.48-16.36c-.33-4.38-.23-10.65-4.27-16.91-4.03-6.26-7.57-6.24-10.82-4.39-3.25,1.85-5.32,7.93-5.32,7.93l-2.16-4.13-1.66,4.35c-1.13-2.38-2.16-4.62-2.99-6.59,0,0,4.06-.54,4.59-2.65.53-2.11-3.28-9.56-4.72-10.87-1.44-1.31-4.28-1.64-4.28-1.64,0,0,.31-1.77.27-2.55-.05-.78-6.53-21.01-7.98-22.59-1.45-1.58-4.43-.94-4.43-.94l-.64-1.91s.48-.42.51-.78c.04-.35-3.01-23.44-4.99-25.12-1.98-1.68-4.74-1.37-4.74-1.37l-.39-2.55c-1.19,1.1-1.95,2.49-2.24,4.17-.98-1.61-1.45-4.22-1.78-7.11,0,0,6.31-4.05,7.76-5.71,1.45-1.66.48-10.45-1.8-12.99s-3.56-2.17-4.63-1.8c-1.07.37-3.4,2.07-3.4,2.07l-.07-1-2,1.37s-.04-2.22.09-2.54c.13-.32,3.15-5.81,3.77-7.85s2.91-13.66,2.09-15.79c-.82-2.13-4.52-2.65-4.52-2.65l.34-1.65-1.43-.14s2.35-8.32,4.26-16.47c1.8-7.65,3.18-15.14,3.05-15.64-.27-1.05-2.08-2.95-2.08-2.95-.04-9.71,1.69-19.61,5.39-29.7l3.42,7.93c-2.59,7.04-5.1,18.16-4.15,19.84.95,1.68,4.6,1.65,7.2,1.35l2.35,9.18s-3.18-1.31-4.61-.52c-1.43.79-3.07,3.23-3.52,7.2-.45,3.97-.91,6.31,1.07,8.03,1.98,1.71,6.7-.6,6.7-.6l1.1,4.65s-7.15,1.41-9.03,3.66-1.52,6.78-1.25,8.66c.27,1.89,1.59,7.27,3.53,8.76,1.94,1.49,9.19-2.01,9.19-2.01l-1.28,6.03s-6.06,2.42-7.89,4.27c-1.83,1.85-.68,5.62-.13,7.16.55,1.55,2.93,6.26,5.77,7.18,2.85.92,6.96-2.5,6.96-2.5l5.21,4.87s-12.83,5.24-13.85,8.35c-1.01,3.12,2.45,15.14,3.96,17.06,1.52,1.92,5.04,2.87,7.93,1.3,2.89-1.57,8.19-7.35,8.3-9.86.11-2.51-3.71-13.7-3.71-13.7l10.2,9.78,4.36,6.35-3.16.28c2.42,7.49,5.6,14.52,9.76,20.93-1.56.09-2.97.38-3.98,1.21l11.83,17.98c-2.15-.11-4.44.42-6.37,2.84l3.91,5.92c-2.92,2.1-7.47,8.01-6.99,9.88.48,1.87,6.56,9.43,9,8.33,2.44-1.1,6.21-6.11,6.21-6.11l.79,1.17c-3.21,4.39-5.96,10.35-5.61,13.51.34,3.16,2.85,12.94,2.53,19.08-.41,7.77-6.07,10.65-6.07,10.65l.08-2.65Zm-10.93-82.29c3.06-2.87-2.08-13.29-2.97-14.3-.89-1.01-3.32-2.7-5.77-.35-2.45,2.35.86,12.3,2.1,14.12,1.24,1.82,3.59,3.39,6.65.53Zm-14.51-6.16c-4.18-1.29-8.89,6.32-8.79,8.41.11,2.09,2.3,12.65,5.68,14.82,3.38,2.17,8.45-3.75,9.22-7.3.77-3.55-1.93-14.64-6.11-15.93Zm17.3,34.6c.13-4.33-2.88-10.16-6.79-10.94-3.91-.78-9.29,7.57-9.03,10.44.26,2.87,4.57,10.43,7.87,9.47,3.3-.96,7.82-4.64,7.95-8.97Z"/>
      <g>
        <path class="cls-36" d="m233.39,242.02c-5.67,1.74-11.22,5.07-13.6,10.73-4.03,1.7-8.02,4.36-9.55,8.67,1.21-4.42,5.24-7.34,9.28-9.07.58-2.1,3.31-5.27,5.61-6.8,2.5-1.72,5.36-2.81,8.26-3.52h0Z"/>
        <path class="cls-36" d="m223.55,220.8c-3.21,2.35-6.24,5.04-8.39,8.41-3.65,2.4-7.31,4.77-10.81,7.38,3.24-2.92,6.87-5.37,10.5-7.77,1.83-2.98,5.39-6.08,8.71-8.02h0Z"/>
        <path class="cls-36" d="m213.27,202.89c-.43,8.77-.56,17.6.81,26.3-2.04-8.59-1.92-17.58-.81-26.3h0Z"/>
        <path class="cls-36" d="m214.11,172.84c-.59,9.11-1,18.59-.5,27.69-1.17-9.19-.78-18.54.5-27.69h0Z"/>
        <path class="cls-36" d="m213.69,169.65c.6-7.23,2.51-14.36,5.39-21.01-2.24,6.9-4.12,13.86-5.39,21.01h0Z"/>
        <path class="cls-36" d="m225.39,280.55c-3.18-8.81-5.59-17.92-7.09-27.17,2.1,8.86,4.61,18.41,7.09,27.17h0Z"/>
        <path class="cls-36" d="m249.01,290.05c-3.89-5.98-6.85-12.62-8.65-19.53,2.46,6.71,5.34,13.2,8.65,19.53h0Z"/>
        <path class="cls-36" d="m236.4,307.43c-4.15-7.41-7.57-15.25-10.06-23.37,3.04,7.67,6.6,15.88,10.06,23.37h0Z"/>
        <path class="cls-36" d="m250.23,292.78c2.96,4.96,5.91,9.89,8.76,14.92-3.42-4.65-6.39-9.65-8.76-14.92h0Z"/>
        <path class="cls-36" d="m237.51,310.01c3.02,5.59,6.16,11.06,9.41,16.52-3.81-5.08-7-10.64-9.41-16.52h0Z"/>
        <path class="cls-36" d="m256.37,321.45c2.99,4.97,6.2,9.74,9.44,14.55-3.77-4.39-7.05-9.27-9.44-14.55h0Z"/>
        <path class="cls-1" d="m255.86,285.98s-4.23,2.1-5.69,5.96c-1.46,3.86-3.88,11.46-7.05,13.81-3.17,2.35-5.51,3.3-6.16,4.05-.65.75-1.12,4.51-1.93,5.19s-2.75,3.71-2.75,3.71"/>
        <path class="cls-1" d="m260.78,307.42c-.89,1.87-2.77,6.16-3.41,10.27s-3.63,7.69-5.22,8.89-4.14,1.59-5.18,2.37-3.44,3.09-3.88,5.21"/>
        <path class="cls-1" d="m249.92,263.6s-4.57-.22-7.8,4.17c-3.22,4.39-3.68,8.25-7.1,11.11-3.42,2.86-9.75,5.29-10.04,5.5-1.49,2.64-5.25,4.15-6.1,3.95"/>
        <path class="cls-36" d="m223.44,194.83c-2.7,2.37-5.53,4.58-8.34,6.81-1.28.95-2.99,2.37-4.31,3.24-1.47.93-3.27,2.01-5.07,1.51.89.16,1.78-.08,2.57-.46,2.42-1.16,4.35-3.08,6.5-4.68,2.85-2.18,5.69-4.37,8.65-6.41h0Z"/>
        <path class="cls-36" d="m223.12,176.17c-2.94.96-5.67-1.96-8.23-2.99-2.68-1.27-5.59-2.04-8.46-2.8,2.98.4,5.92,1.11,8.67,2.36,2.64,1.04,5.04,3.94,8.02,3.43h0Z"/>
      </g>
    </g>
    <g>
      <g>
        <path class="cls-12" d="m336.13,285.83s3.11,7.53,3.33,11.25c.8,13.86,5.62,26.94,9.45,29.95-12.04,2.76-18.56-11.45-23.4-17.25-3.5-4.19-14.32-5.39-14.32-5.39l-5.64-23.98,18.7,7.18,11.89-1.76Z"/>
        <path class="cls-12" d="m330.01,267.5c4.19,5.83,7.71,12.91,10.73,20.88-3.51-1.93-7.05-2.4-10.63-1.32-5.28,5.07-15.1-.83-24.24-5.09-2.6-.46-4.7.56-6.46,2.58-1.67-8.24-3.63-15.86-6.06-22.48l8.9.51,16.05,4.5,5.85-2.01,5.85,2.43Z"/>
        <path class="cls-12" d="m317.62,239.29c7.78,11.41,14.76,22.25,16.41,29.33-4,.22-7.23-.48-9.4-2.47-6.5,3.36-14.03,2.28-22.42-2.53-5.37-.9-9.02,0-11.61,2-1.78-7.31-5.07-14.56-9.3-21.78l8.28-3.72,18.12,1.1,9.93-1.93Z"/>
        <path class="cls-12" d="m302.22,212.26l18.84,25.18c-.82,2.9-3.68,3.3-7.41,2.64,0,1.33-13.53,5.1-20.93,1.65-5.84-2.73-13.61,5.39-13.61,5.39l-3.23-10.46.54-20.37,13.2-3.53,12.6-.51Z"/>
        <path class="cls-12" d="m290.02,192.43c7.04,7.51,13.13,14.74,17.27,21.38-4.2-1.89-8.93-.79-13.73.76-5.34-1.78-11.45.46-17.64,3.16l-14.35-20.17,8.71-2.77,19.74-2.36Z"/>
        <path class="cls-12" d="m268.55,172.85c6.49,4.12,14.95,11.55,23.75,19.54,0,0-13.08,3.06-12.36,2.98s-8.7-.92-12.27,1.03c-3.57,1.96-6.65,3.44-6.65,3.44l-13.17-22.57,20.7-4.41Z"/>
        <path class="cls-12" d="m239.73,152.29s11.75,6.91,15.34,8.5c3.6,1.59,16.94,6.77,17.06,7.34s-1.8,5.81-4.82,6.86-18,3.31-19.15,3.46-13.19-13.1-13.19-13.1l4.76-13.05Z"/>
        <path class="cls-12" d="m214.07,136.62c4.09-.26,18.82,9.26,28.61,12.16-2.18,3.39-6.26,13.22-6.96,18.54l-17.59-22.87-4.06-7.84Z"/>
      </g>
      <path class="cls-34" d="m347.14,325.25s-10.05-6.78-13.05-9.98c-3-3.21-7.68-7.38-9.57-14.58-1.88-7.2.52-9.8,4.08-10.94,3.56-1.14,9.44,1.45,9.44,1.45l-1.58-4.38,4.33,1.72c-.99-2.44-1.94-4.72-2.83-6.67,0,0-3.15,2.62-5.06,1.58-1.91-1.04-4.82-8.88-4.81-10.83,0-1.95,1.69-4.26,1.69-4.26,0,0-1.51-.96-2.06-1.53-.54-.56-11.06-19.02-11.24-21.16-.18-2.14,2.31-3.9,2.31-3.9l-.97-1.76s-.63.07-.92-.15c-.29-.21-15.22-18.07-15.12-20.67.1-2.6,2.2-4.42,2.2-4.42l-1.62-2.01c1.62-.13,3.15.24,4.59,1.17-.52-1.81-2.12-3.92-4.04-6.12,0,0-7.25,1.9-9.45,1.85-2.2-.05-8.02-6.71-8.35-10.11-.33-3.4.81-4.09,1.81-4.63.99-.54,3.83-1.1,3.83-1.1l-.69-.73,2.36-.55s-1.61-1.53-1.93-1.65c-.32-.12-6.41-1.62-8.33-2.53s-12.03-7.1-13.04-9.15c-1.01-2.05,1.11-5.12,1.11-5.12l-1.44-.87.86-1.15s-7.71-3.9-15.01-8c-6.85-3.85-13.3-7.9-13.58-8.34-.59-.91-.77-3.53-.77-3.53-7.13-6.6-15.59-12.02-25.52-16.12l3.53,7.88c6.94,2.86,16.83,8.52,17.42,10.36.6,1.84-1.9,4.51-3.88,6.21l5.17,7.94s1.19-3.23,2.74-3.75c1.55-.52,4.45-.08,7.69,2.28,3.23,2.35,5.26,3.6,5.19,6.22-.07,2.61-4.98,4.53-4.98,4.53l2.68,3.95s5.88-4.32,8.8-4.17,6.02,3.46,7.23,4.94c1.21,1.48,4.28,6.09,4.07,8.53-.21,2.44-7.7,5.41-7.7,5.41l5.31,3.14s5.88-2.83,8.48-2.92c2.6-.1,4.6,3.3,5.37,4.75.77,1.45,2.63,6.39,1.38,9.11-1.25,2.72-6.55,3.44-6.55,3.44l.07,7.13s12.54-5.91,15.52-4.55c2.98,1.36,9.5,12.04,9.88,14.46.39,2.42-1.3,5.65-4.41,6.72-3.11,1.07-10.96,1.06-12.88-.56-1.93-1.61-7.58-12-7.58-12l.3,14.12,1.73,7.51,2.35-2.13c3.88,6.85,6.9,13.94,8.81,21.34,1.12-1.09,2.29-1.93,3.58-2.11l5.23,20.88c1.37-1.66,3.32-2.98,6.4-2.77l1.72,6.89c3.53-.73,10.96-.08,12.01,1.54,1.05,1.62,2.5,11.21.05,12.26-2.46,1.05-8.7.44-8.7.44l.32,1.37c5.4.6,11.65,2.61,13.75,5,2.09,2.39,7.6,10.85,12.34,14.77,6,4.96,11.95,2.73,11.95,2.73l-2-1.73Zm-53.21-63.71c-4.18.32-8.38-10.53-8.52-11.86-.14-1.34.26-4.27,3.65-4.49,3.39-.22,8.48,8.95,8.98,11.1s.07,4.94-4.11,5.25Zm5.28-14.85c1.88-3.95,10.67-2.28,12.14-.78,1.47,1.49,7.77,10.25,7.07,14.21-.69,3.96-8.48,3.68-11.61,1.85-3.13-1.83-9.48-11.32-7.6-15.28Zm13.78,36.14c-3.28-2.84-5.53-9-3.46-12.4,2.07-3.4,11.86-1.72,13.8.41,1.94,2.13,4.59,10.42,1.65,12.21-2.94,1.78-8.71,2.63-11.98-.21Z"/>
      <g>
        <path class="cls-36" d="m276.71,217.64c4.71-3.38,12.02-5.41,16.99-3.23,4-1.81,8.88-2.8,12.95-.7-4.2-1.79-8.86-.65-12.84,1.17-5.78-2.07-11.98-.24-17.1,2.76h0Z"/>
        <path class="cls-36" d="m267.74,196.03c3.67-1.13,8.37-1.65,11.8-.99,4.22-1.05,8.48-2.07,12.82-2.48-4.3.81-8.52,1.9-12.75,2.97-3.93-.69-7.97-.27-11.87.5h0Z"/>
        <path class="cls-36" d="m261.5,176.35c7.17,5.08,13.87,11.07,18.82,18.39-5.48-6.9-12.06-12.77-18.82-18.39h0Z"/>
        <path class="cls-36" d="m238.8,156.63c7.61,5.25,14.76,11.29,20.73,18.37-6.36-6.52-13.62-12.65-20.73-18.37h0Z"/>
        <path class="cls-36" d="m236.74,154.17c-6.12-3.9-12.52-7.23-19.12-10.24,6.84,2.38,13.39,5.79,19.12,10.24h0Z"/>
        <path class="cls-36" d="m310.49,237.81c-4.78-7.76-10.11-16.06-15.22-23.6,5.8,7.36,10.88,15.3,15.22,23.6h0Z"/>
        <path class="cls-36" d="m301.52,261.63c-2.42-6.72-5.25-13.23-8.53-19.58,3.87,6,6.76,12.67,8.53,19.58h0Z"/>
        <path class="cls-36" d="m322.84,264.1c-3.18-7.62-6.81-15.79-10.4-23.22,4.3,7.33,7.76,15.15,10.4,23.22h0Z"/>
        <path class="cls-36" d="m302.7,264.38c2.28,5.31,3.95,10.88,5.06,16.54-1.77-5.5-3.42-11-5.06-16.54h0Z"/>
        <path class="cls-36" d="m323.99,266.66c2.69,5.75,4.64,11.87,5.8,18.11-1.82-6.09-3.73-12.1-5.8-18.11h0Z"/>
        <path class="cls-36" d="m319.66,288.29c2.27,5.33,3.65,11.05,4.33,16.8-1.35-5.64-2.69-11.23-4.33-16.8h0Z"/>
        <path class="cls-1" d="m293.89,263.92s4.41-1.7,8.24-.16,11.06,4.89,14.94,4.15,6.16-1.83,7.15-1.8,4.08,2.22,5.13,2.09,4.59.48,4.59.48"/>
        <path class="cls-1" d="m306.35,282.05c1.98.61,6.41,2.12,9.87,4.44,3.46,2.32,8.12,2.53,10.08,2.18s3.97-1.97,5.25-2.21,4.6-.44,6.46.67"/>
        <path class="cls-1" d="m281.41,244.41s2.93-3.52,8.35-2.92c5.41.6,8.57,2.87,12.98,2.28s10.49-3.6,10.84-3.68c2.96.69,6.61-1.06,7.03-1.82"/>
        <path class="cls-36" d="m248.69,178.38c3.5-.8,7.04-1.41,10.57-2.03,2.63-.5,5.36-.61,7.84-1.62.82-.33,1.59-.82,2.08-1.58-.85,1.66-2.86,2.25-4.54,2.71-1.53.38-3.74.69-5.3.99-3.54.57-7.08,1.15-10.65,1.54h0Z"/>
        <path class="cls-36" d="m235.16,165.53c2.4-1.85,1.88-5.58,2.9-8.23.94-2.87,2.41-5.52,4.13-7.98-1.39,2.62-2.78,5.29-3.66,8.12-.98,2.59-.67,6.56-3.37,8.08h0Z"/>
      </g>
    </g>
    <g>
      <g>
        <path class="cls-12" d="m322.77,306.09s2.68,7.69,2.69,11.42c.03,13.88,4.1,27.21,7.76,30.43-12.18,2.08-17.89-12.47-22.4-18.53-3.26-4.38-14-6.19-14-6.19l-4.29-24.26,18.27,8.21,11.97-1.1Z"/>
        <path class="cls-12" d="m317.68,287.44c3.86,6.06,6.97,13.32,9.55,21.45-3.39-2.13-6.91-2.79-10.54-1.91-5.55,4.76-15.03-1.68-23.91-6.44-2.57-.6-4.72.3-6.6,2.22-1.21-8.32-2.74-16.04-4.79-22.79l8.86,1.01,15.78,5.39,5.95-1.68,5.7,2.75Z"/>
        <path class="cls-12" d="m306.89,258.59c7.13,11.82,13.49,23.04,14.74,30.2-4,0-7.19-.89-9.25-2.99-6.68,2.99-14.14,1.49-22.25-3.78-5.31-1.2-9.01-.51-11.71,1.35-1.37-7.4-4.25-14.82-8.07-22.27l8.48-3.25,18.03,2.11,10.02-1.37Z"/>
        <path class="cls-12" d="m293.03,230.73l17.4,26.2c-.98,2.85-3.86,3.09-7.55,2.22-.06,1.33-13.8,4.34-20.99.48-5.68-3.05-13.89,4.62-13.89,4.62l-2.64-10.62,1.67-20.3,13.38-2.78,12.61.19Z"/>
        <path class="cls-12" d="m281.95,210.26c6.61,7.89,12.28,15.45,16.05,22.32-4.09-2.12-8.87-1.28-13.75,0-5.23-2.08-11.46-.18-17.79,2.17l-13.2-20.94,8.85-2.28,19.84-1.25Z"/>
        <path class="cls-12" d="m261.61,189.5c6.24,4.47,14.28,12.37,22.62,20.83,0,0-13.23,2.32-12.51,2.28s-8.63-1.41-12.3.35c-3.67,1.75-6.83,3.06-6.83,3.06l-11.89-23.27,20.91-3.25Z"/>
        <path class="cls-12" d="m233.99,167.37s11.34,7.56,14.84,9.34c3.5,1.78,16.53,7.71,16.62,8.28s-2.12,5.7-5.2,6.58c-3.08.88-18.16,2.3-19.32,2.39s-12.43-13.82-12.43-13.82l5.48-12.77Z"/>
        <path class="cls-12" d="m209.24,150.28c4.09-.03,18.27,10.3,27.89,13.74-2.37,3.27-6.99,12.85-7.98,18.12l-16.29-23.81-3.62-8.05Z"/>
      </g>
      <path class="cls-34" d="m331.55,346.06s-9.66-7.33-12.47-10.69c-2.81-3.37-7.26-7.79-8.73-15.09-1.48-7.3,1.07-9.75,4.69-10.69,3.62-.94,9.34,1.97,9.34,1.97l-1.33-4.46,4.22,1.96c-.85-2.49-1.68-4.82-2.45-6.81,0,0-3.29,2.44-5.14,1.3-1.85-1.14-4.32-9.14-4.2-11.08.12-1.94,1.92-4.16,1.92-4.16,0,0-1.46-1.05-1.97-1.64-.51-.59-9.98-19.61-10.04-21.76-.06-2.15,2.52-3.76,2.52-3.76l-.87-1.81s-.63.03-.91-.2c-.27-.23-14.19-18.89-13.94-21.48.25-2.59,2.44-4.29,2.44-4.29l-1.5-2.1c1.63-.04,3.13.42,4.52,1.43-.42-1.84-1.9-4.04-3.69-6.34,0,0-7.34,1.5-9.54,1.32-2.2-.18-7.63-7.15-7.77-10.56-.14-3.41,1.04-4.04,2.06-4.52,1.02-.48,3.88-.88,3.88-.88l-.65-.76,2.38-.42s-1.52-1.62-1.84-1.76c-.31-.14-6.31-1.97-8.18-2.99-1.87-1.02-11.62-7.76-12.51-9.86-.89-2.1,1.39-5.05,1.39-5.05l-1.39-.95.92-1.1s-7.48-4.33-14.54-8.83c-6.62-4.23-12.83-8.63-13.1-9.08-.54-.94-.57-3.57-.57-3.57-6.75-6.99-14.89-12.87-24.58-17.52l3.09,8.07c6.77,3.24,16.32,9.45,16.81,11.32.49,1.87-2.15,4.4-4.22,5.98l4.72,8.22s1.36-3.15,2.94-3.59c1.58-.43,4.45.17,7.55,2.7,3.1,2.53,5.05,3.89,4.83,6.5-.22,2.61-5.23,4.24-5.23,4.24l2.45,4.1s6.11-3.98,9.02-3.68,5.82,3.79,6.94,5.33c1.12,1.54,3.93,6.32,3.58,8.74-.35,2.42-7.99,4.97-7.99,4.97l5.13,3.43s6.03-2.49,8.63-2.44c2.6.05,4.4,3.55,5.09,5.04.69,1.49,2.27,6.53.87,9.17-1.4,2.65-6.73,3.07-6.73,3.07l-.33,7.12s12.85-5.2,15.75-3.67c2.9,1.53,8.81,12.56,9.06,14.99.25,2.43-1.61,5.57-4.78,6.46-3.16.89-11,.44-12.83-1.28s-6.9-12.41-6.9-12.41l-.49,14.12,1.3,7.59,2.46-2c3.49,7.06,6.11,14.31,7.61,21.8,1.18-1.03,2.39-1.8,3.7-1.9l4.06,21.14c1.46-1.58,3.48-2.79,6.55-2.41l1.33,6.97c3.56-.53,10.94.53,11.9,2.2.96,1.68,1.87,11.33-.64,12.24-2.51.91-8.71-.04-8.71-.04l.25,1.39c5.36.9,11.49,3.26,13.45,5.76s6.98,11.26,11.5,15.43c5.71,5.28,11.78,3.39,11.78,3.39l-1.9-1.84Zm-49.57-66.59c-4.19.08-7.78-10.98-7.84-12.32-.07-1.34.5-4.25,3.89-4.27,3.4-.03,7.97,9.41,8.35,11.58.38,2.17-.2,4.93-4.4,5.01Zm6.1-14.54c2.1-3.84,10.78-1.68,12.16-.1,1.38,1.57,7.18,10.67,6.27,14.58-.91,3.91-8.67,3.21-11.69,1.2-3.02-2.01-8.83-11.83-6.73-15.68Zm11.74,36.86c-3.11-3.02-5.02-9.29-2.77-12.58,2.26-3.28,11.94-1.05,13.75,1.18,1.82,2.23,4,10.66.96,12.28-3.03,1.62-8.84,2.14-11.95-.88Z"/>
      <g>
        <path class="cls-36" d="m267.25,234.68c4.89-3.11,12.3-4.73,17.14-2.27,4.09-1.58,9.02-2.3,12.97.03-4.1-2.02-8.81-1.15-12.89.45-5.65-2.39-11.95-.91-17.22,1.8h0Z"/>
        <path class="cls-36" d="m259.51,212.6c3.73-.92,8.45-1.18,11.84-.32,4.27-.81,8.58-1.6,12.94-1.76-4.33.57-8.61,1.42-12.9,2.25-3.89-.91-7.94-.72-11.88-.17h0Z"/>
        <path class="cls-36" d="m254.38,192.6c6.87,5.48,13.23,11.83,17.76,19.41-5.08-7.19-11.33-13.43-17.76-19.41h0Z"/>
        <path class="cls-36" d="m232.82,171.65c7.3,5.67,14.1,12.1,19.67,19.5-5.98-6.87-12.9-13.39-19.67-19.5h0Z"/>
        <path class="cls-36" d="m230.9,169.08c-5.9-4.24-12.1-7.91-18.52-11.3,6.7,2.76,13.05,6.53,18.52,11.3h0Z"/>
        <path class="cls-36" d="m299.86,256.7c-4.34-8.01-9.2-16.6-13.87-24.42,5.38,7.68,10.01,15.88,13.87,24.42h0Z"/>
        <path class="cls-36" d="m289.56,279.99c-2.04-6.85-4.5-13.51-7.42-20.03,3.53,6.21,6.04,13.03,7.42,20.03h0Z"/>
        <path class="cls-36" d="m310.72,283.65c-2.74-7.78-5.91-16.14-9.09-23.76,3.88,7.56,6.9,15.56,9.09,23.76h0Z"/>
        <path class="cls-36" d="m290.59,282.8c1.98,5.43,3.33,11.08,4.13,16.8-1.46-5.59-2.79-11.18-4.13-16.8h0Z"/>
        <path class="cls-36" d="m311.72,286.27c2.37,5.89,3.97,12.11,4.78,18.4-1.48-6.18-3.04-12.29-4.78-18.4h0Z"/>
        <path class="cls-36" d="m306.19,307.62c1.97,5.45,3.03,11.23,3.39,17.01-1.04-5.71-2.06-11.37-3.39-17.01h0Z"/>
        <path class="cls-1" d="m281.82,281.85s4.5-1.45,8.24.3c3.74,1.75,10.77,5.5,14.69,4.98s6.25-1.48,7.24-1.39,3.95,2.44,5.01,2.37,4.55.74,4.55.74"/>
        <path class="cls-1" d="m293.25,300.65c1.94.72,6.28,2.48,9.6,4.98,3.32,2.51,7.97,2.98,9.94,2.74s4.07-1.74,5.36-1.91,4.61-.18,6.42,1.03"/>
        <path class="cls-1" d="m270.46,261.67s3.12-3.35,8.5-2.45,8.39,3.35,12.84,3.01,10.67-3.01,11.03-3.07c2.91.85,6.65-.69,7.12-1.42"/>
        <path class="cls-36" d="m241.47,193.92c3.54-.6,7.11-1.01,10.67-1.44,2.65-.35,5.38-.31,7.92-1.18.83-.28,1.64-.73,2.16-1.47-.94,1.61-2.98,2.08-4.68,2.45-1.54.3-3.77.47-5.35.69-3.57.37-7.13.75-10.72.94h0Z"/>
        <path class="cls-36" d="m228.69,180.32c2.5-1.71,2.19-5.47,3.36-8.05,1.1-2.81,2.71-5.37,4.57-7.74-1.53,2.54-3.07,5.13-4.11,7.9-1.12,2.53-1.04,6.51-3.81,7.88h0Z"/>
      </g>
    </g>
  </g>
  <path class="cls-7" d="m210.01,161.71c2.15,6.13,18.68,24.65,21.67,26.36s18.89-2.56,17.82-7.15c-1.07-4.59-11.21-21.35-17.82-26.36-6.62-5.02-22.41,5.02-21.67,7.15Z"/>
  <path class="cls-17" d="m228.92,161.87c3.28,3.48,6.31,7.19,9.17,11.03,2.72,3.89,5.67,7.86,6.92,12.51-.39-1.13-.87-2.22-1.44-3.26-4.11-7.27-9.5-13.72-14.65-20.27h0Z"/>
  <path class="cls-8" d="m230.29,201.41s-.96-10.89-.64-15.05,17.4-11.1,19.85-5.44c2.45,5.66,2.99,20.49,2.99,20.49-5.82,3.23-14.06,3.58-22.2,0Z"/>
  <path class="cls-14" d="m187.11,136.15c7.52-1.44,19.16-9.02,19.16-9.02,0,0,4.16,4.64,5.76,5.44,1.6.8,8.16,2.24,8.16,2.24l-17.13,17.45c-5.84-5.15-12.49-3.58-20.65-1.87-2.99.43-6.43-2.69-11.45-1.73,3.52-2.13,12.64-4.77,15.53-5.28l.61-7.23Z"/>
  <path class="cls-8" d="m210.22,162.35c5.56,3.19,11.74,2.99,16.65,2.77s8.75-2.35,9.39-5.76-5.15-7.87-5.55-10.35-4.83-13.26-8.75-15.26c-3.92-2-14.01-.13-17.13,4.03-3.12,4.16-9.21,15.53-2.4,19.21,6.8,3.68,5.42,4,7.79,5.36Z"/>
  <path d="m151.2,189.03c.13-3.47,1.88-8.15-1.49-10.54,3.94,1.83,2.37,7.25,1.49,10.54h0Z"/>
  <g>
    <g>
      <path class="cls-13" d="m231.71,209.72l-5.13-5.03c.3-3.28.74-6.43,5.73-5.1,3.5-4.86,7.92-5.92,12.82-5.05,4.36-4.14,10.02-5.65,17.9-2.65l-2.73,9.59-28.59,8.24Z"/>
      <path class="cls-13" d="m233.24,219.68l-6.11-7.67c2.47-2.44,5.54-4.11,9.84-4.19,3.05-3.41,6.53-5.83,11.6-4.42,3.33-2.59,7.61-4.53,16.64-3.21l-3.77,11.72-28.21,7.77Z"/>
      <path class="cls-13" d="m228.69,219.97c.62,2.85,1.63,5.37,3.18,7.45l-2.24,9.98c-3.28,1.54-6.29,4.52-9.26,7.74,0,0,5.96-3.62,8.8-1.7,4.32,2.92,1.07,15.59,1.07,15.59,4.25,1.48,7.99,4.11,11.28,7.75,0,0,4.76-5.18,8.42-5.49,2.07-.18,4.66,1.45,4.66,1.45,0,0-1.45-15.52-.14-23.27,1.31-7.75,8.84-23.88,10.2-26.44,1.36-2.56-.28-2.71-.28-2.71-5.29-.95-9.59.43-13.31,3.2-5.86-1.18-9.96.9-13.6,3.82-4.08-.45-6.77.7-8.77,2.64Z"/>
    </g>
    <g>
      <path class="cls-6" d="m254.39,268.35c1.54,4.06,3.23,7.68,5.53,9.44-2.76,3.9-3.45,8.01-1.44,12.38l-4.82,3.9c-1.3-7.64-.71-16.43.73-25.72Z"/>
      <path class="cls-6" d="m254.73,278.37s-1.34,8.48-.95,11.13.59,4.75.59,4.75c-5.57,2.61-9.44,6.98-12.67,12.01-.55-4.98-.43-9.58,3.17-12.22l-.85-3.2,3.78-9.26,6.93-3.21Z"/>
      <path class="cls-6" d="m254.09,262.19c-.09,4.49.81,10.13,2.12,16.23,0,0-6.03,2.83-8.12,5.34s-1.73,8.08-1.73,8.08l-9.77,3.07,4.47-5.62,1.75-6.55,7.63-6.82,1.4-15.44,2.26,1.71Z"/>
      <path class="cls-6" d="m241.6,267.39l-2.02,9.22s-.52,4.16-1.9,5.79c-1.38,1.63-6.32,2.92-6.32,2.92,0,0,1.01,4.42.68,6.36-.33,1.94-1.4,5.01-1.4,5.01-3.18,1.66-4.62,4.61-5.51,7.97,3.93-2.71,7.65-5.06,10.52-5.86,0,0,1.42-3.48,3.51-5.45,2.09-1.97,3.57-3.05,3.57-3.05,0,0-.09-3.87.98-5.81s8.03-7.55,8.03-7.55c-.06-6.15.12-11.8,1.1-15.82-4.94-.25-8.41,2.4-11.24,6.27Z"/>
      <path class="cls-6" d="m220.69,244.86s-2.33,11.63-3.72,12.72c-1.39,1.09-2.25,1.28-2.25,1.28,0,0,1.19,4.45.29,7.02-.9,2.57-3.02,4.21-3.02,4.21l6.68,9.23s1.11-5.46,2.28-6.39,1.51-2.93,1.51-2.93c0,0-1.75-1.69-1.01-4.42s8.79-6.55,8.79-6.55c0,0,3-13.38-1.07-15.59-4.07-2.21-8.48,1.43-8.48,1.43Z"/>
      <path class="cls-15" d="m215.36,264.12c1.81,2.67,3.6,6.83,4.53,10.74"/>
      <path class="cls-15" d="m219.46,249.97c.93,2.06,2.32,4.45,1.69,6.46,1.76,1.45,2.58,3.59,3.06,5.96"/>
      <path class="cls-15" d="m239.28,278.53c2.91.07,8.32-4.88,12.65-5.88"/>
      <path class="cls-15" d="m232.17,292.5c3-.53,7.64-2.66,10.8-5.86"/>
      <path class="cls-15" d="m244.87,294.05c3.02-.52,6.21-2.03,8.58-4.26"/>
      <path class="cls-15" d="m253.92,285.94c1.58.51,2.77.38,3.58-.39"/>
    </g>
  </g>
  <g>
    <g>
      <path class="cls-13" d="m141.72,170.27l5.63,2.62c1.11,3.09,2.08,6.12-1.95,6.81-.48,5.74-3.15,8.39-6.93,9.46-1.37,5.42-4.73,8.94-11.46,9.2l-1.97-9.75,16.69-18.35Z"/>
      <path class="cls-13" d="m136.62,161.8l7.38,4.65c-.74,3.16-2.22,5.84-5.19,7.54-.76,4.26-2.21,7.78-6.34,8.42-1.28,3.62-3.49,7.01-10.35,9.24l-2.11-12.08,16.6-17.78Z"/>
      <path class="cls-13" d="m139.69,159.8c-1.59-2.36-3.32-4.26-5.24-5.56l-2.47-9.92c1.67-2.65,2.57-6.5,3.35-10.55,0,0-2.71,5.56-5.47,4.89-4.21-1.01-7.06-13.76-7.06-13.76-3.57.27-7.26-.7-11.03-2.76,0,0-1.24,6.51-3.67,8.18-1.38.95-3.85.45-3.85.45,0,0,7.3,13.55,9.52,21.09,2.22,7.54,3.48,25.06,3.56,27.9s1.29,2.35,1.29,2.35c4.09-1.15,6.54-4.04,8.02-7.96,4.58-1.16,6.61-4.6,7.98-8.63,3.04-1.14,4.46-3.2,5.07-5.73Z"/>
    </g>
    <g>
      <path class="cls-6" d="m102.11,125.6c-2.72-3.1-5.37-5.76-7.69-6.47.35-4.6-.83-8.59-4-11.8l1.8-5.38c4,6.45,7.14,14.66,9.9,23.65Z"/>
      <path class="cls-6" d="m97.81,116.62s-2.49-8.21-3.84-10.48-2.33-4.09-2.33-4.09c2.85-4.48,3.79-9.92,4.01-15.73,2.4,4.32,4.18,8.55,2.72,12.31l1.89,2.58,1.1,9.85-3.55,5.55Z"/>
      <path class="cls-6" d="m104.82,131.09c-1.76-4.12-4.67-8.9-8.05-13.95,0,0,3.07-4.87,3.52-7.93.45-3.07-2.06-8-2.06-8l5.6-6.5-.85,6.81,1.42,6.61-2.58,9.09,5.27,14.56-2.27-.7Z"/>
      <path class="cls-6" d="m111.46,121.62l-2.32-9.15s-1.32-3.98-1.01-5.98,3.24-5.05,3.24-5.05c0,0-2.5-3.63-3.05-5.52s-1.05-5.09-1.05-5.09c1.55-2.72,1.36-5.95.63-9.34-1.65,3.96-3.31,7.5-4.99,9.32,0,0,.41,3.7-.25,6.29-.67,2.59-1.26,4.13-1.26,4.13,0,0,1.63,3.48,1.67,5.65s-2.57,9.91-2.57,9.91c2.53,5.57,4.69,10.77,5.64,14.8,3.56-1.65,4.91-5.37,5.33-9.97Z"/>
      <path class="cls-6" d="m135.21,134.15s-3.07-11.45-2.55-12.98,1.06-2.02,1.06-2.02c0,0-2.64-3.59-3.05-6.27s.41-4.97.41-4.97l-8.41-5.85s1.44,5.38.99,6.67.13,3.24.13,3.24c0,0,1.91.87,2.5,3.63.59,2.76-3.5,9.29-3.5,9.29,0,0,3.32,13.29,7.06,13.76,3.74.47,5.36-4.51,5.36-4.51Z"/>
      <path class="cls-15" d="m131.15,114.62c-2.35-1.74-5.29-4.83-7.52-8.04"/>
      <path class="cls-15" d="m134.01,129.04c-1.49-1.52-3.43-3.16-3.8-5.23-1.82-.65-3.26-2.28-4.56-4.26"/>
      <path class="cls-15" d="m108.57,110.61c-2.06,1.05-3.85,7.6-6.48,10.15"/>
      <path class="cls-15" d="m107.89,95.22c-1.89,1.62-4.27,5.32-5.19,9.43"/>
      <path class="cls-15" d="m98.37,98.64c-1.9,1.62-3.53,4.2-4.28,7.14"/>
      <path class="cls-15" d="m95.32,109.44c-1.31.14-2.1.71-2.35,1.72"/>
    </g>
  </g>
</svg>