<?xml version="1.0" encoding="UTF-8"?>
<svg xmlns="http://www.w3.org/2000/svg" viewBox="0 0 553.09 658.06">
  <defs>
    <style>
      .cls-1 {
        fill: #fff;
      }

      .cls-2 {
        fill: #302729;
      }

      .cls-3 {
        fill: #e1c7c9;
      }

      .cls-4, .cls-5 {
        fill: #010000;
      }

      .cls-5 {
        opacity: .2;
      }

      .cls-6 {
        fill: #f29490;
      }
    </style>
  </defs>
  <g id="queue">
    <g>
      <path class="cls-1" d="m178.4,525.29l-14.08-61.64c-103.7-128.67-52.09-224.27-60.98-225.23-4.71-.51-8.51,3.53-11.05,7.46-.22-.8-.44-1.61-.71-2.39-6.24,7.77-11.93,19.64-12.24,30.03-13.21,25.81-3.52,67.34-3.92,97.78-1.76.18-3.38-.03-5.1.29.09,10.13.06,20.26.12,30.38-1.98-.68-4.55-1-6.37-1.79,2.49,15.86,20.98,24.27,27.45,37.4,4.08,8.33,8.77,20.19,11.01,28.7-2.45-.27-5.02-.18-7.46-.48,4.32,12.48,20.31,17.66,27.32,27.29-.79.94-1.9-.25-2.82.37,8.31,6.59,18.05,11.9,29.14,10.6,16.56,15.24,29.68,21.23,29.68,21.23Z"/>
      <path class="cls-4" d="m176.83,528.7c-.26-.13-13.1-6-29.45-20.76h0c-.68.04-1.37.06-2.07.06h0c-11.02-.03-20.35-5.48-28.09-11.61h0c-.85-.68-1.39-1.72-1.41-2.83h0c-.03-.63.12-1.25.4-1.81h0c-7.14-6.55-19.98-12.15-24.71-24.73h0c-.43-1.22-.19-2.58.63-3.59h0c.81-1.02,2.1-1.55,3.39-1.38h0c.59.08,1.22.13,1.89.17h0c-2.4-7.49-6.06-16.45-9.27-22.99h0c-5.11-11.52-24.41-20.02-27.79-38.48h0c-.21-1.35.33-2.72,1.42-3.55h0c1.08-.83,2.54-1.02,3.8-.48h0c.26.13.64.24,1.08.37h0c-.03-8.51,0-16.99-.08-25.46h0c-.02-1.83,1.28-3.41,3.06-3.74h0c.72-.13,1.38-.19,1.99-.22h0c-.17-16.89-3.01-37.25-3.03-56.45h0c.02-13.96,1.52-27.41,7.05-38.7h0c.66-11.39,6.52-23.2,13.01-31.37h0c.84-1.06,2.22-1.58,3.55-1.36h0c2.49-2.72,5.79-5.05,10.31-5.17h0c.54,0,.94.05,1.13.07h0c4.28.71,4.61,4.64,4.5,6.07h0c-.14,8-6.21,26.75-6.23,56.19h0c.04,39.7,11.28,97.23,65.33,164.35h0l.75,1.52,14.04,61.64-3.65.85,1.56-3.44-1.56,3.44,3.65-.85c.33,1.39-.17,2.86-1.28,3.76h0c-.68.55-1.53.84-2.38.84h0c-.53,0-1.06-.12-1.55-.34h0Zm-25.57-27.42c8.74,8.04,16.39,13.4,21.59,16.62h0l-12.01-52.56c-54.63-68.05-66.47-127.38-66.45-168.41h0c0-27.13,5.21-46.97,6.11-54.29h0c-1.69.9-3.59,2.86-5.05,5.26h0c-.81,1.24-2.24,1.91-3.71,1.71h0c-4.66,7.04-8.49,16.36-8.66,24.03h0l-.42,1.6c-4.97,9.67-6.59,22.29-6.57,35.98h0c-.02,19.13,3.04,40.15,3.04,58.18h0c.02.6.02,1.18.05,1.8h0c.04,1.96-1.44,3.66-3.39,3.85h0c-.63.05-1.19.08-1.71.09h0c.07,8.95.04,17.89.1,26.82h0c0,1.23-.58,2.37-1.58,3.09h0c-.84.61-1.91.81-2.92.61h0c5.11,10.05,18.63,17.89,25.2,30.28h0c4.2,8.57,8.9,20.5,11.27,29.4h0c.31,1.19.02,2.47-.79,3.41h0c-.81.95-2.04,1.41-3.26,1.28h0c-.17-.02-.33-.03-.5-.05h0c5.7,7.01,16.97,12.09,23.82,20.9h0c.59.82.81,1.8.67,2.75h0c5.99,4.07,12.44,6.89,19.21,6.87h0c.95,0,1.93-.08,3.01-.19h0c.13-.01.24-.02.37-.02h0c.94,0,1.86.35,2.57,1h0Z"/>
    </g>
  </g>
  <g id="pate_gauche" data-name="pate gauche">
    <g>
      <path class="cls-1" d="m335.92,373.1s10.87,29.71,5.82,87.11c-5.07,57.38,28.14,64.12,47.13,56.95l9.86-3.13c19.6-4.94,43.9-29.71,9.83-74.84-34.05-45.11-40.41-76.23-40.41-76.23"/>
      <path class="cls-4" d="m349.6,511.74c-7.42-8.32-12.16-21.35-12.16-40.31h0c0-3.63.17-7.5.55-11.56h0c.93-10.74,1.3-20.48,1.32-29.18h0c-.02-37.57-6.91-56.25-6.93-56.31h.02c-.7-1.96.28-4.11,2.22-4.82h0c1.95-.71,4.11.28,4.82,2.24h0c.15.35,7.39,20.37,7.39,58.89h0c0,8.94-.4,18.87-1.35,29.83h0c-.33,3.89-.52,7.5-.52,10.91h0c.41,35.5,16.46,43.9,31.01,44.28h0c4.1,0,8.13-.81,11.75-2.15h0l10.08-3.2c11.27-2.91,24.05-12.78,24.03-30.08h0c0-9.96-4.26-22.93-16.28-38.85h0c-34.42-45.58-41-77.28-41.08-77.74h0c-.42-2.04.89-4.02,2.93-4.43h0c2.02-.42,4.02.89,4.43,2.93h0c.06,0,1.46,7.27,7.19,20.44h0c5.74,13.17,15.7,31.97,32.53,54.27h0c12.66,16.8,17.78,31.22,17.78,43.38h0c-.02,21.48-15.98,33.99-29.46,37.31h0l-9.7,3.08c-4.28,1.58-9.13,2.54-14.2,2.54h-.17c-9.02,0-18.81-3.21-26.19-11.47h0Z"/>
    </g>
    <path class="cls-5" d="m335.92,373.1s10.87,29.71,5.82,87.11c-5.07,57.38,28.14,64.12,47.13,56.95l9.86-3.13c19.6-4.94,43.9-29.71,9.83-74.84-34.05-45.11-40.41-76.23-40.41-76.23"/>
    <g id="Calque_3" data-name="Calque 3">
      <g>
        <path class="cls-3" d="m368.25,477.93c-2.77-7.33,2.77-16.53,12.38-20.57,9.6-4.05,19.64-1.41,22.43,5.9,2.76,7.31-2.76,16.51-12.39,20.57-9.6,4.05-19.65,1.41-22.42-5.9Z"/>
        <path class="cls-3" d="m404.78,482.37c-1.14-2.98.62-6.52,3.94-7.91,3.31-1.39,6.93-.12,8.05,2.88,1.13,2.98-.63,6.52-3.94,7.91-3.31,1.39-6.91.12-8.04-2.88Z"/>
        <path class="cls-3" d="m393.38,495.13c-1.14-2.99.62-6.53,3.94-7.93,3.3-1.39,6.91-.1,8.05,2.88,1.12,2.98-.64,6.52-3.96,7.94-3.3,1.39-6.91.1-8.03-2.88Z"/>
        <path class="cls-3" d="m376.91,502.06c-1.13-2.99.65-6.54,3.96-7.91,3.31-1.41,6.89-.12,8.04,2.86,1.11,2.99-.65,6.53-3.96,7.93-3.31,1.39-6.89.1-8.04-2.88Z"/>
        <path class="cls-3" d="m359.3,491.84c-1.14-2.98.62-6.54,3.93-7.94,3.31-1.39,6.91-.1,8.05,2.88,1.13,2.98-.64,6.53-3.95,7.92-3.31,1.4-6.91.11-8.04-2.87Z"/>
      </g>
      <g>
        <path class="cls-6" d="m368.25,477.93c-2.77-7.33,2.77-16.53,12.38-20.57,9.6-4.05,19.64-1.41,22.43,5.9,2.76,7.31-2.76,16.51-12.39,20.57-9.6,4.05-19.65,1.41-22.42-5.9Z"/>
        <path class="cls-6" d="m404.78,482.37c-1.14-2.98.62-6.52,3.94-7.91,3.31-1.39,6.93-.12,8.05,2.88,1.13,2.98-.63,6.52-3.94,7.91-3.31,1.39-6.91.12-8.04-2.88Z"/>
        <path class="cls-6" d="m393.38,495.13c-1.14-2.99.62-6.53,3.94-7.93,3.3-1.39,6.91-.1,8.05,2.88,1.12,2.98-.64,6.52-3.96,7.94-3.3,1.39-6.91.1-8.03-2.88Z"/>
        <path class="cls-6" d="m376.91,502.06c-1.13-2.99.65-6.54,3.96-7.91,3.31-1.41,6.89-.12,8.04,2.86,1.11,2.99-.65,6.53-3.96,7.93-3.31,1.39-6.89.1-8.04-2.88Z"/>
        <path class="cls-6" d="m359.3,491.84c-1.14-2.98.62-6.54,3.93-7.94,3.31-1.39,6.91-.1,8.05,2.88,1.13,2.98-.64,6.53-3.95,7.92-3.31,1.4-6.91.11-8.04-2.87Z"/>
      </g>
    </g>
  </g>
  <g id="pate_gauche_2" data-name="pate gauche 2">
    <g>
      <g>
        <path class="cls-1" d="m361.55,526.5c-51.93,0-59.34,31.75-59.34,46.19,0,21.43,10.94,18.74,10.94,18.74h96.79s10.94,2.68,10.94-18.74c0-14.44-7.41-46.19-59.33-46.19Z"/>
        <path class="cls-4" d="m411.07,595.27c-.59,0-1.07-.04-1.41-.09h-96.23c-.34.04-.82.09-1.43.09h0c-2.13.06-5.97-.77-8.86-4.37h0c-2.89-3.56-4.68-9.18-4.68-18.22h0c0-7.83,1.96-20.27,11.09-30.96h0c9.14-10.73,25.32-19.04,52.01-18.98h0v7.51c-50.06.39-55.09,29.07-55.59,42.42h0c.58,16.29,5.16,14.64,6.03,15.08h0c.33,0,.35-.02.35-.02h0l.79-.09h96.81l.82.11s0,0,.29,0h0c.87-.44,5.47,1.19,6.05-15.08h0c-.52-13.36-5.55-42.03-55.57-42.42h0v-7.51c26.68-.06,42.83,8.25,51.97,18.98h0c9.14,10.69,11.11,23.13,11.11,30.96h0c0,9.03-1.81,14.64-4.7,18.22h0c-2.79,3.48-6.48,4.37-8.64,4.37h-.22Z"/>
      </g>
      <path class="cls-5" d="m302.21,572.69c0,21.43,10.94,18.74,10.94,18.74h29.56c-3.22-.55-8.61-3.71-8.61-18.74,0-12.81,5.86-39.21,43.4-45.01-4.8-.74-10.07-1.17-15.94-1.17-51.93,0-59.34,31.75-59.34,46.19Zm107.73,18.74s.97.23,2.35,0h-2.35Z"/>
      <path class="cls-5" d="m428.33,591.49s.7.1,1.7,0h-1.7Z"/>
    </g>
    <g>
      <path class="cls-1" d="m392.04,552.48s20.24,9.66,20.24,38.96"/>
      <path class="cls-4" d="m408.52,591.43c-.04-13.79-4.68-22.53-9.25-28.07h0c-4.57-5.52-8.84-7.51-8.86-7.51h.02c-1.89-.89-2.68-3.13-1.78-5.01h0c.89-1.87,3.13-2.66,5.01-1.77h0c.54.17,22.4,11.07,22.38,42.36h0c0,2.09-1.68,3.74-3.76,3.74h0c-2.09,0-3.75-1.65-3.75-3.74h0Z"/>
    </g>
  </g>
  <g id="ventre">
    <g>
      <g>
        <path class="cls-1" d="m263.38,349.62c-42.78-12.89-69.68-32.05-69.68-32.05,0,0-38.61,57.76-38.61,138.09s70.63,123.45,125.23,123.45,116.28-49.08,120.04-106.6c3.77-57.5-43.79-128.64-43.79-128.64,0,0-25.43,15.49-93.19,5.76Z"/>
        <path class="cls-4" d="m151.33,455.65c.04-81.57,39.04-139.85,39.23-140.18h0c.56-.85,1.45-1.42,2.48-1.61h0c.99-.19,2.02.05,2.85.65h0c.08-.06,26.24,18.7,68.3,31.41h0c15.87,2.26,29.41,3.14,40.74,3.14h0c18.16-.02,30.72-2.21,38.68-4.37h0c7.96-2.15,10.99-4.06,11.01-4.06h0c1.7-1.06,3.95-.56,5.07,1.13h0c.09.28,44.47,66.07,44.62,124.08h0c.02,2.32-.06,4.62-.2,6.91h0c-4.24,60.05-67.11,109.89-123.79,110.12h0c-56.31-.14-128.86-44.38-128.99-127.22h0Zm7.51,0c.14,77.78,68.58,119.65,121.48,119.69h0c52.52.21,113-48.11,116.28-103.07h0c.15-2.13.19-4.27.19-6.43h0c.05-27.13-10.73-57.27-21.63-80.48h0c-8.24-17.58-16.42-31.12-19.93-36.67h0c-6.34,2.72-22.09,7.87-50.29,7.87h0c-11.78,0-25.76-.91-42.08-3.24h0l.54-3.73-1.08,3.6c-34.56-10.41-58.86-24.83-67.41-30.32h0c-7.72,13.06-36.08,64.64-36.06,132.77h0Z"/>
      </g>
      <g>
        <path class="cls-1" d="m250.05,492.07c-27.46-55.67,13.33-142.46,13.33-142.46-42.78-12.89-69.68-32.05-69.68-32.05,0,0-38.61,57.76-38.61,138.09s70.63,123.45,125.23,123.45c44.1,0,92.8-32.02,111.89-74.62-26.29,56.84-114.68,43.25-142.16-12.42Z"/>
        <path class="cls-4" d="m151.33,455.65c.04-81.57,39.04-139.85,39.23-140.18h0c.56-.85,1.45-1.42,2.48-1.61h0c.99-.19,2.02.05,2.85.65h0c.08-.06,26.35,18.78,68.57,31.49h0c1.04.31,1.9,1.06,2.35,2.08h0c.44,1,.42,2.13-.04,3.12h0c.09.11-22.52,48.12-22.48,94.75h0c0,15.69,2.54,31.12,9.14,44.45h0l-3.38,1.67-3.37,1.64c-7.25-14.71-9.9-31.29-9.9-47.76h0c.04-40.79,16.07-81.45,21.46-94.02h0c-32.39-10.28-55.12-23.79-63.34-29.06h0c-7.72,13.06-36.08,64.64-36.06,132.77h0c.14,77.78,68.58,119.65,121.48,119.69h0c29.2.08,61-14.82,83.94-37.57h0c-10.12,4.75-21.42,7.01-32.88,6.98h0c-33.19-.04-68.62-18.58-84.71-51.04h0l3.37-1.64,3.38-1.67c14.46,29.46,47.47,46.87,77.96,46.82h0c24.25-.06,46.36-10.62,57.38-34.26h0s0-.03.02-.04h0s0-.03.02-.05h0c.85-1.87,3.09-2.68,4.97-1.82h0c1.88.85,2.71,3.07,1.88,4.97h0c-19.87,44.04-69.47,76.7-115.33,76.84h0c-56.31-.14-128.86-44.38-128.99-127.22h0Z"/>
      </g>
      <path class="cls-5" d="m375.37,526.44c1.57-.35,3.1-.73,4.62-1.17,4.83-6.56,8.97-13.5,12.22-20.78-4.19,9.09-9.99,16.36-16.85,21.96Zm-193.2-83.6c0-50.57,15.3-92.2,26.64-116.09-9.74-5.37-15.11-9.18-15.11-9.18,0,0-38.61,57.76-38.61,138.09s70.63,123.45,125.23,123.45c20.6,0,42.19-6.98,61.31-18.75-11.34,3.84-22.95,5.95-34.24,5.95-54.61,0-125.22-43.13-125.22-123.45Z"/>
      <path class="cls-5" d="m263.38,349.62s-40.79,86.79-13.33,142.46c27.45,55.61,115.7,69.24,142.08,12.61.03-.06.05-.12.08-.18-167.62,71.02-128.82-154.89-128.82-154.89Z"/>
    </g>
  </g>
  <g id="tâche_marron" data-name="tâche marron">
    <g>
      <path class="cls-2" d="m248.94,519.45c-37.78-19.9-5.64-44.71-26.97-67.3-9.49-10.01-15.36-11.01-19.01-23.84-2.35-8.21,5.42-14.34-7.34-19.25-11.16,10.44-22.22,5.64-35.33,13.04-1.17.65-2.17,1.45-3.2,2.2-1.23,9.99-1.99,20.45-1.99,31.36,0,41.66,19.08,73.23,45,94.05,11.52,7.36,24.31,13.41,37.94,18.17,5.95-.45,11.89-.72,17.75-.72,63.18.17,16.66-35.36-6.84-47.69Z"/>
      <path class="cls-4" d="m236.78,571.42c-13.87-4.85-26.93-11.01-39.06-18.78h0c-26.67-21.38-46.42-54.14-46.4-96.99h0c0-11.09.76-21.69,2.02-31.82h0l.21-1.65,1.33-.96c.93-.65,2.06-1.56,3.55-2.41h0c15.08-8.01,25.38-3.37,34.59-12.51h0l1.7-1.61,2.22.85c6.87,2.27,10.26,7.26,9.94,11.68h0c-.04,3.02-.7,5.39-.68,7.49h0c.02.87.11,1.68.35,2.56h0c3.27,11.48,7.77,11.48,18.14,22.28h0c7.36,7.75,9.14,16.38,9.07,24.08h0c0,6.05-.87,11.75-.87,16.95h0c.27,9.4,1.94,16.87,17.78,25.52h0l-1.75,3.32-1.76,3.33c-17.75-9.05-22.05-21.21-21.78-32.17h0c.02-5.97.88-11.64.88-16.95h0c-.07-6.78-1.22-12.66-7.03-18.91h0c-8.64-9.22-15.89-11.22-19.89-25.36h0c-.5-1.65-.66-3.21-.63-4.64h0c.02-3.35.72-5.97.68-7.49h0c-.27-1.51.26-2.03-3.2-3.76h0c-12.31,9.59-23.51,5.46-34.09,11.92h0c-.46.24-.94.58-1.49.97h0c-1.1,9.35-1.76,19.13-1.76,29.29h0c.03,40.48,18.41,70.87,43.27,90.87h0c11.02,7.06,23.3,12.9,36.39,17.53h0c5.78-.42,11.56-.66,17.27-.66h0s.13-.02.44-.02h0c11.27.02,18.75-1.22,22.88-2.98h0c4.2-1.91,4.59-3.22,4.7-4.85h0c1.13-7.2-22.23-25.85-36.6-32.76h0l1.74-3.35,1.75-3.32c15.08,8.52,39.5,23.73,40.62,39.43h0c.1,5.1-3.62,9.59-9.32,11.79h0c-5.76,2.35-13.93,3.54-25.76,3.54h0s-.13.02-.44.02h0c-5.74,0-11.59.26-17.47.7h0l-.78.06-.73-.24h0Z"/>
    </g>
  </g>
  <g id="pate_droite_2" data-name="pate droite 2">
    <g>
      <g>
        <path class="cls-1" d="m234.43,526.5c-51.92,0-59.34,31.75-59.34,46.19,0,21.43,10.95,18.74,10.95,18.74h96.78s10.95,2.68,10.95-18.74c0-14.44-7.42-46.19-59.34-46.19Z"/>
        <path class="cls-4" d="m283.95,595.27c-.59,0-1.06-.04-1.41-.09h-96.24c-.34.04-.82.09-1.42.09h0c-2.11.06-5.96-.77-8.86-4.37h0c-2.89-3.56-4.68-9.18-4.68-18.22h0c0-7.83,1.96-20.27,11.1-30.96h0c9.13-10.73,25.32-19.04,52-18.98h0v7.51c-50.06.39-55.09,29.07-55.59,42.42h0c.57,16.29,5.16,14.64,6.03,15.08h0c.33,0,.37-.02.37-.02h0l.79-.09h96.77l.83.11s0,0,.3,0h0c.86-.44,5.5,1.19,6.06-15.08h0c-.52-13.36-5.53-42.03-55.58-42.42h0v-7.51c26.68-.06,42.85,8.25,51.99,18.98h0c9.12,10.69,11.1,23.13,11.1,30.96h0c0,9.03-1.81,14.66-4.71,18.22h0c-2.79,3.48-6.48,4.37-8.64,4.37h-.22Z"/>
      </g>
      <path class="cls-5" d="m175.09,572.69c0,21.43,10.95,18.74,10.95,18.74h19.37c-3.22-.55-8.61-3.71-8.61-18.74,0-13.38,6.38-41.52,48.49-45.66-3.39-.33-6.99-.53-10.86-.53-51.92,0-59.34,31.75-59.34,46.19Zm107.73,18.74s.97.23,2.34,0h-2.34Z"/>
      <path class="cls-5" d="m301.19,591.49s.72.1,1.72,0h-1.72Z"/>
    </g>
    <g id="Calque_8" data-name="Calque 8">
      <g>
        <g>
          <path class="cls-1" d="m230.3,555.24s14.75,10.59,14.75,36.19"/>
          <path class="cls-4" d="m241.28,591.43c0-12.08-3.44-20.37-6.78-25.69h0c-3.37-5.35-6.38-7.45-6.4-7.47h0l.02.02c-1.71-1.23-2.08-3.58-.87-5.26h0c1.2-1.69,3.55-2.07,5.26-.86h0c.52.33,16.31,12.07,16.31,39.26h0c0,2.09-1.68,3.74-3.77,3.74h0c-2.08,0-3.76-1.65-3.76-3.74h0Z"/>
        </g>
        <g>
          <path class="cls-1" d="m262.59,552.48s20.23,9.66,20.23,38.96"/>
          <path class="cls-4" d="m279.06,591.43c-.02-13.79-4.68-22.55-9.26-28.07h0c-4.57-5.52-8.84-7.51-8.84-7.51h0c-1.87-.89-2.66-3.13-1.76-5.01h0c.89-1.87,3.12-2.66,5.01-1.77h0c.54.17,22.39,11.07,22.37,42.36h0c0,2.09-1.7,3.74-3.75,3.74h0c-2.1,0-3.76-1.65-3.76-3.74h0Z"/>
        </g>
      </g>
    </g>
  </g>
  <g id="pate_droite" data-name="pate droite">
    <g>
      <g>
        <path class="cls-1" d="m246.94,392.47s-10.86,29.71-5.82,87.1c5.06,57.39-28.15,64.12-47.13,56.96l-9.86-3.13c-19.6-4.95-43.89-29.71-9.83-74.84,34.05-45.11,40.41-76.24,40.41-76.24"/>
        <path class="cls-4" d="m206.84,542.6c-5.05,0-9.92-.94-14-2.5h0l-9.64-3.06c-13.7-3.41-29.69-15.9-29.71-37.38h0c0-12.12,5.09-26.59,17.79-43.37h0c16.85-22.31,26.8-41.11,32.53-54.27h0c5.74-13.16,7.21-20.44,7.21-20.44h0c.4-2.04,2.4-3.37,4.44-2.95h0c2.02.41,3.34,2.39,2.93,4.43h0c-.09.48-6.68,32.16-41.08,77.76h0c-12.05,15.94-16.31,28.88-16.31,38.84h0c-.02,17.28,12.79,27.16,24.27,30.14h0l10.07,3.2c3.39,1.29,7.41,2.09,11.52,2.09h0c14.53-.36,30.6-8.78,31.02-44.29h0c-.02-3.4-.17-7.03-.5-10.9h0c-.98-10.96-1.37-20.9-1.35-29.83h0c-.02-38.53,7.26-58.54,7.38-58.91h.02c.71-1.95,2.87-2.95,4.8-2.22h0c1.96.7,2.96,2.87,2.25,4.82h0c.12.05-6.94,18.73-6.94,56.31h0c0,8.73.37,18.42,1.33,29.16h0c.35,4.09.52,7.94.52,11.57h0c0,18.96-4.74,32-12.18,40.31h0c-7.39,8.27-17.18,11.48-26.18,11.48h-.17Z"/>
      </g>
      <path class="cls-5" d="m217.58,518.85l-11.3-3.58c-22.44-5.68-50.26-34.04-11.26-85.69,12.6-16.71,12.9-34.55,19.7-47.24h0s-6.36,31.13-40.41,76.24c-34.06,45.13-9.76,69.89,9.83,74.84l9.86,3.13c12.65,4.77,31.64,3.35,41.38-15.14-6.32.48-12.54-.55-17.79-2.55Z"/>
    </g>
  </g>
  <g id="oreille_gauche" data-name="oreille gauche">
    <g>
      <path class="cls-2" d="m275.93,139.8s-15.07-62.1,15.67-77.29c30.72-15.2,50.91-20.52,68.35-39.31,17.44-18.78,48.8,35.49,58.99,41.66,8.62,5.22-27.77-10.27-51.13-13.69,31.27,47.15,25.53,98.7,25.53,98.7l-93.16-11.28c1.53,2.24,3.22,4.49,5.25,6.74l-29.49-5.52Z"/>
      <path class="cls-4" d="m308.75,143.39l6.89,7.68-40.42-7.59.7-3.69,3.65-.89-3.65.89-.7,3.69-2.4-.45-.56-2.35c-.04-.17-3.79-15.6-3.82-33.33h0c.07-17.93,3.67-39.23,21.48-48.23h0c31.13-15.34,50.72-20.6,67.26-38.49h0c3.08-3.4,7.15-5.18,11.17-5.14h0c11.66.39,21.84,11.34,31.51,22.11h0c9.23,10.78,18.16,22.56,20.99,24.02h0c.52.31.92.56,1.31.87h0c.31.64,1.1-.23,1.81,3.32h0c0,2.57-2.51,3.69-2.9,3.69h0c-.67.17-.87.12-1.06.12h0c-3.51-.3-10.12-3.1-20.73-6.44h0c-7.4-2.41-15.96-4.99-23.77-6.74h0c19.29,33.15,21.96,66.83,21.96,83.34h0c0,6.49-.39,10.34-.41,10.47h0l-.42,3.79-87.9-10.65h0Zm81.09,2.24c.08-1.53.14-3.49.14-5.85h0c0-16.9-3.05-52.99-25.32-86.55h0l-4.62-7,8.3,1.2c12.11,1.76,27.46,6.62,38.43,10.28h0c-3.75-4.53-7.94-9.9-12.59-15.18h0c-9.02-10.71-19.75-19.92-25.81-19.53h0c-2.04.05-3.65.63-5.66,2.74h0c-18.36,19.69-39.13,25.06-69.45,40.12h0c-13.27,6.28-17.32,24.25-17.27,41.48h0c0,12.71,2.08,24.35,3.07,29.18h0l17.39,3.27-4.05-5.96,97.45,11.79h0Z"/>
    </g>
    <path class="cls-5" d="m275.93,139.8s-15.07-62.1,15.67-77.29c30.72-15.2,50.91-20.52,68.35-39.31,17.44-18.78,48.8,35.49,58.99,41.66,8.62,5.22-27.77-10.27-51.13-13.69,31.27,47.15,25.53,98.7,25.53,98.7l-93.16-11.28c1.53,2.24,3.22,4.49,5.25,6.74l-29.49-5.52Z"/>
    <g>
      <line class="cls-6" x1="367.8" y1="51.17" x2="354.81" y2="44.74"/>
      <path class="cls-4" d="m366.13,54.53l-12.99-6.42c-1.86-.93-2.63-3.18-1.69-5.06h0c.91-1.86,3.16-2.62,5.03-1.69h0l12.99,6.42c1.86.91,2.63,3.18,1.69,5.03h0c-.64,1.33-1.99,2.1-3.38,2.1h0c-.56,0-1.12-.12-1.66-.38h0Z"/>
    </g>
  </g>
  <g id="tête">
    <g>
      <g>
        <path class="cls-1" d="m212.1,81.99s-67.7,34.13-73.62,103.92c-5.94,69.79,27.87,161.04,148.17,164.65,120.29,3.58,131.7-4.56,143.87-28.5,0,0,30.06.9,32.47-36.45,2.38-37.33-57.73-79.13-57.73-79.13,0,0,8.07-45.7-6.55-73.69-14.63-27.97-77.94-92.51-186.6-50.8Z"/>
        <path class="cls-4" d="m286.53,354.29c-113.82-3.23-152.83-84.8-152.47-153.11h0c0-5.27.23-10.5.66-15.6h0c6.36-72.29,75.41-106.73,75.67-106.96h0l1.71,3.36-1.37-3.5c25.66-9.89,48.98-13.94,69.79-13.94h0c68.81.11,109.66,43.93,121.5,66.51h0c7.4,14.25,9.17,32.01,9.19,46.84h0c0,12.29-1.26,22.56-1.9,26.95h0c10.1,7.48,56.83,42.58,57.48,78.57h0c0,.79-.02,1.6-.06,2.43h0c-2.05,33.57-26.08,39.12-33.86,39.86h0c-4.99,9.5-11.27,17.48-24.69,22.16h0c-14.23,5.07-36.12,7.22-74.69,7.22h0c-13.49,0-29.01-.24-46.95-.78h0Zm-106.4-243.85c-17.27,16.88-35.06,42.06-37.92,75.77h0c-.42,4.89-.65,9.9-.65,14.96h0c.33,65.92,35.6,142.07,145.19,145.6h0c17.88.54,33.34.79,46.73.79h0c38.27.02,59.68-2.3,72.17-6.79h0c12.38-4.59,16.28-10.46,21.5-20.46h0c.52-1.06,1.56-1.8,2.72-1.99h0c.21-.04.48-.08.8-.06h0c2.07-.39,26.25.12,28.53-32.89h0c.04-.66.06-1.32.06-1.99h0c.17-16.38-13.57-35.31-27.81-49.62h0c-14.17-14.35-28.33-24.21-28.36-24.23h0c-1.21-.85-1.82-2.3-1.56-3.75h0s2.16-12.26,2.14-27.92h0c.04-14.19-1.85-31.04-8.32-43.36h0c-10.62-20.37-49.56-62.55-114.84-62.46h0c-19.79,0-42.04,3.81-66.82,13.33h0c-1.25.69-17.03,8.89-33.56,25.05h0Z"/>
      </g>
      <g>
        <path class="cls-1" d="m430.52,322.05s-97.39,47.03-168.07-38.67"/>
        <path class="cls-4" d="m259.55,285.79c-1.33-1.62-1.11-3.98.49-5.31h0c1.6-1.33,3.96-1.11,5.3.49h0c32.95,39.91,71.35,50.13,102.95,50.17h0c34.64.03,60.54-12.44,60.58-12.48h.02c1.85-.89,4.1-.1,5.01,1.76h0c.89,1.87.1,4.11-1.76,5h0c-.29.13-27.38,13.23-63.84,13.25h-.27c-33.16,0-74.2-11.23-108.46-52.89h0Z"/>
      </g>
      <path class="cls-4" d="m286.53,354.29c-113.82-3.23-152.83-84.8-152.47-153.11h0c0-5.27.23-10.5.66-15.6h0c6.36-72.29,75.41-106.73,75.67-106.96h0l1.71,3.36-1.37-3.5c25.66-9.89,48.98-13.94,69.79-13.94h0c68.81.11,109.66,43.93,121.5,66.51h0c7.4,14.25,9.17,32.01,9.19,46.84h0c0,12.29-1.26,22.56-1.9,26.95h0c10.1,7.48,56.83,42.58,57.48,78.57h0c0,.79-.02,1.6-.06,2.43h0c-2.05,33.57-26.08,39.12-33.86,39.86h0c-4.99,9.5-11.27,17.48-24.69,22.16h0c-14.23,5.07-36.12,7.22-74.69,7.22h0c-13.49,0-29.01-.24-46.95-.78h0Zm-106.4-243.85c-17.27,16.88-35.06,42.06-37.92,75.77h0c-.42,4.89-.65,9.9-.65,14.96h0c.33,65.92,35.6,142.07,145.19,145.6h0c17.88.54,33.34.79,46.73.79h0c38.27.02,59.68-2.3,72.17-6.79h0c12.38-4.59,16.28-10.46,21.5-20.46h0c.52-1.06,1.56-1.8,2.72-1.99h0c.21-.04.48-.08.8-.06h0c2.07-.39,26.25.12,28.53-32.89h0c.04-.66.06-1.32.06-1.99h0c.17-16.38-13.57-35.31-27.81-49.62h0c-14.17-14.35-28.33-24.21-28.36-24.23h0c-1.21-.85-1.82-2.3-1.56-3.75h0s2.16-12.26,2.14-27.92h0c.04-14.19-1.85-31.04-8.32-43.36h0c-10.62-20.37-49.56-62.55-114.84-62.46h0c-19.79,0-42.04,3.81-66.82,13.33h0c-1.25.69-17.03,8.89-33.56,25.05h0Z"/>
      <path class="cls-2" d="m398.7,132.79c-8.96-17.15-36.39-47.83-81.15-59.56-.13-.1-.25-.2-.37-.29-.62-.16-1.3-.23-1.92-.39-.57-.14-1.07-.35-1.63-.49.04.06.07.13.11.18-13.98-3.24-29.58-4.56-46.79-3.12-.07-.05-.14-.09-.21-.14-4.42.38-8.96.97-13.59,1.72-.12.03-.22.03-.33.05,0,0,0,0,.02.02-12.78,2.11-26.35,5.72-40.72,11.23,0,0-67.7,34.13-73.62,103.92-1.58,18.57-.3,38.68,4.63,58.25,44.51,32.44,156.61,5.05,174.63-46.74,11.79-33.88-10.62-40.55-21.01-66.89-3.61-9.14-.21-19.88-.7-29.71.92-2.7,1.6-5.49,1.52-8.83,4.52,5.49,8.83,11.85,10.51,18.84-.71-3.15-.22-6.71-.53-9.94,1.17,2.12,4.6,4.49,6.03,7.16,2.07-4.02,4.23-8.13,6.42-12.16.16.14.73,1.28.9,1.28,0,0,.05-.71.04-1.12.35,3.88,1.7,7.64,2.2,11.45,0-.38.18-.65.51-.8,1.02,3.93,2.77,5.7,5.31,7.78.82-1.2.85-2.63,1.52-3.94.99-.53,1.77,1.59,2.19,1.14.59-.59.89-1.21,1.13-1.84,1.2,2.31,2.38,4.7,3.62,6.85,18.89,32.79-2.56,86.42,44.63,91.45,6.97.75,15.64-4.38,23.65-4.52,1.47-10.4,5.48-47.01-6.97-70.83Z"/>
      <path class="cls-5" d="m319.26,351.02c-126.18-3.68-161.61-98.87-155.34-171.68,5.09-59.09,52.81-93.68,70.63-104.63-7.27,1.94-14.72,4.32-22.45,7.28,0,0-67.7,34.13-73.62,103.92-5.94,69.79,27.87,161.04,148.17,164.65,17.2.51,32.15.78,45.22.8-4.07-.1-8.27-.21-12.6-.33Z"/>
    </g>
  </g>
  <g id="oreille_droit" data-name="oreille droit">
    <g>
      <path class="cls-6" d="m165.88,175.68s-45.27-33.49-56.48-92.88l69.3-28.95s34.31-5.57,48.34,37.57"/>
      <path class="cls-4" d="m163.64,178.7c-.3-.27-46.36-34.22-57.94-95.2h0c-.33-1.76.6-3.49,2.23-4.18h0l69.31-28.94.81-.22c.18-.05,1.82-.31,4.48-.31h0c10.17-.22,36.52,4.41,48.09,40.43h0c.62,1.97-.45,4.09-2.44,4.74h0c-1.99.63-4.09-.46-4.74-2.44h0c-10.78-32.61-32.36-34.99-40.91-35.22h0c-1.43,0-2.38.09-2.86.16h0l-65.99,27.58c5.81,27.49,19.07,49.14,31.07,64.07h0c12.44,15.44,23.31,23.48,23.35,23.5h0c1.68,1.24,2.01,3.6.78,5.28h0c-.73.99-1.87,1.52-3.02,1.52h0c-.78,0-1.57-.24-2.24-.74h0Z"/>
    </g>
    <g>
      <path class="cls-2" d="m238.39,82.8s-35.26-53.3-67.3-41.11c-32.05,12.16-49.67,23.35-75.31,23.35s2.13,90.9,10.56,99.33c6.01,6.02,9.87-47.27,25.09-59.96,15.23-12.67,85.33-59.67,90.93,3.76"/>
      <path class="cls-4" d="m103.68,167.02c-4.28-4.64-8.96-17.12-13.78-33.2h0c-4.62-15.89-8.53-34.38-8.53-48.66h0c0-11.84,2.9-23.49,14.41-23.89h0c24.36.05,41.53-10.73,73.93-23.09h0c3.74-1.47,7.55-2.1,11.28-2.08h0c32.48.68,60.06,44.52,60.53,44.61h0v.02c1.15,1.74.67,4.05-1.06,5.19h0c-1.75,1.14-4.09.66-5.22-1.07h0s-6.91-10.44-17.35-20.87h0c-10.41-10.53-24.32-20.51-36.9-20.38h0c-2.9.02-5.76.49-8.57,1.59h0c-31.65,11.97-49.74,23.53-76.65,23.57h0c-2.43.15-3.4.83-4.85,3.51h0c-1.3,2.68-2.07,7.28-2.05,12.89h0c-.02,12.97,3.72,31.15,8.24,46.57h0c3.16,11.3,7.25,21.62,9.82,26.73h0c.25-.73.51-1.55.77-2.44h0c1.35-4.59,2.84-11,4.61-17.86h0c3.75-13.77,7.97-29.13,16.69-36.66h0c9.91-8.07,39.91-29.29,65.14-29.52h0c16-.41,30.13,10.39,31.96,35.84h0c.17,2.08-1.37,3.9-3.44,4.08h0c-2.07.19-3.89-1.35-4.08-3.42h0c-2.53-23.26-11.67-28.59-24.44-29h0c-21.05-.24-51.49,20.24-60.34,27.8h0c-10.69,8.26-16.21,46.27-21.17,57.09h0c-.91,1.5-1.64,3.79-5.38,4.18h-.06c-1.55,0-2.81-.79-3.53-1.55h0Z"/>
    </g>
  </g>
  <g id="yeux">
    <path class="cls-4" d="m406.54,173.78c0-10.97-8.46-19.98-19.37-21.29-3.42-.21-6.69.2-9.79.96-8.73,2.88-15,10.89-15,20.33,0,11.85,9.88,21.46,22.09,21.46.57,0,1.14-.04,1.71-.1,2.48-.35,4.87-.95,7.18-1.74,7.77-3.33,13.18-10.85,13.18-19.63Z"/>
    <path class="cls-1" d="m401.15,169.61c0,4.8-5.68,8.68-12.66,8.68s-12.67-3.88-12.67-8.68,5.68-8.7,12.67-8.7,12.66,3.9,12.66,8.7Z"/>
    <path class="cls-4" d="m302.48,173.76c0-12.95-9.99-23.6-22.89-25.13-4.03-.25-7.9.21-11.57,1.14-10.29,3.39-17.72,12.85-17.72,23.99,0,14.01,11.67,25.35,26.08,25.35.7,0,1.38-.04,2.06-.09,2.9-.42,5.74-1.13,8.47-2.07,9.17-3.94,15.56-12.83,15.56-23.19Z"/>
    <path class="cls-1" d="m296.09,168.85c0,5.66-6.69,10.26-14.94,10.26s-14.95-4.6-14.95-10.26,6.69-10.26,14.95-10.26,14.94,4.58,14.94,10.26Z"/>
  </g>
  <g id="nez">
    <path class="cls-5" d="m396.8,236.77c-17.86.02-27.01,15.65-16.16,27.85-4.13,15.83,1.47,26.09,18.25,27.35-.3,2.38-3.42,6.37-1.88,8.97,24.29,6.62,61.82,21.7,67.54-18.09,3.68-25.62-24.84-44.41-49.44-46.09"/>
    <path class="cls-4" d="m443.53,234.81s-63.6-10.6-58.3,21.2c5.31,31.81,28.26,47.69,54.77,47.69s76.85-73.32,3.53-68.9Z"/>
    <path class="cls-1" d="m459.19,244.51s-23.6-3.93-21.63,7.86c1.97,11.81,10.49,17.71,20.33,17.71s28.52-27.21,1.3-25.56Z"/>
  </g>
</svg>