<svg width="33" height="33" viewBox="0 0 33 33" fill="none" xmlns="http://www.w3.org/2000/svg">
<path d="M18.4227 31.9649L31.9644 18.4233C32.211 18.1657 32.4043 17.862 32.5332 17.5295C32.804 16.8701 32.804 16.1305 32.5332 15.4712C32.4043 15.1387 32.211 14.835 31.9644 14.5774L18.4227 1.03576C18.1702 0.783235 17.8704 0.582925 17.5405 0.446262C17.2106 0.309599 16.857 0.239258 16.4998 0.239258C15.7786 0.239258 15.0869 0.525767 14.5769 1.03576C14.0669 1.54575 13.7804 2.23744 13.7804 2.95867C13.7804 3.67991 14.0669 4.3716 14.5769 4.88159L23.5144 13.792L2.95817 13.792C2.23987 13.792 1.55099 14.0773 1.04308 14.5853C0.535172 15.0932 0.249832 15.782 0.249832 16.5003C0.249832 17.2186 0.535172 17.9075 1.04308 18.4154C1.55099 18.9233 2.23987 19.2087 2.95817 19.2087L23.5144 19.2087L14.5769 28.1191C14.3231 28.3709 14.1216 28.6704 13.9841 29.0004C13.8466 29.3305 13.7758 29.6845 13.7758 30.042C13.7758 30.3995 13.8466 30.7535 13.9841 31.0836C14.1216 31.4136 14.3231 31.7131 14.5769 31.9649C14.8287 32.2188 15.1282 32.4203 15.4583 32.5578C15.7883 32.6953 16.1423 32.766 16.4998 32.766C16.8574 32.766 17.2114 32.6953 17.5414 32.5578C17.8714 32.4203 18.171 32.2188 18.4227 31.9649Z" fill="#f9cacc"/>
</svg>
