<?xml version="1.0" encoding="UTF-8"?>
<svg id="Calque_13" data-name="Calque 13" xmlns="http://www.w3.org/2000/svg" viewBox="0 0 527.42 628.27">
  <defs>
    <style>
      .cls-1 {
        fill: #f4f9fb;
      }

      .cls-1, .cls-2, .cls-3, .cls-4, .cls-5, .cls-6, .cls-7, .cls-8, .cls-9, .cls-10, .cls-11, .cls-12 {
        stroke: #000;
      }

      .cls-1, .cls-3, .cls-4, .cls-5, .cls-6, .cls-7, .cls-8, .cls-9, .cls-10, .cls-11, .cls-12 {
        stroke-miterlimit: 10;
      }

      .cls-13, .cls-8 {
        fill: #fff;
      }

      .cls-14 {
        fill: #f2be97;
      }

      .cls-2 {
        stroke-linejoin: round;
      }

      .cls-2, .cls-3 {
        fill: none;
      }

      .cls-4, .cls-15 {
        fill: #75b7d8;
      }

      .cls-5 {
        fill: #aa90d1;
      }

      .cls-16, .cls-9 {
        fill: #deeaef;
      }

      .cls-17, .cls-11 {
        fill: #ebf0f5;
      }

      .cls-18 {
        fill: #03213d;
      }

      .cls-19 {
        fill: #5399c4;
      }

      .cls-6, .cls-20 {
        fill: #fbcea5;
      }

      .cls-21 {
        fill: #9bd4ea;
      }

      .cls-7, .cls-22 {
        fill: #fff0d0;
      }

      .cls-23 {
        fill: #f0b097;
      }

      .cls-24 {
        fill: #cad6dc;
        opacity: .4;
      }

      .cls-25 {
        fill: #feedb6;
      }

      .cls-26 {
        fill: #fff9e5;
      }

      .cls-27 {
        fill: #ffedc0;
      }

      .cls-10 {
        fill: #dae5ed;
      }

      .cls-28 {
        fill: #e8bc9c;
      }

      .cls-29 {
        fill: #e2b99a;
      }

      .cls-30 {
        fill: #cc8463;
      }

      .cls-12 {
        fill: #bbe5f2;
      }

      .cls-31 {
        fill: #274979;
      }

      .cls-32 {
        fill: #5380c1;
      }
    </style>
  </defs>
  <g id="queue">
    <g>
      <path class="cls-9" d="m173.17,358.81s2.31,5.1,3.25,6.61,7.41,6.94,9.87,8.67,10.11,5.07,10.52,10.95c.41,5.88-1.95,7.26-3.25,8.24-2.54,1.91-8.2,2.24-11.49,0,1.38,2.81,4.28,5.72,8.89,6.86s8.78,1.06,11.28-1.44l3.04-14.64s-1.73-17.24-2.17-18-3.22-3.98-4.01-4.34-1.45-.08-2.06-.43-6.07-6.48-6.94-8.89-3.5-12.66-1.79-17.19-3.14-.98-3.14-.98l-7.97,11.93-4.01,12.63Z"/>
      <path d="m181.32,370.07c3.02,1.65,6.25,3.13,9.63,3.75,3.57.17,7.13,1.6,9.4,4.43,0,0-.07.07-.07.07-1.47-.95-2.98-1.76-4.55-2.4-1.58-.69-3.24-1.03-4.93-1.33-3.28-.84-6.99-2.52-9.48-4.52h0Z"/>
      <path d="m185.54,340.13c-2.48,10.41.77,16.94,10.16,21.84,0,0-.04.09-.04.09-10.36-2.76-13.5-12.66-10.13-21.94h0Z"/>
    </g>
    <g>
      <path class="cls-1" d="m197.19,322.48c3.41-4.87,5.37-14.63,5.37-22.28s-4.34-30.96-17.79-39.22c-12.78-8.44-22.41-23.3-28.04-35.66l14.6,41.93,14.02,32.1,11.85,23.13Z"/>
      <path d="m183.94,282.76c10.23,9.48,16.06,24.12,14.31,38.06,0,0-.1,0-.1,0-.21-14.17-4.26-27.85-14.21-38.06h0Z"/>
    </g>
    <g>
      <path class="cls-10" d="m183.14,339.83s12.72-10.37,13.88-15.47c1.63-13.48-4.99-28.41-13.88-34.84v50.31Z"/>
      <g>
        <path class="cls-17" d="m189.05,319.83c3.27-4.67,5.08-9.61,5.13-14.9"/>
        <path d="m189.01,319.8c3.01-4.5,4.13-9.65,5.12-14.87.81,2.42,0,5.56-.99,7.97-.91,2.19-2.54,5.42-4.13,6.9h0Z"/>
      </g>
      <g>
        <path class="cls-17" d="m187.92,316.3c3.73-4.01,4.95-9.46,4.06-16.1"/>
        <path d="m187.88,316.27c1.85-2.19,3.02-4.85,3.51-7.6.39-2.42.39-5.98.53-8.45,2.1,4.79-.02,12.82-4.04,16.06h0Z"/>
      </g>
      <g>
        <path class="cls-17" d="m187.64,307.57c2.23-1.76,2.07-11.14,1.41-12.01"/>
        <path d="m187.61,307.53c1.29-1.59,1.24-3.87,1.38-5.83-.08-2.03.08-4.09.02-6.11,0,0,.08-.06.08-.06,1.62,2.81.74,6.33.1,9.33-.32.99-.68,2.06-1.52,2.75l-.06-.08h0Z"/>
      </g>
    </g>
    <g>
      <path class="cls-9" d="m162.22,170.53s1.41.18-2.6-3.47-30.82-10.14-33.25-10.48c-8.39-1.18-49.72,52.69-48.87,64.84.71,3.63,27.78,61.25,28.63,63.51s.89,14.53-.87,17.74-29.78,29.86-34.41,39.04c-4.63,9.18-3.69,20.89,0,26.96,3.69,6.07,18.29,15.9,22.95,13.99-.4,7.41,14.35,9.65,22.88,9.43,2.75,3.4,3.61,10.48,2.06,14.31s-6.18,7.66-10.3,15.29c-4.12,7.63.22,14.42.22,14.42,0,0,2.22,5.26,4.45,7.48s10.32,4.34,14.15,3.9c5.69-.65,7.86-5.31,7.86-5.31,0,0-4.74,2.71-7.37,2.49s-5.37-1.65-5.86-3.47,2.84-6.55,2.93-7.59l.22-2.49c3.71-6.34,11.87-8.52,14.1-9.98s9.33-5.69,11.6-8.35c1.46-1.7,3.9-8.13,3.9-8.13,1.92,3.8,8.02,3.9,8.02,3.9,0,0-5.49-1.86-4.66-5.31,1.19-4.99,8.54-9.95,10.41-11.71,6.33-5.96,9.43-19.77,8.24-25.59s-2.93-7.48-2.93-7.48c8.46-6.61,10.8-21.58,10.8-21.58,4.55-15.07,2.67-40.01,0-46.95s-17.31-38.1-17.31-38.1c0,0-7.37-16.24-9.54-26.42-2.17-10.18-3.95-19.77-3.25-25.37.76-6.07,1.52-9.11,3.58-12.36,2.06-3.25,4.23-17.17,4.23-17.17Z"/>
      <path class="cls-13" d="m92.92,357.88s-7.25-1.21-11.95-8.65c1.16-12.72,10.56-23.13,26.31-34.27,16.15-8.98,25.33-34.7,27.33-33.54,1.12.65-3.48,16.74-15,31.57-9,11.58-15.36,29.3-15.36,29.3l-1.84,3.89c-2.78.26-6.7,5.69-9.48,11.7Z"/>
      <path class="cls-13" d="m151.2,175.01c-10.01-5.42-20.13-8.86-31.06-11.68-18.82,21.45-41.23,50.47-42.1,58,3.07-6.04,8.99-7.67,22.4.09,2.15-12.81,7.7-24.74,15.04-33.72,8.45-10.33,19.57-16.57,35.72-12.69Z"/>
      <path class="cls-13" d="m145.92,214.27c-5.9,8.2-6.9,22.8-4.81,36.32,4.76-.24,10.36.5,15.4,2.06-2.92-4.42-5.96-12.76-7.45-20.69-1.7-3.02-3.15-10.54-3.14-17.7Z"/>
      <path class="cls-13" d="m156.72,315.83c-3.22,2.13-7.03,4.09-9.72,3.8,0,0-7.44,14.13-9.24,16.01l-7.21,7.52c-19.81,19.3-10.12,26.09-6.94,28.8s4.63,7.92,4.63,7.92c3.32-3.23,6.75-5.9,10.99-4.56-1.46-2.22-2.49-4.56-2.63-7.13.11-4.65.91-8.88,2.69-12.5,2.44-5.6,5.02-10.22,7.88-12.87l9.55-26.99Z"/>
      <path class="cls-13" d="m116.82,291.4c.45.32,2.29-3.33,3.73-7.37s.09-31.66,3.93-51.22c4.77-24.29,15.33-40.88,15.33-40.88,0,0-21.58,13.83-25.45,35.43-3.87,21.6-2.3,33.67-1.8,36.57s5.2,18.65,5.2,18.65c0,0,.38,1.38.54,2.06s-1.68.41-2.06.22.13,6.23.58,6.54Z"/>
      <path class="cls-13" d="m178.37,304.16c-4.56,18.96-10.91,35.17-18.33,49.3,1.58-.71,7.4.51,12.04,5.6,8.75-14.78,14.53-26.39,13.01-40.37-1.52-13.99-6.72-14.53-6.72-14.53Z"/>
    </g>
    <path d="m144.4,402.97c-4.95,5.73-10.66,10.91-14.78,17.3-2.07,3.18-3.95,6.48-5.38,9.98-1.4,3.47-2.43,7.23-1.95,10.91l.25,1.91-1.02-1.64c-6.88-12.26,7.44-27.49,16.08-35.13-6.55,7.24-14.23,15.16-16.57,25.12-.73,3.23-.51,6.73,1.2,9.58l-.77.27c-.44-3.94.69-7.76,2.16-11.28,3.04-7.03,7.52-13.36,12.85-18.81,2.65-2.65,5.32-5.78,7.93-8.21h0Z"/>
    <path d="m99.65,347.67c-8.03,8.94-9.94,18.44-4.55,29.36,0,0-.09.05-.09.05-7.37-9.74-3.57-21.83,4.63-29.41h0Z"/>
    <path d="m112.6,296.17c.27,7.45-2.54,13.32-8.66,17.61-5.35,4.23-11.13,7.84-17.25,10.84,0,0-.05-.09-.05-.09,6.82-4.98,14.38-8.98,20.7-14.59,3.75-3.51,4.94-9,5.26-13.78h0Z"/>
    <path d="m156.51,180.56c-3.19.31-6.39.5-9.61.44-3.12-.04-6.81-.2-9.47-1.7,3.21.23,6.31.58,9.5.9,3.11.33,6.62.09,9.57.36h0Z"/>
    <path d="m153.09,178.31c-10.16-3.44-19.33-2.05-28.87,2.41,0,0-.05-.09-.05-.09,8.16-6.15,19.98-6.26,28.92-2.32h0Z"/>
    <path d="m119.63,184.59c-14.71,12.92-20.53,33.48-19.59,52.57.54,9.64,1.53,19.33,3.93,28.69,2.09,9.45,7.22,18.14,8.09,27.88-.93-4.54-2.32-9.43-4.28-13.84-5.91-13.41-8.09-28.16-8.54-42.7-.76-19.1,5.35-40.27,20.39-52.61h0Z"/>
    <path d="m135.81,179.39c-25.06,22.65-31.41,51.01-28.42,83.61.25,4.33,1.06,8.95,1.43,13.09-.95-4.3-1.63-8.65-2.12-13.02-3.92-32.06,4.03-62.32,29.11-83.67h0Z"/>
    <path d="m131.61,337.08c13.71-11.22,11.64-32.22,11.69-48.21,0,0,.1,0,.1,0,2.08,14.93,1.74,38.83-11.79,48.22h0Z"/>
    <path d="m141.07,322.82c8.6-11.6,4.97-26.95,3.64-40.23,0,0,.1-.02.1-.02,3.28,11.85,4.97,30.6-3.74,40.25h0Z"/>
    <path d="m142.41,266.28c6.9,8.76,13.27,18.07,17.58,28.42,4.26,10.49,2.83,22.9-3.05,32.47,0,0-.09-.05-.09-.05,4.81-9.93,6.22-21.68,2.39-32.13-3.99-10.34-10.57-19.85-16.83-28.71h0Z"/>
    <path d="m142.95,265.08c8.58,7.68,14.83,18.32,16.71,29.74,0,0-.1.02-.1.02-1.95-5.41-3.9-10.78-6.49-15.91-2.54-5.1-6.36-9.8-10.12-13.85h0Z"/>
    <path d="m170.94,308.15c1.16,5.33.06,10.96-1.52,16.1-1.02,2.87-2.38,5.82-4.69,7.93-.72.67-1.62,1.29-2.3,1.99-6.28,6.32-11.8,20.94-8.41,29.56.51,1.22,1.31,2.34,2.44,3.09l-.05.09c-2.49-1.36-3.6-4.27-4.01-6.94-1.14-8.24,2.18-16.53,6.8-23.23,1.4-1.96,3.19-3.59,5.09-5.06,4.16-3.92,5.7-9.94,6.59-15.44.45-2.64.39-5.61.06-8.09h0Z"/>
    <path d="m151.05,338.49c-5.93,6.47-11,14.12-13.23,22.66-1.63,6.08-.93,14.17,6.23,16,2.09.58,4.31.67,6.53.58v.1c-2.18.38-4.46.47-6.7,0-7.97-1.66-8.84-10.28-6.83-16.88,2.47-8.52,7.75-16.52,14-22.46h0Z"/>
    <path d="m151.05,338.48c-3.93,6.79-7.19,14.07-8.8,21.76-1.06,5.85-1.99,15.44,5.42,17.22.93.25,1.92.25,2.9.26v.1c-7.52,1.38-10.55-5.35-9.99-11.84.86-9.82,5.19-19.57,10.47-27.51h0Z"/>
    <path d="m117.35,390.82c9.52,4.21,4.14,15.81-1.36,21.18,0,0-.08-.06-.08-.06,1-1.83,2.11-3.55,3.05-5.36,3.42-5.97,5.04-11.61-1.61-15.77h0Z"/>
    <path d="m138.54,267.21c7.78,6.2,6.51,17.53,3.9,26.03-2.75,8.89-6.36,17.55-11.4,25.42-3.23,5.33-7.67,9.85-12.19,14.03-4.32,4.4-8.32,9.13-12.06,14.04-2.73,3.71-5.65,7.31-7.04,11.75-2.28,7.14-3.88,15.25-1.01,22.43,2.48,6.26,8.24,9.1,14.62,8.85-6.3.97-12.88-2.59-15.26-8.57-2.56-5.83-1.92-12.47-.59-18.52.77-3.03,1.62-6.12,3.19-8.84,1.58-2.72,3.43-5.22,5.31-7.7,3.82-4.9,7.88-9.61,12.28-14,4.6-4.19,8.92-8.51,12.21-13.82,3.36-5.17,6.13-10.73,8.43-16.46,4.21-10.74,9.55-25.69-.39-34.64h0Z"/>
    <path d="m121.26,329.9c-12.21,7.07-23.22,18.41-24.8,32.98-.64,4.69-.26,9.49.8,14.16-1.83-4.2-2.2-9.54-1.79-14.28,1.57-14.68,13.37-26.49,25.8-32.87h0Z"/>
    <path d="m98.95,352.25c-1.46,1.59-2.04,3.87-2.73,5.88-1.81,6.13-2.37,13.2,1.02,18.89,0,0-.08.06-.08.06-4.97-5.05-3.48-13.06-1.42-19.11.84-2.02,1.54-4.27,3.16-5.81,0,0,.05.09.05.09h0Z"/>
    <path d="m164.42,336.54c-6.71,6.68-12.08,19.57-6.32,28.22.52.64,1.18,1.17,1.92,1.39.76.18,1.83.08,2.6.49,5.02,2.61,5.92,9.36,4.93,14.41-1.47,7.08-7.74,11.72-11.44,17.53-2.27,3.33-1.8,6.45,1.56,8.79,0,0-.06.08-.06.08-1.43-.95-2.87-2.22-3.29-4.05-.61-3.65,2.27-6.75,4.26-9.48,3.09-4.07,6.87-7.96,7.97-13.09.98-4.63.31-11.03-4.23-13.5-.82-.43-1.59-.24-2.51-.5-.94-.29-1.68-.94-2.24-1.65-5.84-8.92-.25-22.32,6.84-28.64h0Z"/>
    <path d="m144.11,352.71c-1.13,4.82,1.39,25.77,9.17,22.84,0,0,.32-.13.32-.13l.19.3c2.91,5.39,0,12.26-2.36,17.34-.92,1.74-1.85,3.53-3.28,4.94l-.07-.07c1.2-1.53,1.95-3.38,2.74-5.15,1.8-4.72,4.67-11.81,2.25-16.6,0,0,.51.17.51.17-7.62,2.39-9.4-11.48-9.84-16.59-.12-2.36-.32-4.76.26-7.07,0,0,.09.03.09.03h0Z"/>
    <path d="m141.15,203.44c-6.71,14.74-14.75,38.69-7.2,54.08,1.24,2.33,3.11,4.31,5.41,5.71l-.05.09c-1.21-.59-2.37-1.34-3.38-2.27-12.96-12.9-2.02-43.79,5.22-57.61h0Z"/>
    <path d="m156.46,252.68c-10.88-17.95-11.07-40.8-3.4-60,0,0,.09.03.09.03-5.87,21.14-7.28,40.21,3.31,59.97h0Z"/>
    <path d="m157.42,182c-3.96-1.34-7.03,6.69-8.08,9.57-2.99,8.65-3.18,17.99-2.74,27.04.33,4.5.59,9.18,2.5,13.33,0,0-.08.05-.08.05-1.28-1.94-1.91-4.23-2.42-6.47-.49-2.26-.78-4.55-.99-6.85-.57-11.22.29-23.7,6.35-33.46,1.21-1.69,3.15-4.32,5.52-3.31,0,0-.05.09-.05.09h0Z"/>
    <path d="m173.45,267.28c-13.9-19.63-33.15-59.19-16.05-81.17,0,0,.08.06.08.06-1.02,1.5-1.99,3.04-2.69,4.71-5.11,11.74-3.13,25.15.05,37.17,3.87,13.98,10.85,27.24,18.6,39.22h0Z"/>
    <g>
      <path class="cls-9" d="m157.83,188.13c-.23,1.65,3.56,2.02,4.17.7s3.51-17.66,3.14-18.54-2.24-1.86-2.8-1.03-4.29,17.21-4.52,18.87Z"/>
      <path d="m161.77,189.14c-1.9-1-2.96-3.42-3.23-5.47,0-.74.1-1.49.45-2.16h.1c.61,2.03.48,4.08,1.49,5.95.31.6.66,1.23,1.24,1.6l-.04.09h0Z"/>
      <path d="m162.86,185.13c-1.29-1.3-1.51-3.29-2.01-4.98-.46-1.75-.75-3.63-.05-5.38,0,0,.1.01.1.01.87,3.39.47,7.24,1.96,10.35h0Z"/>
      <path d="m164.3,177.19c-.64-.34-.96-.98-1.31-1.55-.57-1.22-1.16-2.49-1.26-3.85,0-.68.08-1.4.43-2.03h.1c.83,2.62.49,5.15,2.04,7.42h0Z"/>
    </g>
  </g>
  <g id="main">
    <path class="cls-6" d="m404.89,349.88s-.58-9.4-.58-10.92,2.67-7.88,5.71-11.13,3.9-8.39,4.92-10.12,3.69-2.31,7.23-4.19,3.69-5.49,6.43-7.37,4.41,4.19,4.41,4.19l1.01,12.8-2.96,18.8-20.82,12.51-5.35-4.55Z"/>
    <path class="cls-22" d="m433.52,324.47l-.94-13.51s-1.13-6.18-3.88-4.3c-2.75,1.88-2.54,5.28-6.09,7.16-1.36.72-2.65,1.3-3.71,1.77,6.03,1.89,9,8.85,14.61,8.87Z"/>
    <path class="cls-7" d="m450.76,336.26l-3.79,1.54c-1.78,1.48-10.02.05-8.24-1.43l6.68-6.54c1.78-1.48,4.42-1.24,5.9.54h0c1.48,1.78,1.24,4.42-.54,5.9Z"/>
    <path class="cls-20" d="m448.81,338.8l-3.79,1.54c-1.78,1.48-10.02.05-8.24-1.43l6.68-6.54c1.78-1.48,4.42-1.24,5.9.54h0c1.48,1.78,1.24,4.42-.54,5.9Z"/>
    <g>
      <path class="cls-7" d="m450.59,315.79l-14.64,11.36c-1.78,1.48-5.7,3.15-7.18,1.37h0c-1.48-1.78-1.55-4.73.07-6.74s15.02-12.96,15.02-12.96c1.78-1.48,6.02-1.45,8.11.54s.38,4.95-1.39,6.43Z"/>
      <path class="cls-20" d="m443.71,320.48l-9.69,7.05c-1.17.97-3.67,2.57-5.15.79h0c-1.48-1.78-1.44-3.99-.48-5.43s9.41-8.46,9.41-8.46c1.17-.97,4.32-.69,6.33,1.37s.75,3.71-.42,4.68Z"/>
      <g>
        <path class="cls-28" d="m430.6,321.6c-2.34,2.05-3.31,4.76-2.17,6.06s3.93,1.4,6.27-.65c2.34-2.05,3.34-5.46,2.2-6.76s-3.96-.7-6.3,1.35Z"/>
        <path d="m430.63,321.63c-1.51,1.34-3.49,4.06-1.93,5.95,2.93,2.2,6.83-1.03,7.77-3.95,1.86-4.85-3.29-4.23-5.85-1.99h0Zm-.07-.08c1.7-1.49,4.79-3.67,6.81-1.49,2.44,4.34-4.99,11.48-9.03,7.86-1.69-2.18.64-4.87,2.22-6.37h0Z"/>
      </g>
    </g>
    <g>
      <path class="cls-7" d="m451.08,326.07l-15.92,13.26c-1.78,1.48-7.07.39-7.07.39-1.48-1.78-.69-6.87,1.08-8.35l16.54-11.74c1.78-1.48,4.42-1.24,5.9.54h0c1.48,1.78,1.24,4.42-.54,5.9Z"/>
      <path class="cls-20" d="m446.52,329.19l-11.32,9.42c-1.25,1.04-5.69-.06-5.69-.06-1.48-1.78-1.38-5.77-.13-6.81l11.72-8.24c1.25-1.04,3.46-.44,4.94,1.33h0c1.48,1.78,1.73,3.32.48,4.36Z"/>
      <g>
        <ellipse class="cls-28" cx="431.87" cy="335.33" rx="5.62" ry="3.82" transform="translate(-113.96 367.37) rotate(-41.19)"/>
        <path d="m429.38,332.49c-5.17,4.75-.68,10.14,4.74,5.42,4.93-4.79.58-9.47-4.74-5.42h0Zm-.07-.08c6.06-5.54,11.37.85,5.33,6.09-6,4.81-11.13-.78-5.33-6.09h0Z"/>
      </g>
    </g>
    <polygon class="cls-6" points="370.92 368.44 400.85 353.11 405.51 347.73 407.28 348.49 404.39 370.54 370.92 393.38 368.83 389.48 370.92 368.44"/>
    <polygon class="cls-22" points="373.76 374.22 401.04 353.48 371.54 368.01 373.76 374.22"/>
    <polygon class="cls-3" points="370.92 368.44 400.85 353.11 405.51 347.73 407.28 348.49 404.39 370.54 370.92 393.38 368.83 389.48 370.92 368.44"/>
    <path class="cls-22" d="m455.37,349.16c.03-2.33,7.3-3.96,7.68-5.39.05,0-.29-1.69,0-2.39,2.09-4.94-3.2-5.2-3.91-5.38-1.5-.4-8.36-.41-11.48-.51-2.65-.09-9.81-1.52-12.9-.41-.84.3-7.32,2.41-10.9,2.41.5-1.7-.46-3.85.6-4.99,1.8-1.94,4.88-8.89,2.66-13.83-.49-1.09-1.73-3.65-3.54-3.84-.01,0-.01-.01-.03-.01-1.12,0-1.01,3.23-2.53,6.21-2.73,5.32-7.24,11.3-8.05,12.92-2.87,4.75-8,9.49-7.43,14.76.58,7.73-2.13,19.59-4.47,22.22h0c-1.02.4-15.31,11.48-18.06,13.11-3.87,2.22-7.89,4.23-11.56,6.73-1.94,1.32-9.93,5.65-11.67,7.24.21.56,29.72,19.28,31.37,20.31,2.69-5.15,12.14-17.06,27.52-31.24.75,1.45,5.7,1.85,14.12.95,3.14-.63,4.1-1.57,5.57-1.55,1.21,0,7.59.22,9.72.07,3-.33,7.41-1.59,7.45-4.41-.33-3.22-3.4-6.07-4.73-6.87,1.63-.83,6.5-7.02,5.67-9.33-.72-2.02-1.62-3.68-1.19-4.59,0,0,6.65-1.55,5.24-9.22-1.95-1.66-5.16-1.93-5.15-3Z"/>
    <g>
      <polygon class="cls-6" points="434.89 254.24 441.25 279.11 438.07 252.22 434.89 254.24"/>
      <polygon class="cls-6" points="447.4 250.27 442.77 278.96 444.43 278.96 449.35 251.06 447.4 250.27"/>
      <polygon class="cls-6" points="460.05 253.59 445.62 279.11 447.16 278.96 462.36 255.18 460.05 253.59"/>
      <polygon class="cls-6" points="426.94 260.67 425.86 265.66 440.24 283.08 441.25 280.12 426.94 260.67"/>
      <path class="cls-6" d="m468.58,262.63l-21.69,17.35-1.27,3.11s1.99-.43,3.73-1.37,5.67-5.56,7.75-6.87l14.59-9.18-3.11-3.04Z"/>
    </g>
    <path class="cls-6" d="m429.51,321.07l7.92-6.94c1.88-10.66,5.51-22.23,10.41-34.48-3.62-1.22-6.4-1.38-7.97,0-2.64,12.48-6.25,26.54-10.36,41.42Z"/>
    <path class="cls-12" d="m425.86,265.66c-9.99-11.17-15.59-30.8-14.89-55.73s33.18-61.81,58.99-61.81,30.49,31.54,28.19,58.66c-2.53,29.82-21.55,53.25-22.84,54.65-1.28,1.38-.89,2.84-4.65,4.88-.41-3.12-2.84-5.17-4.82-8.31-2.03-2.39-4.14-4.03-6.51-3.33-.58-1.27-1.61-2.69-3.33-3.47s-5.54-.69-7.08.29c-.14-.67-.61-.96-1.3-1.01-10.84,1.32-19.01,5.65-21.76,15.18Z"/>
    <path d="m426.32,258.1c-5.17-8.98-9.64-18.72-11.07-29.07,0,0,.1-.02.1-.02,1.7,4.92,3.16,9.87,4.83,14.79,1.63,4.87,4.09,9.78,6.13,14.3h0Z"/>
    <path d="m449.08,246.24c.67-2.93.31-5.92,1.3-8.77,0,0,.1,0,.1,0,.53,1.48.37,3.02-.03,4.49-.31,1.47-.75,2.91-1.28,4.3l-.1-.03h0Z"/>
    <path d="m435.53,249.84c-5.72-22.84-8.91-46.6-7.38-70.17,0,0,.1,0,.1,0,.28,23.52,2.09,47.37,7.27,70.17h0Z"/>
    <path d="m463.3,250.45c6.28-10.08,11.64-20.68,16.87-31.33,4.56-9.33,8.82-18.85,14.18-27.77.8-1.26,1.63-2.51,2.68-3.58l.07.07c-3.45,4.8-5.57,10.45-8.25,15.7-7.93,15.84-15.71,32.36-25.55,46.91h0Z"/>
    <path d="m463.37,159.76c-1.71,2.35-1.99,5.44-2.52,8.22-.45,2.87-.76,5.76-1.06,8.65-1.74,16.82-2.86,35.58-7.9,51.74,0,0-.1-.02-.1-.02,2.36-11.4,4-22.89,5.48-34.43,0,0,2.02-17.34,2.02-17.34.57-4.33,1.08-8.69,2.2-12.92.4-1.39.84-2.83,1.8-3.97l.07.07h0Z"/>
    <path d="m470.35,260.53c2.06-1.79,3.9-3.8,5.73-5.81,1.82-2.01,3.61-4.33,6.2-5.37-1.63,1.98-3.64,4.1-5.63,5.92-1.83,1.65-4.28,4.22-6.31,5.25h0Z"/>
    <path class="cls-20" d="m396.94,374.25c1.91.75,12.58-8.83,14.11-10.49,4.19-4.55,2.49-12.31.94-14.75-1.86-2.93-2.24-7.82.65-8.89,2.25-.84,3.96.47,6.87.8,7.27.82,19.18-2.26,24.72-.72,1.35.38-12.12,13.29-11.98,14.68.22,2.1,1.35,4.63,2.89,4.92,1.02.19,5.54-4.65,10.52-8.25,4.09-2.96,6.18-1.03,9-3.36,2.98-1.68,8.08-2.86,8.39-4.02.05,0-.29-1.69,0-2.39,2.09-4.94-3.2-5.2-3.91-5.38-1.5-.4-8.36-.41-11.48-.51-2.65-.09-9.81-1.52-12.9-.41-.84.3-7.32,2.41-10.9,2.41.5-1.7-.46-3.85.6-4.99,1.8-1.94,4.88-8.89,2.66-13.83-.49-1.09-1.73-3.65-3.54-3.84-.01,0-.01-.01-.03-.01-1.12,0-1.01,3.23-2.53,6.21-2.73,5.32-7.24,11.3-8.05,12.92-2.87,4.75-8,9.49-7.43,14.76.58,7.73-2.13,19.59-4.47,22.22h0c-.32.12-1.95,1.31-4.13,2.92Z"/>
    <path class="cls-20" d="m424.52,385.27c1.96-1.65,5.58-2.22,9.98-2.39.98-.33,6.61-4.23,10.19-4.55s5.69,5.48.76,6.94-6.29,1.03-8.89,1.46-12.04-1.46-12.04-1.46Z"/>
    <path class="cls-20" d="m453.28,356.86c-1.27-2.2-9.35.1-18.06,5.12-8.7,5.03-14.73,10.88-13.47,13.08.26.45,1.27.41,2.77.02-3.75,3.05-5.81,6.01-4.92,7.55,1.27,2.2,16.99-5.22,23.41-10.37,1.68-1.35,3.57-2.28,2.31-4.47-.42-.72-1.45-1.03-2.88-.99,2.96-1.71,5.68-3.45,7.7-4.98,2.1-1.59,4.4-2.76,3.14-4.95Z"/>
    <path class="cls-3" d="m455.37,349.16c.03-2.33,7.3-3.96,7.68-5.39.05,0-.29-1.69,0-2.39,2.09-4.94-3.2-5.2-3.91-5.38-1.5-.4-8.36-.41-11.48-.51-2.65-.09-9.81-1.52-12.9-.41-.84.3-7.32,2.41-10.9,2.41.5-1.7-.46-3.85.6-4.99,1.8-1.94,4.88-8.89,2.66-13.83-.49-1.09-1.73-3.65-3.54-3.84-.01,0-.01-.01-.03-.01-1.12,0-1.01,3.23-2.53,6.21-2.73,5.32-7.24,11.3-8.05,12.92-2.87,4.75-8,9.49-7.43,14.76.58,7.73-2.13,19.59-4.47,22.22h0c-1.02.4-15.31,11.48-18.06,13.11-3.87,2.22-7.89,4.23-11.56,6.73-1.94,1.32-9.93,5.65-11.67,7.24.21.56,29.72,19.28,31.37,20.31,2.69-5.15,12.14-17.06,27.52-31.24.75,1.45,5.7,1.85,14.12.95,3.14-.63,4.1-1.57,5.57-1.55,1.21,0,7.59.22,9.72.07,3-.33,7.41-1.59,7.45-4.41-.33-3.22-3.4-6.07-4.73-6.87,1.63-.83,6.5-7.02,5.67-9.33-.72-2.02-1.62-3.68-1.19-4.59,0,0,6.65-1.55,5.24-9.22-1.95-1.66-5.16-1.93-5.15-3Z"/>
    <path class="cls-29" d="m365.42,394.7c13.27,6.78,18.97,13.08,21.43,19.18l-27.72-15.06,6.29-4.12Z"/>
    <path class="cls-29" d="m372.32,369.67c4.07,1.21,5.66,6.13,5.04,16.89l-8.07,4.81,3.03-21.71Z"/>
  </g>
  <g id="Calque_17" data-name="Calque 17">
    <g>
      <path class="cls-5" d="m218.8,430.66c-5.24.25-21.96-5.89-26.8-7.62s-17.92-1.57-22.84,1.24c-5.93,6.98-6.27,21.79-7.52,35.32l68.24-6.19-11.08-22.75Z"/>
      <path class="cls-4" d="m237.25,473.87l-12.29-29.26s-15.9-31.86-24.14-49.69c-4.34-20.43,13.37-60.34,11.71-66.49,5.02-2.72,38.6-9.42,45.98-8.84,9.11,5.36,32.1,11.44,34.99,13.18s25.01,22.74,25.01,22.74l18.94,38.53-14.75,4.78-85.45,75.04Z"/>
      <polygon class="cls-27" points="218.17 345.9 211.45 376.21 228.58 403.31 218.17 345.9"/>
      <g>
        <g>
          <path class="cls-32" d="m219.8,401.43c-.6.64,2.17,16.05,4.01,18.38s1.95-1.58,1.63-4.56-5.04-14.46-5.64-13.81Z"/>
          <path class="cls-32" d="m214.41,415.75s.82-9.02,3.43-6.36,7.97,28.84,7.97,28.84l-11.39-22.48Z"/>
        </g>
        <g>
          <path class="cls-32" d="m202.45,384.72c3.62-1.14,7.94,6.99,12.2,14.26-.12,4.61-1.33,8.64-2.98,12.43l-9.22-18.23v-8.46Z"/>
          <path class="cls-32" d="m205.95,376.28c-2.6-1.61-2.29-5.61-1.45-10.05l4.7-15.54c2.78-7.2,5.8-12.97,9.84-12.94,4.42,4.7-.24,19.45-3.91,33.11-1.52,2.22-3.11,3.88-5.28.14-.46,3.49-1.78,5.22-3.9,5.28Z"/>
          <path class="cls-32" d="m211.73,376.93c4.88-4.55,9.11-15.4,11.35-15.69,2.84.43,3.81,4.02,0,15.69-1.28,3.12-3.74,4.78-8.44,3.69-.67,2.24-.09,3.64,2.01,3.99,1.56-1.66,3.78-2.58,6.94-2.48.82,6.31,1.19,12.3-1.81,15.88-1.59,2.2-4.3-.94-7.59-6.77-1.9.04-3.25-1.32-4.34-3.4-.89-1.96-.83-3.09-.58-4.05-1.62.24-3.26.66-4.7-1.23l-2.13-.94.4-4.27c2.85-.68,4.98.41,6.65,2.68l2.24-3.12Z"/>
        </g>
      </g>
      <path class="cls-26" d="m216.18,306.3c-.34,6.88.13,20.6,0,22.02s-6.4,22.94-6.4,22.94c-6.56,18.87-6.84,38.18-6.36,41.24s22.84,46.61,22.84,46.61l4.5,10.71,6.49,22.16c-5.12-10.16-10.52-24.41-11.68-27.41-9.36-18.49-24.18-48.53-24.61-50.51-.65-3.38.17-15.66,1.15-20.69,1.13-6.68,3.35-15.29,5.62-23.16,2.91-10.07,5.68-19.05,5.25-21.89.74-3.27,1.31-18.49.31-26.29,4.93-3.11,12.4-6.09,15.99-6l-.7,3.77c-2.88,1.09,2.02-.39.68.67-.38.3,6.05-.87,5.72-.6-1.59,1.32-16.22,6.41-18.8,6.43Z"/>
      <path class="cls-23" d="m321.67,396.37c-4.29,4.21-1.85,13.44.53,22.63,2.26,5.35,6.62,2.58,7.39-4.63-2.83-7.78-6.58-19.91-7.92-18Z"/>
      <path class="cls-23" d="m352.95,401.85c-.32-2.79-2.27-4.88-6.18-6.12-1.82-.15-3.55-.06-5.09.45.58,1.46,2.61,2.73,5.63,3.89-4.74-2.3-9.25-3.97-13.13-3.89-1.32.25-2.06.83-2.39,1.94.41,1.23,3.92,2.48,7.59,3.74,5.71.84,11.38,1.65,13.55,0Z"/>
      <path class="cls-5" d="m169.7,508.71c-6.1,4.63-12.09,10.36-18,16.7,4.37,6.43,9.14,19.16,13.01,21.04l12.04-28.19-7.05-9.54Z"/>
      <path class="cls-32" d="m324.8,396.16c1.08-4.84-.08-8.76,3.47-8.53-2.77-7.4-6.29-9.89-10.41-8.53l6.94,17.06Z"/>
      <g>
        <polygon class="cls-4" points="353.46 623.47 232.92 623.47 244.41 529.82 289.4 533.84 353.46 623.47"/>
        <path class="cls-27" d="m256.19,622.78c.22-24.17,3.09-45.57,10.55-62.17,6.98,16.81,10.48,38.35,12.29,62.17h-22.84Z"/>
        <g>
          <g>
            <path class="cls-30" d="m258.81,590.34c-.03.16-.06.33-.1.49.03-.16.06-.33.1-.49Z"/>
            <g>
              <path class="cls-32" d="m266.4,590.81c-1.45-2.36-1.91-5.7-5.66-5.92-.21-.01-.37-.82-.55-1.26-.18,0-.37.01-.55.02h0c-1.1.06-2.09-.25-3.1-.69-4.2-1.8-5.31-1.37-7.25,2.62-1.66-1.38-1.14-1.52-1.56-3.15-.76-3,.9-5.56.84-8.34-.1-4.26-.48-8.52-.78-12.78-.04-.61-.52-1.03-1.08-1.3-1.25.56-.22,1.54-.42,2.29-1.11-.07-1.34.49-1.57,1.55-.68,3.07-.28,6.2-.63,9.21-.92,7.9-1.96,14.85-3.29,22.7-.05,1.94-.28,4.19.16,5.48,1.46,6.51,5.53,8.78,8.7,6.56,1.22-.87,1.54-12.5.92-18.88.83,2.54,1.79,4.96,2.78,7.35.72,1.75,2.16,3.96,3.94,4.41,1.38.07,2.47-.37,3.22-1.61.81-1.34,2.14-1.92,3.59-2.33,3.12-.89,4.03-3.15,2.31-5.93Z"/>
              <path class="cls-32" d="m267.25,573.29c-.52-2.76-3.24-18.96-4.56-22.33h0c-.74-2.03-.81-2.54-2.35-2.35-2.91.54-4.1,2.97-5.81,4.98-5.72,6.72-4.18,14.53-3.73,22.21.59,4.53,2.36,5.75,6.93,4.88,1.04-.2,1.83-.26,3.63-.38,6.42.65,5.9-7,5.9-7Z"/>
            </g>
          </g>
          <path class="cls-32" d="m264.29,613.34c-1.01-3.4-5.35-3.97-7.07-6.99,0,0-.06,0-.06,0-2.86-1.19-5.07.16-7.19,1.85-2.22,4.41-.51,9.17-.69,14.49-3.41-4.09-6.12-7.61-9.51-10.49l.04.09c0,.46-.02.92-.02,1.39.05.55.09,1.09.14,1.64,1.1,2.48,1.78,5.08,2.37,7.72h21.3c1.68-3.12,1.63-6.55.7-9.7Z"/>
          <g>
            <path class="cls-32" d="m290.62,615.29c-.09-.13-.08-1.04-.09-1.27.23-1.73-.2-2.96-2.25-2.94,0,0-.02-.01-.02-.01-1.42-2.87-3.92-3.28-6.65-1.11-.69.72-1.06,1.86-1.06,2.87.49,3.46.97,6.93,2.33,10.2h9.51c.27-2.78-1.03-5.2-1.77-7.75Z"/>
            <path class="cls-32" d="m278.87,618.23c-4.52-1.51-8.56.67-8.88,4.8h13.07c-.96-2.34-.65-5.14-2.15-7.31-.65.8-1.78,1.39-2.05,2.5Z"/>
          </g>
          <g>
            <path class="cls-32" d="m320.35,622.96s-3.35-11.9.11-13.52,13.25,13.52,13.25,13.52h-13.35Z"/>
            <path class="cls-32" d="m335.24,622.97s-3.94-16.11.22-13.89c4.11,5.69,9.19,13.95,9.19,13.95l-9.42-.07Z"/>
          </g>
          <g>
            <path class="cls-32" d="m298.19,567.55c-2.27,1.43-3.27,3.26-2.75,5.57.7,2.32,1.55,4.31,2.75,5.49-.53,4.11.75,7.6,3.18,10.7,5.08,1.53,6.93-1.1,7.66-4.99l-6.8-10.34-4.05-6.43Z"/>
            <path class="cls-32" d="m287.78,599.07c9.8-7.17,7.13-10.78-1.88-12.58-3.02-1.62-5.87-2.64-7.73-.29l-3.61,1.3c-4.63-.34-4.64,3.31-4.27,7.3,1.34,4.77,3.79,7.26,7.52,7.08l1.81.51c2.99,3.12,5.62.55,8.17-3.33Z"/>
            <path class="cls-32" d="m294.88,580.94c1.25-4.43-8.87-30.09-14.68-32.36-3.61.47-7.1,9.94-6.72,21.36,2.66,4.67,5.41,9,8.6,11.64,4.37,2.69,10.34,3.69,12.81-.64Z"/>
            <path class="cls-32" d="m313.21,607.06c4.2.58,5.15-1.81,2.66-7.32-5.06-6.72-10-10.17-14.75-8.29-1.81,1.43-2.66,3.62-.54,8.18,1.57,2.6,7.96,6.31,12.63,7.43Z"/>
            <path class="cls-32" d="m296.3,587.33c-.92,1.73-.54,8.4-.54,8.4,0,0,.54,5.53,1.57,10.84,1.06,5.46,6.45,12.74,7.97,11.87,1.08,2.39,7.54,3.34,7.81,2.39s-4.82-4.44-6.72-4.56c-2.16-4.07-6.06-9.11-6.56-11.38-1.19-5.37-.87-13.01-1.14-14.76s-1.46-4.54-2.39-2.81Z"/>
          </g>
          <g>
            <path class="cls-32" d="m253.23,533.51c1.86,1.05,2.31,2.31,1.95,6.29-.51,5.86-6.99,6.69-10.77,3.25l2.1-12.43,6.72,2.89Z"/>
            <path class="cls-32" d="m259.66,535.39l-2.31,4.41c5.22,6.49,10.56,13.38,14.1,13.73,3.94-3.27,5.74-7.75,6.55-12.8.18-2.64-.71-4.89-2.72-6.72-3.81,1.74-9.44,1.8-15.61,1.37Z"/>
          </g>
        </g>
        <path class="cls-26" d="m249.76,532.84s-3.15,24.85-3.83,26.18-1.34,2.65-1.59,4.19-.07,7.45,0,8.82-4.85,40.38-4.63,43.08,3.07,7.83,3.07,7.83h-3.01c-1.71-1.17-3.97-4.88-3.97-9,0-1.62,1.06-15.04,3.13-30.36,1.11-8.22,2.3-17.05,3.51-25.05,2.27-15.01,4.37-27.15,4.37-27.15.94.52,1.93.99,2.94,1.46Z"/>
        <path d="m252.9,535.85c-4.44,5.29-6.55,11.9-10.15,17.7.5-3.21,2.34-6.55,4.02-9.45,1.75-2.85,3.7-6.17,6.12-8.24h0Z"/>
        <path d="m259.05,536.25c-6.87,8.11-10.42,18.2-15.32,27.49,0,0-.09-.04-.09-.04,1.49-5.09,3.65-9.94,6.27-14.54,2.58-4.5,5.46-9.46,9.13-12.91h0Z"/>
        <path d="m275.48,534.03c-1.62,10.56-2.59,21.26-2.14,31.95.45,10.7,2.39,21.2,4.71,31.64,0,0-.1.03-.1.03-6.95-20.34-6.68-42.91-2.47-63.61h0Z"/>
        <path d="m278.05,541.1c-1.4,13.75-1.43,27.62-.62,41.41.98,13.77,2.47,27.53,5.79,40.95,0,0-.1.03-.1.03-4.37-13.18-5.86-27.14-6.49-40.94-.54-13.75-.54-28.01,1.42-41.45h0Z"/>
      </g>
      <g>
        <path class="cls-5" d="m176.75,518.25l-12.04,28.19c-6.96,14.9-10.33,29.64-8.57,44.14,5.54-.73,10.39,2.53,15.18,6.17-1.64,1.1-2.49,2.29-2.82,3.54,2.99,9.87,7.32,17.61,13.01,23.17l58.12.02c-2.82-2.09-4.04-5.46-4.33-9.59,1.93-25.05,6.01-53.32,11.2-83.28,7.18,4.33,17.15,5.83,29.98,3.2l-8.8-14.37s-20.89-24.7-24.58-30.08-2.71-10.37-5.2-14.6-11.01-25.48-11.01-25.48c0,0-2.44-4.55-32.15-3.04s-44.02,21.69-44.02,21.69l-2.06.22c-2.4,6.42,2.38,14.62,6.94,22.77,4.1,7.17,12.47,17.15,21.14,27.33Z"/>
        <path d="m203.88,453.46c-15.92,8.15-32.66,17.74-51.2,16.46,0,0,0-.1,0-.1,9.04-.53,17.88-2.35,26.4-5.37,8.48-2.94,16.7-7.55,24.8-10.99h0Z"/>
        <path d="m185.47,551.45c-4.46,11.04-8.92,22.14-12.01,33.65-1.08,3.81-1.93,7.68-2.08,11.65h-.1c-.67-8.03,2.2-15.87,4.9-23.29,2.84-7.38,5.89-15.09,9.29-22.01h0Z"/>
        <path d="m184.49,566.26c-6.65,10.32-9.28,22.35-12.68,33.98,0,0-.1-.02-.1-.02.69-6.07,2.23-12.03,4.42-17.73,2.16-5.61,4.76-11.62,8.36-16.22h0Z"/>
        <path d="m228.11,530.58c4.02-4.38,7.96-8.84,12.01-13.2,3.02-3.29,6.09-6.6,9.7-9.27,1.21-.87,2.47-1.78,3.97-2.13l.03.1c-2.63,1.32-4.64,3.62-6.77,5.62,0,0-6.35,6.23-6.35,6.23-4.2,4.11-8.34,8.84-12.59,12.64h0Z"/>
        <path d="m228.11,534.92c3.86-4.55,7.81-9.03,11.92-13.38,4.05-4.28,8.43-8.92,13.31-11.99-3.62,3.7-8.97,8.9-12.74,12.55-4.25,4.1-8.37,8.85-12.49,12.82h0Z"/>
        <path d="m247.33,526.74c6.36,4.13,13.91,2.49,20.85,1.15,0,0,.03.1.03.1-6.36,3.23-15.32,3.25-20.88-1.25h0Z"/>
        <path d="m245.44,534.95c.15-4.08,1.27-8.09,2.86-11.83,1.52-3.77,2.93-7.62,5.17-11.04,0,0,.24.55.24.55-1.08-.36-2.26-.47-3.45-.4l-.02-.1c1.29-.45,2.76-.45,4.12-.15-1.8,3.79-3.85,7.48-5.26,11.44,0,0-1.85,5.74-1.85,5.74-.61,1.91-1.17,3.84-1.72,5.8h-.1Z"/>
        <path d="m172.97,513.73c2.58,2.02,4.8,4.54,6.28,7.49,1.54,2.88,2.17,6.18,3.7,9.04,2.6,5.04,4.87,12.98,6.82,18.38,1.07,3.08,2.12,6.17,3.33,9.19.59,1.51,1.22,2.91,2.47,4.02,2.9,2.87,6.48,5.01,9.27,8.03,2.47,3.32,4.06,7.17,5.79,10.88,0,0-.78-.07-.78-.07,5.28-7.9,10.59-15.78,16.2-23.45,5.66-7.51,11.46-15.6,18.4-21.74-12.73,13.71-23.1,30.39-33.86,45.69,0,0-.46.67-.46.67l-.32-.74c-1.65-3.67-3.19-7.49-5.55-10.75-1.6-1.81-3.59-3.25-5.44-4.81-1.86-1.62-3.97-3.07-5.27-5.23-1.76-3.71-2.91-7.66-4.26-11.52-1.06-3.22-3.63-10.79-4.78-13.88-1.06-3.1-2.87-5.89-3.77-9.03-1.02-3.09-2.4-6.05-4.46-8.58-1.01-1.27-2.17-2.41-3.37-3.52l.06-.08h0Z"/>
      </g>
      <g>
        <path class="cls-15" d="m324.43,318.48c8.1,3,64.85,48.4,46.41,72.26l-10.41,6.51-36-78.76Z"/>
        <path class="cls-27" d="m288.87,294.59l30.77,33.73,14.5,33.79c11.65,6.09,24.21,10.44,38.3,11.91,1.13-4.64-3.26-11.6-8.67-18.99l-3.98-5.67-31.34-27.59-3.47-2.39-2.49-4.55-13.66-7.54c-8.12-6.82-15.1-11.65-19.95-12.7Z"/>
        <path class="cls-3" d="m324.43,318.56c8.1,3,64.85,48.4,46.41,72.26l-10.41,6.51-36-78.76Z"/>
        <path class="cls-32" d="m370.53,372.02s-4.73-12.07-8.64-9.8,4.01,13.66,4.01,13.66c.91.77,1.68,1.81,2.06,3.58-.81,1.17-.84,2.7-.49,4.39.41,1.16.89,2.14,1.62,2.54,0,0,2.1-2.85,2.39-6.61s-.96-7.77-.96-7.77Z"/>
        <polygon class="cls-15" points="283.52 294.01 290.78 294.01 310.55 307.89 322.48 314.83 326.71 320.58 343.66 355.02 363.61 401.72 333.11 399.55 324.43 352.57 288.58 323.2 283.52 294.01"/>
        <path class="cls-32" d="m290.39,295.17s.67,7.2,2.39,9.18c8.95,10.32,12.63,7.92,13.17,8.64s1.25,5.19,2.01,6.9,11.28,9.23,11.28,8.24-11.57-15.69-11.57-15.69c0,0-9.69-13.16-10.77-14.17s-6.51-3.11-6.51-3.11Z"/>
        <path class="cls-32" d="m353.49,391.39c-2.03-1.89-1.83-6.4-4.17-8.24-6.07-4.77-10.93-10.18-11.15-11.64-.31-2.02-.38-5.69,3.33-4.84l7.45,1.3c1.38-1.99,5.78-3.94,7.95-3.38s8.28,13.61,8.24,14.66-2.12,1.85-4.05,1.08c-.14,1.63-.14,3.65-1.88,3.98s-3.34-2.01-4.63-4.19c1.82,3.33,3.42,6.54,2.75,8.53,1.32-2.53,3.16-4.53,5.6-5.93,1.47.55,1.88,1.52,1.41,2.82,1.16-1.57,2.16-2.24,2.89-1.37,1.46,2.36,2.24,4.15,2.29,6.81l-7.83,4.93-.45,1.4h-.9l-7.06-2.66.22-3.25Z"/>
        <g>
          <path class="cls-21" d="m288.87,294.59l30.77,33.73,14.5,33.79c11.65,6.09,24.21,10.44,38.3,11.91,1.13-4.64-3.26-11.6-8.67-18.99l-3.98-5.67-31.34-27.59-3.47-2.39-2.49-4.55-13.66-7.54c-8.12-6.82-15.1-11.65-19.95-12.7Z"/>
          <g>
            <path class="cls-23" d="m352.19,347.04c-3.63-.6-6.41,1.58-5.91,4.66.06,1.25.55,2.65,2.41,3.36.36,4.01,2.57,6.31,4.53,6.8,1.87-.36,2.66-2.86,1.35-5.42.87-1.32-.36-4.22-.81-7.02l2.17,4.47c.93,2.63,2.1,4.79,4.15,5.18,1.44.19,2.09.03,2.85-.16-2.12-4.16-7.1-11.28-10.73-11.87Z"/>
            <path class="cls-19" d="m370.53,372.02s-4.73-12.07-8.64-9.8c-2.57,1.49-.02,6.94,2.03,10.49,2.31.45,4.66.81,7.06,1.1-.23-1.09-.45-1.79-.45-1.79Z"/>
            <path class="cls-23" d="m327.36,321.55l11.39,19.59s2.67,5.26,5.64,5.79c2.96.53,2.49-4.35,2.49-4.35,0,0,1.27,1.77,2.17.65.84-1.04.13-3.07.02-3.35l-1.03-.91-20.68-17.43Z"/>
          </g>
          <path class="cls-19" d="m307.66,312.45s-9.62-13.07-10.76-14.16c-.58-.36-1.14-.71-1.69-1.03-1.98-.99-4.83-2.09-4.83-2.09,0,0,.04.47.14,1.2l15.02,16.46c.2.02.33.06.41.16.08.11.17.31.25.56l12.74,13.97c-1.78-3-11.28-15.07-11.28-15.07Z"/>
          <path class="cls-19" d="m356.89,364.58c-2.17-.56-6.57,1.38-7.95,3.38l-3.12-.55c5.23,2.06,10.66,3.73,16.34,4.94-1.86-3.67-4.12-7.47-5.27-7.77Z"/>
        </g>
        <path class="cls-19" d="m323.19,325.02c-1.13-.99-11.22-9.55-9.05-11.44s12.52,9.22,12.52,10.84-2.34,1.59-3.47.6Z"/>
        <path class="cls-19" d="m324.04,331.17s-.36-3.8,1.99-2.6,10.77,13.12,10.55,13.52-3.1-2.23-4.81-4.12c.15.79-.33,1.18-1.01,1.45-2.96-3.01-6.18-6.11-6.72-8.24Z"/>
        <path class="cls-19" d="m352.19,347.04c-3.63-.6-6.41,1.58-5.91,4.66.06,1.25.55,2.65,2.41,3.36.36,4.01,2.57,6.31,4.53,6.8,1.87-.36,2.66-2.86,1.35-5.42.87-1.32-.36-4.22-.81-7.02l2.17,4.47c.93,2.63,2.1,4.79,4.15,5.18,1.44.19,2.09.03,2.85-.16-2.12-4.16-7.1-11.28-10.73-11.87Z"/>
        <path class="cls-19" d="m349.05,343.24c.9-1.12,0-3.41,0-3.41l-21.69-18.28,11.39,19.59s2.67,5.26,5.64,5.79,2.49-4.35,2.49-4.35c0,0,1.27,1.77,2.17.65Z"/>
        <polygon class="cls-3" points="283.52 294.01 290.78 294.01 310.55 307.89 322.48 314.83 326.71 320.58 343.66 355.02 363.61 401.72 333.11 399.55 324.43 352.57 288.58 323.2 283.52 294.01"/>
        <path class="cls-3" d="m325.87,319.25c11.79,6.5,62.55,48.82,44.97,71.57l-8.95,5.59"/>
        <path class="cls-19" d="m343.3,358.24c-2.86-1.23-2.5,1.47-1.95,4.39,1.86-.76,3.5-.61,4.88,1.95-.8-2.61-1.61-5.19-2.92-6.34Z"/>
        <path class="cls-32" d="m334.03,385.96c7.88-3.43,14.12-1.02,18.43,8.19l-15.13.27-3.31-8.46Z"/>
      </g>
      <g>
        <path class="cls-15" d="m345.69,623.47s-10.08-15.65-12.14-18.03-7.37-5.86-16.92-12.58c-4.34-3.06-18.02-26.29-33.51-48.8-6.87-9.99-9.4-16.14-15.72-24.83-10.78-14.82-23.8-29.75-24.51-30.9-2.06-3.36-10.73-35.67-11.28-44.78s1.23-34.27,1.15-37.19-3.11-17.78-3.11-17.78c0,0,2.88-.43,4.7-3.04,4.92-12.43,28.93-42.3,31.41-43.7s5.73-3.14,7.04-3.14,12.26,3.51,14.86,5.06,27,29.53,28.95,32.67,7.81,21.69,7.81,21.69c0,0,9.22-3.04,13.01-3.9s9.22-.54,13.88-.43c10.52,1.08,46.3,27,49.01,29.93,1.27,1.38,4.77,28.63,6.94,51.29,1.3,29.08-.84,60.39-1.3,66.25-.87,11.06-8.57,52.7-21.69,82.22h-38.6Z"/>
        <path class="cls-27" d="m383.71,622.78l-23.93-138.8v-14.46l-3.83-7.81,17.86,27.69,1.37-4.05-10.84-30,1-1.14-1.79-1.22-10.42-23.67,14.96,8.46,8.02,10.99,1.3-6.72,10.48,8.24,9.76.14-13.81-18.43-49.61-33.76s22.99-.61,26.18,0,29.35,16.63,39.91,26.46c0,0,5.3,35.19,6.07,46.27,1.73,8.67.84,61.72-.67,71.99-.85,13.89-11.46,58.27-22.03,79.82Z"/>
        <path class="cls-27" d="m268.05,340.69c-11.69,12.55-20.55,25.74-25.81,39.74l-3.25,3.68c8.84,36.71,20.06,73.91,33.82,112.67l31.89,28.84c9.5-8.78,16.62-27.45,23.78-45.98-2.59-40.3-6.64-77.96-17.28-103.66-13.19-17.07-27.12-30.85-43.16-35.3Z"/>
        <g>
          <path class="cls-32" d="m364.48,619.4c-2.88.18-3.08-.96-2.33-3.02,1.33-3.65.98-7.42.87-11.15-.09-2.94-2.27-4.81-5.59-4.92-2.59-.08-3.91,1.62-4.5,3.93-.7,2.77-1.49,5.53-1.21,8.45.4,1.6.81,3.21,1.21,4.81,0,0,0,0,0,0,.16.96.32,1.92.5,2.97-.85,0-2.51-.09-3.35-.09.73.89,1.4,2.09,1.68,3.09h18.47c-.58-3.44-1.46-4.33-5.75-4.07Z"/>
          <path class="cls-32" d="m334.52,601.64s-1.58-13.07,5.33-9.6,7.79,9.65,9.2,14.91c1.41,5.26-1.52,10.63-1.52,10.63-5.04-4.99-11.71-16.05-13.01-15.94Z"/>
        </g>
        <path class="cls-32" d="m382.39,619.8c-1.95-.27-2.43-1.79-3.04-3.8s-.92-14.75-.49-17.62,2.33-11.11,5.31-11.17,5.15,8.02,5.15,8.02c0,0,6.13-16.16,7.54-15.94s1.08,2.82,1.08,2.82c0,0-4.18,12.34-4.58,13.93s-1.71,4.88-2.3,5.69-2.01-.11-2.01-.11c0,0-.22,4.55-.43,6.23s-4.28,12.2-6.23,11.93Z"/>
        <g>
          <path class="cls-30" d="m284.91,374.15c4.29-1.11,6.78,1,7.89,6.13,1.55,7.15-.28,13.68-3.25,20.03-1.1,2.35-5.63,3.82-8.45,2.27-5.07-2.79-9.71-6.3-12.83-11.33-.64-1.03-1.6-2.48-.28-3.86.96-.85,4.43-.78,8.62-.42,1.34.04,3.04-11.57,8.3-12.82Z"/>
          <path class="cls-30" d="m295.16,393.7c-.12-5.98.32-11.15,2.72-15.92,1.47-2.92,4.19-3.51,6.28-1.15,1.67,1.89,3.39,4,3.05,6.89-.07.58-.26,1.09.27,1.66,1.75,1.85,2.34,4.19,2.33,6.64-.03,3.86,1.59,7.28,2.64,10.85.29.98.38,2,.08,2.97-.88,2.84-3.49,3.79-5.91,1.98-2.01-1.51-4.04-2.47-6.61-2.06-.93.15-1.99-.05-2.24-1.08-.96-3.82-4.21-7.12-2.61-10.77Z"/>
          <path class="cls-30" d="m292.16,408.58c4.79-2.65,6.5-2.48,9.92,1.29,1.46,1.6,3.53,2.42,5.25,2.34,3.68-.17,3.19,2.49,3.38,4.37.24,2.3-1.15,4.53-3.44,4.49-3.66-.06-3.44,2.33-3.58,4.51-.14,2.17-.44,4.24-1.94,5.86-1.45,1.56-3.45,2.17-4.26-.31-2.06-6.34-6.82-11.75-6.58-18.88-.15-.22-.31-.44-.46-.65.02-.42.05-.84.07-1.26,1.08-.09,1.19-1.08,1.63-1.76Z"/>
          <path class="cls-30" d="m279.47,415.21c1.3-1.4,2.68-2.47,4.75-2.74,2.74-.35,4.37.39,4.2,3.07-.24,3.73,1.16,7.08,1.69,10.62.49,3.31-1.98,4.88-3.72,6.7-1.51,1.58-3.86.52-5.74.17-1.09-.2-1.16-1.73-1.16-2.87-.01-2.61.67-5.51-.24-7.76-.88-2.19-.62-3.98-.37-6v.02c.51-.25.63-.7.6-1.23h0Z"/>
          <path class="cls-30" d="m292.16,408.58c-.44.69-.55,1.68-1.63,1.76-1.98-.16-4.02.55-5.51-1.91-.72-1.19-3-.03-4.41.3-3.67.88-6.56.42-9.21-2.58-.63-.71-2.81-4.03-4.61-.29-.16.33-1.43-.42-2.05-.92-.5-.4-.94-.99-.3-1.5,1.64-1.3.03-1.73-.58-2.42-.86-.98-1.87-1.86-2.58-2.93-1.5-2.25-.53-4.7,2-5.52.58-.19,1.32-.01,1.27.3-.26,1.86,1.36,3.06,1.5,4.7.24,2.7,3.35,5.04,6.04,5.19,3.37.19,6.84.37,9.85,2.49,1.21.85,2.9.63,4.07-.26,1.31-1,2.44-1.59,4.09-.79,1.75.85,1.47,2.1,1.07,3.55-.18.66.49.74.98.83Z"/>
          <path class="cls-30" d="m278.88,416.4c-1.6,2.6-3.16,5.23-4.83,7.78-1.05,1.6-2.5,3.27-4.51,2.77-2.36-.58-2.62-2.7-2.14-4.88.13-.58.07-1.22.25-1.78.43-1.32,1.23-2.58-1.13-2.97-1.02-.17-1.13-1.45-.83-2.3.56-1.61,2.02-2.23,3.48-3,1.17-.61,1.73-2.13,3.49-.9,1.35.95,3.2.56,4.77,1.47,1.21.7,1.84,1.35,2.04,2.6h0c-.52.24-.62.7-.62,1.21v-.02Z"/>
        </g>
        <g>
          <path class="cls-30" d="m316.12,439.74c-.81,2.77-1.39,5.64-3.13,8.1-.69.97-1.76,1.83.52,2.72,2.11.81,2.8,3.07,2.56,5.45-.18,1.84-1.06,2.93-2.88,3.16-1.03.13-1.3.71-1.29,1.61,0,.69.07,1.4-.06,2.06-.18.92-.09,2.21-1.1,2.53-.92.3-1.47-.83-2.02-1.46-1.16-1.33-2.14-2.78-2.75-4.49-.84-2.33-.12-3.97,1.89-5.23,2.55-1.59,2.84-2.82,1.16-5.33-.47-.71-.59-1.4-.65-2.2-.22-3.06,1.16-5.74,2.11-8.49.46-1.33,1.69-2.47,3.52-1.87,1.68.55,2.33,1.69,2.12,3.45Z"/>
          <path class="cls-30" d="m307.17,447.51c.12,2.02-1.19,3.12-2.78,3.75-1.65.66-2.93-.5-3.68-1.73-1.27-2.08-2.26-4.33-3.32-6.54-.53-1.12-.14-2.17.64-2.99.79-.83,1.82-1.08,2.98-.73,3,.91,6.23,5.2,6.16,8.23Z"/>
        </g>
        <g>
          <path class="cls-30" d="m276.41,463.42c.82-2.47,1.48-5.02,2.51-7.4,1.29-2.99,3.95-3.34,6.5-1.38,2.14,1.65,3.46,4,5.36,5.87,1.09,1.07,1.23,2.91.96,4.59-.98,6.06-3.16,11.82-4.42,17.81-.3,1.43-1.12,2.55-2.62,2.95-2.29.64-4.25.78-6.63-.44-5.27-2.71-13.71-12.67-14.02-14.2-.21-1-1.97-14.53,3.02-17.19,2.05-.13,6.99,5.59,8.72,11.93.22-.89.42-1.71.62-2.52Z"/>
          <path class="cls-30" d="m289.4,485.49c1.96-7.79,2.93-15.83,5.96-23.35.69-1.72,2.39-2.64,4.24-2.54,2.21.12,3.1,1.91,3.42,3.77.87,5.03,1.31,10.13,1.24,15.23-.04,2.87.54,4.59,3.75,5.63,3.03.98,6.35,2.6,6.18,6.98-.13,3.57-1.43,5.46-5,5.56-4.43.12-8.74-.9-12.6-3.12-1.44-.83-2.66-1.82-4.43-1.74-1.22.06-1.77-.65-2.01-1.85-.3-1.51-.77-2.97-.75-4.58Z"/>
          <path class="cls-32" d="m303.7,502.1c-2.39-2.28-4.19-3.4-6.7-5.31-1.89-1.44-4.82-2.28-7.1-2.12s-5.24,4.31-6.02,4.99c-1.03,1.87-.79,3.28-.19,6.4.33,1.87,2.94,9.39,4.55,9.73,1.29.34,2.68.12,3.48-.16,3.51-1.36,2.8-5,3.67-7.35,1.98,1.33,3.29,2.21,5.69,2.03,2.26-.17,3.71-.98,4.2-2.29.67-1.83-.16-4.55-1.59-5.92Z"/>
          <path class="cls-32" d="m284.52,490.24c-.95-1.26-2.47-.89-3.68-.53-1.82.55-1.55,2.27-1.86,3.78-.66,3.15-2.35,9.72-1.74,10.14-1.45.27-2.26.84-2.3,2.61-.03,1.21-.32,3.38-2.7,1.84-.39-.25-1.06-.25-1.41.22-.5.68.11,1.17.52,1.54,2.49,2.19,2.56,4.84,1.65,7.74-.12.37-.08.81-.04,1.22.09.99-.44,2.45.58,2.82,1.56.57.76-1.13,1.17-1.73.09-.13.37-.19.56-.19,2.86.04,2.11-2.15,1.81-3.48-.36-1.58-.08-2.96.06-4.47.2-2.14,1.64-4.01,1.27-6.24.22,0,.44,0,.65-.01-.3-2.51,2-6.78,4.3-7.98.48-.77,1.07-1.5,1.41-2.33.69-1.66.88-3.43-.27-4.94Z"/>
          <path class="cls-32" d="m277.4,492.54c-.46-2.41-3.64-4.53-5.23-5.11-2.97-1.1-2.55-2.94-5.02-4.59-.83-.64-2.82-1.12-3.56-1.12-2.07.11-2.59,1.1-3.34,3.79,0,.47,1.01,2.21,1.77,2.71,3.22,2.46,1.76,5.31,1.75,5.46,1.64,5.35,10.66,3.12,11.44,2.91,2.17-.59,2.55-2.17,2.2-4.05Z"/>
        </g>
        <path class="cls-32" d="m374.67,515.22c2.07.82,3.51.56,4.92,0,5.13-4.42,8.07-8.84,6.58-13.23-2.37-1.25-4.24-.18-5.75,2.53-2.37-6.83-4.89-12.67-8.49-10.84-3.83,2.7-2.71,9.41-.43,17.06-4.01-.63-7.94-1.18-9.54.58-1.17,2.92.04,4.85,4.92,5.28,2.65,3.08,5.25,2.56,7.81-1.37Z"/>
        <path class="cls-32" d="m330.07,510.81c16.77-1.52-2.75,17.28-1.81,3.25-.14-2.02-3.11-.87-3.11-.87,0,0-1.23.14-3.11,2.76.14,7.07-9.33,6.13-4.41-1.75-4.92-4.3-5.66-10.16-4.34-13.3s10.19,4.4,10.19,4.4c.25-.07-1.95-12.92,1.08-13.51,5.51-1.07,4.74,16.5,5.49,19.01Z"/>
        <g>
          <path class="cls-32" d="m362.36,557.4c1.56-4.07,1.14-8.25,1.66-12.34.74-5.8,1.17-11.65,3.28-17.2.22-.57.36-1.71-.51-1.74-.66-.02-1.35-.8-2.3.22-1.38,1.47-2.68,3.06-4.1,4.57-.57-1.51-1.02-2.82-1.55-4.1-1.49-3.58-3.92-4.34-7.16-2.07-3.75,2.63-6.13,6.34-7.38,10.63-1.56,5.34-1.01,7,2.95,9.68,3.6,1.83,5.15,5.44,7.45,8.38.65.83.93,2.02.05,2.69-.79.6-1.35-.52-1.93-.99-1.82-1.48-4.08-2.01-6.2-2.84-2.51-.75-5.07-1.33-7.71-1.16-3,.19-4.56,2.54-3.61,5.35.3.89.33,1.76.29,2.65-.11,2.11.98,3.33,2.89,4.03.95.35,1.84.82,2.8,1.13,1,.33.95.78.45,1.53-2.54,3.78-1.99,8.38-3.36,12.49-.52,1.57.69,2.86,2.25,3.4,1.13.38,2.36.46,3.55.67,2.04-2.78,5.84-2.82,8.18-5.54,3.47-4.05,6.34-8.11,6.58-13.55.03-.67.44-1.79,1.25-1.76.26,0,2.22-4.12,2.18-4.12Z"/>
          <path class="cls-32" d="m373.77,578.16c-1.28-1.48,2.86-2.23,2.71-3.85-.17-1.87-3.34-5.23-3.4-5.4-1.37-1.24-3.05-3.01-4.9-3.82-1.36-.6-5.69.05-6.61.65-.6.58-3.08,3.36-3.94,5.9-1.23,3.62-2.7,7.16-4.07,10.73-.4,1.32.31,3.7,2.1,4.35,1.55.56,4.58-1.52,4.77-.77,1.84,0,4.17.82,6.51-5.03-.6,10.08,9.98,2.82,6.83-2.77Z"/>
          <path class="cls-32" d="m388.63,514.77c-.44-.84-1.21-1.42-1.91-.61-1.08,1.26-1.73,2.89-3.9,1.61-.45-.26-1.25.63-1.5,1.3-.35.92-.74,1.59-1.9,1.57-1.54-.02-1.24,1.23-1.41,2.2-.18.98,1.02,1.81.26,2.87-1.09-.52-2.24-1.43-3.32-.25-.92,1.01-.77,2.25-.02,3.36.36.53.73,1.08.2,1.63-2.06,2.13-2.71,5.2-4.93,7.21-.36.19-.6.39-.09.69h0c-.76,1.72-1.47,3.48-2.3,5.17-2.24,4.54-3.41,9.4-4.3,14.34-.64,2.25-3.12,7.52-2.93,9,.15,1.16,2,.53,3.07-1.32,1.34-2.32,1.66-4.99,2.2-7.02.49-1.16,1.89-6,3.84-8.56-.4-1.98.63-3.65,1.16-5.42,2.81-5.01,5.21-10.31,8.56-14.94,2.51-3.48,4.06-8.1,9.04-9.51,1.78-.51.8-2.15.18-3.32Z"/>
          <path class="cls-32" d="m389.02,539.27c-1.23-.45-1.66-1.12-2.22-2.14-1.11-2-2.62-3.93-5.28-2.45-1.82,1.01-5.06,3.1-5.84,5.23-1.63,4.37-4.5,10.31-5.57,11.75-1.68,2.02-2.26,5.05-3.89,7.08-.43.54-.54,1.18-.54,1.77.12,2.09,1.69,3.34,3.19,4.09.68.34,3.25,2.27,3.53-1,1,.14,4.72,4.11,5.77,4.4,2.94.81,5.1,1.59,8.24.51,2.47-.97,1.97-2.71,1.1-4.47-.76-1.53-2.31-2.25-3.62-3.18-2.61-1.83-2.6-2.45.22-4.04.62-.35,1.27-.66,1.92-.93,3.93-1.67,4.62-2.91,3.69-6.97-.28-1.22-.57-2.33.5-3.37,2.77-2.69,2.41-4.94-1.2-6.27Z"/>
        </g>
        <path class="cls-32" d="m253.88,355.6c-.82,4.57-1.57,9.01-1.23,11.35,1.96,2.15,3.75,2.68,5.28.77,0,0,3.49,3.29,4.99,3.2s5.57-4.41,5.57-4.41c0,0,3.58.17,4.84-.29,1.85-.67-1.86-18.38-3.04-18.76,2.52,8.69,5.77,17.11,9.69,25.27-.94,3.27,1.08,3.9,2.47,2.74,1.17-.95.56-3.08-1.45-3.61l-4.05-15.18c4.69,5.39,9.69,9.74,15.9,10.05,1.96-.07,3.82-.74,5.57-2.17.9,1.38,2.25,2.14,4.63,1.52,1.72-.42,1.91-1.81,1.45-3.61l-4.84-5.42c-.97.94-1.48,2.25-1.45,3.98l-2.02-8.17-7.66-7.37c-5.57-3.79-11.04-5.92-16.34-5.57-1.51.92-2.42,2.47-3.11,4.27-.66-1.11-2.19-1.05-3.76-.94l-11.42,12.36Z"/>
        <path class="cls-32" d="m234.8,386.11c0,10.12.15,19.89,2.46,24.85l1.88.46,2.53,1.37c3.42-.96,3.71-6.95,3.76-13.34-2.42-6.02-5.02-11.67-8.67-15.34.38.24.69-.02.94-.72,0,0,8.82,9.12,13.01,9.12s-.43-26.13-.43-26.13c-1.39-2.44-2.96-3.38-4.63-3.47l-5.06,6.07c-.46-6.23-.45-13.26-3.69-14.75-2.54-.17-4.04,1.34-5.2,3.4l1.16,20.96c-1.5-2.05-2.93-3.21-4.19-2.58l1.45,12.19c1.65-.68,3.01-1.75,3.83-3.6.11.82.32,1.45.87,1.5Z"/>
        <g>
          <path class="cls-32" d="m248.38,463.41c.32,4.01,1.92,7.17,4.88,9.43,4.97,1.97,5.94-1.6,1.2-13.06,2.09.68,3.79.04,5.08-2.05,1.47-8.36,2.11-16.12-1.67-20.59-2.94-1.74-5.17.48-5.82,2.87-1.98,9.13-4.02,18.36-3.68,23.4Z"/>
          <path class="cls-32" d="m241.21,472.71s1.4-4.35,5.01-4.35c5.42,0,5.21,10.36,4.61,13.1s-3.54,5.94-3.54,5.94l-6.08-14.69Z"/>
          <path class="cls-32" d="m243.69,457.68c1.69-2.25,2.91-6.15,3.65-11.71.69-9.04-.97-16.74-3.65-23.86-2.64-1.14-3.38,2.81-3.54,8.31-.96-3.83-2.37-6.09-4.84-4.77-.41,4.16.11,7.57,1.23,10.48.28,5.36,1.09,10.82,2.24,16.34.57,1.54,1.42,2.94,2.89,4.05-1.23-.27-2.44-.96-3.61-2.15-1.13-6.93-2.28-13.19-3.61-15.25l.8,11.25,3.47,16.41c2.58-.65,5.09-1.57,7.17-4.12-.44-2.37-1.13-4.11-2.18-4.99Z"/>
        </g>
        <path class="cls-32" d="m342.14,413.58c1.9,4.35,4.44,8.14,7.66,11.35,5.03,2.1,9.8,3.95,10.48,1.73-3.47-5.96-9.28-11.28-16.05-16.34,3.4,1.31,6.35,1.73,8.67.94l-7.52-5.06c-1.96.48-3.32,1.28-4.19,2.34-.57-2.04-1.37-3.95-2.75-5.52-3.98-1.41-7.65-1.61-10.92-.29-.97.71,6.12,6.91,7.73,7.23,1.16.23,3.31.17,2.75-.07-1.6,1.78-1.76,4.63-1.48,7.12l6.11,4.78c.96-1.94.58-4.83-.51-8.21Z"/>
        <path class="cls-32" d="m369.81,412.64c-2.22-5.51-8.01-10.29-14.8-14.86-1.55-.49-2.25,1.81-1.14,3.04l9.98,9.7c-1.8-.72-3.58-.71-5.31.33-.97,1.02-1.15,2.04-.6,3.08,1.18,2.92,3.7,5.98,6.94,9.12,1.5,1.91,3.54,3.63,6,5.2.65.36,1.11.36,1.37,0,2.59,3.24,5.81,3.71,9.49,2.22-1.04-2.73-3.02-5.5-5.42-8.3-2.6-2.92-5.5-5.81-8.51-8.67,1.36.05,1.93-.29,2.01-.87Z"/>
        <path class="cls-32" d="m381.74,456.01c5.01-1.57,6.67-8.67,7.86-9.65-.25,5.58-.48,11.13,0,15.72.79,3.01.52,6.54,0,10.19-1.65,2.18-3.2,1.27-4.66-2.6-1.71.13-2.38-1.02-2.6-2.71-.77-3.16-.78-6.98-.6-10.95Z"/>
        <path class="cls-32" d="m368.24,453.63c-1.12.03-1.7.65-1.95,1.63.6,1.18,1.78,2.15,4.12,2.71,4-.92,4.23-4.46,3.64-8.57-2.65-7.42-7.93-12.96-13.76-18.12-3.17-.38-5.47-.11-6.47,1.16.75,7.37,4.13,13.39,9.54,18.37,1.53,1.49,3.16,2.44,4.88,2.81Z"/>
        <path class="cls-32" d="m368.24,475.53c4.58.76,5.67-3.13,3.83-10.92-3.58-5.4-6.89-9.19-9.83-10.77-2.36-4.24-7.02-9.26-12.21-14.45.27,4.87.82,9.5,2.16,13.44,4.77,12.01,9.76,22.31,16.05,22.7Z"/>
        <path class="cls-32" d="m379.88,461.58c-.64.91-1.42-.48-2.27-2.82-.86-.2-1.17-1.38-1.2-3.04-.38-3.64-.26-6.76,1.2-8.53-.72-1.99-.16-5.34.53-8.82,1.33,1.99,1.35,5.97.83,10.77.92.83,1.2,5.05.9,12.43Z"/>
        <g>
          <ellipse class="cls-32" cx="345.69" cy="473.54" rx="3.04" ry="4.08"/>
          <path class="cls-32" d="m344.93,466.35c1.37-1.75,2.05-3.94,1.73-6.75.75,1,1.45,1.42,2.06.75.29-4.04-.09-8.8-.88-13.99-2.28-1.75-4.28-1.94-6.1-1.08.77-4.22-1.69-9.12-4.84-14.16-3.11,2.03-3.59,7.27-2.71,14.16,1.65,5.57,3.8,10.23,6.72,13.44.7,4.61,1.81,7.85,4.01,7.63Z"/>
          <path class="cls-32" d="m334.76,473.54c1.81,1.13,3.67,1.65,5.61,1.12,2.06-3.39,1.43-9.06,0-15.4-.78-1.28-1.71-1.73-2.81-1.3-2.56-8.1-5.25-15.53-8.47-20.28-3.79-1.09-5.53.32-4.65,4.95-.66-1.14-1.39-1.62-2.19-1.16-.88,7.07,2.75,16.79,5.19,25.81.48,2.76,1.94,3.88,3.87,4.23-1.87-.35-3.39-.27-4.39.43-1.19,3.71-.69,6.93,1.08,9.76,2.26,2.94,4.52,4.89,6.75,0,1.32.66,2.66.93,4.09,0,.49-4.28-1.32-6.63-4.09-8.17Z"/>
          <path class="cls-32" d="m348.72,479.65c-2.02.68-3.16,2.89-3.8,5.96-1,6.7-1.68,13.45.76,20.63,4.61,8.65,8.89,2.42,8.13-5.23,2.99,1.01,3.97-1.56,3.69-6.36-.58-1.31-2.17-.74-2.49,0-2.32-6.7-4.45-15-6.29-15Z"/>
          <path class="cls-32" d="m352.68,465.88c-.98-.27-3.22.16-3.86,4.23-.64,4.07,4.94,22.67,10.64,23.8s-3.44-26.3-6.78-28.03Z"/>
          <path class="cls-32" d="m342.65,478.93c-2.27-1.42-4.05,10.96-4.05,10.96-.88-1.21-3.31-1.27-3.57-.7s1.04,3.5,2.56,3.83c-1.31-.28-3.33,1.14-3.33,2.02s2.17,1.45,3.18,1.45c-1.25.51-2.03,1.2-1.88,2.24.54.93,1.15,1.45,1.81,1.59,0,0-1.66,1.81-1.45,2.53s2.02.58,2.02.58c.1,1.66,1.19,4.19,1.95,4.19s.53-2.88.07-4.27c1.01.28,2.67-1.27,2.67-2.24s-1.81-1.99-2.75-1.3c0,0,2.53-4.3,2.31-5.42s-2.67,0-2.67,0c0,0,7.28-12.85,3.11-15.47Z"/>
        </g>
        <ellipse class="cls-32" cx="328.31" cy="523.42" rx="3.01" ry="2.69"/>
        <g>
          <path class="cls-32" d="m316.95,552.08c1.84.83,5.78-1.92,6.18-6.72,2.18-4.19,2.2-10.07,1.68-16.37-5.16-2.82-10.3-5.59-13.93-5.57.26-1.35-1.79-3.22-2.28-3.22s-1.63,1.49-2.17,1.52-1.13-.99-1.66-.99-2.13,2.16-2.13,3.92,6.07,22.17,7.92,23.31,4.01,1.1,4.01,1.1c0,0,.54,2.19,2.39,3.02Z"/>
          <path class="cls-32" d="m318,557.87l2.53-1.66s1.88-3.45,3.76-4.61,3.63-1.93,5.42-1.96c4.16-.07,1.79,14.95-4.62,17.93-1.75.81-6.01-4.3-5.21-4.92-.42,1.32-1.24,2.1-2.53,2.22,0,0,5.44,4.94,6.18,6.6s-1.28,5.78-4.23,5.78-6.52-4.72-6.8-6.72,2.02-7.52,2.02-7.52c-1.83-.49-3.04-1.39-3.33-2.89,0,0-5.69,1.72-9.98-.36s-12.51-14.48-12.51-15.54,8.1,1.23,8.1,1.23c0,0,1.37-3.18-.8-5.64s-3.62-9.98-.35-9.98,14.19,23.13,15.24,23.42,1.97-1.69,3.54-1.01,3.54,5.64,3.54,5.64Z"/>
          <path class="cls-32" d="m305.84,564.39c-1.26.22-1.86,3.52-1.07,7.54s5.93,2.44,6.43,0-4.1-7.75-5.37-7.54Z"/>
        </g>
        <path d="m345.37,623.92c-.1-.05-.28-.32-.33-.39,0,0-.14-.22-.14-.22l-.29-.45c-3.66-5.58-7.31-11.39-11.25-16.74-2.76-3.14-6.54-5.31-9.9-7.8,0,0-6.98-4.88-6.98-4.88-1.15-.81-2.17-2.06-3.05-3.15-10.98-14.85-20.24-30.89-30.85-46-4.91-6.99-8.77-14.61-13.52-21.68-8.22-12.03-17.95-22.92-26.88-34.42-3.97-10.3-6.38-21.15-8.94-31.87-1.22-5.55-2.45-11.22-2.31-16.94,0-9.7.72-20.1,1.15-29.81.05-1.07.18-3.1.02-4.18-.74-5.58-1.92-11.18-3.01-16.71,0,0-.1-.5-.1-.5.59-.11,1.19-.22,1.77-.48,1.17-.33,2.62-1.76,3.05-2.34,2.34-5.54,5.82-10.66,9.14-15.64,3.41-4.97,6.99-9.81,10.68-14.56,3.5-4.44,6.97-8.93,10.91-13,2.09-1.7,4.63-2.82,7.15-3.78.73-.27,1.73-.15,2.47.09,4.41,1.21,8.69,2.58,12.87,4.44,1.43.65,2.48,1.91,3.57,2.98,2.1,2.17,4.13,4.38,6.15,6.62,4.03,4.46,8,8.98,11.92,13.55,2.68,3.16,5.43,6.27,7.93,9.59,1.12,1.58,1.7,3.47,2.41,5.21,2.11,5.66,3.98,11.38,5.82,17.11l-.63-.32c4.39-1.41,8.72-2.87,13.22-3.97,4.61-.91,9.25-.5,13.88-.43,5.56.98,10.26,3.93,15.11,6.54,4.74,2.72,9.35,5.63,13.89,8.64,6.8,4.59,13.56,9.15,19.91,14.38.13.11.27.25.4.38.1.05.37.5.39.61,3.08,12.95,4,26.35,5.68,39.53.47,4.68,1.35,11.63,1.37,16.31.51,21.78.08,43.62-1.96,65.32-2.27,16.21-5.98,32.16-10.45,47.89-3.06,10.58-6.66,21.02-11.09,31.12,0,0-.33,0-.33,0l-38.84-.06h0Zm.48-.88l38.36-.06-.46.3c4.33-9.96,7.84-20.27,10.85-30.72,4.41-15.67,8.09-31.61,10.3-47.74,2.06-22.96,2.46-46.14,1.64-69.18-.17-2.64-.92-9.41-1.19-12.15-1.64-13.11-2.5-26.48-5.54-39.32-6.24-5.44-13.32-10.06-20.16-14.76-4.52-3.01-9.1-5.93-13.8-8.64-4.62-2.53-9.48-5.5-14.66-6.44-4.3-.06-9.18-.5-13.55.37-2.19.5-4.4,1.18-6.58,1.84-2.35.72-4.69,1.46-7.03,2.23-1.88-5.88-3.8-11.77-5.95-17.54-.71-1.72-1.24-3.5-2.3-4.99-2.48-3.28-5.2-6.38-7.87-9.51-3.91-4.56-7.88-9.07-11.9-13.53-2.01-2.23-4.04-4.44-6.12-6.59-1.04-1.01-1.95-2.17-3.29-2.78-4.06-1.8-8.4-3.2-12.68-4.37-.71-.15-1.23-.37-1.95-.1-2.33.88-4.76,1.97-6.74,3.54-1.82,1.86-3.52,3.86-5.18,5.87-7.58,9.26-14.87,18.89-21.16,29.08-1.55,2.58-3.03,5.21-4.17,7.96-1.19,1.7-3.02,2.88-5.06,3.29,0,0,.42-.59.42-.59,1.1,6.31,2.88,12.58,3.1,19-.13,3.78-.55,11.03-.72,14.89-.24,7.77-.95,15.57-.19,23.31,1.37,9.09,3.7,18.04,6.06,26.92,1.32,4.76,2.61,9.56,4.34,14.19.25.64.48,1.22.92,1.75,9,10.93,18.19,21.85,26.31,33.51,4.75,7.07,8.62,14.71,13.51,21.67,10.82,15.36,20.15,31.77,31.46,46.76,0,0,.7.77.7.77.46.55.94.93,1.49,1.36l6.98,4.88c3.45,2.55,7.24,4.72,10.1,7.99,3.99,5.41,7.63,11.21,11.31,16.82,0,0,.29.45.29.45l.14.22c.03.05.03.05.02.04-.01,0-.03,0-.05.02h0Z"/>
        <g>
          <path d="m231.23,353.58c.16,15.56,3.99,30.64,8.67,45.38,0,0-.09.04-.09.04-6.4-14-8.99-30.28-8.58-45.42h0Z"/>
          <path d="m227.76,363.56c.06,11.11,1.72,22.04,3.51,32.97,0,0-.1.03-.1.03-1.92-5.24-2.76-10.81-3.14-16.35-.36-5.47-.76-11.37-.27-16.65h0Z"/>
          <path d="m226.31,411.41c.83,11.54,1.69,23.13,4.01,34.47.71,3.78,1.69,7.49,3.22,11.05l-.09.05c-4.01-6.73-5.01-14.75-5.82-22.4-.7-7.65-1.34-15.69-1.31-23.17h0Z"/>
          <path d="m321.72,389.57c6.96,26.17,21.37,49.99,26.19,76.77,0,0-.1.02-.1.02-3.28-13.14-8.32-25.69-13.02-38.37-4.68-12.6-10.15-25.45-13.07-38.42h0Z"/>
          <path d="m353.3,466.36c-2.06-7.15-4.21-14.28-6.19-21.46-1.81-7.24-4.37-14.42-4.53-21.95,0,0,.19.41.19.41-4.31-3.6-8.61-7.2-12.78-10.96l.06-.08c4.53,3.31,8.95,6.78,13.35,10.26l.19.15v.26c.28,7.35,2.45,14.6,4.15,21.74-.1,0,5.89,21.76,5.56,21.62h0Z"/>
          <path d="m386.73,442.68c-10.38-4.85-20.61-10.12-31.44-13.9-3.55-1.2-7.23-2.65-11.03-2.29,0,0-.02-.1-.02-.1,3.81-.94,7.74.39,11.38,1.44,3.67,1.19,7.17,2.79,10.65,4.4,6.86,3.26,14,6.83,20.47,10.44h0Z"/>
          <path d="m367.61,478.08c-5.4-16.27-12.32-32.26-23.27-45.6,0,0,.07-.07.07-.07,6.29,5.96,10.84,13.55,14.38,21.39,3.51,7.8,6.71,16.19,8.81,24.27h0Z"/>
          <path d="m371.53,427.35c-7.98-7.97-34.52-32.86-45.93-24.85,0,0-.06-.08-.06-.08.85-.8,1.9-1.38,3.03-1.76,12.9-3.62,34.84,17.74,42.96,26.68h0Z"/>
          <path d="m286.45,539.77c9.67,12.62,22.73,21.89,36.7,29.19,0,0-.04.09-.04.09-14.76-5.58-27.72-16.63-36.66-29.28h0Z"/>
          <path d="m311.68,559.79c-17.53-13.09-33.6-28.24-47.86-44.82,0,0,.07-.07.07-.07,15.55,15.3,30.72,31.52,47.79,44.89h0Z"/>
        </g>
        <g>
          <path class="cls-21" d="m383.71,622.83l-23.93-138.8v-14.46l-3.83-7.81,17.86,27.69,1.37-4.05-10.84-30,1-1.14-1.79-1.22-10.42-23.67,14.96,8.46,8.02,10.99,1.3-6.72,10.48,8.24,9.76.14-13.81-18.43-49.61-33.76s22.99-.61,26.18,0,29.35,16.63,39.91,26.46c0,0,5.3,35.19,6.07,46.27,1.73,8.67.84,61.72-.67,71.99-.85,13.89-11.46,58.27-22.03,79.82Z"/>
          <path class="cls-19" d="m396.87,579.35c-1.41-.22-7.54,15.94-7.54,15.94,0,0-2.17-8.08-5.15-8.02-2.5.05-4.23,5.82-4.98,9.39l3.95,22.88c2.09-1.73,5.29-10.13,5.48-11.62.22-1.68.43-6.23.43-6.23,0,0,1.41.92,2.01.11.6-.81,1.91-4.1,2.3-5.69.29-1.17,2.61-8.1,3.84-11.73.26-.96.52-1.92.78-2.87,0-.79-.17-2.01-1.12-2.16Z"/>
          <path class="cls-19" d="m386.17,502.04c-2.37-1.25-4.24-.18-5.75,2.53-2.37-6.83-4.89-12.67-8.49-10.84-3.83,2.7-2.71,9.41-.43,17.06-2.65-.41-5.25-.78-7.18-.48l1.06,6.14c.46.08.95.15,1.5.2,2.65,3.08,5.25,2.56,7.81-1.37,2.07.82,3.51.56,4.92,0,5.13-4.42,8.07-8.84,6.58-13.23Z"/>
          <path class="cls-19" d="m388.45,518.14c1.78-.51.8-2.15.18-3.32-.44-.84-1.21-1.42-1.91-.61-1.08,1.26-1.73,2.89-3.9,1.61-.45-.26-1.25.63-1.5,1.3-.35.92-.74,1.59-1.9,1.57-1.54-.02-1.24,1.23-1.41,2.2-.18.98,1.02,1.81.26,2.87-1.09-.52-2.24-1.43-3.32-.25-.92,1.01-.77,2.25-.02,3.36.36.53.73,1.08.2,1.63-2.06,2.13-2.71,5.2-4.93,7.21-.36.19-.6.39-.09.69h0c-.32.71-.62,1.43-.93,2.15l1.01,5.88c.23-.61.47-1.22.66-1.84,2.81-5.01,5.21-10.31,8.56-14.94,2.51-3.48,4.06-8.1,9.04-9.51Z"/>
          <path class="cls-19" d="m387.52,564.08c-.76-1.53-2.31-2.25-3.62-3.18-2.61-1.83-2.6-2.45.22-4.04.62-.35,1.27-.66,1.92-.93,3.93-1.67,4.62-2.91,3.69-6.97-.28-1.22-.57-2.33.5-3.37,2.77-2.69,2.41-4.94-1.2-6.27-1.23-.45-1.66-1.12-2.22-2.14-1.11-2-2.62-3.93-5.28-2.45-1.82,1.01-5.06,3.1-5.84,5.23-1.24,3.33-3.2,7.56-4.53,10.03l2.48,14.4c1.52,1.2,3.77,3.44,4.55,3.66,2.94.81,5.1,1.59,8.24.51,2.47-.97,1.97-2.71,1.1-4.47Z"/>
          <path class="cls-19" d="m381.74,430.53c-1.04-2.73-3.02-5.5-5.42-8.3-2.6-2.92-5.5-5.81-8.51-8.67,1.36.05,1.93-.29,2.01-.87-2.19-5.42-7.83-10.14-14.48-14.64-.46,0-.94-.01-1.45-.01-.68.58-.8,1.97-.01,2.83l9.98,9.7c-1.8-.72-3.58-.71-5.31.33-.97,1.02-1.15,2.04-.6,3.08.09.22.2.43.3.65l23.41,15.93s.06-.02.09-.03Z"/>
          <path class="cls-19" d="m389.6,472.33c.52-3.65.79-7.18,0-10.19-.37-3.5-.32-7.56-.16-11.76l-1.53-.02-.31-.25c-1.21,2.34-2.98,5.05-5.85,5.96-.18,3.98-.18,7.79.6,10.95.23,1.69.89,2.84,2.6,2.71,1.46,3.87,3.02,4.78,4.66,2.6Z"/>
          <path class="cls-19" d="m362.01,449.54c.44.45.89.89,1.36,1.32,1.53,1.49,3.16,2.44,4.88,2.81-1.12.03-1.7.65-1.95,1.63.6,1.18,1.78,2.15,4.12,2.71,4-.92,4.23-4.46,3.64-8.57-1.8-5.04-4.81-9.2-8.38-12.98l-9.21-5.2c-.9.12-1.63.37-2.16.77l7.71,17.51Z"/>
          <g>
            <path class="cls-23" d="m363.28,473.13l-7.2-11.17c2.26,4.79,4.63,8.77,7.2,11.17Z"/>
            <path class="cls-19" d="m372.07,464.66c-2.74-4.13-5.32-7.31-7.7-9.29l-.03.04,7.09,19.61c1.78-1.37,1.93-4.9.65-10.36Z"/>
          </g>
          <path class="cls-19" d="m377.61,447.24c-1.46,1.77-1.58,4.89-1.2,8.53.04,1.65.34,2.84,1.2,3.04.84,2.34,1.63,3.72,2.27,2.82.3-7.38.01-11.6-.9-12.43.22-2.06.33-3.96.3-5.63l-1.78-1.4c-.28,2.03-.33,3.82.12,5.08Z"/>
        </g>
        <g>
          <path class="cls-19" d="m406.84,477.34s-3.25,2.53-6.36-2.67c-6,2.31-6.51,7.66-7.45,16.55s6.14,20.89,8.53,18.22c1.08,14.67,4.77,14.67,4.77,14.67,1.41-16.1,1.75-31.76.51-46.77Z"/>
          <path class="cls-19" d="m402.61,461.04c-4.23.4-4.63,12.29-.58,13.88s3.81-4.6,3.72-6.81-.21-6.13-3.14-7.07Z"/>
        </g>
        <path class="cls-19" d="m382.48,478.24c0,6.25.11,10.18-2.53,11.48s-4.48-5.42-4.48-11.66-.04-14.31,3.18-12.43,3.83,6.37,3.83,12.61Z"/>
        <path class="cls-19" d="m395.02,427.97c-1.69,1.37-2.37,3.63-2.39,6.48,1.95,9.88,4.1,16.12,6.57,16.33,4.47.49,4.13-3.26,2.54-8.13-.23-2.69-1.56-5.43-3.36-8.19.19-3.86-1.08-5.82-3.36-6.48Z"/>
        <path class="cls-19" d="m384.94,419.8c-.11-4.92-1.41-6.81-4.55-4.02-3.46.48-3.48,3.02-1.19,6.94,4.11,5.08,7.92,8.36,10.63,5.24,1.4-2.55-1.54-5.35-4.88-8.17Z"/>
        <path class="cls-19" d="m374.1,414.76c1.73-.86,1.18-3.66-2.53-9.17-1.81-2.2-3.42-2.82-4.84-1.84,1.69,4.76,3.9,8.78,7.37,11.01Z"/>
        <path class="cls-19" d="m401.2,564.28s-6.51-23.55.98-30.13c2.75-1.87,3.2,5.19,3.2,5.19,0,0,.22,4.93,0,8.08s-2.82,12.09-4.17,16.86Z"/>
      </g>
      <g>
        <path class="cls-7" d="m291.69,281.28c-16.4.52-23.2-.97-37.15-2.93-5.77-.81-19.84,1.06-25.44.11,1.27,9.69,1.68,15.83-.52,23.2l58.66,2.28c-.68-8.08.23-15.78,4.45-22.66Z"/>
        <path class="cls-14" d="m290.78,281.81c-16.4.52-22.29-1.17-36.24-3.13-5.77-.81-19.28-1.87-24.87-2.82,1.27,9.69,0,17.57,4.16,22.45,0,0,52.74-9.61,56.96-16.5Z"/>
      </g>
      <path class="cls-21" d="m348.65,604.71c-1.31-4.52-2.02-8.58-1.45-11.64-9.15-5.29-19.11-12.31-29.42-20.1,7.31,11.74,17.9,22.21,30.87,31.73Z"/>
      <polygon class="cls-15" points="312.94 606.95 315.61 607.31 319.16 611.94 317.78 617 312.94 606.95"/>
      <path class="cls-27" d="m225.98,303.99l-2.89,13.59,20.53,1.3,3.76-2.28c-7.01-5.43-14.09-10.24-21.4-12.61Z"/>
      <g>
        <path class="cls-15" d="m229.86,295.52c-7.55,0-17.11,6.27-17.11,6.27,1.17,8.25.91,17.5-.22,26.92,20.76-5.78,39.25-9.43,43.37-9.11,14.67,5.51,27.2,10.07,38.39,14.1,5.79,5.46,9.95,9.21,13.88,10.05,1.26-6.06.54-22.91,0-24.01s-12.4-12.6-21.54-16.18c-9.14-3.58-26.17-3.58-26.17-3.58,0,0-10.1-.13-19.81-1.34-1.69-.21-10.39,1.5-11.71,1.37.5-2.07.78-3.1.92-4.49Z"/>
        <path class="cls-32" d="m216,324.27c.4,4.31,1.62,8.28,3.86,11.82.86-1.9,1.31-4.04.99-6.61,1.29-2.73,2.5-5.11,3.18-7.01l-1.3-4.7c2,4.12,3.98,7.66,5.86,7.45-2.01.51-3.62,3.13-5.1,6.42,1.11,7.37,3.01,13.43,6.18,17.35,4.37-1.01,9.34-6.68,14.53-14.1-1.56,8.86-3.12,17.73,0,23.46,1.73,1.81,6.33.17,7.37-1.99l8.57-10.46-1.52-8.16c.89,2.26,2.27,4.12,5.2,4.74,3.51-2.39,6.39-4.86,7.34-7.59l4.96,1.45c3.94.75,5.63-1.71,5.26-7.1l-13.55-4.03c-1.61.23-2.04,2.11-2.28,4.26h-3.9l-3.9,4.45c-.76-4.48-2.79-8.77-5.53-12.96-2.44-.49-5.15.16-8.02,1.5,2.35-2.32,3.92-4.99,4.66-8.06l-5.64-10.19c-1.78.99-3.37,2.41-4.55,4.77-.6,3.51-.46,6.94,1.19,10.19l-12.69-12.8c-2.99.07-4.97.88-5.75,2.6l-4.77-3.58c-2.61,1.39-1.26,10.9-.65,18.87Z"/>
        <g>
          <path class="cls-32" d="m262.3,314.18l4.45,7.37c3.2,1.48,6.18,2.69,8.35,2.93-.41-1.36-2.1-3.44-4.01-5.64,2.2,2.31,3.67,4.37,5.53,5.64.39-1.44.48-2.86,0-4.23,2.15-1.36,3.39-3.18,3.58-5.53l-4.37-2.39c-1.59-.14-2.22.58-2.24,1.84.07-1.02-.63-2.2-1.71-3.46,0,0-8.01-3.51-8.81-3.04s-.72,1.19-.76,2.06c-.43-2.39-1.73-4.27-4.11-5.53l-3.1-1.79-1.89.78c1.68,4.54,4.98,8.03,9.11,10.98Z"/>
          <path class="cls-32" d="m281.44,318.08c.74-1.06,1.8-1.58,3.26-1.48,2.46.39,4.55,1.1,6.09,2.35,3.29,3.77,4.62,8.46,4.59,13.77-3.26-2.43-7.29-4.24-11.98-5.53-1.58-3.3-2.58-6.43-1.96-9.11Z"/>
        </g>
        <path class="cls-2" d="m229.86,295.44c-7.55,0-17.11,6.27-17.11,6.27,1.17,8.25.91,17.5-.22,26.92,20.76-5.78,39.25-9.43,43.37-9.11,14.67,5.51,36.76,13.14,38.39,14.1s9.95,9.21,13.88,10.05c1.26-6.06.54-22.91,0-24.01s-12.4-12.6-21.54-16.18c-9.14-3.58-26.17-3.58-26.17-3.58,0,0-10.1-.13-19.81-1.34-1.69-.21-10.39,1.5-11.71,1.37.5-2.07.78-3.1.92-4.49Z"/>
        <path d="m216.21,302.32c2.61,1.58,5.56.06,8.08-.99,2.6-1.23,5.54-2.33,8.48-1.81,0,0,0,.1,0,.1-2.86.57-5.43,1.55-8.19,2.45-2.48.87-6.32,2.32-8.37.24h0Z"/>
        <g>
          <path class="cls-25" d="m261.65,320.96c7.02,1.47,14.21,4.02,21.74,8.51"/>
          <path d="m261.66,320.91c7.64,1.45,15.53,3.65,21.76,8.52,0,0-.05.09-.05.09-3.61-1.53-7.06-3.26-10.63-4.85-3.5-1.59-7.58-2.6-11.07-3.76h0Z"/>
        </g>
      </g>
      <path class="cls-26" d="m233.11,410.95s4.15,47.73,6.03,55.25,9.73,23.69,12.82,27.74,30.45,41.66,32.87,44.69,23.99,39.55,25.3,41.35,7.11,9.85,8.87,11.47,14.46,9.49,16.62,11.01,15.45,20.48,15.45,20.48h-5.13s-10.54-16.18-12.26-18.23c-2.61-3.11-13.47-9.04-17.47-12.78-.84-.79-3.55-4.32-7.16-9.56-1.78-2.59-3.74-5.66-5.89-8.89-14.16-21.28-34.5-53.68-34.5-53.68,0,0-24.45-30.52-25.39-31.94-1.01-1.53-4.16-12.51-4.16-12.51,0,0-5.78-23.16-6.36-27.05-.21-1.42-1.1-3.81-.67-13.02.12-2.63.13-5.42.24-8.11.35-8.53.8-16.21.8-16.21Z"/>
      <g>
        <path class="cls-26" d="m153.87,474.78c6.12.02,12.34-.59,18.06-2.83,5.72-2.35,11.32-4.89,17.35-6.49,0,0,.09.18.09.18-7.75,5.21-16.84,8.77-26.17,9.54-3.12.17-6.24.11-9.33-.21v-.2h.01Z"/>
        <path class="cls-26" d="m194.08,448.14c-6.62.86-13.27,2.33-19.24,5.37-5.95,3.15-11.76,6.51-18.09,8.96,0,0-.1-.17-.1-.17,7.93-6.36,17.34-11.17,27.31-13.24,3.35-.61,6.72-.99,10.1-1.12v.2h.01Z"/>
        <path class="cls-26" d="m170.13,425.12c5.81-1.7,11.89-2.88,18-2.51,10.08,1.49,19.55,5.86,27.98,11.48,0,0-.09.18-.09.18-3.83-1.34-7.54-2.86-11.25-4.36-5.51-2.16-10.89-5.09-16.76-6.01-5.93-.62-11.99.11-17.81,1.41,0,0-.06-.19-.06-.19h0Z"/>
        <path class="cls-26" d="m160.05,524.08c.61-.24,1.15-.62,1.32-1.21.08-.25-.07-.55.14-.76.2-.23.46-.5,1.04-.82.6.02.91,1,.88,1.36.02.49-.43.87-.8,1.21-.69.68-1.77.79-2.58.43,0,0,0-.2,0-.2h0Z"/>
        <path class="cls-26" d="m166.11,579.43c.51-.67.54-1.34.22-2.05-.14-.32-.49-.56-.51-.95-.03-.4-.03-.84.21-1.5l.17-.11c.7.08,1.12.4,1.44.79.34.4.27.99.27,1.52.07,1.04-.66,2.24-1.69,2.46,0,0-.11-.17-.11-.17h0Z"/>
        <path class="cls-26" d="m178.87,596.9c-.64-.8-.93-1.83-.96-2.85-.02-.51-.14-1.12.21-1.6.33-.46.83-.87,1.56-.86l.15.13c.13.7.16,1.09.15,1.48,0,.38-.34.66-.48,1.06-.28.81-.48,1.68-.44,2.56,0,0-.18.08-.18.08h0Z"/>
        <path class="cls-26" d="m188.63,520.16c1.11.43,1.7,1.89,2.41,2.78,0,0,1.93,3.01,1.93,3.01,1.48,1.97,2.62,3.83,3.31,6.27,0,0-.15.13-.15.13-2.39-1.09-3.7-3.33-4.57-5.64-.91-1.89-1.54-3.88-2.47-5.75-.13-.24-.29-.53-.48-.61l.02-.2h0Z"/>
        <path class="cls-26" d="m182.11,510.34c.25.51.55,1,.92,1.38.17.17.48.16.48.39.02.23.02.51-.03,1.13-.32.54-1.15.4-1.47.19-.38-.21-.38-.72-.44-1.07-.13-.71.02-1.41.35-2.02h.2Z"/>
        <path class="cls-26" d="m197.27,535.33c1.73,1.99,3.58,4.08,4.59,6.54.22.88.32,1.82.03,2.82l-.19.05c-1.46-1.3-2.07-2.72-2.57-4.49-.64-1.61-1.33-3.21-2.02-4.81,0,0,.17-.11.17-.11h0Z"/>
        <path class="cls-26" d="m162.43,475.86c.24.64.57,1.23,1.03,1.67.21.2.56.22.64.5.1.28.19.62.22,1.27-.28.54-1.28.38-1.6.19-.44-.21-.54-.76-.67-1.18-.28-.82-.18-1.71.17-2.45h.2Z"/>
        <path class="cls-26" d="m167.19,482.87c1.37,2.51,3.93,5.83,5.58,8.21,1.52,2.01,3.04,4.07,3.72,6.57.21.83.49,1.74.2,2.67l-.2-.02c-.67-1.46-1.81-2.68-2.67-4.04-.94-1.34-1.59-2.87-2.4-4.32-1.38-2.6-3.52-6.19-4.41-8.99,0,0,.19-.07.19-.07h0Z"/>
      </g>
      <g>
        <path class="cls-21" d="m268.05,340.69c-11.69,12.55-20.55,25.74-25.81,39.74l-3.25,3.68c8.84,36.71,20.06,73.91,33.82,112.67l31.89,28.84c9.5-8.78,16.62-27.45,23.78-45.98-2.59-40.3-6.64-77.96-17.28-103.66-13.19-17.07-27.12-30.85-43.16-35.3Z"/>
        <g>
          <path class="cls-19" d="m284.91,374.16c4.29-1.11,6.78,1,7.89,6.13,1.55,7.15-.28,13.68-3.25,20.03-1.1,2.35-5.63,3.82-8.45,2.27-5.07-2.79-9.71-6.3-12.83-11.33-.64-1.03-1.6-2.48-.28-3.86.96-.85,4.43-.78,8.62-.42,1.34.04,3.04-11.57,8.3-12.82Z"/>
          <path class="cls-19" d="m295.16,393.71c-.12-5.98.32-11.15,2.72-15.92,1.47-2.92,4.19-3.51,6.28-1.15,1.67,1.89,3.39,4,3.05,6.89-.07.58-.26,1.09.27,1.66,1.75,1.85,2.34,4.19,2.33,6.64-.03,3.86,1.59,7.28,2.64,10.85.29.98.38,2,.08,2.97-.88,2.84-3.49,3.79-5.91,1.98-2.01-1.51-4.04-2.47-6.61-2.06-.93.15-1.99-.05-2.24-1.08-.96-3.82-4.21-7.12-2.61-10.77Z"/>
          <path class="cls-19" d="m292.16,408.59c4.79-2.65,6.5-2.48,9.92,1.29,1.46,1.6,3.53,2.42,5.25,2.34,3.68-.17,3.19,2.49,3.38,4.37.24,2.3-1.15,4.53-3.44,4.49-3.66-.06-3.44,2.33-3.58,4.51-.14,2.17-.44,4.24-1.94,5.86-1.45,1.56-3.45,2.17-4.26-.31-2.06-6.34-6.82-11.75-6.58-18.88-.15-.22-.31-.44-.46-.65.02-.42.05-.84.07-1.26,1.08-.09,1.19-1.08,1.63-1.76Z"/>
          <path class="cls-19" d="m279.47,415.21c1.3-1.4,2.68-2.47,4.75-2.74,2.74-.35,4.37.39,4.2,3.07-.24,3.73,1.16,7.08,1.69,10.62.49,3.31-1.98,4.88-3.72,6.7-1.51,1.58-3.86.52-5.74.17-1.09-.2-1.16-1.73-1.16-2.87-.01-2.61.67-5.51-.24-7.76-.88-2.19-.62-3.98-.37-6v.02c.51-.25.63-.7.6-1.23h0Z"/>
          <path class="cls-19" d="m292.16,408.59c-.44.69-.55,1.68-1.63,1.76-1.98-.16-4.02.55-5.51-1.91-.72-1.19-3-.03-4.41.3-3.67.88-6.56.42-9.21-2.58-.63-.71-2.81-4.03-4.61-.29-.16.33-1.43-.42-2.05-.92-.5-.4-.94-.99-.3-1.5,1.64-1.3.03-1.73-.58-2.42-.86-.98-1.87-1.86-2.58-2.93-1.5-2.25-.53-4.7,2-5.52.58-.19,1.32-.01,1.27.3-.26,1.86,1.36,3.06,1.5,4.7.24,2.7,3.35,5.04,6.04,5.19,3.37.19,6.84.37,9.85,2.49,1.21.85,2.9.63,4.07-.26,1.31-1,2.44-1.59,4.09-.79,1.75.85,1.47,2.1,1.07,3.55-.18.66.49.74.98.83Z"/>
          <path class="cls-19" d="m278.88,416.4c-1.6,2.6-3.16,5.23-4.83,7.78-1.05,1.6-2.5,3.27-4.51,2.77-2.36-.58-2.62-2.7-2.14-4.88.13-.58.07-1.22.25-1.78.43-1.32,1.23-2.58-1.13-2.97-1.02-.17-1.13-1.45-.83-2.3.56-1.61,2.02-2.23,3.48-3,1.17-.61,1.73-2.13,3.49-.9,1.35.95,3.2.56,4.77,1.47,1.21.7,1.84,1.35,2.04,2.6h0c-.52.24-.62.7-.62,1.21v-.02Z"/>
        </g>
        <g>
          <path class="cls-19" d="m316.12,439.75c-.81,2.77-1.39,5.64-3.13,8.1-.69.97-1.76,1.83.52,2.72,2.11.81,2.8,3.07,2.56,5.45-.18,1.84-1.06,2.93-2.88,3.16-1.03.13-1.3.71-1.29,1.61,0,.69.07,1.4-.06,2.06-.18.92-.09,2.21-1.1,2.53-.92.3-1.47-.83-2.02-1.46-1.16-1.33-2.14-2.78-2.75-4.49-.84-2.33-.12-3.97,1.89-5.23,2.55-1.59,2.84-2.82,1.16-5.33-.47-.71-.59-1.4-.65-2.2-.22-3.06,1.16-5.74,2.11-8.49.46-1.33,1.69-2.47,3.52-1.87,1.68.55,2.33,1.69,2.12,3.45Z"/>
          <path class="cls-19" d="m307.17,447.51c.12,2.02-1.19,3.12-2.78,3.75-1.65.66-2.93-.5-3.68-1.73-1.27-2.08-2.26-4.33-3.32-6.54-.53-1.12-.14-2.17.64-2.99.79-.83,1.82-1.08,2.98-.73,3,.91,6.23,5.2,6.16,8.23Z"/>
        </g>
        <g>
          <path class="cls-19" d="m276.41,463.42c.82-2.47,1.48-5.02,2.51-7.4,1.29-2.99,3.95-3.34,6.5-1.38,2.14,1.65,3.46,4,5.36,5.87,1.09,1.07,1.23,2.91.96,4.59-.98,6.06-3.16,11.82-4.42,17.81-.3,1.43-1.12,2.55-2.62,2.95-2.29.64-4.25.78-6.63-.44-5.27-2.71-13.71-12.67-14.02-14.2-.21-1-1.97-14.53,3.02-17.19,2.05-.13,6.99,5.59,8.72,11.93.22-.89.42-1.71.62-2.52Z"/>
          <path class="cls-19" d="m289.4,485.49c1.96-7.79,2.93-15.83,5.96-23.35.69-1.72,2.39-2.64,4.24-2.54,2.21.12,3.1,1.91,3.42,3.77.87,5.03,1.31,10.13,1.24,15.23-.04,2.87.54,4.59,3.75,5.63,3.03.98,6.35,2.6,6.18,6.98-.13,3.57-1.43,5.46-5,5.56-4.43.12-8.74-.9-12.6-3.12-1.44-.83-2.66-1.82-4.43-1.74-1.22.06-1.77-.65-2.01-1.85-.3-1.51-.77-2.97-.75-4.58Z"/>
          <path class="cls-19" d="m297,496.79c-1.89-1.44-4.82-2.28-7.1-2.12-2.22.16-5.24,4.31-6.02,4.99-1.04,1.87-.79,3.28-.19,6.4.03.18.09.43.16.71l9.06,8.2c2.16-1.65,1.73-4.66,2.49-6.69,1.98,1.33,3.29,2.21,5.69,2.03,2.26-.17,3.71-.98,4.2-2.29.67-1.83-.16-4.55-1.59-5.92-2.39-2.28-4.19-3.4-6.7-5.31Z"/>
          <path class="cls-19" d="m283.38,497.52c.48-.77,1.07-1.5,1.41-2.33.69-1.66.88-3.43-.27-4.94-.95-1.26-2.47-.89-3.68-.53-1.82.55-1.55,2.27-1.86,3.78-.4,1.92-1.19,5.13-1.6,7.42l2.09,1.89c.73-2.17,2.32-4.46,3.91-5.29Z"/>
          <path class="cls-19" d="m277.4,492.54c-.46-2.41-3.64-4.53-5.23-5.11-2.41-.89-2.59-2.27-3.9-3.65,1.48,4.32,2.99,8.65,4.54,13.01l.25.23c1.11-.16,1.93-.37,2.14-.42,2.17-.59,2.55-2.17,2.2-4.05Z"/>
        </g>
        <path class="cls-19" d="m313.3,500.91c-1.03,2.46-.79,6.56,1.69,10.29,1.49-2.81,2.94-5.82,4.35-8.98-2.5-1.63-5.34-2.98-6.05-1.31Z"/>
        <path class="cls-19" d="m298.21,360.75c0,.09-.02.18-.02.27l-.1-.39c-8.62-8.93-17.71-15.81-27.59-19.18-.59.79-1.06,1.71-1.44,2.72-.59-1.01-1.91-1.05-3.32-.97-4.68,5.23-8.85,10.56-12.49,16.02-.52,3.18-.85,6.01-.6,7.71,1.96,2.15,3.75,2.68,5.28.77,0,0,3.49,3.29,4.99,3.2,1.5-.09,5.57-4.41,5.57-4.41,0,0,3.58.17,4.84-.29,1.08-.39.25-6.66-.85-11.85,2.13,6.26,4.63,12.38,7.5,18.35-.94,3.27,1.08,3.9,2.47,2.74,1.17-.95.56-3.08-1.45-3.61l-4.05-15.18c4.69,5.39,9.69,9.74,15.9,10.05,1.96-.07,3.82-.74,5.57-2.17.9,1.38,2.25,2.14,4.63,1.52.02,0,.03-.01.04-.02-1.61-1.84-3.23-3.62-4.87-5.32Z"/>
        <g>
          <path class="cls-19" d="m238.99,384.11c.06.25.12.5.18.74,2.69,2.58,8.4,7.65,11.53,7.65,4.19,0-.43-26.13-.43-26.13-.25-.43-.5-.8-.76-1.14-2.89,4.96-5.33,10.02-7.27,15.2l-3.25,3.68Z"/>
          <path class="cls-19" d="m245.42,399.45c-1.63-4.05-3.35-7.92-5.41-11.14,1.57,6.38,3.2,12.77,4.91,19.19.4-2.31.47-5.13.49-8.05Z"/>
        </g>
        <path class="cls-19" d="m257.87,437.14c-1.82-1.08-3.37-.63-4.44.43,1.97,6.61,4.02,13.26,6.15,19.94,1.44-8.28,2.04-15.93-1.71-20.37Z"/>
        <g>
          <path class="cls-19" d="m327.82,481.37c.22-.57.44-1.14.66-1.72-.18-2.73-.36-5.45-.55-8.15-.37.1-.71.25-1.01.45-1.14,3.57-.72,6.67.89,9.41Z"/>
          <path class="cls-19" d="m327.71,468.33c-.76-10.37-1.65-20.49-2.77-30.21-.73.82-.91,2.29-.49,4.52-.66-1.14-1.39-1.62-2.19-1.16-.88,7.07,2.75,16.79,5.19,25.81.07.38.15.72.25,1.04Z"/>
        </g>
        <path class="cls-19" d="m306.43,521.73c-.54.03-1.13-.99-1.66-.99-.45,0-1.68,1.57-2.03,3.12l1.96,1.77c1.56-1.45,3.06-3.16,4.51-5.1-.26-.2-.48-.32-.61-.32-.49,0-1.63,1.49-2.17,1.52Z"/>
      </g>
      <g>
        <polygon class="cls-21" points="218.17 345.9 211.45 376.21 228.58 403.31 218.17 345.9"/>
        <path class="cls-19" d="m219.58,353.68l-1.41-7.78-6.05,27.28c1.11.2,2.08-.96,3.02-2.33,1.56-5.81,3.3-11.82,4.45-17.17Z"/>
        <g>
          <path class="cls-19" d="m223.59,382.13c-3.16-.11-5.38.81-6.93,2.47l6.69,10.58c1.23-3.52.88-8.19.25-13.05Z"/>
          <path class="cls-19" d="m223.08,376.93c.14-.43.26-.83.39-1.24l-2.3-12.68c-2.36,3.3-5.69,10.39-9.39,13.88l2.73,4.31c.04-.19.08-.38.14-.58,4.7,1.1,7.16-.57,8.44-3.69Z"/>
        </g>
      </g>
      <g>
        <path class="cls-21" d="m256.19,622.78c.22-24.17,3.09-45.57,10.55-62.17,6.98,16.81,10.48,38.35,12.29,62.17h-22.84Z"/>
        <g>
          <path class="cls-19" d="m257.28,600.67c1.38.07,2.47-.37,3.22-1.61.81-1.34,2.14-1.92,3.59-2.33,3.12-.89,4.03-3.15,2.31-5.93-1.45-2.36-1.91-5.7-5.66-5.92-.21-.01-.37-.82-.55-1.26-.16,0-.32.01-.48.01-1.06,5.41-1.87,11.09-2.43,17.03,0,0,0,0,.01,0Z"/>
          <path class="cls-19" d="m260.38,580.36c.29-.02.6-.04.96-.07,6.42.65,5.9-7,5.9-7-.24-1.26-.94-5.35-1.75-9.73-2.1,5.18-3.78,10.8-5.11,16.79Z"/>
        </g>
        <path class="cls-19" d="m264.29,613.34c-1.01-3.4-5.35-3.97-7.07-6.99,0,0-.06,0-.06,0-.12-.05-.23-.09-.35-.13-.37,5.35-.58,10.88-.63,16.57h7.52c1.55-3.06,1.49-6.38.58-9.45Z"/>
        <path class="cls-19" d="m279.04,622.78c-.12-1.55-.24-3.08-.38-4.61-4.34-1.35-8.18.71-8.63,4.61h9.01Z"/>
        <path class="cls-19" d="m274.52,587.51c-4.59-.31-4.61,3.32-4.23,7.3,1.23,4.36,3.38,6.81,6.59,7.06-.67-4.95-1.45-9.74-2.36-14.37Z"/>
      </g>
    </g>
  </g>
  <g id="Calque_12" data-name="Calque 12">
    <path class="cls-7" d="m320.56,203.58c3.05,23.78,4.96,33.56,4.53,40.18-3.05,8.29-12.04,27.18-17.24,35.24-13.7,5.05-32.57,2.52-53.31-.65-18.36-2.8-23.06-27.98-28.96-44.01-11.69-31.73-4-59.54,23.69-69.74,27.69-10.2,59.61,7.26,71.29,38.98Z"/>
    <path class="cls-29" d="m234.3,234.34c5.47,14.96,19.95,40.68,15.67,41.52s-27.16-37.58-30.23-53.21c-3.07-15.63-2.09-28.98,2.19-29.82s6.93,26.63,12.36,41.51Z"/>
    <path class="cls-29" d="m299.87,187.49c8.54,10.61,20.59,33.17,23.43,29.87s-14.53-38.08-24.81-46.91c-10.28-8.83-20.92-13.31-23.76-10.01-2.84,3.31,16.64,16.5,25.13,27.05Z"/>
    <ellipse class="cls-20" cx="252.24" cy="208.01" rx="5.42" ry="3.52" transform="translate(-40.83 63.09) rotate(-13.2)"/>
    <path class="cls-20" d="m282.58,197.48c0-1.25,2.3-5.18,2.89-6.03.91-1.31-.36-3.76-1.59-3.76-1.34,0-3.46,3.42-5.06,3.98-1.87.65-3.4,2.65-3.4,5.81s1.6,5.72,3.58,5.72,3.58-2.56,3.58-5.72Z"/>
  </g>
  <g id="nez">
    <path class="cls-20" d="m286.63,231.9s3.14,15.83,3.69,16.55,8.79,1.95,9.29,1.66,1.05-7.68-.25-9.66-12.72-8.56-12.72-8.56Z"/>
    <path class="cls-3" d="m300.14,241.27c.76,1.69.57,3.35-.54,4.99"/>
  </g>
  <g id="bouche">
    <path class="cls-20" d="m283.52,270.94c7.78-4.05,14.53-7.27,18.98-10.63,0,0,1.21,7.66-2.08,10.63s-16.9,0-16.9,0Z"/>
    <path class="cls-8" d="m283.3,270.94c7.78-4.05,14.75-8.35,19.19-11.71,0,0-.14,5.78-3.43,8.75s-15.76,2.96-15.76,2.96Z"/>
    <path d="m299.33,273.17c.64-.49,1.25-1.02,1.8-1.51.2-.11.38-.13.71-.32l.1.02c.39.72-.3,1.36-.93,1.48-.54.21-1.08.32-1.63.42l-.04-.09h0Z"/>
    <path d="m305.44,255.94c-.8,2.45-2.97,4.22-5.36,5.03,1.63-2,3.4-3.37,5.36-5.03h0Z"/>
  </g>
  <g id="cheveux">
    <g>
      <path class="cls-16" d="m303.11,290.82c-1.48,8.6,5.71,16.75,5.71,16.75l13.66,7.54,2.49,4.55,3.47,2.39,31.75,28.08s.38-6.54-2.26-11.93c-2.64-5.39-13.55-12.9-24.83-27.33-6.58-13.34-1.59-58.22-1.52-68.2.07-9.98-5.2-40.98-6.94-49.29s-10.76-28.36-17.4-35.95c-6.64-7.59-32.7-29.02-42.23-31.45-9.54-2.42-8.61-1.73-29.35-4.12-20.74-2.39-39.94,11.28-48.39,18.43-6.7,5.67-18.18,21.97-20.13,25.3-1.96,3.34-4.52,20.57-5.64,27.78-1.11,7.21,5.78,32.53,8.24,38.57,2.46,6.05,17.53,25.24,24.9,30.01,5.52,3.57,29.09,17.23,30.9,19.41,1.81,2.18,4.28,5.69,4.28,5.69,0,0-.63-6.45,1.5-4.28,3.12,9.35,13.41,26.02,17.53,31.88,3.58,5.09,17.06,18.65,21.29,19.05,0,0-20.57-29.15-24.22-38.24,9.43,11.06,41.96,21.59,45.65,22.88,4.28,3.69,8.4,8.08,13.12,18.11-21.4,6.72-34.55-2.75-34.55-2.75,1.16,2.82,8.31,6.4,8.31,6.4,0,0,10.14,5.02,17.3,4.37,7.16-.65,10.82,1.69,10.82,1.69,0,0-2.48,16.68,4.03,24.12,7.97,9.11,17.58,9.58,17.58,9.58,13.84,8.42,16.81,3.45,19.37-2.03,0,0-4.86,4.02-9.25,3.77-9.76-3.02-.29-23.73-.29-23.73,3.1-7.01-3.49-15.64-14.17-24.96l-15.04-10.44s-12.58-7.37-21.58-12.11c-9-4.73-25.25-22.81-32.7-31.7-7.45-8.89-21.11-35.86-26.61-47.71-5.49-11.86-6.22-34.93.43-44.4,6.65-9.47,29.39-23.58,41.04-24.99,11.66-1.41,41.44,32.29,43.75,34.48,2.31,2.19,6.53,11.85,7.23,16.8.69,4.95,4.05,22.26,4.05,28.82s-15.26,36.56-16.48,37.65-3.69,4.78-4.84,11.49Z"/>
      <path d="m303.61,290.91c-.95,5.89,1.94,11.85,5.58,16.34-.66-.42,13.64,7.5,13.53,7.43,0,0,.13.07.13.07l.07.13,2.49,4.55-.16-.17,3.47,2.39s31.75,28.08,31.8,28.12c0,0-.83.35-.83.35.1-3.99-.51-8.14-2.23-11.73-1.94-3.49-5.2-6.22-8.01-9.07-5.93-5.73-11.75-11.66-16.8-18.2-2.1-4.65-2.6-9.73-3.05-14.73-1.02-14.94.09-29.92,1.02-44.82.33-4.96.7-9.87.13-14.83-.93-9.89-2.5-19.73-4.11-29.53-.84-4.89-1.65-9.83-2.72-14.64-2.64-9.5-6.98-18.6-11.83-27.18-4.78-8.8-12.81-15.01-20.36-21.34-7.74-6.12-15.56-12.45-24.51-16.7-4.59-1.75-9.54-2.53-14.41-3.09,0,0-14.85-1.59-14.85-1.59-4.93-.68-9.84-.74-14.73.1-14.35,2.53-28.21,10.71-38.6,20.79-5.88,6.35-11.08,13.4-15.95,20.56-2.23,2.99-2.67,6.76-3.49,10.34-.49,2.43-.93,4.88-1.35,7.33l-1.19,7.36c-.28,2.26-.97,5.07-.75,7.31.3,4.9,1.34,9.79,2.4,14.63,1.72,7.18,3.46,14.54,6.19,21.39,3.48,6.52,8.28,12.35,13.01,18.02,3.24,3.7,6.58,7.46,10.48,10.45,3.42,2.34,9.04,5.57,12.67,7.8,5.32,3.22,10.68,6.41,15.89,9.83,1.54,1.02,3.28,2.13,4.33,3.73,1.15,1.43,2.27,3.05,3.34,4.52,0,0-.91.34-.91.34-.05-1.24-.6-5.63,1.53-5.23.46.15.63.38.9.62,0,0,.04.12.04.12,4.31,11.39,10.89,21.88,17.63,31.97,4.12,5.33,9.02,10.12,14.14,14.5,1.97,1.55,4.22,3.56,6.62,4.11,0,0-.46.79-.46.79-4.34-6.19-8.59-12.43-12.75-18.75-4.66-7.24-9.53-14.42-12.78-22.47,0,0,2.1,2.37,2.1,2.37,2.78,3.14,6.38,5.54,10.04,7.7,11.17,6.41,23.31,10.91,35.48,15.06,2.91,2.47,5.57,5.3,7.74,8.46,2.29,3.27,4.14,6.8,5.83,10.4-5.9,1.9-12.13,2.9-18.35,2.53-6.03-.41-12.03-1.88-17.2-5.17,0,0,.75-.6.75-.6,1.59,2.71,4.81,4.26,7.47,5.83,5.81,2.76,12.27,5.23,18.81,4.56,3.51-.14,7.08.21,10.22,1.99,0,0-.04.34-.04.34-.79,7.84-1.18,17.86,4.29,24.11,4.35,4.83,10.51,8.37,17,9.03,3.29,1.96,6.83,3.95,10.65,4.44,4.22.63,6.63-2.65,8.11-6.2,0,0,.77.6.77.6-2.8,2.12-6.01,3.97-9.66,3.88-1.23-.36-2.41-1.11-3.19-2.16-3.34-5.12-.94-12.25.7-17.59.58-1.58,1.24-3.42,1.94-4.97,1.09-2.65.59-5.6-.59-8.2-3.02-6.36-8.39-11.23-13.57-15.89.22.16-15.04-10.44-14.99-10.41-6.62-3.85-13.66-7.88-20.54-11.55-3.58-1.78-6.69-4.35-9.67-6.93-8.84-7.89-16.8-16.69-24.43-25.75-4.89-6.26-8.68-13.2-12.53-20.11-3.78-6.92-7.39-13.93-10.85-21.01-1.69-3.58-3.59-7.08-4.75-10.89-1.18-3.81-1.88-7.73-2.29-11.67-.4-3.94-.5-7.92-.24-11.88.47-5.88,1.42-12.13,4.92-17.08,4.06-4.33,8.59-8.21,13.45-11.62,6.5-4.48,13.45-8.25,20.75-11.29,3.66-1.5,7.89-2.98,11.73-1.27,3.78,1.45,7.08,3.73,10.25,6.08,9.44,7.21,17.75,15.68,25.9,24.26,1.29,1.36,2.83,2.95,4.06,4.37,1.22,1.66,2.09,3.44,2.95,5.24,1.64,3.63,3.13,7.36,3.74,11.33,0,0,1.94,11.64,1.94,11.64.83,5.36,1.79,10.74,2.03,16.18.12,2.56-.88,5.02-1.65,7.35-3.85,10.19-8.6,19.94-13.77,29.5-.3.54-.63,1.1-.99,1.62-2.93,3.05-4.16,7.4-4.93,11.49h0Zm-1.01-.17c.81-4.25,2.03-8.68,5.1-11.92.33-.49.63-1.01.93-1.53,5.12-9.48,9.87-19.28,13.66-29.35.7-2.06,1.47-4.12,1.6-6.24-.17-5.63-1.19-11.19-2.06-16.75-1.38-7.67-1.98-15.63-5.58-22.69-.83-1.75-1.71-3.53-2.82-5.04-1.03-1.31-2.85-2.99-3.98-4.28-8.09-8.55-16.39-17.03-25.73-24.18-3.13-2.33-6.4-4.58-9.99-5.96-1.79-.7-3.65-.96-5.53-.54-5.8.98-11.3,3.32-16.44,6.16-7.62,4.37-15.28,9.2-21.2,15.76-6.73,8.6-7,20.27-6.1,30.73.4,3.89,1.1,7.75,2.25,11.48,1.14,3.74,3.02,7.21,4.69,10.74,3.45,7.07,7.05,14.07,10.83,20.97,3.81,6.83,7.62,13.79,12.43,19.95,7.58,8.99,15.53,17.79,24.31,25.63,2.96,2.56,5.99,5.06,9.48,6.8,6.96,3.72,13.8,7.63,20.61,11.59.03.02,15.04,10.44,15.07,10.46,6.31,5.78,17.94,15.75,14.47,25.25-2.33,5.7-6.42,16.04-2.77,21.58.65.87,1.58,1.47,2.62,1.79.77-.03,3.34-.34,4.57-1.09,2.15-.89,4.1-2.49,5.92-3.92-1.24,2.36-2.1,5.08-4.2,6.99-4.79,4.35-13-.48-16.57-2.74-7.71-.91-14.97-5.31-19.32-11.68-1.99-3.41-2.73-7.3-3.06-11.11-.3-3.83-.19-7.66.3-11.48l.23.49c-2.77-1.49-6.22-1.83-9.37-1.69-1.62.13-3.4.2-5.04-.04-6.62-.99-13.05-3.46-18.58-7.26-1.4-1.06-2.83-2.03-3.63-3.71,0,0-.67-1.53-.67-1.53l1.42.93c10.09,6.24,23.04,6.17,34.11,2.68,0,0-.3.69-.3.69-1.6-3.38-3.37-6.68-5.5-9.73-1.87-2.87-5.3-6.32-7.34-8.12-8.13-2.74-16.21-5.73-24.06-9.26-7.75-3.66-15.89-7.37-21.81-13.77,0,0,.84-.51.84-.51,3.09,6.8,7.41,13.11,11.44,19.42,4.14,6.3,8.39,12.55,12.73,18.72l.65.93c-3.31-.19-5.8-2.57-8.28-4.48-6.19-5.36-12.2-11.13-16.61-18.08-5.65-8.89-12.15-19.46-15.35-28.65-.14-.14-.32-.27-.38-.29-.04-.01,0,0,.02-.01.01-.02-.02.03-.06.08-.63,1.76-.16,4.08-.06,5.95-1.37-1.97-2.9-4.09-4.38-5.99-1.03-1.55-2.55-2.48-4.1-3.51-5.19-3.41-10.54-6.58-15.86-9.8-3.64-2.26-9.22-5.41-12.75-7.85-4.01-3.08-7.34-6.83-10.64-10.6-4.81-5.76-9.61-11.58-13.16-18.24-2.81-7.01-4.49-14.29-6.26-21.6-1.07-4.89-2.12-9.78-2.43-14.81-.29-2.38.5-5.19.76-7.51,0,0,1.2-7.38,1.2-7.38.42-2.46.86-4.91,1.35-7.36.82-3.64,1.32-7.6,3.64-10.69,4.92-7.23,10.1-14.27,16.06-20.69,10.52-10.24,24.6-18.52,39.16-21.09,4.94-.86,10.07-.79,15.01-.11,0,0,14.85,1.59,14.85,1.59,4.96.57,10.01,1.36,14.7,3.16,4.61,2.05,8.74,4.9,12.85,7.76,8.12,5.81,15.89,12.09,23.18,18.91,7.51,6.73,11.92,16.12,16.08,25.14,2,4.58,3.9,9.2,5.17,14.09,2.07,9.79,3.57,19.6,5.05,29.48.97,7.41,2.23,14.85,2.1,22.36-.63,12.43-1.71,24.84-1.82,37.27.08,9.6-.25,20.5,3.27,29.16,6.24,8.16,13.8,15.11,21.02,22.38,5.02,4.56,6.55,11.68,6.13,18.26,0,0-.79-.7-.79-.7,0,0-31.9-28.21-31.7-28.05,0,0-3.47-2.39-3.47-2.39l-.1-.07-.06-.1-2.49-4.55.2.2c-.08-.05-13.66-7.54-13.74-7.58-3.9-4.76-6.89-10.95-5.9-17.23h0Z"/>
    </g>
    <path class="cls-13" d="m197.27,252.65c-.77-4.81-1.35-9.54,0-13.45-6.76.31-13.22-8.89-19.73-16.19,6.25,12.8,12.71,23.68,19.73,29.64Z"/>
    <path class="cls-13" d="m251.57,140.24c-3.16,9.55-5.58,18.74-7.01,31.68,9.67-5.48,19.81-12.09,28.92-10.28-9.99-4.36-15.86-13.02-21.9-21.4Z"/>
    <path d="m205.71,144.92c-15.29,3.15-27.2,13.99-39.42,22.99,0,0-.07-.08-.07-.08,9.85-9.7,25.75-21.09,39.49-22.92h0Z"/>
    <path d="m230.75,129.95c-21.05-.61-38.85,5.75-53.29,21.34,0,0-.08-.07-.08-.07,12.47-16.7,33.43-22.75,53.37-21.27h0Z"/>
    <path d="m196.72,151.3c-11.24,4.69-20.47,12.64-29.69,20.38,0,0-.07-.07-.07-.07,3.94-4.63,8.6-8.61,13.66-11.96,4.99-3.29,10.57-6.6,16.1-8.35h0Z"/>
    <path class="cls-13" d="m225.89,156.58s-14.9,13.01-17.78,16.34-6.44,8.53-10.84,13.23-26.96,0-26.96,0c0,0,24.59,12.66,27.96,15.18s5.38,17.91,5.81,21.33,7.42,3.61,7.6,5.99c1.71,21.97,39.62,64.91,57.72,73.42-17.81-11.83-54.28-67.46-54.85-102.15-.37-22.54,11.34-43.34,11.34-43.34Z"/>
    <path class="cls-13" d="m221.15,150.29c-5-.29-8.45.19-11.43.94-8.53,10.5-24.92,18.75-41,27.1,12.88-4.15,25.26-7.8,32.82-6.68,3.23-6.67,10.84-13.94,19.6-21.36Z"/>
    <path class="cls-13" d="m305.78,329.42c2.85,8.73,6.23,15.56,10.41,19.52l8.53,9.69c1.94-3.33,3.32-7.17,3.76-11.86-7.81-5.28-16.51-14.42-22.7-17.35Z"/>
    <path class="cls-13" d="m330.45,252.76s-7.03,31.48-7.03,37.92,3.07,18,7.95,24.58,24.07,22.36,28.35,32.49c-1.57-7.92-.81-9.16-6.18-14.31-4.16-3.99-16.47-15.74-20.77-22.23-3.69-8.73-3.58-22.77-3.58-22.77l1.25-35.67Z"/>
    <path class="cls-13" d="m321.18,271.36c-.33.16-5.06,7.46-6.07,10.68s-.51,9.22,0,17.46,9.65,14.96,9.65,14.96c-4.77-13.99-6.54-28.29-3.58-43.1Z"/>
    <path d="m188.69,158.69c-8.88,3.53-15.65,10.47-23.48,15.71,0,0-.06-.08-.06-.08,3.26-3.47,6.97-6.48,10.94-9.1,3.89-2.55,8.24-5.43,12.61-6.54h0Z"/>
    <path d="m194.98,175.38c-9.08,3.36-18.98,6.31-28.73,4.68,0,0,0-.1,0-.1,4.88-.21,9.68-.54,14.51-1.21,4.77-.64,9.71-2.21,14.21-3.37h0Z"/>
    <path d="m191.19,179.34c-8.35,4.21-18.88,5.71-27.49,1.39,0,0,.03-.09.03-.09,4.57,1.09,9.14,1.87,13.83,1.78,4.65-.04,9.42-1.57,13.63-3.07h0Z"/>
    <path d="m196.69,202.49c-12.48-2.53-26.57-7.02-33.63-18.45,0,0,.08-.06.08-.06,8.41,10.15,21.23,15.42,33.55,18.51h0Z"/>
    <path d="m191.17,204.47c-12.13-.33-25.98-7.52-28.12-20.44,0,0,.1-.02.1-.02,4.33,12.51,15.46,19.12,28.02,20.46h0Z"/>
    <path d="m200.8,255.41c-15.85-7.27-28.51-20.97-32.12-38.31,0,0,.1-.03.1-.03,6.26,17.92,15.36,29.42,32.03,38.34h0Z"/>
    <path class="cls-13" d="m232.05,130.12c-1.81-6.4,12.18-6.43,11.78-.72h4.19s-1.16-5.34-1.16-5.34c-6.29-1.82-13.93-2.49-21.25-1.66-5.05.57-10.1,2.1-13.81,3.46-7.34,2.67-18.43,10.23-18.43,10.23,0,0,10.22-6.26,20.17-8.2,12.94-2.53,18.51,2.24,18.51,2.24Z"/>
    <path d="m209.69,271.18c-3.4-2.9-6.95-5.53-10.89-7.65-11.41-7.27-19.34-18.97-23.91-31.54,0,0,.09-.04.09-.04,6.02,11.74,12.81,23.74,24.09,31.16,1.84,1.24,3.85,2.27,5.58,3.67,1.75,1.39,3.41,2.88,5.1,4.32l-.06.08h0Z"/>
    <path d="m202.55,242.73c-14.69-2.75-34.36-17.34-36.19-33.01,0,0,.1-.02.1-.02,3.93,15.37,21.22,29.35,36.09,33.02h0Z"/>
    <path d="m200.8,239.25c-16.51-6.1-30.57-19.01-37.13-35.45,0,0,.09-.04.09-.04,8.93,16.33,19.88,28.14,37.04,35.49h0Z"/>
    <path d="m200.01,235.93c-18.39-6.43-33.62-22.58-37.17-41.96,0,0,.1-.02.1-.02,5.67,19.21,18.47,34.55,37.07,41.99h0Z"/>
    <path d="m198.93,233.51c-15.13-4.69-29.73-26.52-35.26-40.8,0,0,.09-.04.09-.04,8.01,14.55,19.24,34.64,35.17,40.84h0Z"/>
    <path d="m229.4,178.96c1.19-9.23,2.14-21.31,9.66-27.74,0,0,.07.07.07.07-6.17,7.87-7.9,18.3-9.74,27.67h0Z"/>
    <path d="m235.18,163.94c2.71-8.14,5.09-16.71,10.42-23.61,0,0,.33.55.33.55-9.96,2.1-16.37,10.98-19.87,19.99-1.32,2.97-2.15,6.49-3.27,9.37,1.24-6.53,3.25-13.04,6.91-18.66,3.64-5.65,9.45-10.01,16.09-11.35,0,0,.96-.2.96-.2-5.89,6.73-8.37,15.95-11.56,23.92h0Z"/>
    <path class="cls-13" d="m254.6,124.59l-2.82,11.17,4.12,4.23s3.69-3.04,9.22,0,9.54,6.18,12.25,8.67,23.63,9.29,29.2,14.49,21.4,52.34,21.4,52.34c-2.24-30.21-16.12-52.26-21.4-58.41-5.7-6.63-30.56-26.37-38.42-29.3-5.59-2.08-13.55-3.2-13.55-3.2Z"/>
    <path d="m233.23,180.21c2.79-13.54,5.3-27.7,12.58-39.68,0,0,.09.05.09.05-2.76,6.39-5.09,12.89-7.25,19.5-2.14,6.55-3.63,13.67-5.43,20.14h0Z"/>
    <path d="m238.43,176.23c.49-4.96,1.25-9.89,2.18-14.78.93-4.82,1.93-10.09,3.99-14.4-.82,4.92-2.01,9.73-3.2,14.57-1.2,4.77-1.94,9.99-2.97,14.62h0Z"/>
    <path d="m246.82,172.89c4.36-10.19,3.58-21.63,5.78-32.35,0,0,.1,0,.1,0,.05,5.53-.47,11.03-1.4,16.48-.98,5.29-1.72,11.35-4.48,15.87h0Z"/>
    <path d="m254.77,167.7c1.58-6.48,1.89-13.25.37-19.77-.46-2.17-1.01-4.33-1.46-6.53l.83-.13c1.07,5.91,1.23,12.01.27,17.95-.28,1.98-.64,3.94-1.07,5.9l-.1-.02c.79-7.91,1.26-15.83.07-23.73,0,0,.83-.13.83-.13.78,4.37,1.97,8.74,2.08,13.22.09,4.39-.45,9.24-1.82,13.23h0Z"/>
    <path d="m262.43,165.12c-.99-9.77-3.54-19.39-8.81-27.74,0,0,.08-.06.08-.06,3.5,3.57,5.58,8.33,6.73,13.14,1.15,4.73,2.04,9.97,2,14.66h0Z"/>
    <path d="m266.92,160.85c-2.22-9.12-6.87-17.19-12.13-24.85,0,0,.08-.06.08-.06,6.68,6.39,10.53,16.12,12.06,24.91h0Z"/>
    <path d="m226.24,178.99c-2.37,5.22-3.79,10.85-3.86,16.54-.04,5.72,1,11.35,1.44,17.06,0,0-.1.02-.1.02-3.23-10.93-3.26-23.72,2.52-33.62h0Z"/>
    <path d="m216.63,184.7c-1.01,14.22,4.66,27.49,9.31,40.6,0,0-.09.04-.09.04-6.26-11.97-10.87-27.24-9.22-40.64h0Z"/>
    <path class="cls-27" d="m222,272.99c-4.91-1.13-18.66-11.45-20.03-14.42s-1.24-13.71-.58-14.6c.6-.81,1.58.31,1.58.31,4.63,10.08,11.06,19.62,19.03,28.71Z"/>
    <g>
      <path class="cls-20" d="m206.93,251.71s-.65,4.93,0,6.4,7.27,5.42,7.27,5.42"/>
      <path d="m206.98,251.71c-.02,2.04-.49,4.64.43,6.48,2.1,1.94,4.74,3.24,6.81,5.29,0,0-.05.09-.05.09-2.8-1.04-5.37-2.65-7.33-4.93-.6-.93-.45-2.04-.44-3.05.09-1.31.26-2.6.49-3.88h.1Z"/>
    </g>
    <path d="m202.02,226.07c5.34,20.81,16.58,39.6,29.58,56.5,0,0-.53.48-.53.48-10.26-9.75-19.31-20.9-26-33.41-6.69-12.46-10.88-26.47-10.95-40.66.91,13.88,5.05,27.86,11.83,40.19,6.68,12.39,15.49,23.6,25.62,33.36,0,0-.53.48-.53.48-12.79-16.99-24.29-36.22-29.02-56.94h0Z"/>
    <path d="m215.18,203.21c.58,23.37,23.16,57.23,38.62,74.48,0,0-.07.07-.07.07-15.32-14.94-26.52-33.88-34.29-53.72-2.29-6.6-4.66-13.96-4.26-20.83h0Z"/>
    <path d="m317.6,328.64c-9.83-4.63-20.18-7.95-30.36-11.72,5.22.46,10.63,2.76,15.6,4.76,4.92,2.13,10.33,4.24,14.76,6.95h0Z"/>
    <path d="m327.88,355.32c-2.42,7.86-3.44,18.4,1.74,25.35,0,0-.07.07-.07.07-6.73-5.14-4.66-18.84-1.67-25.42h0Z"/>
    <path d="m329.86,350.13c-.21-8.28-6.34-14.3-10.94-20.58,0,0,.07-.07.07-.07,5.78,4.58,11.54,13.19,10.87,20.65h0Z"/>
    <path d="m328.75,353.61c4.5-2.92,1.94-8.56-.06-12.26-.67-1.39-1.4-2.75-2.02-4.2l.08-.06c3.67,3.71,8.31,13.52,1.99,16.52h0Z"/>
    <path d="m318.63,259.22c.3,3.71-1.14,9.01-1.69,12.71-2.06,11.89-4.55,26.45,2.05,37.29,0,0-.08.06-.08.06-8.25-10.55-4.73-25.39-2.46-37.45.76-3.63,2.09-9.09,2.18-12.61h0Z"/>
    <path d="m329.09,322.71c-.75-4.09-4.03-7.08-6.85-9.9,0,0,.37-.37.37-.37,1.93,1.92,3.98,3.7,6.11,5.4,6.12,5.05,14.43,9.59,17.08,17.36-2.64-4.84-6.99-8.2-11.19-11.61-4.23-3.42-8.6-6.79-12.37-10.78l.37-.37c2.76,2.94,5.96,6.1,6.57,10.27,0,0-.1.01-.1.01h0Z"/>
    <path d="m317.22,263.61c-.39,7.09-2.26,14.11-4.11,20.94,0-5.13.66-10.48.41-15.58,0,0,.1-.02.1-.02.31.92.48,1.89.58,2.86.32,2.89.22,5.81-.02,8.69l-.93-.16c1.86-5.38,3.03-11.3,3.98-16.72h0Z"/>
    <path d="m320.99,312.06c-10.76-6.62-12.64-20.5-12.21-32.1,0,0,.76.25.76.25-4.68,6.66-6.02,15.31-1.87,22.57,1.25,2.37,2.84,4.58,4.61,6.64l-.07.07c-9.06-8.59-10.83-19.44-3.35-29.75,0,0,.83-1.2.83-1.2l-.07,1.45c-.68,11.75,1.1,24.99,11.37,32.07h0Z"/>
    <path d="m279.51,148.36c15.78,7.28,26.87,25.06,33.52,40.56,2.11,5.51,4.3,11.44,5.34,17.07-1.94-5.63-3.9-11.24-6.26-16.68-6.96-16.03-16.77-32.7-32.6-40.95h0Z"/>
    <path d="m272.19,159.78c17.5,6.69,32.76,19.24,42.71,35.12,0,0-.08.06-.08.06-11.99-15.26-24.71-27.51-42.63-35.18h0Z"/>
    <path d="m327.09,239.21c-1.24-10.11-2.61-20.55-7.51-29.63,0,0,.08-.06.08-.06,3.5,3.92,4.92,9.23,5.81,14.29.85,5.03,1.62,10.49,1.62,15.4h0Z"/>
    <path class="cls-11" d="m249.94,137.86c-.98-.76-1.74-1.97-2.97-4.58-1.71-3.63-.93-11.9-.97-15.54-.06-5.53,1.44-10.68,2.67-13.25.48-1.01,1.31,3.03,1.6,1.96,1.01-3.69,2.47-7.49,4.71-10.69-.26,2.08,4.17,17.43,7.6,16.57,2.05-.52,1.73-.52,2.59-.66,2.74-.46-.72,2.67,1.37,1.89,2.67-.99,3.02-.94,3.02-.94.62-.2-1.82,4.58-.92,5.64-5.33,1.43-13.33,11.48-15.87,18.2l-2.84,1.4Z"/>
    <g>
      <path d="m250.14,133.17c-3.52-12.45-2.56-26.55,4.63-37.55,0,0,.09.05.09.05-5.76,13.22-7.6,23.42-4.72,37.51h0Z"/>
      <path d="m252.89,135.61c1.24-7.86,2.39-22.48,12.11-24.11,0,0,.02.1.02.1-4.56,1.69-6.88,6.05-8.58,10.32-1.73,4.34-2.43,9.36-3.55,13.69h0Z"/>
      <path d="m252.89,135.6c2.52-8.22,6.84-21.4,16.5-23.15,0,0,.02.1.02.1-4.62,1.79-7.71,5.73-10.35,9.75-2.64,4.08-4.38,9.01-6.17,13.3h0Z"/>
    </g>
    <g id="Calque_9" data-name="Calque 9">
      <path class="cls-13" d="m256.98,105.44c-5.26,3.33-5.16,9.13-4.29,15.53,1.6-4.04,3.07-7.23,7.12-9.78-1.33-1.87-2.04-3.81-2.82-5.75Z"/>
    </g>
    <path class="cls-11" d="m246.87,138.44c.42-.1,6.12-1.72,6.49-2.17.38-.46-.61,3.54-3.24,3.55s-3.85-1.23-3.24-1.38Z"/>
    <path class="cls-3" d="m221.93,272.99c-4.91-1.13-18.66-11.45-20.03-14.42s-1.24-13.71-.58-14.6c.6-.81,1.58.31,1.58.31"/>
  </g>
  <g id="oeil">
    <g>
      <path class="cls-13" d="m270.72,246.72c.62-3.6-2.17-17.68-12.95-17.93-7.74-.18-11.73.34-16.06,6.19-4.32,5.86-3.86,14.19-2.47,16.78s8.34,9.7,17.16,8.47c5.8-.81,13.7-9.91,14.31-13.52Z"/>
      <path d="m270.69,246.72c.28-6.03-2.33-13.03-7.62-16.3-3.66-2.09-8.2-1.52-12.22-1.13-6.34.85-10.7,6.85-11.86,12.81-.64,3.92-.94,8.62,2.15,11.59,5.78,6.21,15.1,9.04,21.93,2.78,3.1-2.65,6.37-5.77,7.61-9.76h0Zm.07.01c-1.2,4.05-4.38,7.26-7.4,10.09-6.94,6.85-16.76,3.86-22.75-2.63-3.21-3.12-2.93-8.12-2.2-12.2,1.23-6.14,5.83-12.31,12.37-13.12,4.14-.38,8.71-.89,12.42,1.32,5.26,3.38,7.89,10.47,7.56,16.54h0Z"/>
    </g>
    <path class="cls-31" d="m241.45,242.57c1.34,3.72,8.81,13.59,14.93,14.06,1.53.12,6.2,1.03,5.6-8.39s-10.96-19.59-10.96-19.59c-3.63,1.96-7.83,5.58-10.15,8.67-.76,1.01.14,4.03.58,5.24Z"/>
    <path class="cls-18" d="m244.38,247.45c-.62-1.09-1.22-1.59-2.01-3.01-1.23-2.22-1.78-4.53-1.73-5.74.09-2.19,2.21-3.93,3.98-5.64,3.09-2.3,5.6-4.71,6.91-3.73,1.39,1.02,6.44,7.62,6.65,8.49-.86,1.38-1.65,3.2-.88,4.76,1.08,2.18,1.77,4.52,1.6,6.94-.22,3.15-2.9,3.88-5.59,2.06-1.01-.68-4.48-5.37-5.09-5.37-1.41,0-2.32,1.47-3.85,1.25Z"/>
    <ellipse cx="251.59" cy="242.57" rx="2.37" ry="7.32" transform="translate(-87.58 158.29) rotate(-30)"/>
    <ellipse class="cls-13" cx="251.59" cy="234.61" rx="3.43" ry="5.86" transform="translate(-81.57 148.93) rotate(-28.58)"/>
    <path d="m266.34,230.31s-8.52-3.22-13.77-2.52c-4.77.64-9.33,3.47-12.36,6.07-2.53,2.17-4.77,8.4-4.55,10.69.25,2.75,3.27,7.3,3.27,7.3,0,0-1.25-8.1,1.72-13.16,1.07-1.84,5.14-7.08,9.43-8.96,3.98-1.73,16.26.58,16.26.58Z"/>
    <path d="m227.83,226.05c1.83-4.92,5.38-8.96,8.88-12.78,3.5-3.86,7.62-7.45,12.75-8.94,0,0,.09.18.09.18-5.79,5.09-12.02,9.55-17.11,15.37-1.69,1.91-3.29,3.94-4.42,6.25l-.19-.07h0Z"/>
    <path d="m252.48,224.66c2.86-2.06,6.75-2.49,10.11-1.61-3.48.52-6.67.83-10.11,1.61h0Z"/>
    <path d="m253.21,228.02c3.14-1.61,7.04-1.48,10.24-.1-3.52,0-6.72-.15-10.24.1h0Z"/>
    <path class="cls-24" d="m241.16,253.46s13.31-14.68,15.03-15.82,7.22-4,10.96-2.79c.62.2-.7-1.61-1.43-2.28-3.43-3.14-4.2-2.99-6.99-3.29-1.71-.05-4.29-.47-6.51-.06s-4.09,1.5-5.12,2.39c-1.24.66-5.92,5.31-7.55,9.59-.77,2.04-.9,4.28-.95,5.44-.04.93-.13,3.74.12,4.81.46,2,1.63,2.14,2.44,2.01Z"/>
    <path d="m230.38,252.49c3.63-.81,5.43-4.01,6.83-7.15,0,0,.1.01.1.01.31,1.88-.63,3.76-2.03,4.98-1.33,1.29-3.09,2.12-4.88,2.26l-.02-.1h0Z"/>
    <path d="m231.3,240.6c2.27.31,4-.13,6.18-.32,0,0,.05.08.05.08-.64,1.06-1.98,1.29-3.09,1.1-1.11-.1-2.16-.4-3.17-.77l.02-.1h0Z"/>
  </g>
  <g id="oeil-2" data-name="oeil">
    <g>
      <path class="cls-13" d="m290.82,215.46c-.43-3.47,5.53-17.24,10.95-17.78s8.24.33,11.28,5.96,2.71,13.66,1.73,16.16-6.85,10.22-11.65,9.33c-4.07-.76-11.88-10.19-12.31-13.66Z"/>
      <path d="m290.78,215.46c-.09-1.83.56-3.59,1.14-5.3,1.28-3.4,2.93-6.69,5.22-9.52,1.18-1.38,2.58-2.79,4.46-3.12,1.81-.2,3.67-.31,5.49.15,7.73,2.02,11.06,18,7.05,24.09-2.8,4.07-8.26,10.37-13.52,6.55-3.01-2.13-5.36-4.98-7.45-7.96-1-1.5-2.03-3.06-2.38-4.87h0Zm.07,0c.38,1.77,1.44,3.3,2.46,4.77,2.14,2.86,4.64,5.6,7.63,7.55,4.87,3.42,9.96-2.74,12.56-6.43,3.89-5.79.82-21.25-6.54-23.27-1.71-.46-3.55-.38-5.32-.19-1.73.27-3.14,1.6-4.31,2.92-2.33,2.76-4.03,6.02-5.32,9.39-.59,1.68-1.25,3.45-1.17,5.25h0Z"/>
    </g>
    <path class="cls-31" d="m292.66,211.99c.65,3.8,5.2,13.68,11.28,14.53,1.52.22,4.88.11,4.88-7.27,0-9.43-8.72-20.39-8.72-20.39-5.55,2.56-8.09,9.33-7.44,13.12Z"/>
    <path class="cls-18" d="m294.74,217.69c-3.38-6.43-2.48-9.49.25-14.33,1.68-3.57,3.76-5.57,5.4-4.15.98.76,5.13,7.78,5.29,8.66-.94,1.32-1.06,2.7-.39,4.31.94,2.24.65,3.97.33,6.37-.42,3.13-2.02,4.87-4.65,3.33-1.05-.61-2.45-1.35-2.91-2.29-.81-1.67-1.8-1.58-3.32-1.9Z"/>
    <ellipse cx="300.33" cy="212.97" rx="2.37" ry="6.3" transform="translate(-65.29 169.61) rotate(-28.58)"/>
    <ellipse class="cls-13" cx="300.04" cy="204.42" rx="3.43" ry="5.86" transform="translate(-61.23 168.42) rotate(-28.58)"/>
    <path d="m290.8,215.49c-.46-.72,1.06-13.8,5.12-17.11,2.85-2.32,7.5-4.41,11.31-3.78,3.29.54,5.57,4.22,6.51,6.33.79,1.79,1.12,6.67,1.12,6.67,0,0-2.82-7.64-6.87-9.13-2-.73-8.59.64-10.66,2.02-1.85,1.24-6.97,11.95-6.53,15Z"/>
    <path d="m288.22,210.2c-.74-3.45.42-7.18,2.58-9.91-.92,3.4-1.91,6.45-2.58,9.91h0Z"/>
    <path d="m279.41,189.42c2.89-3.78,6.54-7.26,10.81-9.42,1.5-.61,3.07-1.07,4.74-1.13l.07.19c-2.48,2.11-5.17,3.41-7.98,4.89-2.7,1.57-5.18,3.49-7.48,5.6l-.15-.13h0Z"/>
    <path class="cls-24" d="m293,219.71s11.88-12.97,13.36-13.98,3.22-1.16,4.12-.49,3.65,7.55,3.65,7.55c0,0,.62-.52.58-1.97,0-.35-.28-1.78-.63-3.13-.28-1.08-.64-2.1-.86-2.52-.37-.73-.74-1.55-1.18-2.29-1.36-2.3-3.15-4.36-5.56-4.63-2.98-.09-7.52,1-9.16,2.25-1.07.59-3.56,4.82-4.96,8.62-.67,1.81-1.29,3.86-1.45,4.78-.14.81.01,1.98.39,2.79.77,1.63,1.23,2.35,1.69,3.04Z"/>
    <path d="m303.18,196.05c1.6-1.57,3.07-3.03,3.28-5.31,1.38,2.19-.97,5.14-3.28,5.31h0Z"/>
    <path d="m307.25,196.29c1.57-1.4,3.04-2.52,3.71-4.53.87,2.2-1.57,4.56-3.71,4.53h0Z"/>
  </g>
</svg>