<svg width="541" height="633" viewBox="0 0 541 633" fill="none" xmlns="http://www.w3.org/2000/svg">
<g opacity="0.7">
<path d="M264.769 142.529H268.654V0.557358H264.769V142.529Z" fill="#F4F4F4"/>
<path d="M264.769 0.556641H145V142.529H264.769V0.556641Z" fill="#F4F4F4"/>
<path opacity="0.05" d="M264.769 142.529H268.654V0.557358H264.769V142.529Z" fill="#292A2E"/>
<path opacity="0.05" d="M242.953 28.9551H166.818V114.131H242.953V28.9551Z" fill="#292A2E"/>
<path opacity="0.03" d="M242.95 28.9551H238.982V114.131H242.95V28.9551Z" fill="#292A2E"/>
<path d="M502.952 180.865H405V279.716H502.952V180.865Z" fill="#F4F4F4"/>
<path opacity="0.05" d="M485.109 198.873H422.844V261.71H485.109V198.873Z" fill="#292A2E"/>
<path d="M502.952 279.717H506.838V180.866H502.952V279.717Z" fill="#F4F4F4"/>
<path opacity="0.05" d="M502.952 279.717H506.838V180.866H502.952V279.717Z" fill="#292A2E"/>
<path opacity="0.03" d="M485.11 198.873H481.143V261.71H485.11V198.873Z" fill="#292A2E"/>
</g>
<path d="M226.662 30.0105H439.958C446.352 30.0105 451.543 38.0426 451.543 47.936V443.23C451.543 453.338 446.239 461.545 439.706 461.545H226.915C220.382 461.545 215.078 453.338 215.078 443.23V47.9353C215.078 38.0419 220.269 30.0098 226.663 30.0098L226.662 30.0105Z" fill="white"/>
<path d="M439.707 462.239H226.915C220.13 462.239 214.629 453.728 214.629 443.228V47.2381C214.629 37.3384 219.815 29.3125 226.214 29.3125H440.409C446.807 29.3125 451.994 37.3377 451.994 47.2381V443.228C451.994 453.728 446.492 462.239 439.707 462.239ZM215.529 47.9042V443.229C215.529 452.959 220.627 460.848 226.915 460.848H439.707C445.995 460.848 451.093 452.959 451.093 443.229V47.7302C451.093 38.3275 446.168 30.7054 440.091 30.7054H226.644C220.505 30.7054 215.529 38.4054 215.529 47.9042Z" fill="#292A2E"/>
<path d="M333.573 141.264C310.649 141.264 292 122.588 292 99.6318C292 76.6759 310.649 58 333.573 58C356.496 58 375.145 76.6759 375.145 99.6318C375.145 122.588 356.496 141.264 333.573 141.264ZM333.573 59.3153C311.374 59.3153 293.313 77.4013 293.313 99.6318C293.313 121.862 311.374 139.948 333.573 139.948C355.771 139.948 373.832 121.862 373.832 99.6318C373.832 77.4013 355.771 59.3153 333.573 59.3153Z" fill="#292A2E"/>
<path d="M354.284 112.37C355.118 112.928 355.37 114.045 354.853 114.908L352.589 118.687C351.988 119.709 351.017 120.46 349.879 120.785C346.115 121.819 337.815 122.027 324.511 108.705C311.208 95.382 311.416 87.0691 312.449 83.3013C312.773 82.1602 313.523 81.1882 314.542 80.5864L318.316 78.3188C319.177 77.8025 320.292 78.0531 320.849 78.8903L326.866 87.9293C327.411 88.7501 327.233 89.853 326.456 90.4594L323.076 93.09C322.344 93.6556 322.133 94.6731 322.582 95.484C323.573 97.2702 324.513 99.3754 329.167 104.042C333.82 108.708 335.929 109.643 337.712 110.636C338.523 111.085 339.537 110.874 340.101 110.14L342.73 106.757C343.336 105.978 344.438 105.799 345.257 106.346L354.284 112.37Z" fill="#2F2E41"/>
<path d="M333.572 288.527C310.649 288.527 292 269.852 292 246.896C292 223.94 310.649 205.264 333.572 205.264C356.494 205.264 375.144 223.94 375.144 246.896C375.144 269.852 356.495 288.527 333.572 288.527ZM333.572 206.579C311.373 206.579 293.313 224.665 293.313 246.896C293.313 269.126 311.374 287.212 333.572 287.212C355.77 287.212 373.831 269.126 373.831 246.896C373.831 224.665 355.771 206.579 333.572 206.579Z" fill="#292A2E"/>
<path opacity="0.6" d="M354.994 261.527H312.316C311.316 261.533 310.502 260.725 310.497 259.725L310.348 234.11C310.342 233.217 311.061 232.49 311.952 232.485L355.024 232.264C355.914 232.259 356.639 232.978 356.645 233.869L356.794 259.706C356.799 260.707 355.993 261.522 354.994 261.527Z" fill="#2F2E41"/>
<path d="M356.185 232.748C353.637 234.623 335.13 248.263 335.111 248.276C333.869 248.848 333.062 248.828 331.833 248.21L310.785 232.998C311.074 232.683 311.494 232.492 311.954 232.485L355.023 232.262C355.476 232.262 355.89 232.446 356.185 232.748Z" fill="#2F2E41"/>
<path d="M333.572 435.791C310.649 435.791 292 417.115 292 394.159C292 371.203 310.649 352.527 333.572 352.527C356.496 352.527 375.145 371.203 375.145 394.159C375.145 417.115 356.496 435.791 333.572 435.791ZM333.572 353.843C311.374 353.843 293.313 371.929 293.313 394.159C293.313 416.39 311.374 434.476 333.572 434.476C355.771 434.476 373.832 416.39 373.832 394.159C373.832 371.929 355.771 353.843 333.572 353.843Z" fill="#292A2E"/>
<path opacity="0.6" d="M359.451 400.157V374.236H329.586V394.574H351.668L359.451 400.157Z" fill="#2F2E41"/>
<path d="M307.693 418.996V383.939H348.085V411.445H318.22L307.693 418.996Z" fill="#2F2E41"/>
<path d="M316.848 401.466C318.781 401.466 320.348 399.896 320.348 397.96C320.348 396.024 318.781 394.455 316.848 394.455C314.915 394.455 313.348 396.024 313.348 397.96C313.348 399.896 314.915 401.466 316.848 401.466Z" fill="white"/>
<path d="M327.889 401.466C329.822 401.466 331.389 399.896 331.389 397.96C331.389 396.024 329.822 394.455 327.889 394.455C325.956 394.455 324.389 396.024 324.389 397.96C324.389 399.896 325.956 401.466 327.889 401.466Z" fill="white"/>
<path d="M338.928 401.466C340.861 401.466 342.429 399.896 342.429 397.96C342.429 396.024 340.861 394.455 338.928 394.455C336.995 394.455 335.428 396.024 335.428 397.96C335.428 399.896 336.995 401.466 338.928 401.466Z" fill="white"/>
<path d="M293.11 101.658C293.6 100.461 294.701 100.07 295.674 100.134C295.672 100.091 295.636 99.9869 295.712 99.9876L293.969 98.8871C292.916 98.2223 292.423 96.8705 292.954 95.7436C293.505 94.5755 294.814 94.0876 295.946 94.4829C295.941 94.4593 295.955 94.4356 295.957 94.4112L295.242 93.9588C294.251 93.333 293.766 92.0898 294.194 90.999C294.77 89.531 296.489 89.0159 297.753 89.8143L299.406 90.8577C299.41 90.848 299.405 90.8375 299.411 90.8285C299.417 90.8167 299.434 90.8153 299.442 90.8048C298.659 90.0217 298.49 88.7778 299.106 87.8026C299.783 86.5545 301.525 86.6993 302.594 87.3738L305.794 89.76C306.797 90.5083 307.357 91.7083 307.29 92.9585C307.005 98.2815 305.928 112.168 302.519 110.015L294.124 104.715C293.156 104.103 292.677 102.718 293.11 101.658Z" fill="#FF9E85"/>
<path d="M287.098 95.8291C287.343 94.1272 288.964 92.9633 290.672 93.3009C292.274 93.6176 293.276 95.2409 293.043 96.8572L292.959 101.131C292.922 103.002 294.287 104.607 296.14 104.87C297.954 105.127 299.683 104.019 300.208 102.264L302.388 94.9667L300.016 91.4257C300.846 90.0899 301.543 86.6338 302.979 87.6633C304.196 88.4186 306.957 90.2472 307.715 91.9798C307.73 91.9867 309.144 106.846 308.374 108.085L301.564 126.291C298.299 131.548 282.541 127.48 282.541 127.48L287.096 95.8298L287.098 95.8291Z" fill="#FF9E85"/>
<path d="M171.224 222.489L269.432 214.223C276.664 214.413 282.959 208.401 285.611 201.655L311.341 121.009L277.683 107.777L254.97 176.859L168.6 182.904L171.224 222.489Z" fill="#3362AC"/>
<path d="M114.202 602.197C114.202 602.197 117.345 618.488 132.598 619.396C147.851 620.304 144.543 632.455 144.543 632.455H86.2539V603.333L114.202 602.197Z" fill="#3362AC"/>
<path d="M96.2223 305.015C96.2223 305.015 96.4054 300.118 96.3664 311.227C96.2223 352.664 95.5032 399.995 93.7463 427.692C90.9223 472.217 83.6816 612.592 83.6816 612.592L121.984 612.27L159.109 303.332L96.223 305.016L96.2223 305.015Z" fill="#262626"/>
<path d="M139.477 353.881C139.477 353.881 141.064 383.952 141.358 391.011C142.039 407.337 142.276 424.241 142.276 443.407L148.313 393.164C148.313 393.164 143.895 377.418 139.477 353.881Z" fill="#0A0A0A"/>
<path d="M182.391 602.197C182.391 602.197 185.534 618.488 200.787 619.396C216.041 620.304 212.733 632.455 212.733 632.455H154.443V603.333L182.391 602.197Z" fill="#3362AC"/>
<path d="M200.937 308.234C200.937 308.234 204.329 449.857 203.832 456.779L189.588 611.52L151.918 612.216L155.589 451.182C155.589 451.182 152.999 406.761 142.266 365.513C136.759 344.348 133.487 322.664 132.404 300.82L200.937 308.234Z" fill="#262626"/>
<path d="M95.8069 305.012L95.6816 305.019C95.6816 305.019 95.7721 302.604 95.8069 305.012Z" fill="#333333"/>
<path d="M206.328 233.801C205.538 243.081 201.695 296.803 200.936 308.234H96.2643C95.6733 297.924 93.0178 252.843 90.7757 232.682C88.6352 213.443 84.4357 203.811 87.5138 198.124C92.5437 188.828 106.289 183.457 115.661 182.188C121.384 181.413 170.175 180.857 170.292 180.857C174.125 180.857 196.441 182.66 201.374 186.458C210.3 193.331 207.707 217.617 206.328 233.8V233.801Z" fill="#3362AC"/>
<path d="M207.774 219.685C207.957 219.685 208.11 219.542 208.121 219.357L208.965 206.012C208.977 205.82 208.83 205.656 208.638 205.645C208.45 205.637 208.282 205.781 208.271 205.972L207.426 219.317C207.415 219.509 207.562 219.673 207.754 219.684C207.76 219.684 207.767 219.685 207.774 219.685Z" fill="#0C0C0C"/>
<path d="M73.6331 307.624C67.788 307.624 62.2166 304.941 58.5733 300.274C54.5019 295.06 53.4167 288.11 55.7054 281.903C56.7864 278.97 82.1378 211.837 86.9638 199.398L122.7 213.878C119.987 220.873 110.155 247.382 102.256 268.737L115.379 267.311L119.509 305.307L75.7011 307.511C75.0099 307.587 74.3194 307.624 73.6331 307.624Z" fill="#3362AC"/>
<path d="M182.761 179.583C182.644 179.568 179.433 191.65 154.376 189.77C137.029 188.47 132.8 176.663 132.402 176.663C134.273 176.266 137.31 175.853 138.14 175.41C140.872 173.942 142.862 172.156 143.863 168.322C144.646 165.323 145.045 153.78 145.045 147.988L171.737 153.986C171.366 160.519 168.762 175.665 177.888 178.345C179.407 178.789 181.043 179.197 182.76 179.584L182.761 179.583Z" fill="#FF9E85"/>
<path d="M170.816 166.83C160.293 167.66 146.775 163.217 144.207 149.178L141.891 136.51C139.323 122.47 144.615 109.74 157.834 107.323C171.053 104.905 183.015 114.479 185.583 128.519L186.609 134.127C187.594 139.514 189.591 165.348 170.816 166.83H170.816Z" fill="#FF9E85"/>
<path d="M180.572 153.94C178.683 144.449 177.817 138.117 177.918 131.437C180.578 126.77 179.878 121.414 179.274 119.099C181.881 120.522 182.972 120.677 185.426 120.677C185.426 120.677 181.026 103.018 166.072 98.267C163.322 97.1964 156.301 95.8446 146.978 97.1233C139.048 98.2106 119.503 104.14 116.71 126.145H116.709C116.709 126.145 116.709 126.151 116.708 126.158C116.616 126.887 114.739 147.162 110.997 156.89C105.968 169.967 98.9065 174.03 99.0854 189.118C99.3158 208.525 134.994 211.109 156.515 209.657C178.035 208.205 190.048 201.129 190.204 187.143C190.379 171.472 184.352 172.928 180.572 153.94Z" fill="#0A0A0A"/>
<path d="M94.0355 233.066L93.3398 233.09L95.9117 308.242L96.6074 308.219L94.0355 233.066Z" fill="#0C0C0C"/>
<path d="M540.597 633H0.403241C0.180367 633 0 632.776 0 632.5C0 632.224 0.180367 632 0.403241 632H540.597C540.82 632 541 632.224 541 632.5C541 632.776 540.82 633 540.597 633Z" fill="#292A2E"/>
<path d="M425.127 541.718C424.949 541.718 424.77 541.65 424.635 541.514C423.654 540.533 422.055 522.539 417.749 468.966C415.987 447.045 414.323 426.339 413.108 413.756C413.021 412.857 412.673 412.753 412.558 412.718C410.896 412.216 405.84 416.203 403.017 419.694C402.776 419.993 402.337 420.04 402.038 419.798C401.739 419.556 401.692 419.118 401.934 418.819C403.801 416.51 409.885 410.459 412.959 411.384C413.579 411.571 414.348 412.11 414.494 413.622C415.709 426.216 417.374 446.927 419.136 468.854C421.753 501.41 424.717 538.292 425.691 540.615C425.888 540.887 425.863 541.269 425.618 541.514C425.482 541.65 425.304 541.718 425.126 541.718H425.127Z" fill="#494949"/>
<path d="M411.319 436.845C422.87 427.586 426.698 413.175 419.87 404.656C413.042 396.138 398.143 396.738 386.592 405.997C375.041 415.256 371.213 429.667 378.041 438.186C384.869 446.704 399.768 446.104 411.319 436.845Z" fill="#2F2E41"/>
<path opacity="0.2" d="M411.319 436.845C422.87 427.586 426.698 413.175 419.87 404.656C413.042 396.138 398.143 396.738 386.592 405.997C375.041 415.256 371.213 429.667 378.041 438.186C384.869 446.704 399.768 446.104 411.319 436.845Z" fill="white"/>
<path d="M381.279 440.352C381.201 440.352 381.123 440.325 381.057 440.271C380.91 440.149 380.889 439.93 381.012 439.781L413.931 400.084C414.053 399.938 414.272 399.916 414.421 400.039C414.568 400.162 414.589 400.381 414.466 400.529L381.547 440.226C381.478 440.309 381.38 440.352 381.279 440.352Z" fill="white"/>
<path d="M432.308 533.207C432.232 533.207 432.155 533.194 432.079 533.168C431.716 533.042 431.524 532.645 431.65 532.282L444.015 496.721C444.757 494.587 446.511 492.996 448.708 492.466C450.904 491.935 453.19 492.551 454.825 494.112L461.362 500.356C461.639 500.622 461.65 501.063 461.384 501.341C461.118 501.618 460.677 501.628 460.4 501.363L453.863 495.118C452.573 493.886 450.769 493.4 449.034 493.819C447.301 494.237 445.916 495.493 445.33 497.177L432.965 532.738C432.865 533.026 432.596 533.206 432.308 533.206V533.207Z" fill="#494949"/>
<path d="M479.625 520.047C488.185 513.271 487.676 498.369 478.488 486.761C469.301 475.154 454.913 471.237 446.353 478.013C437.793 484.788 438.302 499.691 447.489 511.298C456.677 522.906 471.064 526.822 479.625 520.047Z" fill="#2F2E41"/>
<path d="M419.509 539.451C419.194 539.451 418.909 539.236 418.832 538.916L398.081 452.153C397.788 450.923 396.878 450.01 395.649 449.709C394.421 449.411 393.192 449.802 392.365 450.758L385.969 458.15C385.717 458.44 385.277 458.472 384.987 458.221C384.696 457.969 384.664 457.529 384.916 457.238L391.312 449.847C392.471 448.507 394.258 447.937 395.979 448.356C397.699 448.776 399.024 450.106 399.435 451.828L420.186 538.592C420.275 538.966 420.045 539.341 419.671 539.431C419.617 539.444 419.562 539.449 419.509 539.449V539.451Z" fill="#494949"/>
<path d="M411.856 477.426C414.379 462.839 407.703 449.506 396.945 447.646C386.188 445.785 375.422 456.102 372.899 470.689C370.377 485.276 377.053 498.61 387.81 500.47C398.568 502.33 409.334 492.013 411.856 477.426Z" fill="#2F2E41"/>
<path d="M425.126 541.719C425.097 541.719 425.068 541.718 425.039 541.715C424.658 541.667 424.386 541.32 424.433 540.938L437.684 433.353C437.983 430.927 439.619 428.971 441.954 428.247C444.289 427.524 446.745 428.213 448.363 430.045L463.508 447.199C463.763 447.487 463.735 447.927 463.447 448.182C463.159 448.437 462.719 448.409 462.465 448.121L447.32 430.968C446.069 429.551 444.172 429.019 442.366 429.577C440.561 430.136 439.296 431.648 439.066 433.524L425.815 541.109C425.772 541.462 425.472 541.72 425.126 541.72V541.719Z" fill="#494949"/>
<path d="M479.044 456.731C484.329 447.178 478.111 433.625 465.157 426.459C452.204 419.294 437.419 421.229 432.134 430.783C426.85 440.336 433.068 453.889 446.021 461.054C458.975 468.219 473.76 466.284 479.044 456.731Z" fill="#2F2E41"/>
<path opacity="0.2" d="M479.625 520.047C488.185 513.271 487.676 498.369 478.488 486.761C469.301 475.154 454.913 471.237 446.353 478.013C437.793 484.788 438.302 499.691 447.489 511.298C456.677 522.906 471.064 526.822 479.625 520.047Z" fill="white"/>
<path opacity="0.5" d="M411.856 477.426C414.379 462.839 407.703 449.506 396.945 447.646C386.188 445.785 375.422 456.102 372.899 470.689C370.377 485.276 377.053 498.61 387.81 500.47C398.568 502.33 409.334 492.013 411.856 477.426Z" fill="white"/>
<path opacity="0.5" d="M479.044 456.731C484.329 447.178 478.111 433.625 465.157 426.459C452.204 419.294 437.419 421.229 432.134 430.783C426.85 440.336 433.068 453.889 446.021 461.054C458.975 468.219 473.76 466.284 479.044 456.731Z" fill="white"/>
<path d="M442.074 633.002H408.177L402.561 524.549H447.691L442.074 633.002Z" fill="#292A2E"/>
<path opacity="0.3" d="M442.074 633.002H408.177L402.561 524.549H447.691L442.074 633.002Z" fill="white"/>
<path d="M479.625 520.39C479.522 520.39 479.42 520.345 479.351 520.258L446.079 478.225C445.96 478.074 445.985 477.855 446.136 477.735C446.288 477.616 446.506 477.642 446.625 477.792L479.898 519.826C480.017 519.977 479.992 520.196 479.84 520.315C479.776 520.366 479.7 520.39 479.625 520.39Z" fill="white"/>
<path d="M476.831 460.098C476.76 460.098 476.688 460.076 476.627 460.031L434.049 428.942C433.894 428.829 433.86 428.611 433.973 428.455C434.087 428.3 434.305 428.266 434.46 428.38L477.037 459.469C477.192 459.582 477.227 459.8 477.113 459.955C477.045 460.049 476.939 460.098 476.832 460.098H476.831Z" fill="white"/>
<path d="M386.079 500.016C386.049 500.016 386.019 500.013 385.989 500.005C385.803 499.955 385.693 499.764 385.742 499.579L399.296 448.797C399.346 448.611 399.54 448.502 399.722 448.551C399.908 448.6 400.018 448.791 399.969 448.977L386.415 499.758C386.373 499.914 386.232 500.016 386.079 500.016Z" fill="white"/>
</svg>
