<svg width="391" height="366" viewBox="0 0 391 366" fill="none" xmlns="http://www.w3.org/2000/svg">
<path d="M15.097 365.326C15.097 365.326 57.6846 334.5 67.9891 322.532C78.2937 310.564 89.3356 295.701 95.1988 271.121C101.062 246.542 104.064 202.105 103.766 190.696C103.467 179.286 103.766 174.36 103.766 174.36H59.44C59.44 174.36 61.0375 267.566 49.8025 291.536C38.5676 315.507 28.0874 329.032 15.7992 338.596C3.51093 348.161 0 351.563 0 351.563L15.097 365.326Z" fill="#0B5548"/>
<path d="M57.2398 103.786H101.487V75.6221C101.487 75.6221 101.361 60.5607 102.298 46.4088C103.235 32.257 104.784 14.4142 106.262 9.04386C107.739 3.67352 107.937 2.92133 107.937 2.92133V0H49.8172V2.92133C49.8172 2.92133 52.0872 10.7232 52.7358 14.4492C53.3844 18.1752 56.249 46.9336 56.4471 52.234C56.6453 57.5344 56.8975 61.3478 57.0597 80.1178C57.0597 88.0946 57.0597 103.786 57.0597 103.786" fill="#0B5548"/>
<path d="M32.4955 147.754V130.585C32.4955 124.567 32.1612 120.575 31.4925 118.608V118.195H39.4575V118.608C38.8675 120.496 38.5725 124.488 38.5725 130.585V150.291C38.5725 153.556 38.1988 156.899 37.4515 160.321C37.1368 161.894 36.1535 163.999 34.5015 166.634C34.1082 167.263 33.4002 168.05 32.3775 168.994C31.1975 170.095 29.1325 171.787 26.1825 174.068L24.0585 172.062C24.6092 171.708 25.5138 170.941 26.7725 169.761C29.1325 167.637 30.6665 165.1 31.3745 162.15C32.1218 159.2 32.4955 154.401 32.4955 147.754ZM59.7798 160.144C56.4758 160.144 54.1551 159.298 52.8178 157.607C51.5198 155.876 50.8708 153.221 50.8708 149.642V141.205C50.8708 137.468 50.2808 134.263 49.1008 131.588V131.175H57.3018V131.588C56.7118 133.673 56.4168 136.288 56.4168 139.435V148.698C56.4168 151.058 56.7118 152.749 57.3018 153.772C57.8918 154.795 59.3274 155.306 61.6088 155.306C63.8901 155.306 66.5648 154.224 69.6328 152.061V141.205C69.6328 137.39 69.0624 134.184 67.9218 131.588V131.175H76.0638V131.588C75.4738 133.673 75.1788 136.288 75.1788 139.435V149.406C75.1788 151.137 75.4738 152.848 76.0638 154.539C76.6538 156.191 77.3421 157.292 78.1288 157.843L78.1878 158.551L71.2848 160.203C70.6161 158.394 70.1441 156.663 69.8688 155.011C67.9414 156.663 66.1911 157.941 64.6178 158.846C63.0444 159.711 61.4318 160.144 59.7798 160.144ZM90.847 134.184C90.139 134.892 89.785 135.875 89.785 137.134C89.785 138.353 90.1783 139.317 90.965 140.025C91.7516 140.694 92.735 141.185 93.915 141.5C95.1343 141.815 96.4323 142.208 97.809 142.68C99.1856 143.152 100.464 143.663 101.644 144.214C102.863 144.725 103.866 145.571 104.653 146.751C105.44 147.931 105.833 149.367 105.833 151.058C105.833 154.047 104.732 156.309 102.529 157.843C100.326 159.377 97.4156 160.144 93.797 160.144C90.2176 160.144 87.0316 159.22 84.239 157.371C84.357 155.365 84.947 153.575 86.009 152.002C89.549 155.227 92.7743 156.84 95.685 156.84C96.9436 156.84 98.0646 156.584 99.048 156.073C99.992 155.247 100.464 154.146 100.464 152.769C100.464 151.353 99.9133 150.271 98.812 149.524C97.75 148.737 96.452 148.128 94.918 147.695C93.384 147.262 91.85 146.771 90.316 146.22C88.782 145.669 87.4643 144.804 86.363 143.624C85.301 142.444 84.77 140.91 84.77 139.022C84.77 136.269 85.7926 134.164 87.838 132.709C89.9226 131.214 92.5383 130.467 95.685 130.467C98.8316 130.467 101.919 131.136 104.948 132.473C104.594 134.204 103.906 135.934 102.883 137.665C100.09 134.872 97.1796 133.476 94.151 133.476C92.853 133.476 91.7516 133.712 90.847 134.184ZM120.288 152.887C120.288 154.972 120.918 156.014 122.176 156.014C123.238 156.014 125.028 155.385 127.545 154.126L128.784 156.191C127.526 157.056 125.952 157.941 124.064 158.846C122.176 159.711 120.446 160.144 118.872 160.144C117.299 160.144 116.217 159.652 115.627 158.669C115.037 157.686 114.742 156.27 114.742 154.421V134.538L109.432 134.833L110.848 130.998C111.556 131.077 112.815 131.155 114.624 131.234C114.546 129.267 114.428 127.497 114.27 125.924L120.288 124.39V131.175C122.412 131.096 125.303 130.86 128.961 130.467L127.309 135.069C125.185 134.754 122.845 134.558 120.288 134.479V152.887ZM135.873 151.294V139.848C135.873 136.347 134.889 133.909 132.923 132.532V131.824L141.242 130.408L141.596 130.998C141.478 132.139 141.419 133.771 141.419 135.895V149.819C141.419 153.752 141.91 156.84 142.894 159.082V159.495H134.929V159.082C135.558 157.233 135.873 154.637 135.873 151.294ZM140.829 117.723C141.379 118.195 141.655 119.336 141.655 121.145C141.655 121.578 141.635 121.971 141.596 122.325L141.124 122.738C139.55 123.171 137.682 123.485 135.519 123.682L134.988 123.446C134.398 122.423 134.103 121.066 134.103 119.375C134.103 119.178 134.103 118.982 134.103 118.785L134.575 118.372C136.463 117.743 138.272 117.428 140.003 117.428C140.199 117.428 140.475 117.526 140.829 117.723ZM167.535 130.467C170.367 130.467 172.55 131.372 174.084 133.181C175.657 134.99 176.444 137.586 176.444 140.969V149.465C176.444 153.202 177.034 156.407 178.214 159.082V159.495H169.895V159.082C170.564 157.115 170.898 154.5 170.898 151.235V142.208C170.898 139.927 170.544 138.216 169.836 137.075C169.167 135.895 167.791 135.305 165.706 135.305C163.621 135.305 160.947 136.308 157.682 138.314V149.465C157.682 153.28 158.252 156.486 159.393 159.082V159.495H151.133V159.082C151.802 157.115 152.136 154.5 152.136 151.235V141.205C152.136 139.514 151.782 137.862 151.074 136.249C150.405 134.597 149.619 133.496 148.714 132.945L148.655 132.237L156.384 130.408L156.738 130.998C157.053 132.453 157.289 133.928 157.446 135.423C158.901 134.282 160.022 133.437 160.809 132.886C161.635 132.335 162.677 131.804 163.936 131.293C165.195 130.742 166.394 130.467 167.535 130.467ZM197.24 160.144C193.11 160.144 189.884 158.866 187.564 156.309C185.243 153.752 184.083 150.389 184.083 146.22C184.083 142.011 185.381 138.334 187.977 135.187C190.573 132.04 193.798 130.467 197.653 130.467C204.693 130.467 208.214 134.813 208.214 143.506L206.031 145.63H190.337C190.337 148.934 191.045 151.412 192.461 153.064C193.877 154.716 195.784 155.542 198.184 155.542C199.128 155.542 200.465 155.267 202.196 154.716C203.926 154.126 205.46 153.438 206.798 152.651L208.273 154.893C207.525 155.64 205.893 156.702 203.376 158.079C200.898 159.456 198.852 160.144 197.24 160.144ZM196.591 133.417C194.939 133.417 193.66 133.791 192.756 134.538C192.008 135.561 191.418 136.859 190.986 138.432C190.553 140.005 190.337 141.382 190.337 142.562L202.432 142.09C202.432 136.308 200.485 133.417 196.591 133.417ZM241.947 156.427C245.015 156.427 247.493 155.581 249.381 153.89C251.269 152.159 252.213 149.878 252.213 147.046C252.213 144.214 251.289 142.07 249.44 140.615C247.631 139.16 244.602 138.393 240.354 138.314L237.463 138.255C237.463 148.088 237.542 153.969 237.699 155.896C238.879 156.25 240.295 156.427 241.947 156.427ZM237.463 135.246H242.124C247.473 135.246 250.148 132.866 250.148 128.107C250.148 125.629 249.479 123.839 248.142 122.738C246.844 121.597 245.054 121.027 242.773 121.027C240.531 121.027 238.8 121.086 237.581 121.204C237.502 121.794 237.463 126.475 237.463 135.246ZM233.923 118.313L243.481 118.195C251.898 118.195 256.107 120.948 256.107 126.455C256.107 128.658 255.556 130.546 254.455 132.119C253.354 133.653 251.997 134.853 250.384 135.718C252.075 136.033 253.786 136.878 255.517 138.255C256.54 139.002 257.346 140.104 257.936 141.559C258.565 143.014 258.88 144.706 258.88 146.633C258.88 149.583 258.172 152.041 256.756 154.008C255.34 155.975 253.491 157.41 251.21 158.315C248.968 159.18 246.156 159.613 242.773 159.613L235.752 159.318L230.265 159.495V159.082C231.012 157.076 231.386 154.264 231.386 150.645V127.635C231.386 123.702 231.071 120.693 230.442 118.608V118.195L233.923 118.313ZM282.312 147.695C280.699 147.105 278.831 146.81 276.707 146.81C274.622 146.81 273.108 147.144 272.164 147.813C271.574 148.718 271.279 149.937 271.279 151.471C271.279 152.966 271.692 154.146 272.518 155.011C273.344 155.876 274.367 156.309 275.586 156.309C276.845 156.309 278.123 155.994 279.421 155.365C280.719 154.696 281.683 153.988 282.312 153.241V147.695ZM283.256 156.191C280.857 158.826 278.143 160.144 275.114 160.144C272.125 160.144 269.765 159.495 268.034 158.197C266.343 156.899 265.497 154.814 265.497 151.943C265.497 149.032 266.5 146.948 268.506 145.689C270.551 144.43 273.423 143.801 277.12 143.801L282.312 143.978V140.615C282.312 138.53 281.801 136.839 280.778 135.541C279.755 134.243 278.202 133.594 276.117 133.594C274.583 133.633 272.125 135.108 268.742 138.019C267.601 136.564 266.795 134.676 266.323 132.355C270.217 131.096 273.796 130.467 277.061 130.467C280.326 130.467 282.941 131.313 284.908 133.004C286.875 134.695 287.858 137.095 287.858 140.202V150.114C287.897 151.884 288.173 153.536 288.684 155.07C289.235 156.565 289.943 157.607 290.808 158.197L290.926 158.787L284.613 160.321C284.102 159.062 283.649 157.686 283.256 156.191ZM298.296 151.294V139.848C298.296 136.347 297.312 133.909 295.346 132.532V131.824L303.665 130.408L304.019 130.998C303.901 132.139 303.842 133.771 303.842 135.895V149.819C303.842 153.752 304.333 156.84 305.317 159.082V159.495H297.352V159.082C297.981 157.233 298.296 154.637 298.296 151.294ZM303.252 117.723C303.802 118.195 304.078 119.336 304.078 121.145C304.078 121.578 304.058 121.971 304.019 122.325L303.547 122.738C301.973 123.171 300.105 123.485 297.942 123.682L297.411 123.446C296.821 122.423 296.526 121.066 296.526 119.375C296.526 119.178 296.526 118.982 296.526 118.785L296.998 118.372C298.886 117.743 300.695 117.428 302.426 117.428C302.622 117.428 302.898 117.526 303.252 117.723ZM320.459 159.495H312.848V158.787C313.516 156.82 313.851 153.713 313.851 149.465V124.862C313.851 121.715 312.946 119.277 311.137 117.546V116.838L319.22 115.422L319.574 116.012C319.456 117.153 319.397 120.929 319.397 127.34L319.456 149.465C319.456 153.713 319.79 156.82 320.459 158.787V159.495ZM336.015 159.495H328.404V158.787C329.073 156.82 329.407 153.713 329.407 149.465V124.862C329.407 121.715 328.503 119.277 326.693 117.546V116.838L334.776 115.422L335.13 116.012C335.012 117.153 334.953 120.929 334.953 127.34L335.012 149.465C335.012 153.713 335.347 156.82 336.015 158.787V159.495ZM355.053 160.144C350.923 160.144 347.698 158.866 345.377 156.309C343.056 153.752 341.896 150.389 341.896 146.22C341.896 142.011 343.194 138.334 345.79 135.187C348.386 132.04 351.611 130.467 355.466 130.467C362.507 130.467 366.027 134.813 366.027 143.506L363.844 145.63H348.15C348.15 148.934 348.858 151.412 350.274 153.064C351.69 154.716 353.598 155.542 355.997 155.542C356.941 155.542 358.278 155.267 360.009 154.716C361.74 154.126 363.274 153.438 364.611 152.651L366.086 154.893C365.339 155.64 363.706 156.702 361.189 158.079C358.711 159.456 356.666 160.144 355.053 160.144ZM354.404 133.417C352.752 133.417 351.474 133.791 350.569 134.538C349.822 135.561 349.232 136.859 348.799 138.432C348.366 140.005 348.15 141.382 348.15 142.562L360.245 142.09C360.245 136.308 358.298 133.417 354.404 133.417ZM380.372 152.887C380.372 154.972 381.002 156.014 382.26 156.014C383.322 156.014 385.112 155.385 387.629 154.126L388.868 156.191C387.61 157.056 386.036 157.941 384.148 158.846C382.26 159.711 380.53 160.144 378.956 160.144C377.383 160.144 376.301 159.652 375.711 158.669C375.121 157.686 374.826 156.27 374.826 154.421V134.538L369.516 134.833L370.932 130.998C371.64 131.077 372.899 131.155 374.708 131.234C374.63 129.267 374.512 127.497 374.354 125.924L380.372 124.39V131.175C382.496 131.096 385.387 130.86 389.045 130.467L387.393 135.069C385.269 134.754 382.929 134.558 380.372 134.479V152.887Z" fill="#0B5548"/>
<path d="M198.288 174.377C198.288 174.377 198.717 216.004 197.232 229.297C195.748 242.59 193.077 256.219 190.966 262.074V264.884L227.592 263.689L275.96 265.692C275.96 265.692 305.232 264.817 321.228 259.802C337.225 254.788 351.572 246.947 361.071 236.011C370.569 225.074 377.562 211.983 379.343 201.282C381.124 190.58 381.932 174.36 381.932 174.36H337.406C337.406 174.36 337.719 186.138 336.614 191.96C335.509 197.782 332.343 210.469 326.72 217.401C321.096 224.333 313.527 232.763 302.297 237.424C291.746 241.883 280.421 244.121 269.001 244.003C259.107 243.616 247.068 242.892 240.653 240.385C239.317 232.814 239.136 174.394 239.136 174.394L198.288 174.377Z" fill="#0B5548"/>
<path d="M197.288 103.698V54.5055C197.288 51.4298 196.651 39.0223 196.148 33.7448C195.645 28.4673 194.471 18.2093 193.599 13.7705C192.727 9.33181 190.966 2.91837 190.966 2.91837V0L214.595 0.838814L279.513 0C279.513 0 298.548 0 308.543 2.04461C318.538 4.08922 328.097 6.06393 334.939 9.62889C341.781 13.1938 350.686 18.7859 354.862 24.7974C358.724 30.0175 361.613 35.9447 363.382 42.2727C365.153 50.0095 365.719 57.9927 365.059 65.9168C364.239 73.5519 362.375 81.0255 359.524 88.1104C357.41 92.4941 354.983 96.7058 352.263 100.71C351.571 101.781 350.791 102.786 349.932 103.716H315.083C317.517 100.457 319.53 96.8786 321.07 93.0734C323.502 86.5371 324.742 79.5853 324.726 72.5749C324.642 62.8412 324.575 53.6317 320.953 46.362C317.33 39.0922 315.435 34.6535 309.213 30.1973C301.968 24.7984 293.491 21.4724 284.628 20.5509C272.755 18.9607 239.466 21.2849 239.466 21.2849L238.292 103.786L197.288 103.698Z" fill="#0B5548"/>
</svg>
