<?xml version="1.0" encoding="UTF-8"?>
<svg id="Calque_1" data-name="Calque 1" xmlns="http://www.w3.org/2000/svg" viewBox="0 0 595.28 841.89">
  <defs>
    <style>
      .cls-1 {
        stroke-width: 2px;
      }

      .cls-1, .cls-2 {
        fill: #fff;
        stroke: #1d1d1b;
        stroke-miterlimit: 10;
      }
    </style>
  </defs>
  <text/>
  <g>
    <g>
      <g>
        <path class="cls-1" d="m166.52,111.54c-7.95,7.61-19.68,9.99-30.09,6.55-6.1-1.75-12.06-5.62-17.76-7.94-24.5-2.2-49.61-.04-74.3-.83-.04-.04-.09-.08-.13-.12,5.5-6.7,2.97-22.24,3.48-31.15,0-6.18-.02-12.35,0-18.53-.38-4.64,1.75-8.94-3.61-11.21-.01-.1-.03-.2-.04-.3,12.66-9.92,16.99-13.04,30.34-1.57.5.54,2.37.96,2.06,1.77-4.37.8-3.38,5.78-3.46,9.07-.05,5.86.01,11.72,0,17.58-.11,6.87.03,13.74,0,20.61.32,4.59-2.04,14.53,5.32,13.19,3.72-.84,3.44-5.23,3.33-8.24,0-6.09-.01-12.17.03-18.26-.05-9.04-.02-18.08-.02-27.12-.26-4.2,1.44-10.19-3.52-11.72l-.09-.1c-.03-.11-.06-.22-.1-.33.24-.42.66-.29,1.01-.29,5.54.03,11.09-.08,16.63.04,0,.22,0,.43,0,.65-.44.23-1.53,1.02-1.76,1.19s-.71.78-.76,1.14-.37,40.03-.32,59.9c1.44,5.11,7.76,3.89,8.29-1.12-.5-19.5.76-39.21-.49-58.61-.67-.98-1.38-1.91-2.55-2.31-.05-.29-.11-.58-.16-.87,5.49-1.64,11.05-3.56,16.83-3.47,5.03.5,9.81,2,14.63,3.43.39.11.45.31.37.64-4.94,1.71-3.2,7.49-3.49,11.51.33,3.75-1.5,9.79,3.43,11.04-1.47,1.65-4.99,3.86-5.36,5.91.81,4.7,1.11,9.59,2.07,14.21,1,6.54,1.8,13.11,2.93,19.65.55,3.12.36,6.55,2.22,9.27,1.57,1.8,4.31,2.24,6.58,2.6,4.88-.55,3.23-7.01,3.5-10.44,1.22-13.76-3.47-26.65-6.81-39.8-1.02-5.85-.23-11.95-.47-17.89.31-3.12-1.3-4.4-3.43-6.08.05-.09.09-.18.14-.27,16.21,4.35,15.69,4.47,32.02-.22.23.48.13.69-.32.7-4.83,1.81-2.82,9.46-2.86,13.63-.06,5.66-.62,11.08-2.38,16.37-3.5,11.46-5.82,23.11-4.97,35.15-1.35,13.04,6.96,8.53,13.15,2.53,3.58-3.72,9.38-.32,10.5-6.01.43-17.88-.01-35.81.15-53.71-5.88,0-7.08,4.51-7.18,9.4-.58,0-1.17,0-1.75,0-.04-.05-.08-.1-.12-.16-.15-4.04-.01-8.09-.06-12.14.31-2.36-1.28-4.38-3.43-5.2-.07-.62-.07-.63.6-.79,3.6-.89,7.09-1.72,10.71-2.63-5.39-5.93-.55-15.7,7.38-15.03,7.36.38,10.82,9.8,5.78,15.1,3.64.86,7.26,1.9,10.89,2.79.54.14.53.16.42.65-2.45.6-3.81,2.96-3.47,5.43-.05,3.99.11,7.99-.08,11.98-.04.03-.08.06-.13.09h-1.66c-.1-4.32-1.78-9.63-7.05-9.44,0,14.61-.05,29.24.02,43.86.6,4.18-2.21,12.48,3.66,13.43,3.34-.4,8.57,1.43,10.4-2.29,1.06-16.48.07-33.24.4-49.79.09-3.21.5-7.45-3.5-8.34,14.39-12.18,18.11-12.08,32.33.03-5.03,1.08-3.39,7.23-3.64,11.03,0,7.58.03,15.15-.03,22.73.19,7.64-.21,15.36.15,22.97.66,4.84,7.69,4.61,8.26-.15.58-18.36-.04-36.84.33-55.23.23-3.07-.61-5.13-3.79-6,.05-.26.11-.52.16-.78,5.87-.19,11.75-.17,17.61,0,0,.23,0,.45,0,.68-5.3,2.05-2.78,9.17-3.34,13.56,0,6.98,0,13.95,0,20.93-.06,7.62.04,15.23,0,22.85-.09,2.75-.27,6.46,3.02,7.37.53.03.63.52.46.94-.05.03-.11.07-.16.1-26.25.32-52.53-.32-78.76.22-1.52.28-3.09.83-4.2,2.01Zm-107.91-42.63h3.48c0-4.04-.03-7.92,0-11.94.02-2.44.39-7.08-1.64-7.17s-1.82,4.87-1.84,7.17c-.05,3.94,0,11.94,0,11.94Zm153.99,37.44c.12,3.1,3.2,3.25,3.34,0,.05-8.82.04-17.65.05-26.46h-3.47c.02,8.85-.02,17.63.09,26.46Zm-67-57.69c-2.82,8.97,1.34,28.56,1.34,28.56,0,0,3.63-23.72,1.14-28.47-.52-1-2.12-1.22-2.48-.08Zm-33.76,7.83s-.07,7.92,0,11.87c1.19-1.11,3.02-2.13,3.44-3.76v-12.72c-.12-1.16-1.01-2.67-2.35-1.88-1.29,1.36-1.1,6.49-1.1,6.49Zm5.66,43.62c-1.14-6.99-1.66-14.03-2.94-20.98-3.02,2.52-2.64.85-2.61,5.01.02,6.55-.02,13.11-.05,19.66,1.16,8.16,8.09,5.24,5.6-3.69Zm95.04-43.14c-.02,3.99-.03,7.99-.03,11.99.05.04.11.08.16.13h3.3c-.28-6.09.57-12.3-.33-18.28-.52-1.08-1.81-1.2-2.55-.25-.97,1.91-.35,4.33-.54,6.42ZM58.6,107.12c.27,1.85,3.25,1.87,3.48.07v-27.54h-3.48v27.47Zm126.3-73.8c-.59-4.06-6.36-3.66-6.65.28-.07,4.73,7.16,4.52,6.65-.28Z"/>
        <path class="cls-1" d="m263.26,112.43c-3.7-.77-7.24-2.1-10.89-3.06-.38-.17-.98-.09-.99-.64,3.97-1.67,3.74-4.42,3.65-8.15,0-5.06,0-10.11,0-15.17,0-8.68,0-17.36,0-26.04-.41-4.13.98-10.42-.86-13.9-.33-.86-1.01-1.36-1.81-1.74,0-.28,0-.56,0-.84,5.33-.13,10.68-.11,16.01,0,.05.27.11.55.16.82-1.87.92-2.98,3.07-2.68,5.11,0,3.52,0,7.04,0,10.55,0,8.41,0,16.83,0,25.24,0,3.97,0,12.56,0,16.46-.12,1.55,3.45,1.29,3.29-.2,0,0,0-14.51,0-14.51,6.27-2.7,11.16-8.22,14.79-13.89,1.36-1.82,6.49-13.11,1.62-12-1.46.65-4.87,3.47-5.35,3.84,3.33-5.87,7.05-12.44,13.13-16.62-2.23,4.4-3.08,7.43-2.51,12.5.63,5.5-.72,8.69-4.09,15.51-1.76,3.69-3.98,7.14-4.55,7.89-1.81,2.38-2.12,2.74-2.12,6.29,0,4.99-.27,10.07.15,15.02.43,3.52,3.94,3.19,3.29,4.37-6.68,1.6-13.23,4.61-20.26,3.16Z"/>
        <path class="cls-1" d="m28.2,84.93v13.58s-.53,10.02,3.97,10.12v.88c-4.15.02-16.37,0-18.23-.04,0-.18,0-.36,0-.53,3.89-1.04,3.34-8.99,3.34-8.99v-13.9c.03-10.44,0-31.32,0-31.32,0,0,.12-7.12-.58-8.95-.02-.05-2.26-2.08-2.26-2.08,0,0-.63-.43-.57-1.06,2.23-.24,6.69-1.8,6.8-1.81,11.36-3.89,15.01-.35,25.15,1.8.04.04.08.07.12.11.09.32,0,.53-.33.65-2.02.88-2.99,2.77-2.99,5.27,0,5.29,0,10.42,0,15.75-3.79.04-7.48.03-11.27.01-.23-4.61.49-9.13-.33-13.63-.83-1.93-2.9-.45-2.79,1.23-.08,5.63,0,11.3-.03,16.93,2.97.02,6.87.69,7.97-2.88.17-.52.21-.54.95-.46.16,5.87.03,11.76.03,17.63-.43.19-.65.1-.78-.25-1.19-3.46-5.05-3.1-8.02-3.12-.05.03-.09.07-.14.1,0,1.65-.01,4.95-.01,4.95Z"/>
      </g>
      <path class="cls-2" d="m162.73,92.88c.27,1.03.75,1.72.89,1.91.26.36,1.14,1.5,3.62,2.42,2.6.96,3.88.54,4.09.99l-16.47,11.13c-.05-2.22,0-5.83.16-7.71-1.87,2.81-7.9,12.87-8.84,15.36,8.82-4.69,11.14-6.13,32.21-17.58,3.48-1.89,10.09-5.13,13.53-9.91.89-1.24,3.35-5.16,3.56-10.57.11-2.76-.5-6.47-1.72-8.64-.54-.96-1.09-1.92-1.29-3.04-.25-1.38-.12-1.95-.11-2.23.03-1.81.28-1.84.24-2.82-.83.6-1.66,2.22-2.48,4.93-.75,2.49-.78,4.49-.81,6.08-.03,1.85.15,2.56.22,2.56.13,0,.31-2.82,1.33-4.35.23-.35.6-.72.95-.66.96.16,1.12,3.62,1.15,4.15.08,1.64.19,5.08-1.83,8.84-1.72,3.19-4.06,4.9-5.46,5.9-3.01,2.15-5.41,2.66-6.84,2.9.47-.35,1.26-.92,2.84-2.57,2.45-2.56,3.63-5.17,4.16-6.4,1.06-2.43,1.35-4.48,1.93-8.58.38-2.66.73-4.4.94-7.08.07-.96.49-2.91,1.06-4.3.52-1.28.79-1.45,1.23-1.98-.65-.07-1.63-.08-2.62.16-.69.17-2.74,1-3.99,3.12-.17.29-.58,1.03-.97,3.46-.45,2.8-.18,3.55-.42,5.72-.09.84-.45,3.56-1.87,6.64-.65,1.41-1.42,3.03-3.04,4.59-1.49,1.44-3.23,2.37-3.32,2.25-.07-.09.82-.76,1.73-1.73,1.73-1.83,2.55-3.67,3.2-5.15.59-1.35,1.86-4.32,1.99-8.19.09-2.75.21-3.85.44-6.06.07-.65.17-1.54.77-2.42.77-1.14,1.86-1.52,1.77-1.73-.09-.22-1.41,0-2.68.54-.75.32-2.75,1.17-3.99,3.22-.23.38-.42.79-1.07,3.52-.93,3.94-.71,3.89-1.19,5.38-.38,1.17-1.06,3.22-2.74,5.21-1.06,1.26-2.31,2.24-2.38,2.17-.05-.05.51-.62,1.17-1.53.97-1.33,1.51-2.47,1.85-3.2.67-1.43,1.32-2.82,1.55-4.77.1-.8.25-2.25-.22-3.99-.44-1.59-1.31-3.1-1.55-3.02-.13.04-.03.52.02,1.27,0,0,.1,1.63-.26,3.4-.47,2.29-2,3.85-2.74,4.61-1.65,1.69-3.56,2.59-3.62,2.5-.04-.05.54-.44,1.37-1.23,1.02-.97,2.1-1.99,2.82-3.5.75-1.59.78-3.02.81-4.55.02-1.31-.12-2.85-.32-2.86-.11,0-.13.42-.34.95-.54,1.35-1.79,2.05-2.44,2.42-1.32.74-3.08,1.22-3.43,1.31-3.77.92-7,2.22-7.93,2.66-3.84,1.8-5.49,5.55-5.86,6.66-1.92,5.9.09,11.71.62,13.38.22-.38.19-.32.81-1.22.47-.69,1.69-2.34,3.22-3.46.54-.4,2.07-1.49,4.21-1.67,1.68-.14,3.36.46,3.74.87,0,0-.46.6-.7,1.05-1.15,2.07-.73,4.29-.68,4.45Z"/>
    </g>
    <g>
      <polygon class="cls-1" points="24.85 227.44 54.81 227.44 49.14 219.55 49.11 187.12 56.45 187.12 63.85 194.64 63.85 158.64 56.45 165.67 49.11 165.67 49.11 139.77 63.85 139.77 69.89 156.3 69.89 125.72 24.85 125.72 30.52 133.62 30.52 219.55 24.85 227.44"/>
      <polygon class="cls-1" points="326.7 227.44 356.65 227.44 350.99 219.55 350.96 187.12 358.29 187.12 365.69 194.64 365.69 158.64 358.29 165.67 350.96 165.67 350.96 139.77 365.69 139.77 371.73 156.3 371.73 125.72 326.7 125.72 332.37 133.62 332.37 219.55 326.7 227.44"/>
      <polygon class="cls-1" points="98.96 134.47 98.94 134.47 98.94 133.61 104.62 125.72 74.67 125.72 80.33 133.6 80.34 219.55 74.67 227.44 104.62 227.44 98.96 219.56 98.96 134.47"/>
      <polygon class="cls-1" points="397.84 134.47 397.83 134.47 397.83 133.61 403.5 125.72 373.55 125.72 379.21 133.6 379.22 219.55 373.55 227.44 403.5 227.44 397.84 219.56 397.84 134.47"/>
      <polygon class="cls-1" points="505.85 134.47 505.84 134.47 505.84 133.61 511.51 125.72 481.56 125.72 487.22 133.6 487.23 167.26 474.78 167.26 474.78 134.47 474.77 134.47 474.77 133.61 480.44 125.72 450.49 125.72 456.15 133.6 456.16 219.55 450.49 227.44 480.44 227.44 474.78 219.56 474.78 185.89 487.23 185.89 487.24 219.55 481.56 227.44 511.51 227.44 505.85 219.56 505.85 134.47"/>
      <polygon class="cls-1" points="148.06 139.77 154.1 156.3 154.1 125.72 139.02 125.72 139.02 125.72 109.07 125.72 114.73 133.6 114.73 176.58 114.73 219.56 109.07 227.44 139.02 227.44 139.02 227.44 154.1 227.44 154.1 196.86 148.06 213.38 133.36 213.38 133.36 187.49 140.66 187.49 146.21 192.76 148.06 194.64 148.06 194.52 148.06 158.64 148.06 158.51 146.21 160.39 140.66 165.67 133.36 165.67 133.36 139.77 148.06 139.77"/>
      <polygon class="cls-1" points="301.82 139.77 307.86 156.3 307.86 125.72 292.78 125.72 292.78 125.72 262.83 125.72 268.48 133.6 268.49 176.58 268.48 219.56 262.83 227.44 292.78 227.44 292.78 227.44 307.86 227.44 307.86 196.86 301.82 213.38 287.12 213.38 287.12 187.49 294.42 187.49 299.97 192.76 301.82 194.64 301.82 194.52 301.82 158.64 301.82 158.51 299.97 160.39 294.42 165.67 287.12 165.67 287.12 139.77 301.82 139.77"/>
      <path class="cls-1" d="m546.13,125.47c7.75-8.32,2.33-22.96-9.15-23.56-12.44-1.04-20.02,14.26-11.57,23.55-5.67,1.41-16.3,7.8-16.3,7.8v3.07c3.4-.97,4.06,1.56,4.06,2.65v19.27c.06.08,2.01,0,2.93,0,.16-7.65,1.13-14.73,10.34-14.75-.05,5.51,0,11.03,0,16.54v60.31s-5.66,7.09-5.66,7.09h29.95l-5.66-7.08v-60.28s0,0,0,0c0-5.53.05-11.06,0-16.58,9.22.02,10.18,7.09,10.34,14.75.91,0,2.87.08,2.93,0v-19.27c0-1.1.66-3.62,4.06-2.65v-3.07s-10.59-6.36-16.27-7.79Zm-5.4-10.58c.79,7.34-10.27,7.66-10.17.43.44-6.02,9.26-6.64,10.17-.43Z"/>
      <path class="cls-1" d="m213.74,219.56l-13.83-38.05s8.91-8.01,8.91-15.78v-20.53c0-11.84-10.25-19.48-19.37-19.48h-29.95l5.66,7.88v85.95s-5.66,7.89-5.66,7.89h29.95l-5.66-7.88v-27.63l11.33,27.63-5.67,7.89h29.95l-5.66-7.88Zm-22.8-58.21c0,8.63-7.15,11.22-7.15,11.22v-36.87s7.15.92,7.15,7.58v18.06Z"/>
      <path class="cls-1" d="m242.27,138.32c4.21,0,8.66,1.58,10.46,4.16,1.81,2.59,6.94,13.62,6.94,13.62v-30.39l-4.62,4.97c-1.68-2.7-7.04-9.9-16.58-9.9-11.74,0-25.34,17.05-25.34,35.39,0,0-.04,40.93,0,41.07,1,17.5,14.06,33.23,25.34,33.23,4.5,0,8.05-1.6,10.74-3.58.02.02.03.04.05.06,3.33-2.19,5.54-4.73,6.17-5.51l4.24,5.99v-32.29s-5.13,11.04-6.94,13.62-6.25,4.16-10.46,4.16c-7.24,0-10.57-8.55-10.63-16.9h0v-40.61c0-8.42,3.33-17.11,10.63-17.11Z"/>
      <path class="cls-1" d="m447.88,185.58l5.67-7.89h-27.73l5.66,7.88v27.28c-6.43-.87-9.41-8.92-9.46-16.81,0,0,0,0,0,0v-40.61c0-8.42,3.33-17.11,10.63-17.11,4.21,0,8.66,1.58,10.46,4.16,1.81,2.59,6.94,13.62,6.94,13.62v-30.39l-4.62,4.97c-1.68-2.7-7.04-9.9-16.58-9.9-11.74,0-25.34,17.05-25.34,35.39,0,0-.04,40.93,0,41.07,1,17.5,14.06,33.23,25.34,33.23,12.58,0,16.05-6.01,17.34-8.92,1.16-2.63,1.47-7.31,1.64-10.87s.06-7.23.06-7.23v-17.02h-.01v-.86Z"/>
    </g>
  </g>
</svg>